%TF.GenerationSoftware,KiCad,Pcbnew,10.0.4*%
%TF.CreationDate,2026-08-07T21:49:41-07:00*%
%TF.ProjectId,ThermocoupleBoard,54686572-6d6f-4636-9f75-706c65426f61,rev?*%
%TF.SameCoordinates,Original*%
%TF.FileFunction,Drillmap*%
%TF.FilePolarity,Positive*%
%FSLAX45Y45*%
G04 Gerber Fmt 4.5, Leading zero omitted, Abs format (unit mm)*
G04 Created by KiCad (PCBNEW 10.0.4) date 2026-08-07 21:49:41*
%MOMM*%
%LPD*%
G01*
G04 APERTURE LIST*
%ADD10C,0.050000*%
%ADD11C,0.200000*%
%ADD12C,0.100000*%
%ADD13C,0.130000*%
%ADD14C,0.500000*%
G04 APERTURE END LIST*
D10*
X7370000Y-10360000D02*
X10880000Y-10360000D01*
X7380000Y-14290000D02*
X7370000Y-10360000D01*
X10880000Y-10360000D02*
X10880000Y-13040000D01*
X10880000Y-13040000D02*
X11160000Y-13040000D01*
X11160000Y-13040000D02*
X11160000Y-14290000D01*
X11160000Y-14290000D02*
X7380000Y-14290000D01*
D11*
D12*
X7535000Y-12145000D02*
X7565000Y-12175000D01*
X7565000Y-12145000D02*
X7535000Y-12175000D01*
X7555000Y-12015000D02*
X7585000Y-12045000D01*
X7585000Y-12015000D02*
X7555000Y-12045000D01*
X7605000Y-11385000D02*
X7635000Y-11415000D01*
X7635000Y-11385000D02*
X7605000Y-11415000D01*
X7645000Y-12435000D02*
X7675000Y-12465000D01*
X7675000Y-12435000D02*
X7645000Y-12465000D01*
X7645000Y-13345000D02*
X7675000Y-13375000D01*
X7675000Y-13345000D02*
X7645000Y-13375000D01*
X7945000Y-12415000D02*
X7975000Y-12445000D01*
X7975000Y-12415000D02*
X7945000Y-12445000D01*
X7955000Y-12145000D02*
X7985000Y-12175000D01*
X7985000Y-12145000D02*
X7955000Y-12175000D01*
X7965000Y-11645000D02*
X7995000Y-11675000D01*
X7995000Y-11645000D02*
X7965000Y-11675000D01*
X8185000Y-12425000D02*
X8215000Y-12455000D01*
X8215000Y-12425000D02*
X8185000Y-12455000D01*
X8205000Y-12685000D02*
X8235000Y-12715000D01*
X8235000Y-12685000D02*
X8205000Y-12715000D01*
X8425000Y-11715000D02*
X8455000Y-11745000D01*
X8455000Y-11715000D02*
X8425000Y-11745000D01*
X8535000Y-12965000D02*
X8565000Y-12995000D01*
X8565000Y-12965000D02*
X8535000Y-12995000D01*
X8575000Y-11395000D02*
X8605000Y-11425000D01*
X8605000Y-11395000D02*
X8575000Y-11425000D01*
X8595000Y-12285000D02*
X8625000Y-12315000D01*
X8625000Y-12285000D02*
X8595000Y-12315000D01*
X8705000Y-11715000D02*
X8735000Y-11745000D01*
X8735000Y-11715000D02*
X8705000Y-11745000D01*
X8725000Y-11515000D02*
X8755000Y-11545000D01*
X8755000Y-11515000D02*
X8725000Y-11545000D01*
X8795000Y-11195000D02*
X8825000Y-11225000D01*
X8825000Y-11195000D02*
X8795000Y-11225000D01*
X8905000Y-12165000D02*
X8935000Y-12195000D01*
X8935000Y-12165000D02*
X8905000Y-12195000D01*
X8935000Y-12435000D02*
X8965000Y-12465000D01*
X8965000Y-12435000D02*
X8935000Y-12465000D01*
X8975000Y-13315000D02*
X9005000Y-13345000D01*
X9005000Y-13315000D02*
X8975000Y-13345000D01*
X8985000Y-10735000D02*
X9015000Y-10765000D01*
X9015000Y-10735000D02*
X8985000Y-10765000D01*
X9025000Y-11225000D02*
X9055000Y-11255000D01*
X9055000Y-11225000D02*
X9025000Y-11255000D01*
X9075000Y-11785000D02*
X9105000Y-11815000D01*
X9105000Y-11785000D02*
X9075000Y-11815000D01*
X9095000Y-11995000D02*
X9125000Y-12025000D01*
X9125000Y-11995000D02*
X9095000Y-12025000D01*
X9143460Y-12553866D02*
X9173460Y-12583866D01*
X9173460Y-12553866D02*
X9143460Y-12583866D01*
X9203460Y-11633866D02*
X9233460Y-11663866D01*
X9233460Y-11633866D02*
X9203460Y-11663866D01*
X9205000Y-11455000D02*
X9235000Y-11485000D01*
X9235000Y-11455000D02*
X9205000Y-11485000D01*
X9253460Y-12253866D02*
X9283460Y-12283866D01*
X9283460Y-12253866D02*
X9253460Y-12283866D01*
X9263460Y-13043866D02*
X9293460Y-13073866D01*
X9293460Y-13043866D02*
X9263460Y-13073866D01*
X9275000Y-12545000D02*
X9305000Y-12575000D01*
X9305000Y-12545000D02*
X9275000Y-12575000D01*
X9385000Y-12868866D02*
X9415000Y-12898866D01*
X9415000Y-12868866D02*
X9385000Y-12898866D01*
X9395000Y-11295000D02*
X9425000Y-11325000D01*
X9425000Y-11295000D02*
X9395000Y-11325000D01*
X9395000Y-13395000D02*
X9425000Y-13425000D01*
X9425000Y-13395000D02*
X9395000Y-13425000D01*
X9435000Y-10995000D02*
X9465000Y-11025000D01*
X9465000Y-10995000D02*
X9435000Y-11025000D01*
X9445000Y-14025000D02*
X9475000Y-14055000D01*
X9475000Y-14025000D02*
X9445000Y-14055000D01*
X9493460Y-13033866D02*
X9523460Y-13063866D01*
X9523460Y-13033866D02*
X9493460Y-13063866D01*
X9525000Y-10795000D02*
X9555000Y-10825000D01*
X9555000Y-10795000D02*
X9525000Y-10825000D01*
X9525000Y-11935000D02*
X9555000Y-11965000D01*
X9555000Y-11935000D02*
X9525000Y-11965000D01*
X9533460Y-12243866D02*
X9563460Y-12273866D01*
X9563460Y-12243866D02*
X9533460Y-12273866D01*
X9586611Y-10490660D02*
X9616611Y-10520660D01*
X9616611Y-10490660D02*
X9586611Y-10520660D01*
X9633460Y-12543866D02*
X9663460Y-12573866D01*
X9663460Y-12543866D02*
X9633460Y-12573866D01*
X9665000Y-11145000D02*
X9695000Y-11175000D01*
X9695000Y-11145000D02*
X9665000Y-11175000D01*
X9675000Y-11675000D02*
X9705000Y-11705000D01*
X9705000Y-11675000D02*
X9675000Y-11705000D01*
X9765000Y-11645000D02*
X9795000Y-11675000D01*
X9795000Y-11645000D02*
X9765000Y-11675000D01*
X9795000Y-12725000D02*
X9825000Y-12755000D01*
X9825000Y-12725000D02*
X9795000Y-12755000D01*
X9835000Y-10975000D02*
X9865000Y-11005000D01*
X9865000Y-10975000D02*
X9835000Y-11005000D01*
X9855000Y-13375000D02*
X9885000Y-13405000D01*
X9885000Y-13375000D02*
X9855000Y-13405000D01*
X9945000Y-11945000D02*
X9975000Y-11975000D01*
X9975000Y-11945000D02*
X9945000Y-11975000D01*
X9955000Y-11715000D02*
X9985000Y-11745000D01*
X9985000Y-11715000D02*
X9955000Y-11745000D01*
X10025000Y-11195000D02*
X10055000Y-11225000D01*
X10055000Y-11195000D02*
X10025000Y-11225000D01*
X10265000Y-11275000D02*
X10295000Y-11305000D01*
X10295000Y-11275000D02*
X10265000Y-11305000D01*
X10295000Y-11045000D02*
X10325000Y-11075000D01*
X10325000Y-11045000D02*
X10295000Y-11075000D01*
X10335000Y-12465000D02*
X10365000Y-12495000D01*
X10365000Y-12465000D02*
X10335000Y-12495000D01*
X10475000Y-11405000D02*
X10505000Y-11435000D01*
X10505000Y-11405000D02*
X10475000Y-11435000D01*
X10545000Y-11065000D02*
X10575000Y-11095000D01*
X10575000Y-11065000D02*
X10545000Y-11095000D01*
X10645000Y-11665000D02*
X10675000Y-11695000D01*
X10675000Y-11665000D02*
X10645000Y-11695000D01*
X10715000Y-13105000D02*
X10745000Y-13135000D01*
X10745000Y-13105000D02*
X10715000Y-13135000D01*
X10735000Y-10835000D02*
X10765000Y-10865000D01*
X10765000Y-10835000D02*
X10735000Y-10865000D01*
X9997500Y-10530000D02*
G75*
G02*
X9932500Y-10530000I-32500J0D01*
G01*
X9932500Y-10530000D02*
G75*
G02*
X9997500Y-10530000I32500J0D01*
G01*
X9997500Y-10657000D02*
G75*
G02*
X9932500Y-10657000I-32500J0D01*
G01*
X9932500Y-10657000D02*
G75*
G02*
X9997500Y-10657000I32500J0D01*
G01*
X10124500Y-10530000D02*
G75*
G02*
X10059500Y-10530000I-32500J0D01*
G01*
X10059500Y-10530000D02*
G75*
G02*
X10124500Y-10530000I32500J0D01*
G01*
X10124500Y-10657000D02*
G75*
G02*
X10059500Y-10657000I-32500J0D01*
G01*
X10059500Y-10657000D02*
G75*
G02*
X10124500Y-10657000I32500J0D01*
G01*
X10251500Y-10530000D02*
G75*
G02*
X10186500Y-10530000I-32500J0D01*
G01*
X10186500Y-10530000D02*
G75*
G02*
X10251500Y-10530000I32500J0D01*
G01*
X10251500Y-10657000D02*
G75*
G02*
X10186500Y-10657000I-32500J0D01*
G01*
X10186500Y-10657000D02*
G75*
G02*
X10251500Y-10657000I32500J0D01*
G01*
X10378500Y-10530000D02*
G75*
G02*
X10313500Y-10530000I-32500J0D01*
G01*
X10313500Y-10530000D02*
G75*
G02*
X10378500Y-10530000I32500J0D01*
G01*
X10378500Y-10657000D02*
G75*
G02*
X10313500Y-10657000I-32500J0D01*
G01*
X10313500Y-10657000D02*
G75*
G02*
X10378500Y-10657000I32500J0D01*
G01*
X10505500Y-10530000D02*
G75*
G02*
X10440500Y-10530000I-32500J0D01*
G01*
X10440500Y-10530000D02*
G75*
G02*
X10505500Y-10530000I32500J0D01*
G01*
X10505500Y-10657000D02*
G75*
G02*
X10440500Y-10657000I-32500J0D01*
G01*
X10440500Y-10657000D02*
G75*
G02*
X10505500Y-10657000I32500J0D01*
G01*
X10632500Y-10530000D02*
G75*
G02*
X10567500Y-10530000I-32500J0D01*
G01*
X10567500Y-10530000D02*
G75*
G02*
X10632500Y-10530000I32500J0D01*
G01*
X10632500Y-10657000D02*
G75*
G02*
X10567500Y-10657000I-32500J0D01*
G01*
X10567500Y-10657000D02*
G75*
G02*
X10632500Y-10657000I32500J0D01*
G01*
D13*
X9168460Y-13573866D02*
X9168460Y-13703866D01*
X9103460Y-13638866D02*
X9233460Y-13638866D01*
X9668460Y-13573866D02*
X9668460Y-13703866D01*
X9603460Y-13638866D02*
X9733460Y-13638866D01*
D14*
X8426778Y-11076778D02*
X8426778Y-10723222D01*
X8073222Y-10723222D01*
X8073222Y-11076778D01*
X8426778Y-11076778D01*
X8436778Y-13836778D02*
X8436778Y-13483222D01*
X8083222Y-13483222D01*
X8083222Y-13836778D01*
X8436778Y-13836778D01*
X10726778Y-13886778D02*
X10726778Y-13533222D01*
X10373222Y-13533222D01*
X10373222Y-13886778D01*
X10726778Y-13886778D01*
D11*
X7628277Y-14603984D02*
X7628277Y-14403984D01*
X7628277Y-14403984D02*
X7675896Y-14403984D01*
X7675896Y-14403984D02*
X7704467Y-14413508D01*
X7704467Y-14413508D02*
X7723515Y-14432555D01*
X7723515Y-14432555D02*
X7733039Y-14451603D01*
X7733039Y-14451603D02*
X7742562Y-14489698D01*
X7742562Y-14489698D02*
X7742562Y-14518269D01*
X7742562Y-14518269D02*
X7733039Y-14556365D01*
X7733039Y-14556365D02*
X7723515Y-14575412D01*
X7723515Y-14575412D02*
X7704467Y-14594460D01*
X7704467Y-14594460D02*
X7675896Y-14603984D01*
X7675896Y-14603984D02*
X7628277Y-14603984D01*
X7828277Y-14603984D02*
X7828277Y-14470650D01*
X7828277Y-14508746D02*
X7837801Y-14489698D01*
X7837801Y-14489698D02*
X7847324Y-14480174D01*
X7847324Y-14480174D02*
X7866372Y-14470650D01*
X7866372Y-14470650D02*
X7885420Y-14470650D01*
X7952086Y-14603984D02*
X7952086Y-14470650D01*
X7952086Y-14403984D02*
X7942562Y-14413508D01*
X7942562Y-14413508D02*
X7952086Y-14423031D01*
X7952086Y-14423031D02*
X7961610Y-14413508D01*
X7961610Y-14413508D02*
X7952086Y-14403984D01*
X7952086Y-14403984D02*
X7952086Y-14423031D01*
X8075896Y-14603984D02*
X8056848Y-14594460D01*
X8056848Y-14594460D02*
X8047324Y-14575412D01*
X8047324Y-14575412D02*
X8047324Y-14403984D01*
X8180658Y-14603984D02*
X8161610Y-14594460D01*
X8161610Y-14594460D02*
X8152086Y-14575412D01*
X8152086Y-14575412D02*
X8152086Y-14403984D01*
X8409229Y-14603984D02*
X8409229Y-14403984D01*
X8409229Y-14403984D02*
X8475896Y-14546841D01*
X8475896Y-14546841D02*
X8542563Y-14403984D01*
X8542563Y-14403984D02*
X8542563Y-14603984D01*
X8723515Y-14603984D02*
X8723515Y-14499222D01*
X8723515Y-14499222D02*
X8713991Y-14480174D01*
X8713991Y-14480174D02*
X8694944Y-14470650D01*
X8694944Y-14470650D02*
X8656848Y-14470650D01*
X8656848Y-14470650D02*
X8637801Y-14480174D01*
X8723515Y-14594460D02*
X8704467Y-14603984D01*
X8704467Y-14603984D02*
X8656848Y-14603984D01*
X8656848Y-14603984D02*
X8637801Y-14594460D01*
X8637801Y-14594460D02*
X8628277Y-14575412D01*
X8628277Y-14575412D02*
X8628277Y-14556365D01*
X8628277Y-14556365D02*
X8637801Y-14537317D01*
X8637801Y-14537317D02*
X8656848Y-14527793D01*
X8656848Y-14527793D02*
X8704467Y-14527793D01*
X8704467Y-14527793D02*
X8723515Y-14518269D01*
X8818753Y-14470650D02*
X8818753Y-14670650D01*
X8818753Y-14480174D02*
X8837801Y-14470650D01*
X8837801Y-14470650D02*
X8875896Y-14470650D01*
X8875896Y-14470650D02*
X8894944Y-14480174D01*
X8894944Y-14480174D02*
X8904467Y-14489698D01*
X8904467Y-14489698D02*
X8913991Y-14508746D01*
X8913991Y-14508746D02*
X8913991Y-14565888D01*
X8913991Y-14565888D02*
X8904467Y-14584936D01*
X8904467Y-14584936D02*
X8894944Y-14594460D01*
X8894944Y-14594460D02*
X8875896Y-14603984D01*
X8875896Y-14603984D02*
X8837801Y-14603984D01*
X8837801Y-14603984D02*
X8818753Y-14594460D01*
X8999705Y-14584936D02*
X9009229Y-14594460D01*
X9009229Y-14594460D02*
X8999705Y-14603984D01*
X8999705Y-14603984D02*
X8990182Y-14594460D01*
X8990182Y-14594460D02*
X8999705Y-14584936D01*
X8999705Y-14584936D02*
X8999705Y-14603984D01*
X8999705Y-14480174D02*
X9009229Y-14489698D01*
X9009229Y-14489698D02*
X8999705Y-14499222D01*
X8999705Y-14499222D02*
X8990182Y-14489698D01*
X8990182Y-14489698D02*
X8999705Y-14480174D01*
X8999705Y-14480174D02*
X8999705Y-14499222D01*
D12*
X7337500Y-14917500D02*
X7367500Y-14947500D01*
X7367500Y-14917500D02*
X7337500Y-14947500D01*
D11*
X7666372Y-14823984D02*
X7685420Y-14823984D01*
X7685420Y-14823984D02*
X7704467Y-14833508D01*
X7704467Y-14833508D02*
X7713991Y-14843031D01*
X7713991Y-14843031D02*
X7723515Y-14862079D01*
X7723515Y-14862079D02*
X7733039Y-14900174D01*
X7733039Y-14900174D02*
X7733039Y-14947793D01*
X7733039Y-14947793D02*
X7723515Y-14985888D01*
X7723515Y-14985888D02*
X7713991Y-15004936D01*
X7713991Y-15004936D02*
X7704467Y-15014460D01*
X7704467Y-15014460D02*
X7685420Y-15023984D01*
X7685420Y-15023984D02*
X7666372Y-15023984D01*
X7666372Y-15023984D02*
X7647324Y-15014460D01*
X7647324Y-15014460D02*
X7637801Y-15004936D01*
X7637801Y-15004936D02*
X7628277Y-14985888D01*
X7628277Y-14985888D02*
X7618753Y-14947793D01*
X7618753Y-14947793D02*
X7618753Y-14900174D01*
X7618753Y-14900174D02*
X7628277Y-14862079D01*
X7628277Y-14862079D02*
X7637801Y-14843031D01*
X7637801Y-14843031D02*
X7647324Y-14833508D01*
X7647324Y-14833508D02*
X7666372Y-14823984D01*
X7818753Y-15004936D02*
X7828277Y-15014460D01*
X7828277Y-15014460D02*
X7818753Y-15023984D01*
X7818753Y-15023984D02*
X7809229Y-15014460D01*
X7809229Y-15014460D02*
X7818753Y-15004936D01*
X7818753Y-15004936D02*
X7818753Y-15023984D01*
X7894943Y-14823984D02*
X8018753Y-14823984D01*
X8018753Y-14823984D02*
X7952086Y-14900174D01*
X7952086Y-14900174D02*
X7980658Y-14900174D01*
X7980658Y-14900174D02*
X7999705Y-14909698D01*
X7999705Y-14909698D02*
X8009229Y-14919222D01*
X8009229Y-14919222D02*
X8018753Y-14938269D01*
X8018753Y-14938269D02*
X8018753Y-14985888D01*
X8018753Y-14985888D02*
X8009229Y-15004936D01*
X8009229Y-15004936D02*
X7999705Y-15014460D01*
X7999705Y-15014460D02*
X7980658Y-15023984D01*
X7980658Y-15023984D02*
X7923515Y-15023984D01*
X7923515Y-15023984D02*
X7904467Y-15014460D01*
X7904467Y-15014460D02*
X7894943Y-15004936D01*
X8142562Y-14823984D02*
X8161610Y-14823984D01*
X8161610Y-14823984D02*
X8180658Y-14833508D01*
X8180658Y-14833508D02*
X8190182Y-14843031D01*
X8190182Y-14843031D02*
X8199705Y-14862079D01*
X8199705Y-14862079D02*
X8209229Y-14900174D01*
X8209229Y-14900174D02*
X8209229Y-14947793D01*
X8209229Y-14947793D02*
X8199705Y-14985888D01*
X8199705Y-14985888D02*
X8190182Y-15004936D01*
X8190182Y-15004936D02*
X8180658Y-15014460D01*
X8180658Y-15014460D02*
X8161610Y-15023984D01*
X8161610Y-15023984D02*
X8142562Y-15023984D01*
X8142562Y-15023984D02*
X8123515Y-15014460D01*
X8123515Y-15014460D02*
X8113991Y-15004936D01*
X8113991Y-15004936D02*
X8104467Y-14985888D01*
X8104467Y-14985888D02*
X8094943Y-14947793D01*
X8094943Y-14947793D02*
X8094943Y-14900174D01*
X8094943Y-14900174D02*
X8104467Y-14862079D01*
X8104467Y-14862079D02*
X8113991Y-14843031D01*
X8113991Y-14843031D02*
X8123515Y-14833508D01*
X8123515Y-14833508D02*
X8142562Y-14823984D01*
X8333039Y-14823984D02*
X8352086Y-14823984D01*
X8352086Y-14823984D02*
X8371134Y-14833508D01*
X8371134Y-14833508D02*
X8380658Y-14843031D01*
X8380658Y-14843031D02*
X8390182Y-14862079D01*
X8390182Y-14862079D02*
X8399705Y-14900174D01*
X8399705Y-14900174D02*
X8399705Y-14947793D01*
X8399705Y-14947793D02*
X8390182Y-14985888D01*
X8390182Y-14985888D02*
X8380658Y-15004936D01*
X8380658Y-15004936D02*
X8371134Y-15014460D01*
X8371134Y-15014460D02*
X8352086Y-15023984D01*
X8352086Y-15023984D02*
X8333039Y-15023984D01*
X8333039Y-15023984D02*
X8313991Y-15014460D01*
X8313991Y-15014460D02*
X8304467Y-15004936D01*
X8304467Y-15004936D02*
X8294943Y-14985888D01*
X8294943Y-14985888D02*
X8285420Y-14947793D01*
X8285420Y-14947793D02*
X8285420Y-14900174D01*
X8285420Y-14900174D02*
X8294943Y-14862079D01*
X8294943Y-14862079D02*
X8304467Y-14843031D01*
X8304467Y-14843031D02*
X8313991Y-14833508D01*
X8313991Y-14833508D02*
X8333039Y-14823984D01*
X8485420Y-15023984D02*
X8485420Y-14890650D01*
X8485420Y-14909698D02*
X8494944Y-14900174D01*
X8494944Y-14900174D02*
X8513991Y-14890650D01*
X8513991Y-14890650D02*
X8542563Y-14890650D01*
X8542563Y-14890650D02*
X8561610Y-14900174D01*
X8561610Y-14900174D02*
X8571134Y-14919222D01*
X8571134Y-14919222D02*
X8571134Y-15023984D01*
X8571134Y-14919222D02*
X8580658Y-14900174D01*
X8580658Y-14900174D02*
X8599705Y-14890650D01*
X8599705Y-14890650D02*
X8628277Y-14890650D01*
X8628277Y-14890650D02*
X8647325Y-14900174D01*
X8647325Y-14900174D02*
X8656848Y-14919222D01*
X8656848Y-14919222D02*
X8656848Y-15023984D01*
X8752086Y-15023984D02*
X8752086Y-14890650D01*
X8752086Y-14909698D02*
X8761610Y-14900174D01*
X8761610Y-14900174D02*
X8780658Y-14890650D01*
X8780658Y-14890650D02*
X8809229Y-14890650D01*
X8809229Y-14890650D02*
X8828277Y-14900174D01*
X8828277Y-14900174D02*
X8837801Y-14919222D01*
X8837801Y-14919222D02*
X8837801Y-15023984D01*
X8837801Y-14919222D02*
X8847325Y-14900174D01*
X8847325Y-14900174D02*
X8866372Y-14890650D01*
X8866372Y-14890650D02*
X8894944Y-14890650D01*
X8894944Y-14890650D02*
X8913991Y-14900174D01*
X8913991Y-14900174D02*
X8923515Y-14919222D01*
X8923515Y-14919222D02*
X8923515Y-15023984D01*
X9313991Y-14814460D02*
X9142563Y-15071603D01*
X9571134Y-14823984D02*
X9590182Y-14823984D01*
X9590182Y-14823984D02*
X9609229Y-14833508D01*
X9609229Y-14833508D02*
X9618753Y-14843031D01*
X9618753Y-14843031D02*
X9628277Y-14862079D01*
X9628277Y-14862079D02*
X9637801Y-14900174D01*
X9637801Y-14900174D02*
X9637801Y-14947793D01*
X9637801Y-14947793D02*
X9628277Y-14985888D01*
X9628277Y-14985888D02*
X9618753Y-15004936D01*
X9618753Y-15004936D02*
X9609229Y-15014460D01*
X9609229Y-15014460D02*
X9590182Y-15023984D01*
X9590182Y-15023984D02*
X9571134Y-15023984D01*
X9571134Y-15023984D02*
X9552087Y-15014460D01*
X9552087Y-15014460D02*
X9542563Y-15004936D01*
X9542563Y-15004936D02*
X9533039Y-14985888D01*
X9533039Y-14985888D02*
X9523515Y-14947793D01*
X9523515Y-14947793D02*
X9523515Y-14900174D01*
X9523515Y-14900174D02*
X9533039Y-14862079D01*
X9533039Y-14862079D02*
X9542563Y-14843031D01*
X9542563Y-14843031D02*
X9552087Y-14833508D01*
X9552087Y-14833508D02*
X9571134Y-14823984D01*
X9723515Y-15004936D02*
X9733039Y-15014460D01*
X9733039Y-15014460D02*
X9723515Y-15023984D01*
X9723515Y-15023984D02*
X9713991Y-15014460D01*
X9713991Y-15014460D02*
X9723515Y-15004936D01*
X9723515Y-15004936D02*
X9723515Y-15023984D01*
X9856848Y-14823984D02*
X9875896Y-14823984D01*
X9875896Y-14823984D02*
X9894944Y-14833508D01*
X9894944Y-14833508D02*
X9904468Y-14843031D01*
X9904468Y-14843031D02*
X9913991Y-14862079D01*
X9913991Y-14862079D02*
X9923515Y-14900174D01*
X9923515Y-14900174D02*
X9923515Y-14947793D01*
X9923515Y-14947793D02*
X9913991Y-14985888D01*
X9913991Y-14985888D02*
X9904468Y-15004936D01*
X9904468Y-15004936D02*
X9894944Y-15014460D01*
X9894944Y-15014460D02*
X9875896Y-15023984D01*
X9875896Y-15023984D02*
X9856848Y-15023984D01*
X9856848Y-15023984D02*
X9837801Y-15014460D01*
X9837801Y-15014460D02*
X9828277Y-15004936D01*
X9828277Y-15004936D02*
X9818753Y-14985888D01*
X9818753Y-14985888D02*
X9809229Y-14947793D01*
X9809229Y-14947793D02*
X9809229Y-14900174D01*
X9809229Y-14900174D02*
X9818753Y-14862079D01*
X9818753Y-14862079D02*
X9828277Y-14843031D01*
X9828277Y-14843031D02*
X9837801Y-14833508D01*
X9837801Y-14833508D02*
X9856848Y-14823984D01*
X10113991Y-15023984D02*
X9999706Y-15023984D01*
X10056848Y-15023984D02*
X10056848Y-14823984D01*
X10056848Y-14823984D02*
X10037801Y-14852555D01*
X10037801Y-14852555D02*
X10018753Y-14871603D01*
X10018753Y-14871603D02*
X9999706Y-14881127D01*
X10304468Y-15023984D02*
X10190182Y-15023984D01*
X10247325Y-15023984D02*
X10247325Y-14823984D01*
X10247325Y-14823984D02*
X10228277Y-14852555D01*
X10228277Y-14852555D02*
X10209229Y-14871603D01*
X10209229Y-14871603D02*
X10190182Y-14881127D01*
X10418753Y-14909698D02*
X10399706Y-14900174D01*
X10399706Y-14900174D02*
X10390182Y-14890650D01*
X10390182Y-14890650D02*
X10380658Y-14871603D01*
X10380658Y-14871603D02*
X10380658Y-14862079D01*
X10380658Y-14862079D02*
X10390182Y-14843031D01*
X10390182Y-14843031D02*
X10399706Y-14833508D01*
X10399706Y-14833508D02*
X10418753Y-14823984D01*
X10418753Y-14823984D02*
X10456849Y-14823984D01*
X10456849Y-14823984D02*
X10475896Y-14833508D01*
X10475896Y-14833508D02*
X10485420Y-14843031D01*
X10485420Y-14843031D02*
X10494944Y-14862079D01*
X10494944Y-14862079D02*
X10494944Y-14871603D01*
X10494944Y-14871603D02*
X10485420Y-14890650D01*
X10485420Y-14890650D02*
X10475896Y-14900174D01*
X10475896Y-14900174D02*
X10456849Y-14909698D01*
X10456849Y-14909698D02*
X10418753Y-14909698D01*
X10418753Y-14909698D02*
X10399706Y-14919222D01*
X10399706Y-14919222D02*
X10390182Y-14928746D01*
X10390182Y-14928746D02*
X10380658Y-14947793D01*
X10380658Y-14947793D02*
X10380658Y-14985888D01*
X10380658Y-14985888D02*
X10390182Y-15004936D01*
X10390182Y-15004936D02*
X10399706Y-15014460D01*
X10399706Y-15014460D02*
X10418753Y-15023984D01*
X10418753Y-15023984D02*
X10456849Y-15023984D01*
X10456849Y-15023984D02*
X10475896Y-15014460D01*
X10475896Y-15014460D02*
X10485420Y-15004936D01*
X10485420Y-15004936D02*
X10494944Y-14985888D01*
X10494944Y-14985888D02*
X10494944Y-14947793D01*
X10494944Y-14947793D02*
X10485420Y-14928746D01*
X10485420Y-14928746D02*
X10475896Y-14919222D01*
X10475896Y-14919222D02*
X10456849Y-14909698D01*
X10571134Y-14823984D02*
X10571134Y-14862079D01*
X10647325Y-14823984D02*
X10647325Y-14862079D01*
X10942563Y-15100174D02*
X10933039Y-15090650D01*
X10933039Y-15090650D02*
X10913991Y-15062079D01*
X10913991Y-15062079D02*
X10904468Y-15043031D01*
X10904468Y-15043031D02*
X10894944Y-15014460D01*
X10894944Y-15014460D02*
X10885420Y-14966841D01*
X10885420Y-14966841D02*
X10885420Y-14928746D01*
X10885420Y-14928746D02*
X10894944Y-14881127D01*
X10894944Y-14881127D02*
X10904468Y-14852555D01*
X10904468Y-14852555D02*
X10913991Y-14833508D01*
X10913991Y-14833508D02*
X10933039Y-14804936D01*
X10933039Y-14804936D02*
X10942563Y-14795412D01*
X11113991Y-14823984D02*
X11018753Y-14823984D01*
X11018753Y-14823984D02*
X11009230Y-14919222D01*
X11009230Y-14919222D02*
X11018753Y-14909698D01*
X11018753Y-14909698D02*
X11037801Y-14900174D01*
X11037801Y-14900174D02*
X11085420Y-14900174D01*
X11085420Y-14900174D02*
X11104468Y-14909698D01*
X11104468Y-14909698D02*
X11113991Y-14919222D01*
X11113991Y-14919222D02*
X11123515Y-14938269D01*
X11123515Y-14938269D02*
X11123515Y-14985888D01*
X11123515Y-14985888D02*
X11113991Y-15004936D01*
X11113991Y-15004936D02*
X11104468Y-15014460D01*
X11104468Y-15014460D02*
X11085420Y-15023984D01*
X11085420Y-15023984D02*
X11037801Y-15023984D01*
X11037801Y-15023984D02*
X11018753Y-15014460D01*
X11018753Y-15014460D02*
X11009230Y-15004936D01*
X11237801Y-14909698D02*
X11218753Y-14900174D01*
X11218753Y-14900174D02*
X11209229Y-14890650D01*
X11209229Y-14890650D02*
X11199706Y-14871603D01*
X11199706Y-14871603D02*
X11199706Y-14862079D01*
X11199706Y-14862079D02*
X11209229Y-14843031D01*
X11209229Y-14843031D02*
X11218753Y-14833508D01*
X11218753Y-14833508D02*
X11237801Y-14823984D01*
X11237801Y-14823984D02*
X11275896Y-14823984D01*
X11275896Y-14823984D02*
X11294944Y-14833508D01*
X11294944Y-14833508D02*
X11304468Y-14843031D01*
X11304468Y-14843031D02*
X11313991Y-14862079D01*
X11313991Y-14862079D02*
X11313991Y-14871603D01*
X11313991Y-14871603D02*
X11304468Y-14890650D01*
X11304468Y-14890650D02*
X11294944Y-14900174D01*
X11294944Y-14900174D02*
X11275896Y-14909698D01*
X11275896Y-14909698D02*
X11237801Y-14909698D01*
X11237801Y-14909698D02*
X11218753Y-14919222D01*
X11218753Y-14919222D02*
X11209229Y-14928746D01*
X11209229Y-14928746D02*
X11199706Y-14947793D01*
X11199706Y-14947793D02*
X11199706Y-14985888D01*
X11199706Y-14985888D02*
X11209229Y-15004936D01*
X11209229Y-15004936D02*
X11218753Y-15014460D01*
X11218753Y-15014460D02*
X11237801Y-15023984D01*
X11237801Y-15023984D02*
X11275896Y-15023984D01*
X11275896Y-15023984D02*
X11294944Y-15014460D01*
X11294944Y-15014460D02*
X11304468Y-15004936D01*
X11304468Y-15004936D02*
X11313991Y-14985888D01*
X11313991Y-14985888D02*
X11313991Y-14947793D01*
X11313991Y-14947793D02*
X11304468Y-14928746D01*
X11304468Y-14928746D02*
X11294944Y-14919222D01*
X11294944Y-14919222D02*
X11275896Y-14909698D01*
X11552087Y-15023984D02*
X11552087Y-14823984D01*
X11637801Y-15023984D02*
X11637801Y-14919222D01*
X11637801Y-14919222D02*
X11628277Y-14900174D01*
X11628277Y-14900174D02*
X11609230Y-14890650D01*
X11609230Y-14890650D02*
X11580658Y-14890650D01*
X11580658Y-14890650D02*
X11561610Y-14900174D01*
X11561610Y-14900174D02*
X11552087Y-14909698D01*
X11761610Y-15023984D02*
X11742563Y-15014460D01*
X11742563Y-15014460D02*
X11733039Y-15004936D01*
X11733039Y-15004936D02*
X11723515Y-14985888D01*
X11723515Y-14985888D02*
X11723515Y-14928746D01*
X11723515Y-14928746D02*
X11733039Y-14909698D01*
X11733039Y-14909698D02*
X11742563Y-14900174D01*
X11742563Y-14900174D02*
X11761610Y-14890650D01*
X11761610Y-14890650D02*
X11790182Y-14890650D01*
X11790182Y-14890650D02*
X11809230Y-14900174D01*
X11809230Y-14900174D02*
X11818753Y-14909698D01*
X11818753Y-14909698D02*
X11828277Y-14928746D01*
X11828277Y-14928746D02*
X11828277Y-14985888D01*
X11828277Y-14985888D02*
X11818753Y-15004936D01*
X11818753Y-15004936D02*
X11809230Y-15014460D01*
X11809230Y-15014460D02*
X11790182Y-15023984D01*
X11790182Y-15023984D02*
X11761610Y-15023984D01*
X11942563Y-15023984D02*
X11923515Y-15014460D01*
X11923515Y-15014460D02*
X11913991Y-14995412D01*
X11913991Y-14995412D02*
X11913991Y-14823984D01*
X12094944Y-15014460D02*
X12075896Y-15023984D01*
X12075896Y-15023984D02*
X12037801Y-15023984D01*
X12037801Y-15023984D02*
X12018753Y-15014460D01*
X12018753Y-15014460D02*
X12009230Y-14995412D01*
X12009230Y-14995412D02*
X12009230Y-14919222D01*
X12009230Y-14919222D02*
X12018753Y-14900174D01*
X12018753Y-14900174D02*
X12037801Y-14890650D01*
X12037801Y-14890650D02*
X12075896Y-14890650D01*
X12075896Y-14890650D02*
X12094944Y-14900174D01*
X12094944Y-14900174D02*
X12104468Y-14919222D01*
X12104468Y-14919222D02*
X12104468Y-14938269D01*
X12104468Y-14938269D02*
X12009230Y-14957317D01*
X12180658Y-15014460D02*
X12199706Y-15023984D01*
X12199706Y-15023984D02*
X12237801Y-15023984D01*
X12237801Y-15023984D02*
X12256849Y-15014460D01*
X12256849Y-15014460D02*
X12266372Y-14995412D01*
X12266372Y-14995412D02*
X12266372Y-14985888D01*
X12266372Y-14985888D02*
X12256849Y-14966841D01*
X12256849Y-14966841D02*
X12237801Y-14957317D01*
X12237801Y-14957317D02*
X12209230Y-14957317D01*
X12209230Y-14957317D02*
X12190182Y-14947793D01*
X12190182Y-14947793D02*
X12180658Y-14928746D01*
X12180658Y-14928746D02*
X12180658Y-14919222D01*
X12180658Y-14919222D02*
X12190182Y-14900174D01*
X12190182Y-14900174D02*
X12209230Y-14890650D01*
X12209230Y-14890650D02*
X12237801Y-14890650D01*
X12237801Y-14890650D02*
X12256849Y-14900174D01*
X12333039Y-15100174D02*
X12342563Y-15090650D01*
X12342563Y-15090650D02*
X12361611Y-15062079D01*
X12361611Y-15062079D02*
X12371134Y-15043031D01*
X12371134Y-15043031D02*
X12380658Y-15014460D01*
X12380658Y-15014460D02*
X12390182Y-14966841D01*
X12390182Y-14966841D02*
X12390182Y-14928746D01*
X12390182Y-14928746D02*
X12380658Y-14881127D01*
X12380658Y-14881127D02*
X12371134Y-14852555D01*
X12371134Y-14852555D02*
X12361611Y-14833508D01*
X12361611Y-14833508D02*
X12342563Y-14804936D01*
X12342563Y-14804936D02*
X12333039Y-14795412D01*
D12*
X7367500Y-15196500D02*
G75*
G02*
X7302500Y-15196500I-32500J0D01*
G01*
X7302500Y-15196500D02*
G75*
G02*
X7367500Y-15196500I32500J0D01*
G01*
D11*
X7666372Y-15087984D02*
X7685420Y-15087984D01*
X7685420Y-15087984D02*
X7704467Y-15097508D01*
X7704467Y-15097508D02*
X7713991Y-15107031D01*
X7713991Y-15107031D02*
X7723515Y-15126079D01*
X7723515Y-15126079D02*
X7733039Y-15164174D01*
X7733039Y-15164174D02*
X7733039Y-15211793D01*
X7733039Y-15211793D02*
X7723515Y-15249888D01*
X7723515Y-15249888D02*
X7713991Y-15268936D01*
X7713991Y-15268936D02*
X7704467Y-15278460D01*
X7704467Y-15278460D02*
X7685420Y-15287984D01*
X7685420Y-15287984D02*
X7666372Y-15287984D01*
X7666372Y-15287984D02*
X7647324Y-15278460D01*
X7647324Y-15278460D02*
X7637801Y-15268936D01*
X7637801Y-15268936D02*
X7628277Y-15249888D01*
X7628277Y-15249888D02*
X7618753Y-15211793D01*
X7618753Y-15211793D02*
X7618753Y-15164174D01*
X7618753Y-15164174D02*
X7628277Y-15126079D01*
X7628277Y-15126079D02*
X7637801Y-15107031D01*
X7637801Y-15107031D02*
X7647324Y-15097508D01*
X7647324Y-15097508D02*
X7666372Y-15087984D01*
X7818753Y-15268936D02*
X7828277Y-15278460D01*
X7828277Y-15278460D02*
X7818753Y-15287984D01*
X7818753Y-15287984D02*
X7809229Y-15278460D01*
X7809229Y-15278460D02*
X7818753Y-15268936D01*
X7818753Y-15268936D02*
X7818753Y-15287984D01*
X7999705Y-15087984D02*
X7961610Y-15087984D01*
X7961610Y-15087984D02*
X7942562Y-15097508D01*
X7942562Y-15097508D02*
X7933039Y-15107031D01*
X7933039Y-15107031D02*
X7913991Y-15135603D01*
X7913991Y-15135603D02*
X7904467Y-15173698D01*
X7904467Y-15173698D02*
X7904467Y-15249888D01*
X7904467Y-15249888D02*
X7913991Y-15268936D01*
X7913991Y-15268936D02*
X7923515Y-15278460D01*
X7923515Y-15278460D02*
X7942562Y-15287984D01*
X7942562Y-15287984D02*
X7980658Y-15287984D01*
X7980658Y-15287984D02*
X7999705Y-15278460D01*
X7999705Y-15278460D02*
X8009229Y-15268936D01*
X8009229Y-15268936D02*
X8018753Y-15249888D01*
X8018753Y-15249888D02*
X8018753Y-15202269D01*
X8018753Y-15202269D02*
X8009229Y-15183222D01*
X8009229Y-15183222D02*
X7999705Y-15173698D01*
X7999705Y-15173698D02*
X7980658Y-15164174D01*
X7980658Y-15164174D02*
X7942562Y-15164174D01*
X7942562Y-15164174D02*
X7923515Y-15173698D01*
X7923515Y-15173698D02*
X7913991Y-15183222D01*
X7913991Y-15183222D02*
X7904467Y-15202269D01*
X8199705Y-15087984D02*
X8104467Y-15087984D01*
X8104467Y-15087984D02*
X8094943Y-15183222D01*
X8094943Y-15183222D02*
X8104467Y-15173698D01*
X8104467Y-15173698D02*
X8123515Y-15164174D01*
X8123515Y-15164174D02*
X8171134Y-15164174D01*
X8171134Y-15164174D02*
X8190182Y-15173698D01*
X8190182Y-15173698D02*
X8199705Y-15183222D01*
X8199705Y-15183222D02*
X8209229Y-15202269D01*
X8209229Y-15202269D02*
X8209229Y-15249888D01*
X8209229Y-15249888D02*
X8199705Y-15268936D01*
X8199705Y-15268936D02*
X8190182Y-15278460D01*
X8190182Y-15278460D02*
X8171134Y-15287984D01*
X8171134Y-15287984D02*
X8123515Y-15287984D01*
X8123515Y-15287984D02*
X8104467Y-15278460D01*
X8104467Y-15278460D02*
X8094943Y-15268936D01*
X8333039Y-15087984D02*
X8352086Y-15087984D01*
X8352086Y-15087984D02*
X8371134Y-15097508D01*
X8371134Y-15097508D02*
X8380658Y-15107031D01*
X8380658Y-15107031D02*
X8390182Y-15126079D01*
X8390182Y-15126079D02*
X8399705Y-15164174D01*
X8399705Y-15164174D02*
X8399705Y-15211793D01*
X8399705Y-15211793D02*
X8390182Y-15249888D01*
X8390182Y-15249888D02*
X8380658Y-15268936D01*
X8380658Y-15268936D02*
X8371134Y-15278460D01*
X8371134Y-15278460D02*
X8352086Y-15287984D01*
X8352086Y-15287984D02*
X8333039Y-15287984D01*
X8333039Y-15287984D02*
X8313991Y-15278460D01*
X8313991Y-15278460D02*
X8304467Y-15268936D01*
X8304467Y-15268936D02*
X8294943Y-15249888D01*
X8294943Y-15249888D02*
X8285420Y-15211793D01*
X8285420Y-15211793D02*
X8285420Y-15164174D01*
X8285420Y-15164174D02*
X8294943Y-15126079D01*
X8294943Y-15126079D02*
X8304467Y-15107031D01*
X8304467Y-15107031D02*
X8313991Y-15097508D01*
X8313991Y-15097508D02*
X8333039Y-15087984D01*
X8485420Y-15287984D02*
X8485420Y-15154650D01*
X8485420Y-15173698D02*
X8494944Y-15164174D01*
X8494944Y-15164174D02*
X8513991Y-15154650D01*
X8513991Y-15154650D02*
X8542563Y-15154650D01*
X8542563Y-15154650D02*
X8561610Y-15164174D01*
X8561610Y-15164174D02*
X8571134Y-15183222D01*
X8571134Y-15183222D02*
X8571134Y-15287984D01*
X8571134Y-15183222D02*
X8580658Y-15164174D01*
X8580658Y-15164174D02*
X8599705Y-15154650D01*
X8599705Y-15154650D02*
X8628277Y-15154650D01*
X8628277Y-15154650D02*
X8647325Y-15164174D01*
X8647325Y-15164174D02*
X8656848Y-15183222D01*
X8656848Y-15183222D02*
X8656848Y-15287984D01*
X8752086Y-15287984D02*
X8752086Y-15154650D01*
X8752086Y-15173698D02*
X8761610Y-15164174D01*
X8761610Y-15164174D02*
X8780658Y-15154650D01*
X8780658Y-15154650D02*
X8809229Y-15154650D01*
X8809229Y-15154650D02*
X8828277Y-15164174D01*
X8828277Y-15164174D02*
X8837801Y-15183222D01*
X8837801Y-15183222D02*
X8837801Y-15287984D01*
X8837801Y-15183222D02*
X8847325Y-15164174D01*
X8847325Y-15164174D02*
X8866372Y-15154650D01*
X8866372Y-15154650D02*
X8894944Y-15154650D01*
X8894944Y-15154650D02*
X8913991Y-15164174D01*
X8913991Y-15164174D02*
X8923515Y-15183222D01*
X8923515Y-15183222D02*
X8923515Y-15287984D01*
X9313991Y-15078460D02*
X9142563Y-15335603D01*
X9571134Y-15087984D02*
X9590182Y-15087984D01*
X9590182Y-15087984D02*
X9609229Y-15097508D01*
X9609229Y-15097508D02*
X9618753Y-15107031D01*
X9618753Y-15107031D02*
X9628277Y-15126079D01*
X9628277Y-15126079D02*
X9637801Y-15164174D01*
X9637801Y-15164174D02*
X9637801Y-15211793D01*
X9637801Y-15211793D02*
X9628277Y-15249888D01*
X9628277Y-15249888D02*
X9618753Y-15268936D01*
X9618753Y-15268936D02*
X9609229Y-15278460D01*
X9609229Y-15278460D02*
X9590182Y-15287984D01*
X9590182Y-15287984D02*
X9571134Y-15287984D01*
X9571134Y-15287984D02*
X9552087Y-15278460D01*
X9552087Y-15278460D02*
X9542563Y-15268936D01*
X9542563Y-15268936D02*
X9533039Y-15249888D01*
X9533039Y-15249888D02*
X9523515Y-15211793D01*
X9523515Y-15211793D02*
X9523515Y-15164174D01*
X9523515Y-15164174D02*
X9533039Y-15126079D01*
X9533039Y-15126079D02*
X9542563Y-15107031D01*
X9542563Y-15107031D02*
X9552087Y-15097508D01*
X9552087Y-15097508D02*
X9571134Y-15087984D01*
X9723515Y-15268936D02*
X9733039Y-15278460D01*
X9733039Y-15278460D02*
X9723515Y-15287984D01*
X9723515Y-15287984D02*
X9713991Y-15278460D01*
X9713991Y-15278460D02*
X9723515Y-15268936D01*
X9723515Y-15268936D02*
X9723515Y-15287984D01*
X9856848Y-15087984D02*
X9875896Y-15087984D01*
X9875896Y-15087984D02*
X9894944Y-15097508D01*
X9894944Y-15097508D02*
X9904468Y-15107031D01*
X9904468Y-15107031D02*
X9913991Y-15126079D01*
X9913991Y-15126079D02*
X9923515Y-15164174D01*
X9923515Y-15164174D02*
X9923515Y-15211793D01*
X9923515Y-15211793D02*
X9913991Y-15249888D01*
X9913991Y-15249888D02*
X9904468Y-15268936D01*
X9904468Y-15268936D02*
X9894944Y-15278460D01*
X9894944Y-15278460D02*
X9875896Y-15287984D01*
X9875896Y-15287984D02*
X9856848Y-15287984D01*
X9856848Y-15287984D02*
X9837801Y-15278460D01*
X9837801Y-15278460D02*
X9828277Y-15268936D01*
X9828277Y-15268936D02*
X9818753Y-15249888D01*
X9818753Y-15249888D02*
X9809229Y-15211793D01*
X9809229Y-15211793D02*
X9809229Y-15164174D01*
X9809229Y-15164174D02*
X9818753Y-15126079D01*
X9818753Y-15126079D02*
X9828277Y-15107031D01*
X9828277Y-15107031D02*
X9837801Y-15097508D01*
X9837801Y-15097508D02*
X9856848Y-15087984D01*
X9999706Y-15107031D02*
X10009229Y-15097508D01*
X10009229Y-15097508D02*
X10028277Y-15087984D01*
X10028277Y-15087984D02*
X10075896Y-15087984D01*
X10075896Y-15087984D02*
X10094944Y-15097508D01*
X10094944Y-15097508D02*
X10104468Y-15107031D01*
X10104468Y-15107031D02*
X10113991Y-15126079D01*
X10113991Y-15126079D02*
X10113991Y-15145127D01*
X10113991Y-15145127D02*
X10104468Y-15173698D01*
X10104468Y-15173698D02*
X9990182Y-15287984D01*
X9990182Y-15287984D02*
X10113991Y-15287984D01*
X10294944Y-15087984D02*
X10199706Y-15087984D01*
X10199706Y-15087984D02*
X10190182Y-15183222D01*
X10190182Y-15183222D02*
X10199706Y-15173698D01*
X10199706Y-15173698D02*
X10218753Y-15164174D01*
X10218753Y-15164174D02*
X10266372Y-15164174D01*
X10266372Y-15164174D02*
X10285420Y-15173698D01*
X10285420Y-15173698D02*
X10294944Y-15183222D01*
X10294944Y-15183222D02*
X10304468Y-15202269D01*
X10304468Y-15202269D02*
X10304468Y-15249888D01*
X10304468Y-15249888D02*
X10294944Y-15268936D01*
X10294944Y-15268936D02*
X10285420Y-15278460D01*
X10285420Y-15278460D02*
X10266372Y-15287984D01*
X10266372Y-15287984D02*
X10218753Y-15287984D01*
X10218753Y-15287984D02*
X10199706Y-15278460D01*
X10199706Y-15278460D02*
X10190182Y-15268936D01*
X10475896Y-15087984D02*
X10437801Y-15087984D01*
X10437801Y-15087984D02*
X10418753Y-15097508D01*
X10418753Y-15097508D02*
X10409229Y-15107031D01*
X10409229Y-15107031D02*
X10390182Y-15135603D01*
X10390182Y-15135603D02*
X10380658Y-15173698D01*
X10380658Y-15173698D02*
X10380658Y-15249888D01*
X10380658Y-15249888D02*
X10390182Y-15268936D01*
X10390182Y-15268936D02*
X10399706Y-15278460D01*
X10399706Y-15278460D02*
X10418753Y-15287984D01*
X10418753Y-15287984D02*
X10456849Y-15287984D01*
X10456849Y-15287984D02*
X10475896Y-15278460D01*
X10475896Y-15278460D02*
X10485420Y-15268936D01*
X10485420Y-15268936D02*
X10494944Y-15249888D01*
X10494944Y-15249888D02*
X10494944Y-15202269D01*
X10494944Y-15202269D02*
X10485420Y-15183222D01*
X10485420Y-15183222D02*
X10475896Y-15173698D01*
X10475896Y-15173698D02*
X10456849Y-15164174D01*
X10456849Y-15164174D02*
X10418753Y-15164174D01*
X10418753Y-15164174D02*
X10399706Y-15173698D01*
X10399706Y-15173698D02*
X10390182Y-15183222D01*
X10390182Y-15183222D02*
X10380658Y-15202269D01*
X10571134Y-15087984D02*
X10571134Y-15126079D01*
X10647325Y-15087984D02*
X10647325Y-15126079D01*
X10942563Y-15364174D02*
X10933039Y-15354650D01*
X10933039Y-15354650D02*
X10913991Y-15326079D01*
X10913991Y-15326079D02*
X10904468Y-15307031D01*
X10904468Y-15307031D02*
X10894944Y-15278460D01*
X10894944Y-15278460D02*
X10885420Y-15230841D01*
X10885420Y-15230841D02*
X10885420Y-15192746D01*
X10885420Y-15192746D02*
X10894944Y-15145127D01*
X10894944Y-15145127D02*
X10904468Y-15116555D01*
X10904468Y-15116555D02*
X10913991Y-15097508D01*
X10913991Y-15097508D02*
X10933039Y-15068936D01*
X10933039Y-15068936D02*
X10942563Y-15059412D01*
X11123515Y-15287984D02*
X11009230Y-15287984D01*
X11066372Y-15287984D02*
X11066372Y-15087984D01*
X11066372Y-15087984D02*
X11047325Y-15116555D01*
X11047325Y-15116555D02*
X11028277Y-15135603D01*
X11028277Y-15135603D02*
X11009230Y-15145127D01*
X11199706Y-15107031D02*
X11209229Y-15097508D01*
X11209229Y-15097508D02*
X11228277Y-15087984D01*
X11228277Y-15087984D02*
X11275896Y-15087984D01*
X11275896Y-15087984D02*
X11294944Y-15097508D01*
X11294944Y-15097508D02*
X11304468Y-15107031D01*
X11304468Y-15107031D02*
X11313991Y-15126079D01*
X11313991Y-15126079D02*
X11313991Y-15145127D01*
X11313991Y-15145127D02*
X11304468Y-15173698D01*
X11304468Y-15173698D02*
X11190182Y-15287984D01*
X11190182Y-15287984D02*
X11313991Y-15287984D01*
X11552087Y-15287984D02*
X11552087Y-15087984D01*
X11637801Y-15287984D02*
X11637801Y-15183222D01*
X11637801Y-15183222D02*
X11628277Y-15164174D01*
X11628277Y-15164174D02*
X11609230Y-15154650D01*
X11609230Y-15154650D02*
X11580658Y-15154650D01*
X11580658Y-15154650D02*
X11561610Y-15164174D01*
X11561610Y-15164174D02*
X11552087Y-15173698D01*
X11761610Y-15287984D02*
X11742563Y-15278460D01*
X11742563Y-15278460D02*
X11733039Y-15268936D01*
X11733039Y-15268936D02*
X11723515Y-15249888D01*
X11723515Y-15249888D02*
X11723515Y-15192746D01*
X11723515Y-15192746D02*
X11733039Y-15173698D01*
X11733039Y-15173698D02*
X11742563Y-15164174D01*
X11742563Y-15164174D02*
X11761610Y-15154650D01*
X11761610Y-15154650D02*
X11790182Y-15154650D01*
X11790182Y-15154650D02*
X11809230Y-15164174D01*
X11809230Y-15164174D02*
X11818753Y-15173698D01*
X11818753Y-15173698D02*
X11828277Y-15192746D01*
X11828277Y-15192746D02*
X11828277Y-15249888D01*
X11828277Y-15249888D02*
X11818753Y-15268936D01*
X11818753Y-15268936D02*
X11809230Y-15278460D01*
X11809230Y-15278460D02*
X11790182Y-15287984D01*
X11790182Y-15287984D02*
X11761610Y-15287984D01*
X11942563Y-15287984D02*
X11923515Y-15278460D01*
X11923515Y-15278460D02*
X11913991Y-15259412D01*
X11913991Y-15259412D02*
X11913991Y-15087984D01*
X12094944Y-15278460D02*
X12075896Y-15287984D01*
X12075896Y-15287984D02*
X12037801Y-15287984D01*
X12037801Y-15287984D02*
X12018753Y-15278460D01*
X12018753Y-15278460D02*
X12009230Y-15259412D01*
X12009230Y-15259412D02*
X12009230Y-15183222D01*
X12009230Y-15183222D02*
X12018753Y-15164174D01*
X12018753Y-15164174D02*
X12037801Y-15154650D01*
X12037801Y-15154650D02*
X12075896Y-15154650D01*
X12075896Y-15154650D02*
X12094944Y-15164174D01*
X12094944Y-15164174D02*
X12104468Y-15183222D01*
X12104468Y-15183222D02*
X12104468Y-15202269D01*
X12104468Y-15202269D02*
X12009230Y-15221317D01*
X12180658Y-15278460D02*
X12199706Y-15287984D01*
X12199706Y-15287984D02*
X12237801Y-15287984D01*
X12237801Y-15287984D02*
X12256849Y-15278460D01*
X12256849Y-15278460D02*
X12266372Y-15259412D01*
X12266372Y-15259412D02*
X12266372Y-15249888D01*
X12266372Y-15249888D02*
X12256849Y-15230841D01*
X12256849Y-15230841D02*
X12237801Y-15221317D01*
X12237801Y-15221317D02*
X12209230Y-15221317D01*
X12209230Y-15221317D02*
X12190182Y-15211793D01*
X12190182Y-15211793D02*
X12180658Y-15192746D01*
X12180658Y-15192746D02*
X12180658Y-15183222D01*
X12180658Y-15183222D02*
X12190182Y-15164174D01*
X12190182Y-15164174D02*
X12209230Y-15154650D01*
X12209230Y-15154650D02*
X12237801Y-15154650D01*
X12237801Y-15154650D02*
X12256849Y-15164174D01*
X12333039Y-15364174D02*
X12342563Y-15354650D01*
X12342563Y-15354650D02*
X12361611Y-15326079D01*
X12361611Y-15326079D02*
X12371134Y-15307031D01*
X12371134Y-15307031D02*
X12380658Y-15278460D01*
X12380658Y-15278460D02*
X12390182Y-15230841D01*
X12390182Y-15230841D02*
X12390182Y-15192746D01*
X12390182Y-15192746D02*
X12380658Y-15145127D01*
X12380658Y-15145127D02*
X12371134Y-15116555D01*
X12371134Y-15116555D02*
X12361611Y-15097508D01*
X12361611Y-15097508D02*
X12342563Y-15068936D01*
X12342563Y-15068936D02*
X12333039Y-15059412D01*
D13*
X7302500Y-15395500D02*
X7302500Y-15525500D01*
X7237500Y-15460500D02*
X7367500Y-15460500D01*
D11*
X7733039Y-15551984D02*
X7618753Y-15551984D01*
X7675896Y-15551984D02*
X7675896Y-15351984D01*
X7675896Y-15351984D02*
X7656848Y-15380555D01*
X7656848Y-15380555D02*
X7637801Y-15399603D01*
X7637801Y-15399603D02*
X7618753Y-15409127D01*
X7818753Y-15532936D02*
X7828277Y-15542460D01*
X7828277Y-15542460D02*
X7818753Y-15551984D01*
X7818753Y-15551984D02*
X7809229Y-15542460D01*
X7809229Y-15542460D02*
X7818753Y-15532936D01*
X7818753Y-15532936D02*
X7818753Y-15551984D01*
X7894943Y-15351984D02*
X8018753Y-15351984D01*
X8018753Y-15351984D02*
X7952086Y-15428174D01*
X7952086Y-15428174D02*
X7980658Y-15428174D01*
X7980658Y-15428174D02*
X7999705Y-15437698D01*
X7999705Y-15437698D02*
X8009229Y-15447222D01*
X8009229Y-15447222D02*
X8018753Y-15466269D01*
X8018753Y-15466269D02*
X8018753Y-15513888D01*
X8018753Y-15513888D02*
X8009229Y-15532936D01*
X8009229Y-15532936D02*
X7999705Y-15542460D01*
X7999705Y-15542460D02*
X7980658Y-15551984D01*
X7980658Y-15551984D02*
X7923515Y-15551984D01*
X7923515Y-15551984D02*
X7904467Y-15542460D01*
X7904467Y-15542460D02*
X7894943Y-15532936D01*
X8142562Y-15351984D02*
X8161610Y-15351984D01*
X8161610Y-15351984D02*
X8180658Y-15361508D01*
X8180658Y-15361508D02*
X8190182Y-15371031D01*
X8190182Y-15371031D02*
X8199705Y-15390079D01*
X8199705Y-15390079D02*
X8209229Y-15428174D01*
X8209229Y-15428174D02*
X8209229Y-15475793D01*
X8209229Y-15475793D02*
X8199705Y-15513888D01*
X8199705Y-15513888D02*
X8190182Y-15532936D01*
X8190182Y-15532936D02*
X8180658Y-15542460D01*
X8180658Y-15542460D02*
X8161610Y-15551984D01*
X8161610Y-15551984D02*
X8142562Y-15551984D01*
X8142562Y-15551984D02*
X8123515Y-15542460D01*
X8123515Y-15542460D02*
X8113991Y-15532936D01*
X8113991Y-15532936D02*
X8104467Y-15513888D01*
X8104467Y-15513888D02*
X8094943Y-15475793D01*
X8094943Y-15475793D02*
X8094943Y-15428174D01*
X8094943Y-15428174D02*
X8104467Y-15390079D01*
X8104467Y-15390079D02*
X8113991Y-15371031D01*
X8113991Y-15371031D02*
X8123515Y-15361508D01*
X8123515Y-15361508D02*
X8142562Y-15351984D01*
X8333039Y-15351984D02*
X8352086Y-15351984D01*
X8352086Y-15351984D02*
X8371134Y-15361508D01*
X8371134Y-15361508D02*
X8380658Y-15371031D01*
X8380658Y-15371031D02*
X8390182Y-15390079D01*
X8390182Y-15390079D02*
X8399705Y-15428174D01*
X8399705Y-15428174D02*
X8399705Y-15475793D01*
X8399705Y-15475793D02*
X8390182Y-15513888D01*
X8390182Y-15513888D02*
X8380658Y-15532936D01*
X8380658Y-15532936D02*
X8371134Y-15542460D01*
X8371134Y-15542460D02*
X8352086Y-15551984D01*
X8352086Y-15551984D02*
X8333039Y-15551984D01*
X8333039Y-15551984D02*
X8313991Y-15542460D01*
X8313991Y-15542460D02*
X8304467Y-15532936D01*
X8304467Y-15532936D02*
X8294943Y-15513888D01*
X8294943Y-15513888D02*
X8285420Y-15475793D01*
X8285420Y-15475793D02*
X8285420Y-15428174D01*
X8285420Y-15428174D02*
X8294943Y-15390079D01*
X8294943Y-15390079D02*
X8304467Y-15371031D01*
X8304467Y-15371031D02*
X8313991Y-15361508D01*
X8313991Y-15361508D02*
X8333039Y-15351984D01*
X8485420Y-15551984D02*
X8485420Y-15418650D01*
X8485420Y-15437698D02*
X8494944Y-15428174D01*
X8494944Y-15428174D02*
X8513991Y-15418650D01*
X8513991Y-15418650D02*
X8542563Y-15418650D01*
X8542563Y-15418650D02*
X8561610Y-15428174D01*
X8561610Y-15428174D02*
X8571134Y-15447222D01*
X8571134Y-15447222D02*
X8571134Y-15551984D01*
X8571134Y-15447222D02*
X8580658Y-15428174D01*
X8580658Y-15428174D02*
X8599705Y-15418650D01*
X8599705Y-15418650D02*
X8628277Y-15418650D01*
X8628277Y-15418650D02*
X8647325Y-15428174D01*
X8647325Y-15428174D02*
X8656848Y-15447222D01*
X8656848Y-15447222D02*
X8656848Y-15551984D01*
X8752086Y-15551984D02*
X8752086Y-15418650D01*
X8752086Y-15437698D02*
X8761610Y-15428174D01*
X8761610Y-15428174D02*
X8780658Y-15418650D01*
X8780658Y-15418650D02*
X8809229Y-15418650D01*
X8809229Y-15418650D02*
X8828277Y-15428174D01*
X8828277Y-15428174D02*
X8837801Y-15447222D01*
X8837801Y-15447222D02*
X8837801Y-15551984D01*
X8837801Y-15447222D02*
X8847325Y-15428174D01*
X8847325Y-15428174D02*
X8866372Y-15418650D01*
X8866372Y-15418650D02*
X8894944Y-15418650D01*
X8894944Y-15418650D02*
X8913991Y-15428174D01*
X8913991Y-15428174D02*
X8923515Y-15447222D01*
X8923515Y-15447222D02*
X8923515Y-15551984D01*
X9313991Y-15342460D02*
X9142563Y-15599603D01*
X9571134Y-15351984D02*
X9590182Y-15351984D01*
X9590182Y-15351984D02*
X9609229Y-15361508D01*
X9609229Y-15361508D02*
X9618753Y-15371031D01*
X9618753Y-15371031D02*
X9628277Y-15390079D01*
X9628277Y-15390079D02*
X9637801Y-15428174D01*
X9637801Y-15428174D02*
X9637801Y-15475793D01*
X9637801Y-15475793D02*
X9628277Y-15513888D01*
X9628277Y-15513888D02*
X9618753Y-15532936D01*
X9618753Y-15532936D02*
X9609229Y-15542460D01*
X9609229Y-15542460D02*
X9590182Y-15551984D01*
X9590182Y-15551984D02*
X9571134Y-15551984D01*
X9571134Y-15551984D02*
X9552087Y-15542460D01*
X9552087Y-15542460D02*
X9542563Y-15532936D01*
X9542563Y-15532936D02*
X9533039Y-15513888D01*
X9533039Y-15513888D02*
X9523515Y-15475793D01*
X9523515Y-15475793D02*
X9523515Y-15428174D01*
X9523515Y-15428174D02*
X9533039Y-15390079D01*
X9533039Y-15390079D02*
X9542563Y-15371031D01*
X9542563Y-15371031D02*
X9552087Y-15361508D01*
X9552087Y-15361508D02*
X9571134Y-15351984D01*
X9723515Y-15532936D02*
X9733039Y-15542460D01*
X9733039Y-15542460D02*
X9723515Y-15551984D01*
X9723515Y-15551984D02*
X9713991Y-15542460D01*
X9713991Y-15542460D02*
X9723515Y-15532936D01*
X9723515Y-15532936D02*
X9723515Y-15551984D01*
X9856848Y-15351984D02*
X9875896Y-15351984D01*
X9875896Y-15351984D02*
X9894944Y-15361508D01*
X9894944Y-15361508D02*
X9904468Y-15371031D01*
X9904468Y-15371031D02*
X9913991Y-15390079D01*
X9913991Y-15390079D02*
X9923515Y-15428174D01*
X9923515Y-15428174D02*
X9923515Y-15475793D01*
X9923515Y-15475793D02*
X9913991Y-15513888D01*
X9913991Y-15513888D02*
X9904468Y-15532936D01*
X9904468Y-15532936D02*
X9894944Y-15542460D01*
X9894944Y-15542460D02*
X9875896Y-15551984D01*
X9875896Y-15551984D02*
X9856848Y-15551984D01*
X9856848Y-15551984D02*
X9837801Y-15542460D01*
X9837801Y-15542460D02*
X9828277Y-15532936D01*
X9828277Y-15532936D02*
X9818753Y-15513888D01*
X9818753Y-15513888D02*
X9809229Y-15475793D01*
X9809229Y-15475793D02*
X9809229Y-15428174D01*
X9809229Y-15428174D02*
X9818753Y-15390079D01*
X9818753Y-15390079D02*
X9828277Y-15371031D01*
X9828277Y-15371031D02*
X9837801Y-15361508D01*
X9837801Y-15361508D02*
X9856848Y-15351984D01*
X10104468Y-15351984D02*
X10009229Y-15351984D01*
X10009229Y-15351984D02*
X9999706Y-15447222D01*
X9999706Y-15447222D02*
X10009229Y-15437698D01*
X10009229Y-15437698D02*
X10028277Y-15428174D01*
X10028277Y-15428174D02*
X10075896Y-15428174D01*
X10075896Y-15428174D02*
X10094944Y-15437698D01*
X10094944Y-15437698D02*
X10104468Y-15447222D01*
X10104468Y-15447222D02*
X10113991Y-15466269D01*
X10113991Y-15466269D02*
X10113991Y-15513888D01*
X10113991Y-15513888D02*
X10104468Y-15532936D01*
X10104468Y-15532936D02*
X10094944Y-15542460D01*
X10094944Y-15542460D02*
X10075896Y-15551984D01*
X10075896Y-15551984D02*
X10028277Y-15551984D01*
X10028277Y-15551984D02*
X10009229Y-15542460D01*
X10009229Y-15542460D02*
X9999706Y-15532936D01*
X10304468Y-15551984D02*
X10190182Y-15551984D01*
X10247325Y-15551984D02*
X10247325Y-15351984D01*
X10247325Y-15351984D02*
X10228277Y-15380555D01*
X10228277Y-15380555D02*
X10209229Y-15399603D01*
X10209229Y-15399603D02*
X10190182Y-15409127D01*
X10380658Y-15371031D02*
X10390182Y-15361508D01*
X10390182Y-15361508D02*
X10409229Y-15351984D01*
X10409229Y-15351984D02*
X10456849Y-15351984D01*
X10456849Y-15351984D02*
X10475896Y-15361508D01*
X10475896Y-15361508D02*
X10485420Y-15371031D01*
X10485420Y-15371031D02*
X10494944Y-15390079D01*
X10494944Y-15390079D02*
X10494944Y-15409127D01*
X10494944Y-15409127D02*
X10485420Y-15437698D01*
X10485420Y-15437698D02*
X10371134Y-15551984D01*
X10371134Y-15551984D02*
X10494944Y-15551984D01*
X10571134Y-15351984D02*
X10571134Y-15390079D01*
X10647325Y-15351984D02*
X10647325Y-15390079D01*
X10942563Y-15628174D02*
X10933039Y-15618650D01*
X10933039Y-15618650D02*
X10913991Y-15590079D01*
X10913991Y-15590079D02*
X10904468Y-15571031D01*
X10904468Y-15571031D02*
X10894944Y-15542460D01*
X10894944Y-15542460D02*
X10885420Y-15494841D01*
X10885420Y-15494841D02*
X10885420Y-15456746D01*
X10885420Y-15456746D02*
X10894944Y-15409127D01*
X10894944Y-15409127D02*
X10904468Y-15380555D01*
X10904468Y-15380555D02*
X10913991Y-15361508D01*
X10913991Y-15361508D02*
X10933039Y-15332936D01*
X10933039Y-15332936D02*
X10942563Y-15323412D01*
X11009230Y-15371031D02*
X11018753Y-15361508D01*
X11018753Y-15361508D02*
X11037801Y-15351984D01*
X11037801Y-15351984D02*
X11085420Y-15351984D01*
X11085420Y-15351984D02*
X11104468Y-15361508D01*
X11104468Y-15361508D02*
X11113991Y-15371031D01*
X11113991Y-15371031D02*
X11123515Y-15390079D01*
X11123515Y-15390079D02*
X11123515Y-15409127D01*
X11123515Y-15409127D02*
X11113991Y-15437698D01*
X11113991Y-15437698D02*
X10999706Y-15551984D01*
X10999706Y-15551984D02*
X11123515Y-15551984D01*
X11361610Y-15551984D02*
X11361610Y-15351984D01*
X11447325Y-15551984D02*
X11447325Y-15447222D01*
X11447325Y-15447222D02*
X11437801Y-15428174D01*
X11437801Y-15428174D02*
X11418753Y-15418650D01*
X11418753Y-15418650D02*
X11390182Y-15418650D01*
X11390182Y-15418650D02*
X11371134Y-15428174D01*
X11371134Y-15428174D02*
X11361610Y-15437698D01*
X11571134Y-15551984D02*
X11552087Y-15542460D01*
X11552087Y-15542460D02*
X11542563Y-15532936D01*
X11542563Y-15532936D02*
X11533039Y-15513888D01*
X11533039Y-15513888D02*
X11533039Y-15456746D01*
X11533039Y-15456746D02*
X11542563Y-15437698D01*
X11542563Y-15437698D02*
X11552087Y-15428174D01*
X11552087Y-15428174D02*
X11571134Y-15418650D01*
X11571134Y-15418650D02*
X11599706Y-15418650D01*
X11599706Y-15418650D02*
X11618753Y-15428174D01*
X11618753Y-15428174D02*
X11628277Y-15437698D01*
X11628277Y-15437698D02*
X11637801Y-15456746D01*
X11637801Y-15456746D02*
X11637801Y-15513888D01*
X11637801Y-15513888D02*
X11628277Y-15532936D01*
X11628277Y-15532936D02*
X11618753Y-15542460D01*
X11618753Y-15542460D02*
X11599706Y-15551984D01*
X11599706Y-15551984D02*
X11571134Y-15551984D01*
X11752087Y-15551984D02*
X11733039Y-15542460D01*
X11733039Y-15542460D02*
X11723515Y-15523412D01*
X11723515Y-15523412D02*
X11723515Y-15351984D01*
X11904468Y-15542460D02*
X11885420Y-15551984D01*
X11885420Y-15551984D02*
X11847325Y-15551984D01*
X11847325Y-15551984D02*
X11828277Y-15542460D01*
X11828277Y-15542460D02*
X11818753Y-15523412D01*
X11818753Y-15523412D02*
X11818753Y-15447222D01*
X11818753Y-15447222D02*
X11828277Y-15428174D01*
X11828277Y-15428174D02*
X11847325Y-15418650D01*
X11847325Y-15418650D02*
X11885420Y-15418650D01*
X11885420Y-15418650D02*
X11904468Y-15428174D01*
X11904468Y-15428174D02*
X11913991Y-15447222D01*
X11913991Y-15447222D02*
X11913991Y-15466269D01*
X11913991Y-15466269D02*
X11818753Y-15485317D01*
X11990182Y-15542460D02*
X12009230Y-15551984D01*
X12009230Y-15551984D02*
X12047325Y-15551984D01*
X12047325Y-15551984D02*
X12066372Y-15542460D01*
X12066372Y-15542460D02*
X12075896Y-15523412D01*
X12075896Y-15523412D02*
X12075896Y-15513888D01*
X12075896Y-15513888D02*
X12066372Y-15494841D01*
X12066372Y-15494841D02*
X12047325Y-15485317D01*
X12047325Y-15485317D02*
X12018753Y-15485317D01*
X12018753Y-15485317D02*
X11999706Y-15475793D01*
X11999706Y-15475793D02*
X11990182Y-15456746D01*
X11990182Y-15456746D02*
X11990182Y-15447222D01*
X11990182Y-15447222D02*
X11999706Y-15428174D01*
X11999706Y-15428174D02*
X12018753Y-15418650D01*
X12018753Y-15418650D02*
X12047325Y-15418650D01*
X12047325Y-15418650D02*
X12066372Y-15428174D01*
X12142563Y-15628174D02*
X12152087Y-15618650D01*
X12152087Y-15618650D02*
X12171134Y-15590079D01*
X12171134Y-15590079D02*
X12180658Y-15571031D01*
X12180658Y-15571031D02*
X12190182Y-15542460D01*
X12190182Y-15542460D02*
X12199706Y-15494841D01*
X12199706Y-15494841D02*
X12199706Y-15456746D01*
X12199706Y-15456746D02*
X12190182Y-15409127D01*
X12190182Y-15409127D02*
X12180658Y-15380555D01*
X12180658Y-15380555D02*
X12171134Y-15361508D01*
X12171134Y-15361508D02*
X12152087Y-15332936D01*
X12152087Y-15332936D02*
X12142563Y-15323412D01*
X7338211Y-15795211D02*
X7338211Y-15653789D01*
X7196789Y-15653789D01*
X7196789Y-15795211D01*
X7338211Y-15795211D01*
X7723515Y-15615984D02*
X7628277Y-15615984D01*
X7628277Y-15615984D02*
X7618753Y-15711222D01*
X7618753Y-15711222D02*
X7628277Y-15701698D01*
X7628277Y-15701698D02*
X7647324Y-15692174D01*
X7647324Y-15692174D02*
X7694943Y-15692174D01*
X7694943Y-15692174D02*
X7713991Y-15701698D01*
X7713991Y-15701698D02*
X7723515Y-15711222D01*
X7723515Y-15711222D02*
X7733039Y-15730269D01*
X7733039Y-15730269D02*
X7733039Y-15777888D01*
X7733039Y-15777888D02*
X7723515Y-15796936D01*
X7723515Y-15796936D02*
X7713991Y-15806460D01*
X7713991Y-15806460D02*
X7694943Y-15815984D01*
X7694943Y-15815984D02*
X7647324Y-15815984D01*
X7647324Y-15815984D02*
X7628277Y-15806460D01*
X7628277Y-15806460D02*
X7618753Y-15796936D01*
X7818753Y-15796936D02*
X7828277Y-15806460D01*
X7828277Y-15806460D02*
X7818753Y-15815984D01*
X7818753Y-15815984D02*
X7809229Y-15806460D01*
X7809229Y-15806460D02*
X7818753Y-15796936D01*
X7818753Y-15796936D02*
X7818753Y-15815984D01*
X7952086Y-15615984D02*
X7971134Y-15615984D01*
X7971134Y-15615984D02*
X7990182Y-15625508D01*
X7990182Y-15625508D02*
X7999705Y-15635031D01*
X7999705Y-15635031D02*
X8009229Y-15654079D01*
X8009229Y-15654079D02*
X8018753Y-15692174D01*
X8018753Y-15692174D02*
X8018753Y-15739793D01*
X8018753Y-15739793D02*
X8009229Y-15777888D01*
X8009229Y-15777888D02*
X7999705Y-15796936D01*
X7999705Y-15796936D02*
X7990182Y-15806460D01*
X7990182Y-15806460D02*
X7971134Y-15815984D01*
X7971134Y-15815984D02*
X7952086Y-15815984D01*
X7952086Y-15815984D02*
X7933039Y-15806460D01*
X7933039Y-15806460D02*
X7923515Y-15796936D01*
X7923515Y-15796936D02*
X7913991Y-15777888D01*
X7913991Y-15777888D02*
X7904467Y-15739793D01*
X7904467Y-15739793D02*
X7904467Y-15692174D01*
X7904467Y-15692174D02*
X7913991Y-15654079D01*
X7913991Y-15654079D02*
X7923515Y-15635031D01*
X7923515Y-15635031D02*
X7933039Y-15625508D01*
X7933039Y-15625508D02*
X7952086Y-15615984D01*
X8142562Y-15615984D02*
X8161610Y-15615984D01*
X8161610Y-15615984D02*
X8180658Y-15625508D01*
X8180658Y-15625508D02*
X8190182Y-15635031D01*
X8190182Y-15635031D02*
X8199705Y-15654079D01*
X8199705Y-15654079D02*
X8209229Y-15692174D01*
X8209229Y-15692174D02*
X8209229Y-15739793D01*
X8209229Y-15739793D02*
X8199705Y-15777888D01*
X8199705Y-15777888D02*
X8190182Y-15796936D01*
X8190182Y-15796936D02*
X8180658Y-15806460D01*
X8180658Y-15806460D02*
X8161610Y-15815984D01*
X8161610Y-15815984D02*
X8142562Y-15815984D01*
X8142562Y-15815984D02*
X8123515Y-15806460D01*
X8123515Y-15806460D02*
X8113991Y-15796936D01*
X8113991Y-15796936D02*
X8104467Y-15777888D01*
X8104467Y-15777888D02*
X8094943Y-15739793D01*
X8094943Y-15739793D02*
X8094943Y-15692174D01*
X8094943Y-15692174D02*
X8104467Y-15654079D01*
X8104467Y-15654079D02*
X8113991Y-15635031D01*
X8113991Y-15635031D02*
X8123515Y-15625508D01*
X8123515Y-15625508D02*
X8142562Y-15615984D01*
X8333039Y-15615984D02*
X8352086Y-15615984D01*
X8352086Y-15615984D02*
X8371134Y-15625508D01*
X8371134Y-15625508D02*
X8380658Y-15635031D01*
X8380658Y-15635031D02*
X8390182Y-15654079D01*
X8390182Y-15654079D02*
X8399705Y-15692174D01*
X8399705Y-15692174D02*
X8399705Y-15739793D01*
X8399705Y-15739793D02*
X8390182Y-15777888D01*
X8390182Y-15777888D02*
X8380658Y-15796936D01*
X8380658Y-15796936D02*
X8371134Y-15806460D01*
X8371134Y-15806460D02*
X8352086Y-15815984D01*
X8352086Y-15815984D02*
X8333039Y-15815984D01*
X8333039Y-15815984D02*
X8313991Y-15806460D01*
X8313991Y-15806460D02*
X8304467Y-15796936D01*
X8304467Y-15796936D02*
X8294943Y-15777888D01*
X8294943Y-15777888D02*
X8285420Y-15739793D01*
X8285420Y-15739793D02*
X8285420Y-15692174D01*
X8285420Y-15692174D02*
X8294943Y-15654079D01*
X8294943Y-15654079D02*
X8304467Y-15635031D01*
X8304467Y-15635031D02*
X8313991Y-15625508D01*
X8313991Y-15625508D02*
X8333039Y-15615984D01*
X8485420Y-15815984D02*
X8485420Y-15682650D01*
X8485420Y-15701698D02*
X8494944Y-15692174D01*
X8494944Y-15692174D02*
X8513991Y-15682650D01*
X8513991Y-15682650D02*
X8542563Y-15682650D01*
X8542563Y-15682650D02*
X8561610Y-15692174D01*
X8561610Y-15692174D02*
X8571134Y-15711222D01*
X8571134Y-15711222D02*
X8571134Y-15815984D01*
X8571134Y-15711222D02*
X8580658Y-15692174D01*
X8580658Y-15692174D02*
X8599705Y-15682650D01*
X8599705Y-15682650D02*
X8628277Y-15682650D01*
X8628277Y-15682650D02*
X8647325Y-15692174D01*
X8647325Y-15692174D02*
X8656848Y-15711222D01*
X8656848Y-15711222D02*
X8656848Y-15815984D01*
X8752086Y-15815984D02*
X8752086Y-15682650D01*
X8752086Y-15701698D02*
X8761610Y-15692174D01*
X8761610Y-15692174D02*
X8780658Y-15682650D01*
X8780658Y-15682650D02*
X8809229Y-15682650D01*
X8809229Y-15682650D02*
X8828277Y-15692174D01*
X8828277Y-15692174D02*
X8837801Y-15711222D01*
X8837801Y-15711222D02*
X8837801Y-15815984D01*
X8837801Y-15711222D02*
X8847325Y-15692174D01*
X8847325Y-15692174D02*
X8866372Y-15682650D01*
X8866372Y-15682650D02*
X8894944Y-15682650D01*
X8894944Y-15682650D02*
X8913991Y-15692174D01*
X8913991Y-15692174D02*
X8923515Y-15711222D01*
X8923515Y-15711222D02*
X8923515Y-15815984D01*
X9313991Y-15606460D02*
X9142563Y-15863603D01*
X9571134Y-15615984D02*
X9590182Y-15615984D01*
X9590182Y-15615984D02*
X9609229Y-15625508D01*
X9609229Y-15625508D02*
X9618753Y-15635031D01*
X9618753Y-15635031D02*
X9628277Y-15654079D01*
X9628277Y-15654079D02*
X9637801Y-15692174D01*
X9637801Y-15692174D02*
X9637801Y-15739793D01*
X9637801Y-15739793D02*
X9628277Y-15777888D01*
X9628277Y-15777888D02*
X9618753Y-15796936D01*
X9618753Y-15796936D02*
X9609229Y-15806460D01*
X9609229Y-15806460D02*
X9590182Y-15815984D01*
X9590182Y-15815984D02*
X9571134Y-15815984D01*
X9571134Y-15815984D02*
X9552087Y-15806460D01*
X9552087Y-15806460D02*
X9542563Y-15796936D01*
X9542563Y-15796936D02*
X9533039Y-15777888D01*
X9533039Y-15777888D02*
X9523515Y-15739793D01*
X9523515Y-15739793D02*
X9523515Y-15692174D01*
X9523515Y-15692174D02*
X9533039Y-15654079D01*
X9533039Y-15654079D02*
X9542563Y-15635031D01*
X9542563Y-15635031D02*
X9552087Y-15625508D01*
X9552087Y-15625508D02*
X9571134Y-15615984D01*
X9723515Y-15796936D02*
X9733039Y-15806460D01*
X9733039Y-15806460D02*
X9723515Y-15815984D01*
X9723515Y-15815984D02*
X9713991Y-15806460D01*
X9713991Y-15806460D02*
X9723515Y-15796936D01*
X9723515Y-15796936D02*
X9723515Y-15815984D01*
X9923515Y-15815984D02*
X9809229Y-15815984D01*
X9866372Y-15815984D02*
X9866372Y-15615984D01*
X9866372Y-15615984D02*
X9847325Y-15644555D01*
X9847325Y-15644555D02*
X9828277Y-15663603D01*
X9828277Y-15663603D02*
X9809229Y-15673127D01*
X10018753Y-15815984D02*
X10056848Y-15815984D01*
X10056848Y-15815984D02*
X10075896Y-15806460D01*
X10075896Y-15806460D02*
X10085420Y-15796936D01*
X10085420Y-15796936D02*
X10104468Y-15768365D01*
X10104468Y-15768365D02*
X10113991Y-15730269D01*
X10113991Y-15730269D02*
X10113991Y-15654079D01*
X10113991Y-15654079D02*
X10104468Y-15635031D01*
X10104468Y-15635031D02*
X10094944Y-15625508D01*
X10094944Y-15625508D02*
X10075896Y-15615984D01*
X10075896Y-15615984D02*
X10037801Y-15615984D01*
X10037801Y-15615984D02*
X10018753Y-15625508D01*
X10018753Y-15625508D02*
X10009229Y-15635031D01*
X10009229Y-15635031D02*
X9999706Y-15654079D01*
X9999706Y-15654079D02*
X9999706Y-15701698D01*
X9999706Y-15701698D02*
X10009229Y-15720746D01*
X10009229Y-15720746D02*
X10018753Y-15730269D01*
X10018753Y-15730269D02*
X10037801Y-15739793D01*
X10037801Y-15739793D02*
X10075896Y-15739793D01*
X10075896Y-15739793D02*
X10094944Y-15730269D01*
X10094944Y-15730269D02*
X10104468Y-15720746D01*
X10104468Y-15720746D02*
X10113991Y-15701698D01*
X10285420Y-15615984D02*
X10247325Y-15615984D01*
X10247325Y-15615984D02*
X10228277Y-15625508D01*
X10228277Y-15625508D02*
X10218753Y-15635031D01*
X10218753Y-15635031D02*
X10199706Y-15663603D01*
X10199706Y-15663603D02*
X10190182Y-15701698D01*
X10190182Y-15701698D02*
X10190182Y-15777888D01*
X10190182Y-15777888D02*
X10199706Y-15796936D01*
X10199706Y-15796936D02*
X10209229Y-15806460D01*
X10209229Y-15806460D02*
X10228277Y-15815984D01*
X10228277Y-15815984D02*
X10266372Y-15815984D01*
X10266372Y-15815984D02*
X10285420Y-15806460D01*
X10285420Y-15806460D02*
X10294944Y-15796936D01*
X10294944Y-15796936D02*
X10304468Y-15777888D01*
X10304468Y-15777888D02*
X10304468Y-15730269D01*
X10304468Y-15730269D02*
X10294944Y-15711222D01*
X10294944Y-15711222D02*
X10285420Y-15701698D01*
X10285420Y-15701698D02*
X10266372Y-15692174D01*
X10266372Y-15692174D02*
X10228277Y-15692174D01*
X10228277Y-15692174D02*
X10209229Y-15701698D01*
X10209229Y-15701698D02*
X10199706Y-15711222D01*
X10199706Y-15711222D02*
X10190182Y-15730269D01*
X10399706Y-15815984D02*
X10437801Y-15815984D01*
X10437801Y-15815984D02*
X10456849Y-15806460D01*
X10456849Y-15806460D02*
X10466372Y-15796936D01*
X10466372Y-15796936D02*
X10485420Y-15768365D01*
X10485420Y-15768365D02*
X10494944Y-15730269D01*
X10494944Y-15730269D02*
X10494944Y-15654079D01*
X10494944Y-15654079D02*
X10485420Y-15635031D01*
X10485420Y-15635031D02*
X10475896Y-15625508D01*
X10475896Y-15625508D02*
X10456849Y-15615984D01*
X10456849Y-15615984D02*
X10418753Y-15615984D01*
X10418753Y-15615984D02*
X10399706Y-15625508D01*
X10399706Y-15625508D02*
X10390182Y-15635031D01*
X10390182Y-15635031D02*
X10380658Y-15654079D01*
X10380658Y-15654079D02*
X10380658Y-15701698D01*
X10380658Y-15701698D02*
X10390182Y-15720746D01*
X10390182Y-15720746D02*
X10399706Y-15730269D01*
X10399706Y-15730269D02*
X10418753Y-15739793D01*
X10418753Y-15739793D02*
X10456849Y-15739793D01*
X10456849Y-15739793D02*
X10475896Y-15730269D01*
X10475896Y-15730269D02*
X10485420Y-15720746D01*
X10485420Y-15720746D02*
X10494944Y-15701698D01*
X10571134Y-15615984D02*
X10571134Y-15654079D01*
X10647325Y-15615984D02*
X10647325Y-15654079D01*
X10942563Y-15892174D02*
X10933039Y-15882650D01*
X10933039Y-15882650D02*
X10913991Y-15854079D01*
X10913991Y-15854079D02*
X10904468Y-15835031D01*
X10904468Y-15835031D02*
X10894944Y-15806460D01*
X10894944Y-15806460D02*
X10885420Y-15758841D01*
X10885420Y-15758841D02*
X10885420Y-15720746D01*
X10885420Y-15720746D02*
X10894944Y-15673127D01*
X10894944Y-15673127D02*
X10904468Y-15644555D01*
X10904468Y-15644555D02*
X10913991Y-15625508D01*
X10913991Y-15625508D02*
X10933039Y-15596936D01*
X10933039Y-15596936D02*
X10942563Y-15587412D01*
X10999706Y-15615984D02*
X11123515Y-15615984D01*
X11123515Y-15615984D02*
X11056849Y-15692174D01*
X11056849Y-15692174D02*
X11085420Y-15692174D01*
X11085420Y-15692174D02*
X11104468Y-15701698D01*
X11104468Y-15701698D02*
X11113991Y-15711222D01*
X11113991Y-15711222D02*
X11123515Y-15730269D01*
X11123515Y-15730269D02*
X11123515Y-15777888D01*
X11123515Y-15777888D02*
X11113991Y-15796936D01*
X11113991Y-15796936D02*
X11104468Y-15806460D01*
X11104468Y-15806460D02*
X11085420Y-15815984D01*
X11085420Y-15815984D02*
X11028277Y-15815984D01*
X11028277Y-15815984D02*
X11009230Y-15806460D01*
X11009230Y-15806460D02*
X10999706Y-15796936D01*
X11361610Y-15815984D02*
X11361610Y-15615984D01*
X11447325Y-15815984D02*
X11447325Y-15711222D01*
X11447325Y-15711222D02*
X11437801Y-15692174D01*
X11437801Y-15692174D02*
X11418753Y-15682650D01*
X11418753Y-15682650D02*
X11390182Y-15682650D01*
X11390182Y-15682650D02*
X11371134Y-15692174D01*
X11371134Y-15692174D02*
X11361610Y-15701698D01*
X11571134Y-15815984D02*
X11552087Y-15806460D01*
X11552087Y-15806460D02*
X11542563Y-15796936D01*
X11542563Y-15796936D02*
X11533039Y-15777888D01*
X11533039Y-15777888D02*
X11533039Y-15720746D01*
X11533039Y-15720746D02*
X11542563Y-15701698D01*
X11542563Y-15701698D02*
X11552087Y-15692174D01*
X11552087Y-15692174D02*
X11571134Y-15682650D01*
X11571134Y-15682650D02*
X11599706Y-15682650D01*
X11599706Y-15682650D02*
X11618753Y-15692174D01*
X11618753Y-15692174D02*
X11628277Y-15701698D01*
X11628277Y-15701698D02*
X11637801Y-15720746D01*
X11637801Y-15720746D02*
X11637801Y-15777888D01*
X11637801Y-15777888D02*
X11628277Y-15796936D01*
X11628277Y-15796936D02*
X11618753Y-15806460D01*
X11618753Y-15806460D02*
X11599706Y-15815984D01*
X11599706Y-15815984D02*
X11571134Y-15815984D01*
X11752087Y-15815984D02*
X11733039Y-15806460D01*
X11733039Y-15806460D02*
X11723515Y-15787412D01*
X11723515Y-15787412D02*
X11723515Y-15615984D01*
X11904468Y-15806460D02*
X11885420Y-15815984D01*
X11885420Y-15815984D02*
X11847325Y-15815984D01*
X11847325Y-15815984D02*
X11828277Y-15806460D01*
X11828277Y-15806460D02*
X11818753Y-15787412D01*
X11818753Y-15787412D02*
X11818753Y-15711222D01*
X11818753Y-15711222D02*
X11828277Y-15692174D01*
X11828277Y-15692174D02*
X11847325Y-15682650D01*
X11847325Y-15682650D02*
X11885420Y-15682650D01*
X11885420Y-15682650D02*
X11904468Y-15692174D01*
X11904468Y-15692174D02*
X11913991Y-15711222D01*
X11913991Y-15711222D02*
X11913991Y-15730269D01*
X11913991Y-15730269D02*
X11818753Y-15749317D01*
X11990182Y-15806460D02*
X12009230Y-15815984D01*
X12009230Y-15815984D02*
X12047325Y-15815984D01*
X12047325Y-15815984D02*
X12066372Y-15806460D01*
X12066372Y-15806460D02*
X12075896Y-15787412D01*
X12075896Y-15787412D02*
X12075896Y-15777888D01*
X12075896Y-15777888D02*
X12066372Y-15758841D01*
X12066372Y-15758841D02*
X12047325Y-15749317D01*
X12047325Y-15749317D02*
X12018753Y-15749317D01*
X12018753Y-15749317D02*
X11999706Y-15739793D01*
X11999706Y-15739793D02*
X11990182Y-15720746D01*
X11990182Y-15720746D02*
X11990182Y-15711222D01*
X11990182Y-15711222D02*
X11999706Y-15692174D01*
X11999706Y-15692174D02*
X12018753Y-15682650D01*
X12018753Y-15682650D02*
X12047325Y-15682650D01*
X12047325Y-15682650D02*
X12066372Y-15692174D01*
X12142563Y-15892174D02*
X12152087Y-15882650D01*
X12152087Y-15882650D02*
X12171134Y-15854079D01*
X12171134Y-15854079D02*
X12180658Y-15835031D01*
X12180658Y-15835031D02*
X12190182Y-15806460D01*
X12190182Y-15806460D02*
X12199706Y-15758841D01*
X12199706Y-15758841D02*
X12199706Y-15720746D01*
X12199706Y-15720746D02*
X12190182Y-15673127D01*
X12190182Y-15673127D02*
X12180658Y-15644555D01*
X12180658Y-15644555D02*
X12171134Y-15625508D01*
X12171134Y-15625508D02*
X12152087Y-15596936D01*
X12152087Y-15596936D02*
X12142563Y-15587412D01*
M02*
