G04 #@! TF.GenerationSoftware,KiCad,Pcbnew,10.0.4*
G04 #@! TF.CreationDate,2026-08-07T21:49:30-07:00*
G04 #@! TF.ProjectId,ThermocoupleBoard,54686572-6d6f-4636-9f75-706c65426f61,rev?*
G04 #@! TF.SameCoordinates,Original*
G04 #@! TF.FileFunction,Soldermask,Top*
G04 #@! TF.FilePolarity,Negative*
%FSLAX46Y46*%
G04 Gerber Fmt 4.6, Leading zero omitted, Abs format (unit mm)*
G04 Created by KiCad (PCBNEW 10.0.4) date 2026-08-07 21:49:30*
%MOMM*%
%LPD*%
G01*
G04 APERTURE LIST*
G04 Aperture macros list*
%AMRoundRect*
0 Rectangle with rounded corners*
0 $1 Rounding radius*
0 $2 $3 $4 $5 $6 $7 $8 $9 X,Y pos of 4 corners*
0 Add a 4 corners polygon primitive as box body*
4,1,4,$2,$3,$4,$5,$6,$7,$8,$9,$2,$3,0*
0 Add four circle primitives for the rounded corners*
1,1,$1+$1,$2,$3*
1,1,$1+$1,$4,$5*
1,1,$1+$1,$6,$7*
1,1,$1+$1,$8,$9*
0 Add four rect primitives between the rounded corners*
20,1,$1+$1,$2,$3,$4,$5,0*
20,1,$1+$1,$4,$5,$6,$7,0*
20,1,$1+$1,$6,$7,$8,$9,0*
20,1,$1+$1,$8,$9,$2,$3,0*%
G04 Aperture macros list end*
%ADD10R,1.000000X1.000000*%
%ADD11C,1.000000*%
%ADD12RoundRect,0.250000X-0.325000X-1.100000X0.325000X-1.100000X0.325000X1.100000X-0.325000X1.100000X0*%
%ADD13RoundRect,0.160000X0.222500X0.160000X-0.222500X0.160000X-0.222500X-0.160000X0.222500X-0.160000X0*%
%ADD14RoundRect,0.100000X0.100000X-0.637500X0.100000X0.637500X-0.100000X0.637500X-0.100000X-0.637500X0*%
%ADD15RoundRect,0.160000X-0.222500X-0.160000X0.222500X-0.160000X0.222500X0.160000X-0.222500X0.160000X0*%
%ADD16RoundRect,0.135000X-0.135000X-0.185000X0.135000X-0.185000X0.135000X0.185000X-0.135000X0.185000X0*%
%ADD17RoundRect,0.135000X0.135000X0.185000X-0.135000X0.185000X-0.135000X-0.185000X0.135000X-0.185000X0*%
%ADD18R,1.950000X1.950000*%
%ADD19C,1.950000*%
%ADD20RoundRect,0.140000X0.140000X0.170000X-0.140000X0.170000X-0.140000X-0.170000X0.140000X-0.170000X0*%
G04 APERTURE END LIST*
D10*
X99650000Y-106570000D03*
D11*
X99650000Y-105300000D03*
X100920000Y-106570000D03*
X100920000Y-105300000D03*
X102190000Y-106570000D03*
X102190000Y-105300000D03*
X103460000Y-106570000D03*
X103460000Y-105300000D03*
X104730000Y-106570000D03*
X104730000Y-105300000D03*
X106000000Y-106570000D03*
X106000000Y-105300000D03*
D12*
X80825000Y-124500000D03*
X83775000Y-124500000D03*
D13*
X96122500Y-129564243D03*
X94977500Y-129564243D03*
D14*
X92600000Y-123926743D03*
X93250000Y-123926743D03*
X93900000Y-123926743D03*
X94550000Y-123926743D03*
X95200000Y-123926743D03*
X95850000Y-123926743D03*
X96500000Y-123926743D03*
X96500000Y-118201743D03*
X95850000Y-118201743D03*
X95200000Y-118201743D03*
X94550000Y-118201743D03*
X93900000Y-118201743D03*
X93250000Y-118201743D03*
X92600000Y-118201743D03*
D15*
X91977500Y-129564243D03*
X93122500Y-129564243D03*
D16*
X92040000Y-128064243D03*
X93060000Y-128064243D03*
D17*
X96060000Y-128064243D03*
X95040000Y-128064243D03*
D18*
X91684599Y-136388657D03*
D19*
X96684599Y-136388657D03*
D20*
X96530000Y-126564243D03*
X95570000Y-126564243D03*
X94550000Y-126564243D03*
X93590000Y-126564243D03*
X92530000Y-126564243D03*
X91570000Y-126564243D03*
M02*
