G04 #@! TF.GenerationSoftware,KiCad,Pcbnew,10.0.4*
G04 #@! TF.CreationDate,2026-08-07T21:49:30-07:00*
G04 #@! TF.ProjectId,ThermocoupleBoard,54686572-6d6f-4636-9f75-706c65426f61,rev?*
G04 #@! TF.SameCoordinates,Original*
G04 #@! TF.FileFunction,Copper,L2,Bot*
G04 #@! TF.FilePolarity,Positive*
%FSLAX46Y46*%
G04 Gerber Fmt 4.6, Leading zero omitted, Abs format (unit mm)*
G04 Created by KiCad (PCBNEW 10.0.4) date 2026-08-07 21:49:30*
%MOMM*%
%LPD*%
G01*
G04 APERTURE LIST*
G04 Aperture macros list*
%AMRoundRect*
0 Rectangle with rounded corners*
0 $1 Rounding radius*
0 $2 $3 $4 $5 $6 $7 $8 $9 X,Y pos of 4 corners*
0 Add a 4 corners polygon primitive as box body*
4,1,4,$2,$3,$4,$5,$6,$7,$8,$9,$2,$3,0*
0 Add four circle primitives for the rounded corners*
1,1,$1+$1,$2,$3*
1,1,$1+$1,$4,$5*
1,1,$1+$1,$6,$7*
1,1,$1+$1,$8,$9*
0 Add four rect primitives between the rounded corners*
20,1,$1+$1,$2,$3,$4,$5,0*
20,1,$1+$1,$4,$5,$6,$7,0*
20,1,$1+$1,$6,$7,$8,$9,0*
20,1,$1+$1,$8,$9,$2,$3,0*%
G04 Aperture macros list end*
G04 #@! TA.AperFunction,ComponentPad*
%ADD10R,1.000000X1.000000*%
G04 #@! TD*
G04 #@! TA.AperFunction,ComponentPad*
%ADD11C,1.000000*%
G04 #@! TD*
G04 #@! TA.AperFunction,ComponentPad*
%ADD12R,1.950000X1.950000*%
G04 #@! TD*
G04 #@! TA.AperFunction,ComponentPad*
%ADD13C,1.950000*%
G04 #@! TD*
G04 #@! TA.AperFunction,SMDPad,CuDef*
%ADD14RoundRect,0.140000X0.140000X0.170000X-0.140000X0.170000X-0.140000X-0.170000X0.140000X-0.170000X0*%
G04 #@! TD*
G04 #@! TA.AperFunction,SMDPad,CuDef*
%ADD15RoundRect,0.150000X0.150000X-0.587500X0.150000X0.587500X-0.150000X0.587500X-0.150000X-0.587500X0*%
G04 #@! TD*
G04 #@! TA.AperFunction,SMDPad,CuDef*
%ADD16RoundRect,0.250000X0.650000X-0.325000X0.650000X0.325000X-0.650000X0.325000X-0.650000X-0.325000X0*%
G04 #@! TD*
G04 #@! TA.AperFunction,SMDPad,CuDef*
%ADD17RoundRect,0.135000X-0.185000X0.135000X-0.185000X-0.135000X0.185000X-0.135000X0.185000X0.135000X0*%
G04 #@! TD*
G04 #@! TA.AperFunction,SMDPad,CuDef*
%ADD18RoundRect,0.250000X0.325000X1.100000X-0.325000X1.100000X-0.325000X-1.100000X0.325000X-1.100000X0*%
G04 #@! TD*
G04 #@! TA.AperFunction,SMDPad,CuDef*
%ADD19RoundRect,0.160000X0.160000X-0.222500X0.160000X0.222500X-0.160000X0.222500X-0.160000X-0.222500X0*%
G04 #@! TD*
G04 #@! TA.AperFunction,SMDPad,CuDef*
%ADD20RoundRect,0.140000X-0.170000X0.140000X-0.170000X-0.140000X0.170000X-0.140000X0.170000X0.140000X0*%
G04 #@! TD*
G04 #@! TA.AperFunction,SMDPad,CuDef*
%ADD21RoundRect,0.250000X1.100000X-0.325000X1.100000X0.325000X-1.100000X0.325000X-1.100000X-0.325000X0*%
G04 #@! TD*
G04 #@! TA.AperFunction,SMDPad,CuDef*
%ADD22RoundRect,0.135000X0.185000X-0.135000X0.185000X0.135000X-0.185000X0.135000X-0.185000X-0.135000X0*%
G04 #@! TD*
G04 #@! TA.AperFunction,SMDPad,CuDef*
%ADD23RoundRect,0.100000X0.712500X0.100000X-0.712500X0.100000X-0.712500X-0.100000X0.712500X-0.100000X0*%
G04 #@! TD*
G04 #@! TA.AperFunction,SMDPad,CuDef*
%ADD24RoundRect,0.140000X-0.140000X-0.170000X0.140000X-0.170000X0.140000X0.170000X-0.140000X0.170000X0*%
G04 #@! TD*
G04 #@! TA.AperFunction,ViaPad*
%ADD25C,10.000000*%
G04 #@! TD*
G04 #@! TA.AperFunction,ViaPad*
%ADD26C,0.600000*%
G04 #@! TD*
G04 #@! TA.AperFunction,ViaPad*
%ADD27C,0.700000*%
G04 #@! TD*
G04 #@! TA.AperFunction,Conductor*
%ADD28C,0.200000*%
G04 #@! TD*
G04 #@! TA.AperFunction,Conductor*
%ADD29C,0.300000*%
G04 #@! TD*
G04 #@! TA.AperFunction,Conductor*
%ADD30C,0.400000*%
G04 #@! TD*
G04 #@! TA.AperFunction,Conductor*
%ADD31C,0.600000*%
G04 #@! TD*
G04 APERTURE END LIST*
D10*
X99650000Y-106570000D03*
D11*
X99650000Y-105300000D03*
X100920000Y-106570000D03*
X100920000Y-105300000D03*
X102190000Y-106570000D03*
X102190000Y-105300000D03*
X103460000Y-106570000D03*
X103460000Y-105300000D03*
X104730000Y-106570000D03*
X104730000Y-105300000D03*
X106000000Y-106570000D03*
X106000000Y-105300000D03*
D12*
X91684599Y-136388657D03*
D13*
X96684599Y-136388657D03*
D14*
X94530000Y-123054243D03*
X93570000Y-123054243D03*
D15*
X95034599Y-132526157D03*
X93134599Y-132526157D03*
X94084599Y-130651157D03*
D14*
X94530000Y-122054243D03*
X93570000Y-122054243D03*
D16*
X92684599Y-120463657D03*
X92684599Y-117513657D03*
D17*
X83500000Y-117790000D03*
X83500000Y-118810000D03*
D18*
X80775000Y-124500000D03*
X77825000Y-124500000D03*
D17*
X94050000Y-127054243D03*
X94050000Y-128074243D03*
D19*
X94484599Y-120961157D03*
X94484599Y-119816157D03*
D20*
X83500000Y-120120000D03*
X83500000Y-121080000D03*
D21*
X86100000Y-121875000D03*
X86100000Y-118925000D03*
D22*
X82100000Y-118210000D03*
X82100000Y-117190000D03*
D23*
X81412500Y-119625000D03*
X81412500Y-120275000D03*
X81412500Y-120925000D03*
X81412500Y-121575000D03*
X77187500Y-121575000D03*
X77187500Y-120925000D03*
X77187500Y-120275000D03*
X77187500Y-119625000D03*
D16*
X97984599Y-122563657D03*
X97984599Y-119613657D03*
D24*
X94070000Y-125564243D03*
X95030000Y-125564243D03*
D19*
X95484599Y-121861157D03*
X95484599Y-120716157D03*
D25*
X82600000Y-136600000D03*
X105500000Y-137100000D03*
X82500000Y-109000000D03*
D26*
X94500000Y-110100000D03*
D27*
X76600000Y-124500000D03*
X97800000Y-116600000D03*
D26*
X95400000Y-108100000D03*
D27*
X88100000Y-112100000D03*
X79700000Y-121600000D03*
X89900000Y-133300000D03*
X79800000Y-116600000D03*
D26*
X98500000Y-109900000D03*
D27*
X96016109Y-105056597D03*
X89500000Y-124500000D03*
X94100000Y-134100000D03*
X86100000Y-123000000D03*
X76200000Y-114000000D03*
X87200000Y-117300000D03*
X94600000Y-140400000D03*
X87400000Y-115300000D03*
X82200000Y-127000000D03*
X92684599Y-122688657D03*
X85900000Y-114100000D03*
X82000000Y-124400000D03*
X98700000Y-133900000D03*
X100400000Y-112100000D03*
X107500000Y-108500000D03*
X103500000Y-124800000D03*
X103100000Y-110600000D03*
X96484599Y-125588657D03*
X91584599Y-125688657D03*
X106600000Y-116800000D03*
X105600000Y-110800000D03*
X90400000Y-112400000D03*
X94100000Y-113100000D03*
X85500000Y-129800000D03*
X92184599Y-116488657D03*
X104900000Y-114200000D03*
X99700000Y-117300000D03*
X102800000Y-112900000D03*
X89200000Y-121800000D03*
X90000000Y-107500000D03*
X79600000Y-124300000D03*
X107300000Y-131200000D03*
X76600000Y-133600000D03*
X92200000Y-114700000D03*
D26*
X96800000Y-111600000D03*
D27*
X98100000Y-127400000D03*
X99600000Y-119600000D03*
X84400000Y-117300000D03*
X95400000Y-119500000D03*
X95084599Y-130488657D03*
X92900000Y-125600000D03*
X95484599Y-122588657D03*
X91100000Y-120100000D03*
X96900000Y-116900000D03*
X90900000Y-118000000D03*
X92784599Y-130588657D03*
X94000000Y-128838657D03*
X75500000Y-121600000D03*
X75700000Y-120300000D03*
D28*
X94340000Y-110260000D02*
X94150000Y-110260000D01*
D29*
X93640000Y-110260000D02*
X94150000Y-110260000D01*
X82100000Y-117190000D02*
X82890000Y-116400000D01*
X87500000Y-116400000D02*
X93640000Y-110260000D01*
X82890000Y-116400000D02*
X87500000Y-116400000D01*
D28*
X94500000Y-110100000D02*
X94340000Y-110260000D01*
D29*
X78800000Y-115100000D02*
X77187500Y-116712500D01*
X77187500Y-121575000D02*
X78525000Y-121575000D01*
X99400000Y-105300000D02*
X97900000Y-106800000D01*
X94670000Y-107200000D02*
X94150000Y-107720000D01*
X77825000Y-122212500D02*
X77825000Y-124500000D01*
X78800000Y-121300000D02*
X78800000Y-119900000D01*
X94150000Y-107720000D02*
X93880000Y-107720000D01*
X97900000Y-106800000D02*
X97900000Y-107200000D01*
X77187500Y-116712500D02*
X77187500Y-119625000D01*
X86500000Y-115100000D02*
X78800000Y-115100000D01*
X77187500Y-119625000D02*
X78525000Y-119625000D01*
X78525000Y-121575000D02*
X78800000Y-121300000D01*
X77187500Y-121575000D02*
X77825000Y-122212500D01*
X93880000Y-107720000D02*
X86500000Y-115100000D01*
X99650000Y-105300000D02*
X99400000Y-105300000D01*
X97900000Y-107200000D02*
X94670000Y-107200000D01*
X78800000Y-119900000D02*
X78525000Y-119625000D01*
X77825000Y-124500000D02*
X76600000Y-124500000D01*
X98030000Y-111030000D02*
X95400000Y-108400000D01*
X97800000Y-116600000D02*
X98030000Y-116370000D01*
X98030000Y-116370000D02*
X98030000Y-111030000D01*
X95400000Y-108400000D02*
X95400000Y-108100000D01*
D30*
X92684599Y-117513657D02*
X92684599Y-116988657D01*
X93319013Y-122054243D02*
X92684599Y-122688657D01*
D29*
X86100000Y-121875000D02*
X86100000Y-123000000D01*
D30*
X93570000Y-123054243D02*
X93050185Y-123054243D01*
D29*
X80775000Y-124500000D02*
X81900000Y-124500000D01*
X79800000Y-124500000D02*
X79600000Y-124300000D01*
X81412500Y-121575000D02*
X80775000Y-122212500D01*
D30*
X93050185Y-123054243D02*
X92684599Y-122688657D01*
X96484599Y-125588657D02*
X95054414Y-125588657D01*
D29*
X81712500Y-121875000D02*
X86100000Y-121875000D01*
X97984599Y-119613657D02*
X99586343Y-119613657D01*
D30*
X93570000Y-122054243D02*
X93319013Y-122054243D01*
X95054414Y-125588657D02*
X95030000Y-125564243D01*
D29*
X81412500Y-121575000D02*
X81712500Y-121875000D01*
D30*
X92684599Y-116988657D02*
X92184599Y-116488657D01*
D29*
X81900000Y-124500000D02*
X82000000Y-124400000D01*
D31*
X104730000Y-105300000D02*
X106000000Y-105300000D01*
D29*
X80775000Y-124500000D02*
X79800000Y-124500000D01*
X80775000Y-122212500D02*
X80775000Y-124500000D01*
X99586343Y-119613657D02*
X99600000Y-119600000D01*
X82390000Y-118210000D02*
X82810000Y-117790000D01*
X83910000Y-117790000D02*
X84400000Y-117300000D01*
X83500000Y-117790000D02*
X83910000Y-117790000D01*
X94484599Y-119816157D02*
X95083843Y-119816157D01*
X95083843Y-119816157D02*
X95400000Y-119500000D01*
X82810000Y-117790000D02*
X83500000Y-117790000D01*
X82100000Y-118210000D02*
X82390000Y-118210000D01*
D28*
X95034599Y-130538657D02*
X95084599Y-130488657D01*
X95034599Y-132526157D02*
X95034599Y-130538657D01*
D29*
X93289829Y-125600000D02*
X93325586Y-125564243D01*
X94050000Y-125584243D02*
X94070000Y-125564243D01*
X93325586Y-125564243D02*
X94070000Y-125564243D01*
X94050000Y-127054243D02*
X94050000Y-125584243D01*
X92900000Y-125600000D02*
X93289829Y-125600000D01*
D28*
X95484599Y-121861157D02*
X95484599Y-122588657D01*
D29*
X95509599Y-122563657D02*
X95484599Y-122588657D01*
D28*
X94530000Y-123054243D02*
X95019013Y-123054243D01*
D29*
X97984599Y-122563657D02*
X95509599Y-122563657D01*
D28*
X95019013Y-123054243D02*
X95484599Y-122588657D01*
D29*
X92684599Y-120463657D02*
X91463657Y-120463657D01*
X94530000Y-121006558D02*
X94484599Y-120961157D01*
X93182099Y-120961157D02*
X92684599Y-120463657D01*
X96900000Y-116900000D02*
X95600000Y-115600000D01*
X94530000Y-122054243D02*
X94530000Y-121006558D01*
X90900000Y-116000000D02*
X90900000Y-118000000D01*
X94484599Y-120961157D02*
X93182099Y-120961157D01*
X91463657Y-120463657D02*
X91100000Y-120100000D01*
X91300000Y-115600000D02*
X90900000Y-116000000D01*
X95600000Y-115600000D02*
X91300000Y-115600000D01*
X94000000Y-128754058D02*
X94050000Y-128704058D01*
D28*
X93134599Y-132526157D02*
X93134599Y-130938657D01*
D29*
X94050000Y-128704058D02*
X94050000Y-128074243D01*
D28*
X93134599Y-130938657D02*
X92784599Y-130588657D01*
D29*
X94000000Y-128838657D02*
X94000000Y-128754058D01*
X86100000Y-118925000D02*
X83615000Y-118925000D01*
X83500000Y-120120000D02*
X83500000Y-119600000D01*
X83615000Y-118925000D02*
X83500000Y-118810000D01*
X81412500Y-119625000D02*
X83475000Y-119625000D01*
X86325000Y-118700000D02*
X96200000Y-118700000D01*
X96327500Y-120716157D02*
X96327500Y-118827500D01*
X95484599Y-120716157D02*
X96327500Y-120716157D01*
X83475000Y-119625000D02*
X83500000Y-119600000D01*
X86100000Y-118925000D02*
X86325000Y-118700000D01*
X86525000Y-118500000D02*
X86100000Y-118925000D01*
X96327500Y-118827500D02*
X96200000Y-118700000D01*
X83500000Y-119600000D02*
X83500000Y-118810000D01*
X81412500Y-120275000D02*
X81412500Y-119625000D01*
X83500000Y-121080000D02*
X83080000Y-121080000D01*
X82925000Y-120925000D02*
X81412500Y-120925000D01*
X83080000Y-121080000D02*
X82925000Y-120925000D01*
X75500000Y-121600000D02*
X76150000Y-120950000D01*
X77162500Y-120950000D02*
X77187500Y-120925000D01*
X76150000Y-120950000D02*
X77162500Y-120950000D01*
X75725000Y-120275000D02*
X75700000Y-120300000D01*
X77187500Y-120275000D02*
X75725000Y-120275000D01*
G04 #@! TA.AperFunction,Conductor*
G36*
X79595324Y-104120185D02*
G01*
X79641079Y-104172989D01*
X79651023Y-104242147D01*
X79621998Y-104305703D01*
X79593075Y-104330227D01*
X79441737Y-104422967D01*
X79441726Y-104422974D01*
X79092053Y-104677025D01*
X79092039Y-104677035D01*
X78763382Y-104957737D01*
X78763368Y-104957750D01*
X78457750Y-105263368D01*
X78457737Y-105263382D01*
X78177035Y-105592039D01*
X78177025Y-105592053D01*
X77922974Y-105941726D01*
X77922966Y-105941737D01*
X77697142Y-106310248D01*
X77697136Y-106310259D01*
X77500903Y-106695387D01*
X77335494Y-107094719D01*
X77201934Y-107505778D01*
X77201927Y-107505801D01*
X77175790Y-107614672D01*
X77102624Y-107919433D01*
X77101027Y-107926083D01*
X77033412Y-108352985D01*
X77033412Y-108352986D01*
X76999500Y-108783879D01*
X76999500Y-109216120D01*
X77033412Y-109647013D01*
X77033412Y-109647014D01*
X77045101Y-109720814D01*
X77101028Y-110073922D01*
X77201930Y-110494210D01*
X77201934Y-110494221D01*
X77335494Y-110905280D01*
X77360617Y-110965931D01*
X77500904Y-111304615D01*
X77524441Y-111350808D01*
X77697136Y-111689740D01*
X77697142Y-111689751D01*
X77922966Y-112058262D01*
X77922974Y-112058273D01*
X78177025Y-112407946D01*
X78177035Y-112407960D01*
X78457737Y-112736617D01*
X78457743Y-112736624D01*
X78763376Y-113042257D01*
X78763382Y-113042262D01*
X79092039Y-113322964D01*
X79092046Y-113322969D01*
X79441728Y-113577027D01*
X79441732Y-113577029D01*
X79441737Y-113577033D01*
X79810248Y-113802857D01*
X79810254Y-113802860D01*
X79810265Y-113802867D01*
X80195385Y-113999096D01*
X80594714Y-114164503D01*
X80594719Y-114164505D01*
X80727257Y-114207569D01*
X80784932Y-114247006D01*
X80812131Y-114311365D01*
X80800217Y-114380211D01*
X80752973Y-114431687D01*
X80688939Y-114449500D01*
X78735929Y-114449500D01*
X78610261Y-114474497D01*
X78610255Y-114474499D01*
X78491870Y-114523535D01*
X78385331Y-114594722D01*
X78385324Y-114594728D01*
X76682226Y-116297826D01*
X76682223Y-116297831D01*
X76617482Y-116394724D01*
X76614899Y-116398589D01*
X76611034Y-116404373D01*
X76561999Y-116522755D01*
X76561997Y-116522761D01*
X76537000Y-116648428D01*
X76537000Y-118802411D01*
X76517315Y-118869450D01*
X76464511Y-118915205D01*
X76429184Y-118925350D01*
X76318246Y-118939954D01*
X76318237Y-118939956D01*
X76172160Y-119000463D01*
X76046718Y-119096718D01*
X75950463Y-119222160D01*
X75888003Y-119372953D01*
X75844162Y-119427356D01*
X75777868Y-119449421D01*
X75773442Y-119449500D01*
X75616228Y-119449500D01*
X75451925Y-119482182D01*
X75451917Y-119482184D01*
X75297139Y-119546295D01*
X75157837Y-119639373D01*
X75039373Y-119757837D01*
X74946295Y-119897139D01*
X74882184Y-120051917D01*
X74882182Y-120051925D01*
X74849500Y-120216228D01*
X74849500Y-120383771D01*
X74882182Y-120548074D01*
X74882184Y-120548082D01*
X74946295Y-120702860D01*
X74990222Y-120768601D01*
X75011100Y-120835279D01*
X74992615Y-120902659D01*
X74961795Y-120934608D01*
X74962540Y-120935516D01*
X74957831Y-120939380D01*
X74839376Y-121057834D01*
X74839373Y-121057837D01*
X74746295Y-121197139D01*
X74682184Y-121351917D01*
X74682182Y-121351925D01*
X74649500Y-121516228D01*
X74649500Y-121683771D01*
X74682182Y-121848074D01*
X74682184Y-121848082D01*
X74746295Y-122002860D01*
X74839373Y-122142162D01*
X74957837Y-122260626D01*
X75009556Y-122295183D01*
X75097137Y-122353703D01*
X75251918Y-122417816D01*
X75391730Y-122445626D01*
X75416228Y-122450499D01*
X75416232Y-122450500D01*
X75416233Y-122450500D01*
X75583768Y-122450500D01*
X75583769Y-122450499D01*
X75748082Y-122417816D01*
X75902863Y-122353703D01*
X76042162Y-122260626D01*
X76064848Y-122237938D01*
X76126168Y-122204455D01*
X76195859Y-122209438D01*
X76199968Y-122211054D01*
X76318238Y-122260044D01*
X76435639Y-122275500D01*
X76916692Y-122275499D01*
X76946138Y-122284145D01*
X76976119Y-122290667D01*
X76981132Y-122294419D01*
X76983731Y-122295183D01*
X77004373Y-122311818D01*
X77138181Y-122445626D01*
X77171666Y-122506949D01*
X77174500Y-122533307D01*
X77174500Y-122649781D01*
X77154815Y-122716820D01*
X77115597Y-122755319D01*
X77031347Y-122807285D01*
X77031343Y-122807288D01*
X76907289Y-122931342D01*
X76815187Y-123080663D01*
X76815185Y-123080668D01*
X76815115Y-123080880D01*
X76760001Y-123247203D01*
X76760001Y-123247204D01*
X76760000Y-123247204D01*
X76749500Y-123349983D01*
X76749500Y-123525500D01*
X76729815Y-123592539D01*
X76677011Y-123638294D01*
X76625500Y-123649500D01*
X76516228Y-123649500D01*
X76351925Y-123682182D01*
X76351917Y-123682184D01*
X76197139Y-123746295D01*
X76057837Y-123839373D01*
X75939373Y-123957837D01*
X75846295Y-124097139D01*
X75782184Y-124251917D01*
X75782182Y-124251925D01*
X75749500Y-124416228D01*
X75749500Y-124583771D01*
X75782182Y-124748074D01*
X75782184Y-124748082D01*
X75846295Y-124902860D01*
X75939373Y-125042162D01*
X76057837Y-125160626D01*
X76112480Y-125197137D01*
X76197137Y-125253703D01*
X76351918Y-125317816D01*
X76516228Y-125350499D01*
X76516232Y-125350500D01*
X76625500Y-125350500D01*
X76692539Y-125370185D01*
X76738294Y-125422989D01*
X76749500Y-125474499D01*
X76749500Y-125650000D01*
X76749501Y-125650019D01*
X76760000Y-125752796D01*
X76760001Y-125752799D01*
X76791575Y-125848082D01*
X76815186Y-125919334D01*
X76907288Y-126068656D01*
X77031344Y-126192712D01*
X77180666Y-126284814D01*
X77347203Y-126339999D01*
X77449991Y-126350500D01*
X78200008Y-126350499D01*
X78200016Y-126350498D01*
X78200019Y-126350498D01*
X78256302Y-126344748D01*
X78302797Y-126339999D01*
X78469334Y-126284814D01*
X78618656Y-126192712D01*
X78742712Y-126068656D01*
X78834814Y-125919334D01*
X78889999Y-125752797D01*
X78900500Y-125650009D01*
X78900500Y-125649986D01*
X79700001Y-125649986D01*
X79710494Y-125752697D01*
X79765641Y-125919119D01*
X79765643Y-125919124D01*
X79857684Y-126068345D01*
X79981654Y-126192315D01*
X80130875Y-126284356D01*
X80130880Y-126284358D01*
X80297302Y-126339505D01*
X80297309Y-126339506D01*
X80400019Y-126349999D01*
X80524999Y-126349999D01*
X81025000Y-126349999D01*
X81149972Y-126349999D01*
X81149986Y-126349998D01*
X81252697Y-126339505D01*
X81419119Y-126284358D01*
X81419124Y-126284356D01*
X81568345Y-126192315D01*
X81692315Y-126068345D01*
X81784356Y-125919124D01*
X81784358Y-125919119D01*
X81839505Y-125752697D01*
X81839506Y-125752690D01*
X81849999Y-125649986D01*
X81850000Y-125649973D01*
X81850000Y-124750000D01*
X81025000Y-124750000D01*
X81025000Y-126349999D01*
X80524999Y-126349999D01*
X80525000Y-126349998D01*
X80525000Y-124750000D01*
X79700001Y-124750000D01*
X79700001Y-125649986D01*
X78900500Y-125649986D01*
X78900499Y-124416233D01*
X78900499Y-123350013D01*
X79700000Y-123350013D01*
X79700000Y-124250000D01*
X80525000Y-124250000D01*
X81025000Y-124250000D01*
X81849999Y-124250000D01*
X81849999Y-123350028D01*
X81849998Y-123350010D01*
X81845323Y-123304243D01*
X92791210Y-123304243D01*
X92792854Y-123325153D01*
X92837968Y-123480438D01*
X92920278Y-123619617D01*
X92920285Y-123619626D01*
X93034616Y-123733957D01*
X93034625Y-123733964D01*
X93173804Y-123816274D01*
X93320000Y-123858747D01*
X93320000Y-123304243D01*
X92791210Y-123304243D01*
X81845323Y-123304243D01*
X81842080Y-123272497D01*
X81839505Y-123247302D01*
X81784358Y-123080880D01*
X81784356Y-123080875D01*
X81692315Y-122931654D01*
X81568345Y-122807684D01*
X81419124Y-122715643D01*
X81419119Y-122715641D01*
X81252697Y-122660494D01*
X81252690Y-122660493D01*
X81149986Y-122650000D01*
X81025000Y-122650000D01*
X81025000Y-124250000D01*
X80525000Y-124250000D01*
X80525000Y-122650000D01*
X80400027Y-122650000D01*
X80400012Y-122650001D01*
X80297302Y-122660494D01*
X80130880Y-122715641D01*
X80130875Y-122715643D01*
X79981654Y-122807684D01*
X79857684Y-122931654D01*
X79765643Y-123080875D01*
X79765641Y-123080880D01*
X79710494Y-123247302D01*
X79710493Y-123247309D01*
X79700000Y-123350013D01*
X78900499Y-123350013D01*
X78900499Y-123349998D01*
X78900498Y-123349981D01*
X78889999Y-123247203D01*
X78889998Y-123247200D01*
X78889827Y-123246685D01*
X78834814Y-123080666D01*
X78742712Y-122931344D01*
X78618656Y-122807288D01*
X78618652Y-122807285D01*
X78534403Y-122755319D01*
X78487678Y-122703371D01*
X78475500Y-122649781D01*
X78475500Y-122349072D01*
X78495185Y-122282033D01*
X78547989Y-122236278D01*
X78583118Y-122226810D01*
X78583094Y-122226689D01*
X78584913Y-122226327D01*
X78587359Y-122225668D01*
X78589065Y-122225500D01*
X78589069Y-122225500D01*
X78589073Y-122225499D01*
X78589075Y-122225499D01*
X78694866Y-122204455D01*
X78714744Y-122200501D01*
X78833127Y-122151465D01*
X78854719Y-122137038D01*
X78854720Y-122137038D01*
X78931313Y-122085860D01*
X78939669Y-122080277D01*
X79305277Y-121714669D01*
X79376465Y-121608127D01*
X79379625Y-121600499D01*
X79425501Y-121489744D01*
X79442291Y-121405338D01*
X79450500Y-121364071D01*
X79450500Y-119835928D01*
X79425502Y-119710261D01*
X79425501Y-119710260D01*
X79425501Y-119710256D01*
X79376465Y-119591873D01*
X79365525Y-119575500D01*
X79365522Y-119575495D01*
X79365522Y-119575494D01*
X79305278Y-119485332D01*
X79305272Y-119485325D01*
X78939673Y-119119726D01*
X78905239Y-119096718D01*
X78833127Y-119048535D01*
X78714744Y-118999499D01*
X78714738Y-118999497D01*
X78589071Y-118974500D01*
X78589069Y-118974500D01*
X78164823Y-118974500D01*
X78136215Y-118971155D01*
X78126550Y-118968863D01*
X78056762Y-118939956D01*
X77939548Y-118924524D01*
X77933392Y-118923065D01*
X77908314Y-118908759D01*
X77881918Y-118897082D01*
X77878343Y-118891662D01*
X77872703Y-118888445D01*
X77859339Y-118862851D01*
X77843447Y-118838757D01*
X77842113Y-118829860D01*
X77840364Y-118826509D01*
X77840832Y-118821313D01*
X77838000Y-118802410D01*
X77838000Y-117033308D01*
X77857685Y-116966269D01*
X77874319Y-116945627D01*
X79033127Y-115786819D01*
X79094450Y-115753334D01*
X79120808Y-115750500D01*
X82320191Y-115750500D01*
X82387230Y-115770185D01*
X82432985Y-115822989D01*
X82442929Y-115892147D01*
X82413904Y-115955703D01*
X82407872Y-115962181D01*
X81986871Y-116383181D01*
X81925548Y-116416666D01*
X81899192Y-116419500D01*
X81850831Y-116419500D01*
X81850807Y-116419501D01*
X81814794Y-116422335D01*
X81660611Y-116467129D01*
X81660606Y-116467131D01*
X81522404Y-116548863D01*
X81522396Y-116548869D01*
X81408869Y-116662396D01*
X81408863Y-116662404D01*
X81327131Y-116800606D01*
X81327129Y-116800611D01*
X81282335Y-116954791D01*
X81282334Y-116954797D01*
X81279500Y-116990811D01*
X81279500Y-117389169D01*
X81279501Y-117389191D01*
X81282335Y-117425205D01*
X81327129Y-117579388D01*
X81327132Y-117579395D01*
X81361128Y-117636881D01*
X81378309Y-117704605D01*
X81361128Y-117763119D01*
X81327132Y-117820604D01*
X81327129Y-117820611D01*
X81282335Y-117974791D01*
X81282334Y-117974797D01*
X81279500Y-118010811D01*
X81279500Y-118409169D01*
X81279501Y-118409191D01*
X81282335Y-118445205D01*
X81327129Y-118599388D01*
X81327131Y-118599394D01*
X81408735Y-118737379D01*
X81425918Y-118805103D01*
X81403758Y-118871366D01*
X81349292Y-118915129D01*
X81302003Y-118924500D01*
X80660636Y-118924500D01*
X80543246Y-118939953D01*
X80543237Y-118939956D01*
X80397160Y-119000463D01*
X80271718Y-119096718D01*
X80175463Y-119222160D01*
X80114956Y-119368237D01*
X80114955Y-119368239D01*
X80099500Y-119485638D01*
X80099500Y-119764363D01*
X80114953Y-119881753D01*
X80114957Y-119881765D01*
X80123566Y-119902550D01*
X80131033Y-119972019D01*
X80123566Y-119997450D01*
X80114957Y-120018234D01*
X80114955Y-120018239D01*
X80099500Y-120135638D01*
X80099500Y-120414363D01*
X80114953Y-120531753D01*
X80114957Y-120531765D01*
X80123566Y-120552550D01*
X80131033Y-120622019D01*
X80123566Y-120647450D01*
X80114957Y-120668234D01*
X80114955Y-120668239D01*
X80099500Y-120785638D01*
X80099501Y-121064361D01*
X80114953Y-121181753D01*
X80114956Y-121181762D01*
X80123837Y-121203203D01*
X80131304Y-121272673D01*
X80123838Y-121298103D01*
X80115443Y-121318370D01*
X80107987Y-121375000D01*
X80150500Y-121375000D01*
X80217539Y-121394685D01*
X80231761Y-121405338D01*
X80241239Y-121413561D01*
X80271718Y-121453282D01*
X80397159Y-121549536D01*
X80398701Y-121550175D01*
X80406958Y-121557338D01*
X80423892Y-121583724D01*
X80442386Y-121609052D01*
X80442615Y-121612896D01*
X80444696Y-121616139D01*
X80444676Y-121647496D01*
X80446541Y-121678798D01*
X80444654Y-121682157D01*
X80444652Y-121686009D01*
X80427689Y-121712367D01*
X80412329Y-121739719D01*
X80408924Y-121741525D01*
X80406841Y-121744763D01*
X80378313Y-121757770D01*
X80350611Y-121772471D01*
X80344770Y-121773063D01*
X80343268Y-121773749D01*
X80341102Y-121773436D01*
X80325697Y-121775000D01*
X80107990Y-121775000D01*
X80107988Y-121775001D01*
X80115442Y-121831627D01*
X80115444Y-121831633D01*
X80175899Y-121977585D01*
X80272075Y-122102924D01*
X80397413Y-122199100D01*
X80543365Y-122259554D01*
X80543369Y-122259555D01*
X80660676Y-122274999D01*
X81212499Y-122274999D01*
X81212500Y-122274998D01*
X81212500Y-121749499D01*
X81215050Y-121740813D01*
X81213762Y-121731852D01*
X81224740Y-121707811D01*
X81232185Y-121682460D01*
X81239025Y-121676532D01*
X81242787Y-121668296D01*
X81265021Y-121654006D01*
X81284989Y-121636705D01*
X81295503Y-121634417D01*
X81301565Y-121630522D01*
X81336496Y-121625499D01*
X81488501Y-121625499D01*
X81555539Y-121645184D01*
X81601294Y-121697988D01*
X81612500Y-121749499D01*
X81612500Y-122274999D01*
X82164324Y-122274999D01*
X82281628Y-122259557D01*
X82281633Y-122259555D01*
X82304735Y-122249986D01*
X84250001Y-122249986D01*
X84260494Y-122352697D01*
X84315641Y-122519119D01*
X84315643Y-122519124D01*
X84407684Y-122668345D01*
X84531654Y-122792315D01*
X84680875Y-122884356D01*
X84680880Y-122884358D01*
X84847302Y-122939505D01*
X84847309Y-122939506D01*
X84950019Y-122949999D01*
X85849999Y-122949999D01*
X86350000Y-122949999D01*
X87249972Y-122949999D01*
X87249986Y-122949998D01*
X87352697Y-122939505D01*
X87519119Y-122884358D01*
X87519124Y-122884356D01*
X87649008Y-122804242D01*
X92791209Y-122804242D01*
X92791210Y-122804243D01*
X93320000Y-122804243D01*
X93320000Y-122304243D01*
X92791210Y-122304243D01*
X92792854Y-122325153D01*
X92837968Y-122480438D01*
X92837968Y-122480439D01*
X92844288Y-122491125D01*
X92861468Y-122558850D01*
X92844288Y-122617361D01*
X92837968Y-122628046D01*
X92837966Y-122628052D01*
X92792855Y-122783324D01*
X92792854Y-122783330D01*
X92791209Y-122804242D01*
X87649008Y-122804242D01*
X87668345Y-122792315D01*
X87699757Y-122760904D01*
X87792315Y-122668345D01*
X87884356Y-122519124D01*
X87884358Y-122519119D01*
X87939505Y-122352697D01*
X87939506Y-122352690D01*
X87949999Y-122249986D01*
X87950000Y-122249973D01*
X87950000Y-122125000D01*
X86350000Y-122125000D01*
X86350000Y-122949999D01*
X85849999Y-122949999D01*
X85850000Y-122949998D01*
X85850000Y-122125000D01*
X84250001Y-122125000D01*
X84250001Y-122249986D01*
X82304735Y-122249986D01*
X82427585Y-122199100D01*
X82552926Y-122102923D01*
X82633320Y-121998152D01*
X82633320Y-121998151D01*
X82633321Y-121998150D01*
X82649100Y-121977586D01*
X82709554Y-121831634D01*
X82713552Y-121801266D01*
X82723067Y-121779754D01*
X82728320Y-121756828D01*
X82736939Y-121748395D01*
X82741818Y-121737368D01*
X82761451Y-121724417D01*
X82778265Y-121707969D01*
X82790075Y-121705535D01*
X82800141Y-121698896D01*
X82823660Y-121698615D01*
X82846697Y-121693869D01*
X82864301Y-121698131D01*
X82870006Y-121698063D01*
X82881100Y-121701750D01*
X82882549Y-121702309D01*
X82890256Y-121705501D01*
X82891439Y-121705736D01*
X82897191Y-121707954D01*
X82903182Y-121712543D01*
X82928584Y-121725673D01*
X82934314Y-121730118D01*
X82959078Y-121744763D01*
X83073605Y-121812494D01*
X83097902Y-121819553D01*
X83229002Y-121857642D01*
X83229005Y-121857642D01*
X83229007Y-121857643D01*
X83265310Y-121860500D01*
X83265318Y-121860500D01*
X83734682Y-121860500D01*
X83734690Y-121860500D01*
X83770993Y-121857643D01*
X83770995Y-121857642D01*
X83770997Y-121857642D01*
X83811975Y-121845736D01*
X83926395Y-121812494D01*
X84065687Y-121730117D01*
X84098053Y-121697751D01*
X84134486Y-121661319D01*
X84195809Y-121627834D01*
X84222167Y-121625000D01*
X85850000Y-121625000D01*
X86350000Y-121625000D01*
X87949999Y-121625000D01*
X87949999Y-121500028D01*
X87949998Y-121500013D01*
X87939505Y-121397302D01*
X87884358Y-121230880D01*
X87884356Y-121230875D01*
X87792315Y-121081654D01*
X87668345Y-120957684D01*
X87519124Y-120865643D01*
X87519119Y-120865641D01*
X87352697Y-120810494D01*
X87352690Y-120810493D01*
X87249986Y-120800000D01*
X86350000Y-120800000D01*
X86350000Y-121625000D01*
X85850000Y-121625000D01*
X85850000Y-120800000D01*
X84950028Y-120800000D01*
X84950012Y-120800001D01*
X84847302Y-120810494D01*
X84680880Y-120865641D01*
X84680875Y-120865643D01*
X84531654Y-120957684D01*
X84522181Y-120967158D01*
X84460858Y-121000643D01*
X84391166Y-120995659D01*
X84335233Y-120953787D01*
X84310816Y-120888323D01*
X84310500Y-120879477D01*
X84310500Y-120875317D01*
X84310499Y-120875302D01*
X84308799Y-120853704D01*
X84307643Y-120839007D01*
X84296310Y-120800000D01*
X84262495Y-120683609D01*
X84262495Y-120683608D01*
X84262494Y-120683607D01*
X84262494Y-120683605D01*
X84250379Y-120663120D01*
X84233196Y-120595399D01*
X84250379Y-120536880D01*
X84262494Y-120516395D01*
X84301025Y-120383771D01*
X84307642Y-120360997D01*
X84307643Y-120360991D01*
X84308659Y-120348082D01*
X84310500Y-120324690D01*
X84310500Y-119921230D01*
X84330185Y-119854191D01*
X84382989Y-119808436D01*
X84452147Y-119798492D01*
X84515703Y-119827517D01*
X84522181Y-119833549D01*
X84531344Y-119842712D01*
X84680666Y-119934814D01*
X84847203Y-119989999D01*
X84949991Y-120000500D01*
X87250008Y-120000499D01*
X87352797Y-119989999D01*
X87519334Y-119934814D01*
X87668656Y-119842712D01*
X87792712Y-119718656D01*
X87884814Y-119569334D01*
X87929164Y-119435494D01*
X87968936Y-119378051D01*
X88033451Y-119351228D01*
X88046869Y-119350500D01*
X90347355Y-119350500D01*
X90414394Y-119370185D01*
X90460149Y-119422989D01*
X90470093Y-119492147D01*
X90443211Y-119553161D01*
X90439376Y-119557833D01*
X90346295Y-119697139D01*
X90282184Y-119851917D01*
X90282182Y-119851925D01*
X90249500Y-120016228D01*
X90249500Y-120183771D01*
X90282182Y-120348074D01*
X90282184Y-120348082D01*
X90346295Y-120502860D01*
X90439373Y-120642162D01*
X90557837Y-120760626D01*
X90632469Y-120810493D01*
X90697137Y-120853703D01*
X90851918Y-120917816D01*
X90919690Y-120931296D01*
X90999399Y-120947152D01*
X91002489Y-120948312D01*
X91004279Y-120948225D01*
X91016446Y-120953554D01*
X91037063Y-120961298D01*
X91047167Y-120967113D01*
X91048988Y-120968934D01*
X91155531Y-121040123D01*
X91214048Y-121064361D01*
X91273913Y-121089158D01*
X91294167Y-121093187D01*
X91356078Y-121125570D01*
X91375516Y-121149708D01*
X91441887Y-121257313D01*
X91565943Y-121381369D01*
X91715265Y-121473471D01*
X91881802Y-121528656D01*
X91984590Y-121539157D01*
X92698641Y-121539156D01*
X92765680Y-121558840D01*
X92811435Y-121611644D01*
X92821379Y-121680803D01*
X92817718Y-121697751D01*
X92792854Y-121783332D01*
X92791209Y-121804242D01*
X92791210Y-121804243D01*
X93446000Y-121804243D01*
X93513039Y-121823928D01*
X93558794Y-121876732D01*
X93570000Y-121928243D01*
X93570000Y-122054243D01*
X93625500Y-122054243D01*
X93692539Y-122073928D01*
X93738294Y-122126732D01*
X93749500Y-122178243D01*
X93749500Y-122288940D01*
X93752356Y-122325234D01*
X93752357Y-122325240D01*
X93797504Y-122480634D01*
X93797507Y-122480642D01*
X93802732Y-122489476D01*
X93807082Y-122505377D01*
X93814977Y-122517662D01*
X93820000Y-122552597D01*
X93820000Y-122555889D01*
X93802734Y-122619007D01*
X93797507Y-122627844D01*
X93797504Y-122627853D01*
X93752357Y-122783245D01*
X93752356Y-122783251D01*
X93749500Y-122819545D01*
X93749500Y-123288940D01*
X93752356Y-123325234D01*
X93752357Y-123325240D01*
X93797503Y-123480632D01*
X93797505Y-123480636D01*
X93797506Y-123480638D01*
X93802732Y-123489476D01*
X93820000Y-123552595D01*
X93820000Y-123858746D01*
X93966194Y-123816275D01*
X93986384Y-123804334D01*
X94054108Y-123787149D01*
X94112629Y-123804332D01*
X94133605Y-123816737D01*
X94174587Y-123828643D01*
X94289002Y-123861885D01*
X94289005Y-123861885D01*
X94289007Y-123861886D01*
X94325310Y-123864743D01*
X94325318Y-123864743D01*
X94734682Y-123864743D01*
X94734690Y-123864743D01*
X94770993Y-123861886D01*
X94770995Y-123861885D01*
X94770997Y-123861885D01*
X94811975Y-123849979D01*
X94926395Y-123816737D01*
X95065687Y-123734360D01*
X95139099Y-123660946D01*
X95177343Y-123634910D01*
X95185785Y-123631240D01*
X95250798Y-123613820D01*
X95320684Y-123573471D01*
X95387729Y-123534763D01*
X95447016Y-123475476D01*
X95508339Y-123441991D01*
X95534697Y-123439157D01*
X95568367Y-123439157D01*
X95568368Y-123439156D01*
X95732681Y-123406473D01*
X95887462Y-123342360D01*
X96026761Y-123249283D01*
X96031471Y-123245418D01*
X96032511Y-123246685D01*
X96086892Y-123216991D01*
X96113250Y-123214157D01*
X96584381Y-123214157D01*
X96651420Y-123233842D01*
X96689918Y-123273058D01*
X96741887Y-123357313D01*
X96865943Y-123481369D01*
X97015265Y-123573471D01*
X97181802Y-123628656D01*
X97284590Y-123639157D01*
X98684607Y-123639156D01*
X98693046Y-123638294D01*
X98726173Y-123634910D01*
X98787396Y-123628656D01*
X98953933Y-123573471D01*
X99103255Y-123481369D01*
X99227311Y-123357313D01*
X99319413Y-123207991D01*
X99374598Y-123041454D01*
X99385099Y-122938666D01*
X99385098Y-122188649D01*
X99374598Y-122085860D01*
X99319413Y-121919323D01*
X99227311Y-121770001D01*
X99103255Y-121645945D01*
X98989045Y-121575500D01*
X98953935Y-121553844D01*
X98953930Y-121553842D01*
X98940935Y-121549536D01*
X98787396Y-121498658D01*
X98787394Y-121498657D01*
X98684609Y-121488157D01*
X97284597Y-121488157D01*
X97284580Y-121488158D01*
X97181802Y-121498657D01*
X97181799Y-121498658D01*
X97015267Y-121553842D01*
X97015262Y-121553844D01*
X96865941Y-121645946D01*
X96741888Y-121769999D01*
X96738803Y-121775001D01*
X96693727Y-121848082D01*
X96689920Y-121854254D01*
X96682332Y-121861078D01*
X96678094Y-121870360D01*
X96656794Y-121884048D01*
X96637972Y-121900978D01*
X96626336Y-121903622D01*
X96619316Y-121908134D01*
X96584381Y-121913157D01*
X96429099Y-121913157D01*
X96362060Y-121893472D01*
X96316305Y-121840668D01*
X96305099Y-121789158D01*
X96305098Y-121585268D01*
X96299052Y-121518730D01*
X96297772Y-121512296D01*
X96300626Y-121511728D01*
X96299701Y-121454578D01*
X96336520Y-121395197D01*
X96395036Y-121365967D01*
X96517244Y-121341658D01*
X96635627Y-121292622D01*
X96742169Y-121221433D01*
X96832776Y-121130826D01*
X96903965Y-121024284D01*
X96953001Y-120905901D01*
X96966307Y-120839008D01*
X96978000Y-120780228D01*
X96978597Y-120774166D01*
X96980342Y-120774337D01*
X96997685Y-120715277D01*
X97050489Y-120669522D01*
X97119647Y-120659578D01*
X97141004Y-120664610D01*
X97181901Y-120678162D01*
X97181908Y-120678163D01*
X97284618Y-120688656D01*
X97734598Y-120688656D01*
X98234599Y-120688656D01*
X98684571Y-120688656D01*
X98684585Y-120688655D01*
X98787296Y-120678162D01*
X98953718Y-120623015D01*
X98953723Y-120623013D01*
X99102944Y-120530972D01*
X99226914Y-120407002D01*
X99318955Y-120257781D01*
X99318957Y-120257776D01*
X99374104Y-120091354D01*
X99374105Y-120091347D01*
X99384598Y-119988643D01*
X99384599Y-119988630D01*
X99384599Y-119863657D01*
X98234599Y-119863657D01*
X98234599Y-120688656D01*
X97734598Y-120688656D01*
X97734599Y-120688655D01*
X97734599Y-119363657D01*
X98234599Y-119363657D01*
X99384598Y-119363657D01*
X99384598Y-119238685D01*
X99384597Y-119238670D01*
X99374104Y-119135959D01*
X99318957Y-118969537D01*
X99318955Y-118969532D01*
X99226914Y-118820311D01*
X99102944Y-118696341D01*
X98953723Y-118604300D01*
X98953718Y-118604298D01*
X98787296Y-118549151D01*
X98787289Y-118549150D01*
X98684585Y-118538657D01*
X98234599Y-118538657D01*
X98234599Y-119363657D01*
X97734599Y-119363657D01*
X97734599Y-118538657D01*
X97284627Y-118538657D01*
X97284611Y-118538658D01*
X97181901Y-118549151D01*
X97057799Y-118590275D01*
X96987971Y-118592677D01*
X96927929Y-118556945D01*
X96918473Y-118545450D01*
X96909849Y-118533579D01*
X96903965Y-118519373D01*
X96832776Y-118412831D01*
X96793851Y-118373906D01*
X96793846Y-118373899D01*
X96614673Y-118194726D01*
X96614669Y-118194723D01*
X96508127Y-118123535D01*
X96389744Y-118074499D01*
X96389738Y-118074497D01*
X96264071Y-118049500D01*
X96264069Y-118049500D01*
X94205478Y-118049500D01*
X94138439Y-118029815D01*
X94092684Y-117977011D01*
X94082120Y-117912895D01*
X94084598Y-117888638D01*
X94084599Y-117888630D01*
X94084599Y-117763657D01*
X92808599Y-117763657D01*
X92741560Y-117743972D01*
X92695805Y-117691168D01*
X92684599Y-117639657D01*
X92684599Y-117387657D01*
X92704284Y-117320618D01*
X92757088Y-117274863D01*
X92808599Y-117263657D01*
X94084598Y-117263657D01*
X94084598Y-117138685D01*
X94084597Y-117138670D01*
X94074104Y-117035959D01*
X94018957Y-116869537D01*
X94018955Y-116869532D01*
X93926914Y-116720311D01*
X93802944Y-116596341D01*
X93653723Y-116504300D01*
X93653718Y-116504298D01*
X93617225Y-116492206D01*
X93559780Y-116452434D01*
X93532957Y-116387918D01*
X93545272Y-116319142D01*
X93592815Y-116267942D01*
X93656229Y-116250500D01*
X95279192Y-116250500D01*
X95346231Y-116270185D01*
X95366873Y-116286819D01*
X96019345Y-116939291D01*
X96052830Y-117000614D01*
X96053281Y-117002781D01*
X96082182Y-117148074D01*
X96082184Y-117148082D01*
X96146295Y-117302860D01*
X96239373Y-117442162D01*
X96357837Y-117560626D01*
X96412480Y-117597137D01*
X96497137Y-117653703D01*
X96651918Y-117717816D01*
X96816228Y-117750499D01*
X96816232Y-117750500D01*
X96816233Y-117750500D01*
X96983768Y-117750500D01*
X96983769Y-117750499D01*
X97148082Y-117717816D01*
X97302863Y-117653703D01*
X97442162Y-117560626D01*
X97532622Y-117470165D01*
X97593943Y-117436681D01*
X97644492Y-117436230D01*
X97716231Y-117450499D01*
X97716232Y-117450500D01*
X97716233Y-117450500D01*
X97883768Y-117450500D01*
X97883769Y-117450499D01*
X98048082Y-117417816D01*
X98202863Y-117353703D01*
X98342162Y-117260626D01*
X98460626Y-117142162D01*
X98553703Y-117002863D01*
X98617816Y-116848082D01*
X98650500Y-116683767D01*
X98650500Y-116594624D01*
X98653225Y-116568770D01*
X98654775Y-116561494D01*
X98655501Y-116559744D01*
X98660238Y-116535931D01*
X98680500Y-116434069D01*
X98680500Y-110965931D01*
X98680500Y-110965928D01*
X98655502Y-110840261D01*
X98655501Y-110840260D01*
X98655501Y-110840256D01*
X98614189Y-110740520D01*
X98606466Y-110721874D01*
X98535277Y-110615331D01*
X98535272Y-110615325D01*
X96230491Y-108310545D01*
X96197006Y-108249222D01*
X96194172Y-108223125D01*
X96194146Y-108210783D01*
X96200500Y-108178842D01*
X96200500Y-108021158D01*
X96193674Y-107986843D01*
X96193649Y-107974761D01*
X96200179Y-107952347D01*
X96202260Y-107929099D01*
X96209768Y-107919433D01*
X96213193Y-107907680D01*
X96230803Y-107892355D01*
X96245123Y-107873922D01*
X96256665Y-107869850D01*
X96265900Y-107861814D01*
X96289001Y-107858442D01*
X96311013Y-107850678D01*
X96317649Y-107850500D01*
X97964071Y-107850500D01*
X98048615Y-107833682D01*
X98089744Y-107825501D01*
X98208127Y-107776465D01*
X98314669Y-107705276D01*
X98405276Y-107614669D01*
X98476465Y-107508127D01*
X98477429Y-107505801D01*
X98523312Y-107395029D01*
X98525501Y-107389744D01*
X98525501Y-107389742D01*
X98527182Y-107385685D01*
X98571022Y-107331281D01*
X98637317Y-107309216D01*
X98705016Y-107326495D01*
X98741009Y-107358825D01*
X98792455Y-107427547D01*
X98907664Y-107513793D01*
X98907671Y-107513797D01*
X99042517Y-107564091D01*
X99042516Y-107564091D01*
X99049444Y-107564835D01*
X99102127Y-107570500D01*
X100197872Y-107570499D01*
X100257483Y-107564091D01*
X100392331Y-107513796D01*
X100404110Y-107504977D01*
X100469570Y-107480558D01*
X100525872Y-107489680D01*
X100628165Y-107532051D01*
X100628169Y-107532051D01*
X100628170Y-107532052D01*
X100821456Y-107570500D01*
X100821459Y-107570500D01*
X101018543Y-107570500D01*
X101148582Y-107544632D01*
X101211835Y-107532051D01*
X101393914Y-107456632D01*
X101486109Y-107395029D01*
X101552786Y-107374151D01*
X101620166Y-107392635D01*
X101623891Y-107395029D01*
X101716080Y-107456628D01*
X101716086Y-107456632D01*
X101716088Y-107456633D01*
X101716092Y-107456635D01*
X101898160Y-107532049D01*
X101898165Y-107532051D01*
X101898169Y-107532051D01*
X101898170Y-107532052D01*
X102091456Y-107570500D01*
X102091459Y-107570500D01*
X102288543Y-107570500D01*
X102418582Y-107544632D01*
X102481835Y-107532051D01*
X102663914Y-107456632D01*
X102756109Y-107395029D01*
X102822786Y-107374151D01*
X102890166Y-107392635D01*
X102893891Y-107395029D01*
X102986080Y-107456628D01*
X102986086Y-107456632D01*
X102986088Y-107456633D01*
X102986092Y-107456635D01*
X103168160Y-107532049D01*
X103168165Y-107532051D01*
X103168169Y-107532051D01*
X103168170Y-107532052D01*
X103361456Y-107570500D01*
X103361459Y-107570500D01*
X103558543Y-107570500D01*
X103688582Y-107544632D01*
X103751835Y-107532051D01*
X103933914Y-107456632D01*
X104026109Y-107395029D01*
X104092786Y-107374151D01*
X104160166Y-107392635D01*
X104163891Y-107395029D01*
X104256080Y-107456628D01*
X104256086Y-107456632D01*
X104256088Y-107456633D01*
X104256092Y-107456635D01*
X104438160Y-107532049D01*
X104438165Y-107532051D01*
X104438169Y-107532051D01*
X104438170Y-107532052D01*
X104631456Y-107570500D01*
X104631459Y-107570500D01*
X104828543Y-107570500D01*
X104958582Y-107544632D01*
X105021835Y-107532051D01*
X105203914Y-107456632D01*
X105296109Y-107395029D01*
X105362786Y-107374151D01*
X105430166Y-107392635D01*
X105433891Y-107395029D01*
X105526080Y-107456628D01*
X105526086Y-107456632D01*
X105526088Y-107456633D01*
X105526092Y-107456635D01*
X105708160Y-107532049D01*
X105708165Y-107532051D01*
X105708169Y-107532051D01*
X105708170Y-107532052D01*
X105901456Y-107570500D01*
X105901459Y-107570500D01*
X106098543Y-107570500D01*
X106228582Y-107544632D01*
X106291835Y-107532051D01*
X106473914Y-107456632D01*
X106637782Y-107347139D01*
X106777139Y-107207782D01*
X106886632Y-107043914D01*
X106962051Y-106861835D01*
X106995160Y-106695387D01*
X107000500Y-106668543D01*
X107000500Y-106471456D01*
X106962052Y-106278170D01*
X106962051Y-106278169D01*
X106962051Y-106278165D01*
X106962049Y-106278160D01*
X106886635Y-106096092D01*
X106886628Y-106096079D01*
X106824728Y-106003440D01*
X106803850Y-105936763D01*
X106822334Y-105869383D01*
X106824729Y-105865657D01*
X106886189Y-105773676D01*
X106886191Y-105773673D01*
X106961569Y-105591693D01*
X106961572Y-105591681D01*
X106999999Y-105398495D01*
X107000000Y-105398492D01*
X107000000Y-105201508D01*
X106999999Y-105201504D01*
X106961572Y-105008318D01*
X106961569Y-105008306D01*
X106886192Y-104826328D01*
X106862572Y-104790979D01*
X106325000Y-105328553D01*
X106325000Y-105257213D01*
X106302851Y-105174555D01*
X106260064Y-105100446D01*
X106199554Y-105039936D01*
X106125445Y-104997149D01*
X106042787Y-104975000D01*
X105957213Y-104975000D01*
X105874555Y-104997149D01*
X105800446Y-105039936D01*
X105739936Y-105100446D01*
X105697149Y-105174555D01*
X105675000Y-105257213D01*
X105675000Y-105342787D01*
X105697149Y-105425445D01*
X105739936Y-105499554D01*
X105800446Y-105560064D01*
X105838484Y-105582025D01*
X105708170Y-105607947D01*
X105708164Y-105607949D01*
X105653039Y-105630782D01*
X105583569Y-105638249D01*
X105521091Y-105606973D01*
X105485439Y-105546884D01*
X105487934Y-105477059D01*
X105517907Y-105428538D01*
X105646446Y-105299999D01*
X105365001Y-105018553D01*
X105365000Y-105018553D01*
X105083553Y-105299999D01*
X105212092Y-105428538D01*
X105245577Y-105489862D01*
X105240593Y-105559553D01*
X105198722Y-105615487D01*
X105133257Y-105639904D01*
X105076960Y-105630782D01*
X105040033Y-105615487D01*
X105021835Y-105607949D01*
X105021833Y-105607948D01*
X105021829Y-105607947D01*
X104891514Y-105582025D01*
X104929554Y-105560064D01*
X104990064Y-105499554D01*
X105032851Y-105425445D01*
X105055000Y-105342787D01*
X105055000Y-105257213D01*
X105032851Y-105174555D01*
X104990064Y-105100446D01*
X104929554Y-105039936D01*
X104855445Y-104997149D01*
X104772787Y-104975000D01*
X104701446Y-104975000D01*
X105239019Y-104437425D01*
X105203675Y-104413809D01*
X105203673Y-104413808D01*
X105023215Y-104339061D01*
X104968811Y-104295220D01*
X104946746Y-104228926D01*
X104964025Y-104161227D01*
X105015162Y-104113616D01*
X105070667Y-104100500D01*
X105659333Y-104100500D01*
X105726372Y-104120185D01*
X105772127Y-104172989D01*
X105782071Y-104242147D01*
X105753046Y-104305703D01*
X105706786Y-104339061D01*
X105526325Y-104413809D01*
X105526318Y-104413813D01*
X105490979Y-104437426D01*
X106000000Y-104946446D01*
X106000001Y-104946446D01*
X106509020Y-104437426D01*
X106473675Y-104413809D01*
X106473673Y-104413808D01*
X106293215Y-104339061D01*
X106238811Y-104295220D01*
X106216746Y-104228926D01*
X106234025Y-104161227D01*
X106285162Y-104113616D01*
X106340667Y-104100500D01*
X108175500Y-104100500D01*
X108242539Y-104120185D01*
X108288294Y-104172989D01*
X108299500Y-104224500D01*
X108299500Y-130465891D01*
X108333608Y-130593187D01*
X108340167Y-130604547D01*
X108399500Y-130707314D01*
X108492686Y-130800500D01*
X108538000Y-130826662D01*
X108586214Y-130877226D01*
X108600000Y-130934048D01*
X108600000Y-132327125D01*
X108580315Y-132394164D01*
X108527511Y-132439919D01*
X108458353Y-132449863D01*
X108411210Y-132432852D01*
X108189751Y-132297142D01*
X108189740Y-132297136D01*
X108189739Y-132297135D01*
X108189735Y-132297133D01*
X107804615Y-132100904D01*
X107616475Y-132022974D01*
X107405280Y-131935494D01*
X107099322Y-131836083D01*
X106994210Y-131801930D01*
X106573922Y-131701028D01*
X106147013Y-131633412D01*
X105716120Y-131599500D01*
X105716115Y-131599500D01*
X105283885Y-131599500D01*
X105283879Y-131599500D01*
X104852986Y-131633412D01*
X104852985Y-131633412D01*
X104426083Y-131701027D01*
X104426080Y-131701027D01*
X104426078Y-131701028D01*
X104275562Y-131737163D01*
X104005801Y-131801927D01*
X104005795Y-131801928D01*
X104005790Y-131801930D01*
X104005778Y-131801934D01*
X103594719Y-131935494D01*
X103195387Y-132100903D01*
X102810259Y-132297136D01*
X102810248Y-132297142D01*
X102441737Y-132522966D01*
X102441726Y-132522974D01*
X102092053Y-132777025D01*
X102092039Y-132777035D01*
X101763382Y-133057737D01*
X101763368Y-133057750D01*
X101457750Y-133363368D01*
X101457737Y-133363382D01*
X101177035Y-133692039D01*
X101177025Y-133692053D01*
X100922974Y-134041726D01*
X100922966Y-134041737D01*
X100697142Y-134410248D01*
X100697136Y-134410259D01*
X100500903Y-134795387D01*
X100335494Y-135194719D01*
X100201934Y-135605778D01*
X100201927Y-135605801D01*
X100101027Y-136026083D01*
X100033412Y-136452985D01*
X100033412Y-136452986D01*
X99999500Y-136883879D01*
X99999500Y-137316120D01*
X100033412Y-137747013D01*
X100033412Y-137747014D01*
X100101027Y-138173916D01*
X100101028Y-138173922D01*
X100201930Y-138594210D01*
X100201934Y-138594221D01*
X100335494Y-139005280D01*
X100447910Y-139276677D01*
X100500904Y-139404615D01*
X100630150Y-139658273D01*
X100697136Y-139789740D01*
X100697142Y-139789751D01*
X100922966Y-140158262D01*
X100922974Y-140158273D01*
X101177025Y-140507946D01*
X101177035Y-140507960D01*
X101291741Y-140642262D01*
X101457743Y-140836624D01*
X101763376Y-141142257D01*
X101763382Y-141142262D01*
X102092039Y-141422964D01*
X102092046Y-141422969D01*
X102441728Y-141677027D01*
X102441732Y-141677029D01*
X102441737Y-141677033D01*
X102810248Y-141902857D01*
X102810254Y-141902860D01*
X102810265Y-141902867D01*
X103195385Y-142099096D01*
X103344688Y-142160939D01*
X103399091Y-142204780D01*
X103421156Y-142271074D01*
X103403877Y-142338774D01*
X103352739Y-142386384D01*
X103297235Y-142399500D01*
X74422913Y-142399500D01*
X74355874Y-142379815D01*
X74310119Y-142327011D01*
X74298913Y-142275816D01*
X74298884Y-142264503D01*
X74283921Y-136383879D01*
X77099500Y-136383879D01*
X77099500Y-136816120D01*
X77133412Y-137247013D01*
X77133412Y-137247014D01*
X77190268Y-137605985D01*
X77201028Y-137673922D01*
X77301930Y-138094210D01*
X77301934Y-138094221D01*
X77435494Y-138505280D01*
X77472325Y-138594198D01*
X77600904Y-138904615D01*
X77652196Y-139005280D01*
X77797136Y-139289740D01*
X77797142Y-139289751D01*
X78022966Y-139658262D01*
X78022974Y-139658273D01*
X78277025Y-140007946D01*
X78277035Y-140007960D01*
X78405415Y-140158272D01*
X78557743Y-140336624D01*
X78863376Y-140642257D01*
X78863382Y-140642262D01*
X79192039Y-140922964D01*
X79192046Y-140922969D01*
X79541728Y-141177027D01*
X79541732Y-141177029D01*
X79541737Y-141177033D01*
X79910248Y-141402857D01*
X79910254Y-141402860D01*
X79910265Y-141402867D01*
X80295385Y-141599096D01*
X80657050Y-141748902D01*
X80694719Y-141764505D01*
X80799240Y-141798465D01*
X81105790Y-141898070D01*
X81526078Y-141998972D01*
X81952987Y-142066588D01*
X82383885Y-142100500D01*
X82383893Y-142100500D01*
X82816107Y-142100500D01*
X82816115Y-142100500D01*
X83247013Y-142066588D01*
X83673922Y-141998972D01*
X84094210Y-141898070D01*
X84505286Y-141764503D01*
X84904615Y-141599096D01*
X85289735Y-141402867D01*
X85658272Y-141177027D01*
X86007954Y-140922969D01*
X86336624Y-140642257D01*
X86642257Y-140336624D01*
X86922969Y-140007954D01*
X87177027Y-139658272D01*
X87402867Y-139289735D01*
X87599096Y-138904615D01*
X87764503Y-138505286D01*
X87898070Y-138094210D01*
X87998972Y-137673922D01*
X88066588Y-137247013D01*
X88100500Y-136816115D01*
X88100500Y-136383885D01*
X88066588Y-135952987D01*
X87998972Y-135526078D01*
X87960491Y-135365792D01*
X90209099Y-135365792D01*
X90209099Y-137411527D01*
X90209100Y-137411533D01*
X90215507Y-137471140D01*
X90265801Y-137605985D01*
X90265805Y-137605992D01*
X90352051Y-137721201D01*
X90352054Y-137721204D01*
X90467263Y-137807450D01*
X90467270Y-137807454D01*
X90602116Y-137857748D01*
X90602115Y-137857748D01*
X90609043Y-137858492D01*
X90661726Y-137864157D01*
X92707471Y-137864156D01*
X92767082Y-137857748D01*
X92901930Y-137807453D01*
X93017145Y-137721203D01*
X93103395Y-137605988D01*
X93153690Y-137471140D01*
X93160099Y-137411530D01*
X93160098Y-136272527D01*
X95209099Y-136272527D01*
X95209099Y-136504786D01*
X95245430Y-136734171D01*
X95317200Y-136955057D01*
X95422638Y-137161988D01*
X95559150Y-137349881D01*
X95723375Y-137514106D01*
X95911268Y-137650618D01*
X95956993Y-137673916D01*
X96118198Y-137756055D01*
X96118200Y-137756055D01*
X96118203Y-137756057D01*
X96339085Y-137827826D01*
X96457267Y-137846543D01*
X96568470Y-137864157D01*
X96568475Y-137864157D01*
X96800728Y-137864157D01*
X96902101Y-137848100D01*
X97030113Y-137827826D01*
X97250995Y-137756057D01*
X97457930Y-137650618D01*
X97645823Y-137514106D01*
X97810048Y-137349881D01*
X97946560Y-137161988D01*
X98051999Y-136955053D01*
X98123768Y-136734171D01*
X98144042Y-136606159D01*
X98160099Y-136504786D01*
X98160099Y-136272527D01*
X98140831Y-136150879D01*
X98123768Y-136043143D01*
X98051999Y-135822261D01*
X98051997Y-135822258D01*
X98051997Y-135822256D01*
X97946559Y-135615325D01*
X97810048Y-135427433D01*
X97645823Y-135263208D01*
X97457930Y-135126696D01*
X97250999Y-135021258D01*
X97030113Y-134949488D01*
X96800728Y-134913157D01*
X96800723Y-134913157D01*
X96568475Y-134913157D01*
X96568470Y-134913157D01*
X96339084Y-134949488D01*
X96118198Y-135021258D01*
X95911267Y-135126696D01*
X95723372Y-135263210D01*
X95559152Y-135427430D01*
X95422638Y-135615325D01*
X95317200Y-135822256D01*
X95245430Y-136043142D01*
X95209099Y-136272527D01*
X93160098Y-136272527D01*
X93160098Y-135365785D01*
X93153690Y-135306174D01*
X93137665Y-135263210D01*
X93103396Y-135171328D01*
X93103392Y-135171321D01*
X93017146Y-135056112D01*
X93017143Y-135056109D01*
X92901934Y-134969863D01*
X92901927Y-134969859D01*
X92767081Y-134919565D01*
X92767082Y-134919565D01*
X92707482Y-134913158D01*
X92707480Y-134913157D01*
X92707472Y-134913157D01*
X92707463Y-134913157D01*
X90661728Y-134913157D01*
X90661722Y-134913158D01*
X90602115Y-134919565D01*
X90467270Y-134969859D01*
X90467263Y-134969863D01*
X90352054Y-135056109D01*
X90352051Y-135056112D01*
X90265805Y-135171321D01*
X90265801Y-135171328D01*
X90215507Y-135306174D01*
X90209100Y-135365773D01*
X90209100Y-135365780D01*
X90209099Y-135365792D01*
X87960491Y-135365792D01*
X87898070Y-135105790D01*
X87764503Y-134694714D01*
X87599096Y-134295385D01*
X87402867Y-133910265D01*
X87313332Y-133764157D01*
X87177033Y-133541737D01*
X87177029Y-133541732D01*
X87177027Y-133541728D01*
X86922969Y-133192046D01*
X86922964Y-133192039D01*
X86642262Y-132863382D01*
X86642257Y-132863376D01*
X86336624Y-132557743D01*
X86295906Y-132522966D01*
X86007960Y-132277035D01*
X86007946Y-132277025D01*
X85658273Y-132022974D01*
X85658262Y-132022966D01*
X85289751Y-131797142D01*
X85289740Y-131797136D01*
X85289739Y-131797135D01*
X85289735Y-131797133D01*
X84904615Y-131600904D01*
X84749839Y-131536794D01*
X84505280Y-131435494D01*
X84212796Y-131340461D01*
X84094210Y-131301930D01*
X83673922Y-131201028D01*
X83247013Y-131133412D01*
X82816120Y-131099500D01*
X82816115Y-131099500D01*
X82383885Y-131099500D01*
X82383879Y-131099500D01*
X81952986Y-131133412D01*
X81952985Y-131133412D01*
X81526083Y-131201027D01*
X81526080Y-131201027D01*
X81526078Y-131201028D01*
X81375562Y-131237163D01*
X81105801Y-131301927D01*
X81105795Y-131301928D01*
X81105790Y-131301930D01*
X81105778Y-131301934D01*
X80694719Y-131435494D01*
X80295387Y-131600903D01*
X79910259Y-131797136D01*
X79910248Y-131797142D01*
X79541737Y-132022966D01*
X79541726Y-132022974D01*
X79192053Y-132277025D01*
X79192039Y-132277035D01*
X78863382Y-132557737D01*
X78863368Y-132557750D01*
X78557750Y-132863368D01*
X78557737Y-132863382D01*
X78277035Y-133192039D01*
X78277025Y-133192053D01*
X78022974Y-133541726D01*
X78022966Y-133541737D01*
X77797142Y-133910248D01*
X77797136Y-133910259D01*
X77600903Y-134295387D01*
X77435494Y-134694719D01*
X77301934Y-135105778D01*
X77301927Y-135105801D01*
X77201027Y-135526083D01*
X77133412Y-135952985D01*
X77133412Y-135952986D01*
X77099500Y-136383879D01*
X74283921Y-136383879D01*
X74268962Y-130504885D01*
X91934099Y-130504885D01*
X91934099Y-130672428D01*
X91966781Y-130836731D01*
X91966783Y-130836739D01*
X92030894Y-130991517D01*
X92123972Y-131130819D01*
X92242433Y-131249280D01*
X92242437Y-131249283D01*
X92381729Y-131342356D01*
X92381733Y-131342358D01*
X92381736Y-131342360D01*
X92394032Y-131347453D01*
X92410177Y-131354141D01*
X92464580Y-131397982D01*
X92486645Y-131464277D01*
X92469456Y-131531822D01*
X92382856Y-131678256D01*
X92382853Y-131678263D01*
X92337001Y-131836083D01*
X92337000Y-131836089D01*
X92334099Y-131872955D01*
X92334099Y-133179358D01*
X92337000Y-133216224D01*
X92337001Y-133216230D01*
X92382853Y-133374050D01*
X92382854Y-133374053D01*
X92466516Y-133515519D01*
X92466522Y-133515527D01*
X92582728Y-133631733D01*
X92582732Y-133631736D01*
X92582734Y-133631738D01*
X92724201Y-133715401D01*
X92765823Y-133727493D01*
X92882025Y-133761254D01*
X92882028Y-133761254D01*
X92882030Y-133761255D01*
X92918905Y-133764157D01*
X92918913Y-133764157D01*
X93350285Y-133764157D01*
X93350293Y-133764157D01*
X93387168Y-133761255D01*
X93387170Y-133761254D01*
X93387172Y-133761254D01*
X93428790Y-133749162D01*
X93544997Y-133715401D01*
X93686464Y-133631738D01*
X93802680Y-133515522D01*
X93886343Y-133374055D01*
X93932197Y-133216226D01*
X93935099Y-133179351D01*
X93935099Y-131872963D01*
X93932197Y-131836088D01*
X93922274Y-131801934D01*
X93886344Y-131678263D01*
X93886344Y-131678262D01*
X93886343Y-131678260D01*
X93886343Y-131678259D01*
X93851866Y-131619961D01*
X93834599Y-131556841D01*
X93834599Y-130775157D01*
X93837149Y-130766471D01*
X93835861Y-130757510D01*
X93846839Y-130733469D01*
X93854284Y-130708118D01*
X93861124Y-130702190D01*
X93864886Y-130693954D01*
X93887120Y-130679664D01*
X93907088Y-130662363D01*
X93917602Y-130660075D01*
X93923664Y-130656180D01*
X93958599Y-130651157D01*
X94148857Y-130651157D01*
X94215896Y-130670842D01*
X94261651Y-130723646D01*
X94264707Y-130731727D01*
X94266782Y-130736738D01*
X94266783Y-130736739D01*
X94308201Y-130836731D01*
X94325160Y-130877672D01*
X94334599Y-130925125D01*
X94334599Y-131556841D01*
X94317332Y-131619961D01*
X94282853Y-131678262D01*
X94282853Y-131678263D01*
X94237001Y-131836083D01*
X94237000Y-131836089D01*
X94234099Y-131872955D01*
X94234099Y-133179358D01*
X94237000Y-133216224D01*
X94237001Y-133216230D01*
X94282853Y-133374050D01*
X94282854Y-133374053D01*
X94366516Y-133515519D01*
X94366522Y-133515527D01*
X94482728Y-133631733D01*
X94482732Y-133631736D01*
X94482734Y-133631738D01*
X94624201Y-133715401D01*
X94665823Y-133727493D01*
X94782025Y-133761254D01*
X94782028Y-133761254D01*
X94782030Y-133761255D01*
X94818905Y-133764157D01*
X94818913Y-133764157D01*
X95250285Y-133764157D01*
X95250293Y-133764157D01*
X95287168Y-133761255D01*
X95287170Y-133761254D01*
X95287172Y-133761254D01*
X95328790Y-133749162D01*
X95444997Y-133715401D01*
X95586464Y-133631738D01*
X95702680Y-133515522D01*
X95786343Y-133374055D01*
X95832197Y-133216226D01*
X95835099Y-133179351D01*
X95835099Y-131872963D01*
X95832197Y-131836088D01*
X95822274Y-131801934D01*
X95786344Y-131678263D01*
X95786343Y-131678260D01*
X95786343Y-131678259D01*
X95702680Y-131536792D01*
X95702678Y-131536790D01*
X95702675Y-131536786D01*
X95671418Y-131505529D01*
X95656714Y-131478601D01*
X95640122Y-131452783D01*
X95639230Y-131446582D01*
X95637933Y-131444206D01*
X95635099Y-131417848D01*
X95635099Y-131192307D01*
X95654784Y-131125268D01*
X95671413Y-131104630D01*
X95745225Y-131030819D01*
X95838302Y-130891520D01*
X95902415Y-130736739D01*
X95935099Y-130572424D01*
X95935099Y-130404890D01*
X95902415Y-130240575D01*
X95838302Y-130085794D01*
X95780642Y-129999500D01*
X95745225Y-129946494D01*
X95626761Y-129828030D01*
X95487459Y-129734952D01*
X95332681Y-129670841D01*
X95332673Y-129670839D01*
X95168370Y-129638157D01*
X95168366Y-129638157D01*
X95000832Y-129638157D01*
X95000827Y-129638157D01*
X94838553Y-129670435D01*
X94830646Y-129669727D01*
X94823208Y-129672502D01*
X94796345Y-129666658D01*
X94768961Y-129664208D01*
X94760951Y-129658958D01*
X94754935Y-129657650D01*
X94726681Y-129636499D01*
X94653494Y-129563312D01*
X94620009Y-129501989D01*
X94624993Y-129432297D01*
X94653496Y-129387948D01*
X94660626Y-129380819D01*
X94753703Y-129241520D01*
X94817816Y-129086739D01*
X94850500Y-128922424D01*
X94850500Y-128754890D01*
X94817816Y-128590575D01*
X94812684Y-128578187D01*
X94805217Y-128508719D01*
X94820518Y-128467612D01*
X94822867Y-128463639D01*
X94822869Y-128463636D01*
X94867665Y-128309447D01*
X94870500Y-128273424D01*
X94870499Y-127875063D01*
X94867665Y-127839039D01*
X94822869Y-127684850D01*
X94788869Y-127627360D01*
X94771688Y-127559641D01*
X94788869Y-127501125D01*
X94822869Y-127443636D01*
X94867665Y-127289447D01*
X94870500Y-127253424D01*
X94870499Y-126855063D01*
X94867665Y-126819039D01*
X94822869Y-126664850D01*
X94744954Y-126533103D01*
X94727772Y-126465381D01*
X94749932Y-126399119D01*
X94777236Y-126370822D01*
X94780000Y-126368746D01*
X95280000Y-126368746D01*
X95426195Y-126326274D01*
X95565374Y-126243964D01*
X95565383Y-126243957D01*
X95679714Y-126129626D01*
X95679721Y-126129617D01*
X95762031Y-125990438D01*
X95762033Y-125990433D01*
X95807144Y-125835161D01*
X95807145Y-125835155D01*
X95808790Y-125814243D01*
X95280000Y-125814243D01*
X95280000Y-126368746D01*
X94780000Y-126368746D01*
X94780000Y-126062595D01*
X94797267Y-125999476D01*
X94802494Y-125990638D01*
X94823210Y-125919336D01*
X94847642Y-125835240D01*
X94847643Y-125835234D01*
X94850499Y-125798940D01*
X94850500Y-125798933D01*
X94850500Y-125329553D01*
X94847643Y-125293250D01*
X94836153Y-125253703D01*
X94802495Y-125137851D01*
X94802492Y-125137843D01*
X94797266Y-125129006D01*
X94780000Y-125065888D01*
X94780000Y-124759737D01*
X95280000Y-124759737D01*
X95280000Y-125314243D01*
X95808790Y-125314243D01*
X95807145Y-125293332D01*
X95762031Y-125138047D01*
X95679721Y-124998868D01*
X95679714Y-124998859D01*
X95565383Y-124884528D01*
X95565374Y-124884521D01*
X95426193Y-124802210D01*
X95426190Y-124802208D01*
X95280001Y-124759736D01*
X95280000Y-124759737D01*
X94780000Y-124759737D01*
X94779998Y-124759736D01*
X94633809Y-124802208D01*
X94633806Y-124802210D01*
X94613608Y-124814155D01*
X94545884Y-124831335D01*
X94487370Y-124814153D01*
X94466397Y-124801750D01*
X94466390Y-124801747D01*
X94310997Y-124756600D01*
X94310991Y-124756599D01*
X94274697Y-124753743D01*
X94274690Y-124753743D01*
X93865310Y-124753743D01*
X93865302Y-124753743D01*
X93829008Y-124756599D01*
X93829002Y-124756600D01*
X93673609Y-124801747D01*
X93673606Y-124801748D01*
X93534315Y-124884124D01*
X93529676Y-124887723D01*
X93508105Y-124896191D01*
X93488611Y-124908720D01*
X93469020Y-124911536D01*
X93464639Y-124913257D01*
X93453676Y-124913743D01*
X93441418Y-124913743D01*
X93374379Y-124894058D01*
X93372527Y-124892845D01*
X93302868Y-124846300D01*
X93302859Y-124846295D01*
X93148082Y-124782184D01*
X93148074Y-124782182D01*
X92983771Y-124749500D01*
X92983767Y-124749500D01*
X92816233Y-124749500D01*
X92816228Y-124749500D01*
X92651925Y-124782182D01*
X92651917Y-124782184D01*
X92497139Y-124846295D01*
X92357837Y-124939373D01*
X92239373Y-125057837D01*
X92146295Y-125197139D01*
X92082184Y-125351917D01*
X92082182Y-125351925D01*
X92049500Y-125516228D01*
X92049500Y-125683771D01*
X92082182Y-125848074D01*
X92082184Y-125848082D01*
X92146295Y-126002860D01*
X92239373Y-126142162D01*
X92357837Y-126260626D01*
X92450494Y-126322537D01*
X92497137Y-126353703D01*
X92651918Y-126417816D01*
X92816228Y-126450499D01*
X92816232Y-126450500D01*
X92816233Y-126450500D01*
X92983768Y-126450500D01*
X92983769Y-126450499D01*
X93148082Y-126417816D01*
X93169113Y-126409104D01*
X93238578Y-126401635D01*
X93301058Y-126432908D01*
X93336712Y-126492996D01*
X93334221Y-126562821D01*
X93323298Y-126586785D01*
X93277130Y-126664851D01*
X93277129Y-126664854D01*
X93232335Y-126819034D01*
X93232334Y-126819040D01*
X93229500Y-126855054D01*
X93229500Y-127253412D01*
X93229501Y-127253434D01*
X93232335Y-127289448D01*
X93277129Y-127443631D01*
X93277132Y-127443638D01*
X93311128Y-127501124D01*
X93328309Y-127568848D01*
X93311128Y-127627362D01*
X93277132Y-127684847D01*
X93277129Y-127684854D01*
X93232335Y-127839034D01*
X93232334Y-127839040D01*
X93229500Y-127875054D01*
X93229500Y-128273412D01*
X93229501Y-128273434D01*
X93232334Y-128309443D01*
X93247517Y-128361703D01*
X93247317Y-128431573D01*
X93243001Y-128443750D01*
X93182184Y-128590574D01*
X93182182Y-128590582D01*
X93149500Y-128754885D01*
X93149500Y-128922428D01*
X93182182Y-129086731D01*
X93182184Y-129086739D01*
X93246295Y-129241517D01*
X93339373Y-129380819D01*
X93431103Y-129472549D01*
X93464588Y-129533872D01*
X93459604Y-129603564D01*
X93447133Y-129628201D01*
X93341409Y-129789516D01*
X93316895Y-129810375D01*
X93293360Y-129832350D01*
X93290449Y-129832879D01*
X93288197Y-129834796D01*
X93256289Y-129839092D01*
X93224618Y-129844853D01*
X93220773Y-129843874D01*
X93218953Y-129844120D01*
X93215627Y-129842565D01*
X93190245Y-129836106D01*
X93032681Y-129770841D01*
X93032673Y-129770839D01*
X92868370Y-129738157D01*
X92868366Y-129738157D01*
X92700832Y-129738157D01*
X92700827Y-129738157D01*
X92536524Y-129770839D01*
X92536516Y-129770841D01*
X92381738Y-129834952D01*
X92242436Y-129928030D01*
X92123972Y-130046494D01*
X92030894Y-130185796D01*
X91966783Y-130340574D01*
X91966781Y-130340582D01*
X91934099Y-130504885D01*
X74268962Y-130504885D01*
X74202091Y-104224814D01*
X74221605Y-104157726D01*
X74274293Y-104111837D01*
X74326091Y-104100500D01*
X79528285Y-104100500D01*
X79595324Y-104120185D01*
G37*
G04 #@! TD.AperFunction*
G04 #@! TA.AperFunction,Conductor*
G36*
X94542294Y-108283046D02*
G01*
X94563353Y-108283799D01*
X94575310Y-108292101D01*
X94589352Y-108295952D01*
X94603435Y-108311628D01*
X94620746Y-108323647D01*
X94633412Y-108344995D01*
X94636046Y-108347927D01*
X94638755Y-108354000D01*
X94690604Y-108479176D01*
X94690609Y-108479185D01*
X94781595Y-108615354D01*
X94780965Y-108615774D01*
X94794935Y-108639085D01*
X94823532Y-108708122D01*
X94894726Y-108814673D01*
X94894727Y-108814674D01*
X97343181Y-111263127D01*
X97376666Y-111324450D01*
X97379500Y-111350808D01*
X97379500Y-115791801D01*
X97379381Y-115792203D01*
X97379497Y-115792605D01*
X97369538Y-115825725D01*
X97359815Y-115858840D01*
X97359459Y-115859247D01*
X97359379Y-115859515D01*
X97358083Y-115860825D01*
X97336094Y-115886038D01*
X97330499Y-115890822D01*
X97257838Y-115939374D01*
X97163972Y-116033239D01*
X97160291Y-116036388D01*
X97132645Y-116048797D01*
X97106054Y-116063317D01*
X97100182Y-116063369D01*
X97096548Y-116065001D01*
X97086513Y-116063491D01*
X97055507Y-116063769D01*
X97002782Y-116053282D01*
X96940871Y-116020897D01*
X96939291Y-116019345D01*
X96014674Y-115094727D01*
X96014673Y-115094726D01*
X96014669Y-115094723D01*
X95908127Y-115023535D01*
X95789744Y-114974499D01*
X95789738Y-114974497D01*
X95664071Y-114949500D01*
X95664069Y-114949500D01*
X91235931Y-114949500D01*
X91235929Y-114949500D01*
X91110261Y-114974497D01*
X91110255Y-114974499D01*
X90991870Y-115023535D01*
X90885331Y-115094722D01*
X90885324Y-115094728D01*
X90394726Y-115585326D01*
X90342114Y-115664068D01*
X90342112Y-115664070D01*
X90323539Y-115691864D01*
X90323533Y-115691875D01*
X90274499Y-115810255D01*
X90274497Y-115810261D01*
X90249500Y-115935928D01*
X90249500Y-117405068D01*
X90229815Y-117472107D01*
X90228602Y-117473959D01*
X90146295Y-117597139D01*
X90082184Y-117751917D01*
X90082182Y-117751925D01*
X90049500Y-117916228D01*
X90049500Y-117925500D01*
X90029815Y-117992539D01*
X89977011Y-118038294D01*
X89925500Y-118049500D01*
X87762230Y-118049500D01*
X87695191Y-118029815D01*
X87674549Y-118013181D01*
X87668657Y-118007289D01*
X87668656Y-118007288D01*
X87536056Y-117925500D01*
X87519336Y-117915187D01*
X87519331Y-117915185D01*
X87512420Y-117912895D01*
X87352797Y-117860001D01*
X87352795Y-117860000D01*
X87250016Y-117849500D01*
X87250009Y-117849500D01*
X86589070Y-117849500D01*
X86589069Y-117849500D01*
X86460931Y-117849500D01*
X86460929Y-117849500D01*
X85278543Y-117849500D01*
X85211504Y-117829815D01*
X85165749Y-117777011D01*
X85155805Y-117707853D01*
X85163982Y-117678047D01*
X85217816Y-117548082D01*
X85250500Y-117383767D01*
X85250500Y-117216233D01*
X85247011Y-117198692D01*
X85253238Y-117129100D01*
X85296100Y-117073923D01*
X85361990Y-117050678D01*
X85368628Y-117050500D01*
X87564071Y-117050500D01*
X87650497Y-117033308D01*
X87689744Y-117025501D01*
X87808127Y-116976465D01*
X87840556Y-116954797D01*
X87840557Y-116954797D01*
X87896014Y-116917741D01*
X87914669Y-116905277D01*
X93873127Y-110946819D01*
X93934450Y-110913334D01*
X93960808Y-110910500D01*
X94214070Y-110910500D01*
X94245032Y-110904340D01*
X94318559Y-110889715D01*
X94366940Y-110889715D01*
X94421158Y-110900500D01*
X94578844Y-110900500D01*
X94578845Y-110900499D01*
X94733497Y-110869737D01*
X94879179Y-110809394D01*
X95010289Y-110721789D01*
X95121789Y-110610289D01*
X95209394Y-110479179D01*
X95269737Y-110333497D01*
X95300500Y-110178842D01*
X95300500Y-110021158D01*
X95300500Y-110021155D01*
X95300499Y-110021153D01*
X95269738Y-109866510D01*
X95269737Y-109866503D01*
X95223437Y-109754724D01*
X95209397Y-109720827D01*
X95209390Y-109720814D01*
X95121789Y-109589711D01*
X95121786Y-109589707D01*
X95010292Y-109478213D01*
X95010288Y-109478210D01*
X94879185Y-109390609D01*
X94879172Y-109390602D01*
X94733501Y-109330264D01*
X94733489Y-109330261D01*
X94578845Y-109299500D01*
X94578842Y-109299500D01*
X94421158Y-109299500D01*
X94421155Y-109299500D01*
X94266510Y-109330261D01*
X94266498Y-109330264D01*
X94120827Y-109390602D01*
X94120814Y-109390609D01*
X93989712Y-109478209D01*
X93942227Y-109525695D01*
X93894739Y-109573182D01*
X93833419Y-109606666D01*
X93807060Y-109609500D01*
X93575929Y-109609500D01*
X93450261Y-109634497D01*
X93450255Y-109634499D01*
X93331870Y-109683535D01*
X93225331Y-109754722D01*
X93225324Y-109754728D01*
X87266873Y-115713181D01*
X87239945Y-115727884D01*
X87214127Y-115744477D01*
X87207926Y-115745368D01*
X87205550Y-115746666D01*
X87179192Y-115749500D01*
X87069809Y-115749500D01*
X87002770Y-115729815D01*
X86957015Y-115677011D01*
X86947071Y-115607853D01*
X86976096Y-115544297D01*
X86982128Y-115537819D01*
X94113127Y-108406819D01*
X94174450Y-108373334D01*
X94200808Y-108370500D01*
X94214071Y-108370500D01*
X94302120Y-108352985D01*
X94339744Y-108345501D01*
X94458127Y-108296465D01*
X94458134Y-108296460D01*
X94463496Y-108293595D01*
X94464500Y-108295473D01*
X94475403Y-108292058D01*
X94493528Y-108281305D01*
X94508076Y-108281824D01*
X94521970Y-108277473D01*
X94542294Y-108283046D01*
G37*
G04 #@! TD.AperFunction*
G04 #@! TA.AperFunction,Conductor*
G36*
X99375067Y-104120185D02*
G01*
X99420822Y-104172989D01*
X99430766Y-104242147D01*
X99401741Y-104305703D01*
X99355480Y-104339061D01*
X99176092Y-104413364D01*
X99176079Y-104413371D01*
X99012218Y-104522860D01*
X99012214Y-104522863D01*
X98872863Y-104662214D01*
X98872860Y-104662218D01*
X98763371Y-104826079D01*
X98763364Y-104826092D01*
X98687950Y-105008160D01*
X98687947Y-105008170D01*
X98674444Y-105076055D01*
X98642059Y-105137966D01*
X98640508Y-105139544D01*
X97394724Y-106385328D01*
X97337174Y-106471460D01*
X97321852Y-106494391D01*
X97268240Y-106539196D01*
X97218750Y-106549500D01*
X94605929Y-106549500D01*
X94480261Y-106574497D01*
X94480255Y-106574499D01*
X94361874Y-106623534D01*
X94255326Y-106694726D01*
X94255325Y-106694727D01*
X93916873Y-107033181D01*
X93855550Y-107066666D01*
X93829192Y-107069500D01*
X93815929Y-107069500D01*
X93690261Y-107094497D01*
X93690255Y-107094499D01*
X93571874Y-107143534D01*
X93465326Y-107214726D01*
X93465325Y-107214727D01*
X86266873Y-114413181D01*
X86205550Y-114446666D01*
X86179192Y-114449500D01*
X84311061Y-114449500D01*
X84244022Y-114429815D01*
X84198267Y-114377011D01*
X84188323Y-114307853D01*
X84217348Y-114244297D01*
X84272743Y-114207569D01*
X84405280Y-114164505D01*
X84405280Y-114164504D01*
X84405286Y-114164503D01*
X84804615Y-113999096D01*
X85189735Y-113802867D01*
X85558272Y-113577027D01*
X85907954Y-113322969D01*
X86236624Y-113042257D01*
X86542257Y-112736624D01*
X86822969Y-112407954D01*
X87077027Y-112058272D01*
X87302867Y-111689735D01*
X87499096Y-111304615D01*
X87664503Y-110905286D01*
X87798070Y-110494210D01*
X87898972Y-110073922D01*
X87966588Y-109647013D01*
X88000500Y-109216115D01*
X88000500Y-108783885D01*
X87966588Y-108352987D01*
X87898972Y-107926078D01*
X87798070Y-107505790D01*
X87664503Y-107094714D01*
X87499096Y-106695385D01*
X87302867Y-106310265D01*
X87302857Y-106310248D01*
X87077033Y-105941737D01*
X87077029Y-105941732D01*
X87077027Y-105941728D01*
X86822969Y-105592046D01*
X86822964Y-105592039D01*
X86542262Y-105263382D01*
X86542257Y-105263376D01*
X86236624Y-104957743D01*
X86082758Y-104826328D01*
X85907960Y-104677035D01*
X85907946Y-104677025D01*
X85658357Y-104495689D01*
X85558272Y-104422973D01*
X85517063Y-104397720D01*
X85406925Y-104330227D01*
X85360050Y-104278415D01*
X85348627Y-104209486D01*
X85376284Y-104145323D01*
X85434240Y-104106298D01*
X85471715Y-104100500D01*
X99308028Y-104100500D01*
X99375067Y-104120185D01*
G37*
G04 #@! TD.AperFunction*
M02*
