G04 #@! TF.GenerationSoftware,KiCad,Pcbnew,10.0.4*
G04 #@! TF.CreationDate,2026-08-07T21:49:30-07:00*
G04 #@! TF.ProjectId,ThermocoupleBoard,54686572-6d6f-4636-9f75-706c65426f61,rev?*
G04 #@! TF.SameCoordinates,Original*
G04 #@! TF.FileFunction,Legend,Top*
G04 #@! TF.FilePolarity,Positive*
%FSLAX46Y46*%
G04 Gerber Fmt 4.6, Leading zero omitted, Abs format (unit mm)*
G04 Created by KiCad (PCBNEW 10.0.4) date 2026-08-07 21:49:30*
%MOMM*%
%LPD*%
G01*
G04 APERTURE LIST*
G04 Aperture macros list*
%AMRoundRect*
0 Rectangle with rounded corners*
0 $1 Rounding radius*
0 $2 $3 $4 $5 $6 $7 $8 $9 X,Y pos of 4 corners*
0 Add a 4 corners polygon primitive as box body*
4,1,4,$2,$3,$4,$5,$6,$7,$8,$9,$2,$3,0*
0 Add four circle primitives for the rounded corners*
1,1,$1+$1,$2,$3*
1,1,$1+$1,$4,$5*
1,1,$1+$1,$6,$7*
1,1,$1+$1,$8,$9*
0 Add four rect primitives between the rounded corners*
20,1,$1+$1,$2,$3,$4,$5,0*
20,1,$1+$1,$4,$5,$6,$7,0*
20,1,$1+$1,$6,$7,$8,$9,0*
20,1,$1+$1,$8,$9,$2,$3,0*%
G04 Aperture macros list end*
%ADD10C,0.150000*%
%ADD11C,0.254000*%
%ADD12C,0.120000*%
%ADD13C,0.100000*%
%ADD14R,1.000000X1.000000*%
%ADD15C,1.000000*%
%ADD16RoundRect,0.250000X-0.325000X-1.100000X0.325000X-1.100000X0.325000X1.100000X-0.325000X1.100000X0*%
%ADD17RoundRect,0.160000X0.222500X0.160000X-0.222500X0.160000X-0.222500X-0.160000X0.222500X-0.160000X0*%
%ADD18RoundRect,0.100000X0.100000X-0.637500X0.100000X0.637500X-0.100000X0.637500X-0.100000X-0.637500X0*%
%ADD19RoundRect,0.160000X-0.222500X-0.160000X0.222500X-0.160000X0.222500X0.160000X-0.222500X0.160000X0*%
%ADD20RoundRect,0.135000X-0.135000X-0.185000X0.135000X-0.185000X0.135000X0.185000X-0.135000X0.185000X0*%
%ADD21RoundRect,0.135000X0.135000X0.185000X-0.135000X0.185000X-0.135000X-0.185000X0.135000X-0.185000X0*%
%ADD22R,1.950000X1.950000*%
%ADD23C,1.950000*%
%ADD24RoundRect,0.140000X0.140000X0.170000X-0.140000X0.170000X-0.140000X-0.170000X0.140000X-0.170000X0*%
G04 APERTURE END LIST*
D10*
X97254819Y-106733333D02*
X97969104Y-106733333D01*
X97969104Y-106733333D02*
X98111961Y-106780952D01*
X98111961Y-106780952D02*
X98207200Y-106876190D01*
X98207200Y-106876190D02*
X98254819Y-107019047D01*
X98254819Y-107019047D02*
X98254819Y-107114285D01*
X98254819Y-105733333D02*
X98254819Y-106304761D01*
X98254819Y-106019047D02*
X97254819Y-106019047D01*
X97254819Y-106019047D02*
X97397676Y-106114285D01*
X97397676Y-106114285D02*
X97492914Y-106209523D01*
X97492914Y-106209523D02*
X97540533Y-106304761D01*
X81657142Y-122559580D02*
X81609523Y-122607200D01*
X81609523Y-122607200D02*
X81466666Y-122654819D01*
X81466666Y-122654819D02*
X81371428Y-122654819D01*
X81371428Y-122654819D02*
X81228571Y-122607200D01*
X81228571Y-122607200D02*
X81133333Y-122511961D01*
X81133333Y-122511961D02*
X81085714Y-122416723D01*
X81085714Y-122416723D02*
X81038095Y-122226247D01*
X81038095Y-122226247D02*
X81038095Y-122083390D01*
X81038095Y-122083390D02*
X81085714Y-121892914D01*
X81085714Y-121892914D02*
X81133333Y-121797676D01*
X81133333Y-121797676D02*
X81228571Y-121702438D01*
X81228571Y-121702438D02*
X81371428Y-121654819D01*
X81371428Y-121654819D02*
X81466666Y-121654819D01*
X81466666Y-121654819D02*
X81609523Y-121702438D01*
X81609523Y-121702438D02*
X81657142Y-121750057D01*
X82038095Y-121750057D02*
X82085714Y-121702438D01*
X82085714Y-121702438D02*
X82180952Y-121654819D01*
X82180952Y-121654819D02*
X82419047Y-121654819D01*
X82419047Y-121654819D02*
X82514285Y-121702438D01*
X82514285Y-121702438D02*
X82561904Y-121750057D01*
X82561904Y-121750057D02*
X82609523Y-121845295D01*
X82609523Y-121845295D02*
X82609523Y-121940533D01*
X82609523Y-121940533D02*
X82561904Y-122083390D01*
X82561904Y-122083390D02*
X81990476Y-122654819D01*
X81990476Y-122654819D02*
X82609523Y-122654819D01*
X83180952Y-122083390D02*
X83085714Y-122035771D01*
X83085714Y-122035771D02*
X83038095Y-121988152D01*
X83038095Y-121988152D02*
X82990476Y-121892914D01*
X82990476Y-121892914D02*
X82990476Y-121845295D01*
X82990476Y-121845295D02*
X83038095Y-121750057D01*
X83038095Y-121750057D02*
X83085714Y-121702438D01*
X83085714Y-121702438D02*
X83180952Y-121654819D01*
X83180952Y-121654819D02*
X83371428Y-121654819D01*
X83371428Y-121654819D02*
X83466666Y-121702438D01*
X83466666Y-121702438D02*
X83514285Y-121750057D01*
X83514285Y-121750057D02*
X83561904Y-121845295D01*
X83561904Y-121845295D02*
X83561904Y-121892914D01*
X83561904Y-121892914D02*
X83514285Y-121988152D01*
X83514285Y-121988152D02*
X83466666Y-122035771D01*
X83466666Y-122035771D02*
X83371428Y-122083390D01*
X83371428Y-122083390D02*
X83180952Y-122083390D01*
X83180952Y-122083390D02*
X83085714Y-122131009D01*
X83085714Y-122131009D02*
X83038095Y-122178628D01*
X83038095Y-122178628D02*
X82990476Y-122273866D01*
X82990476Y-122273866D02*
X82990476Y-122464342D01*
X82990476Y-122464342D02*
X83038095Y-122559580D01*
X83038095Y-122559580D02*
X83085714Y-122607200D01*
X83085714Y-122607200D02*
X83180952Y-122654819D01*
X83180952Y-122654819D02*
X83371428Y-122654819D01*
X83371428Y-122654819D02*
X83466666Y-122607200D01*
X83466666Y-122607200D02*
X83514285Y-122559580D01*
X83514285Y-122559580D02*
X83561904Y-122464342D01*
X83561904Y-122464342D02*
X83561904Y-122273866D01*
X83561904Y-122273866D02*
X83514285Y-122178628D01*
X83514285Y-122178628D02*
X83466666Y-122131009D01*
X83466666Y-122131009D02*
X83371428Y-122083390D01*
X97216666Y-129495252D02*
X96883333Y-129495252D01*
X96883333Y-130019062D02*
X96883333Y-129019062D01*
X96883333Y-129019062D02*
X97359523Y-129019062D01*
X98073809Y-129495252D02*
X98216666Y-129542871D01*
X98216666Y-129542871D02*
X98264285Y-129590490D01*
X98264285Y-129590490D02*
X98311904Y-129685728D01*
X98311904Y-129685728D02*
X98311904Y-129828585D01*
X98311904Y-129828585D02*
X98264285Y-129923823D01*
X98264285Y-129923823D02*
X98216666Y-129971443D01*
X98216666Y-129971443D02*
X98121428Y-130019062D01*
X98121428Y-130019062D02*
X97740476Y-130019062D01*
X97740476Y-130019062D02*
X97740476Y-129019062D01*
X97740476Y-129019062D02*
X98073809Y-129019062D01*
X98073809Y-129019062D02*
X98169047Y-129066681D01*
X98169047Y-129066681D02*
X98216666Y-129114300D01*
X98216666Y-129114300D02*
X98264285Y-129209538D01*
X98264285Y-129209538D02*
X98264285Y-129304776D01*
X98264285Y-129304776D02*
X98216666Y-129400014D01*
X98216666Y-129400014D02*
X98169047Y-129447633D01*
X98169047Y-129447633D02*
X98073809Y-129495252D01*
X98073809Y-129495252D02*
X97740476Y-129495252D01*
X99264285Y-130019062D02*
X98692857Y-130019062D01*
X98978571Y-130019062D02*
X98978571Y-129019062D01*
X98978571Y-129019062D02*
X98883333Y-129161919D01*
X98883333Y-129161919D02*
X98788095Y-129257157D01*
X98788095Y-129257157D02*
X98692857Y-129304776D01*
X90554819Y-121826147D02*
X91364342Y-121826147D01*
X91364342Y-121826147D02*
X91459580Y-121778528D01*
X91459580Y-121778528D02*
X91507200Y-121730909D01*
X91507200Y-121730909D02*
X91554819Y-121635671D01*
X91554819Y-121635671D02*
X91554819Y-121445195D01*
X91554819Y-121445195D02*
X91507200Y-121349957D01*
X91507200Y-121349957D02*
X91459580Y-121302338D01*
X91459580Y-121302338D02*
X91364342Y-121254719D01*
X91364342Y-121254719D02*
X90554819Y-121254719D01*
X90650057Y-120826147D02*
X90602438Y-120778528D01*
X90602438Y-120778528D02*
X90554819Y-120683290D01*
X90554819Y-120683290D02*
X90554819Y-120445195D01*
X90554819Y-120445195D02*
X90602438Y-120349957D01*
X90602438Y-120349957D02*
X90650057Y-120302338D01*
X90650057Y-120302338D02*
X90745295Y-120254719D01*
X90745295Y-120254719D02*
X90840533Y-120254719D01*
X90840533Y-120254719D02*
X90983390Y-120302338D01*
X90983390Y-120302338D02*
X91554819Y-120873766D01*
X91554819Y-120873766D02*
X91554819Y-120254719D01*
X89216666Y-129495252D02*
X88883333Y-129495252D01*
X88883333Y-130019062D02*
X88883333Y-129019062D01*
X88883333Y-129019062D02*
X89359523Y-129019062D01*
X90073809Y-129495252D02*
X90216666Y-129542871D01*
X90216666Y-129542871D02*
X90264285Y-129590490D01*
X90264285Y-129590490D02*
X90311904Y-129685728D01*
X90311904Y-129685728D02*
X90311904Y-129828585D01*
X90311904Y-129828585D02*
X90264285Y-129923823D01*
X90264285Y-129923823D02*
X90216666Y-129971443D01*
X90216666Y-129971443D02*
X90121428Y-130019062D01*
X90121428Y-130019062D02*
X89740476Y-130019062D01*
X89740476Y-130019062D02*
X89740476Y-129019062D01*
X89740476Y-129019062D02*
X90073809Y-129019062D01*
X90073809Y-129019062D02*
X90169047Y-129066681D01*
X90169047Y-129066681D02*
X90216666Y-129114300D01*
X90216666Y-129114300D02*
X90264285Y-129209538D01*
X90264285Y-129209538D02*
X90264285Y-129304776D01*
X90264285Y-129304776D02*
X90216666Y-129400014D01*
X90216666Y-129400014D02*
X90169047Y-129447633D01*
X90169047Y-129447633D02*
X90073809Y-129495252D01*
X90073809Y-129495252D02*
X89740476Y-129495252D01*
X90692857Y-129114300D02*
X90740476Y-129066681D01*
X90740476Y-129066681D02*
X90835714Y-129019062D01*
X90835714Y-129019062D02*
X91073809Y-129019062D01*
X91073809Y-129019062D02*
X91169047Y-129066681D01*
X91169047Y-129066681D02*
X91216666Y-129114300D01*
X91216666Y-129114300D02*
X91264285Y-129209538D01*
X91264285Y-129209538D02*
X91264285Y-129304776D01*
X91264285Y-129304776D02*
X91216666Y-129447633D01*
X91216666Y-129447633D02*
X90645238Y-130019062D01*
X90645238Y-130019062D02*
X91264285Y-130019062D01*
X89883333Y-128519062D02*
X89550000Y-128042871D01*
X89311905Y-128519062D02*
X89311905Y-127519062D01*
X89311905Y-127519062D02*
X89692857Y-127519062D01*
X89692857Y-127519062D02*
X89788095Y-127566681D01*
X89788095Y-127566681D02*
X89835714Y-127614300D01*
X89835714Y-127614300D02*
X89883333Y-127709538D01*
X89883333Y-127709538D02*
X89883333Y-127852395D01*
X89883333Y-127852395D02*
X89835714Y-127947633D01*
X89835714Y-127947633D02*
X89788095Y-127995252D01*
X89788095Y-127995252D02*
X89692857Y-128042871D01*
X89692857Y-128042871D02*
X89311905Y-128042871D01*
X90740476Y-127852395D02*
X90740476Y-128519062D01*
X90502381Y-127471443D02*
X90264286Y-128185728D01*
X90264286Y-128185728D02*
X90883333Y-128185728D01*
X97883333Y-128519062D02*
X97550000Y-128042871D01*
X97311905Y-128519062D02*
X97311905Y-127519062D01*
X97311905Y-127519062D02*
X97692857Y-127519062D01*
X97692857Y-127519062D02*
X97788095Y-127566681D01*
X97788095Y-127566681D02*
X97835714Y-127614300D01*
X97835714Y-127614300D02*
X97883333Y-127709538D01*
X97883333Y-127709538D02*
X97883333Y-127852395D01*
X97883333Y-127852395D02*
X97835714Y-127947633D01*
X97835714Y-127947633D02*
X97788095Y-127995252D01*
X97788095Y-127995252D02*
X97692857Y-128042871D01*
X97692857Y-128042871D02*
X97311905Y-128042871D01*
X98216667Y-127519062D02*
X98835714Y-127519062D01*
X98835714Y-127519062D02*
X98502381Y-127900014D01*
X98502381Y-127900014D02*
X98645238Y-127900014D01*
X98645238Y-127900014D02*
X98740476Y-127947633D01*
X98740476Y-127947633D02*
X98788095Y-127995252D01*
X98788095Y-127995252D02*
X98835714Y-128090490D01*
X98835714Y-128090490D02*
X98835714Y-128328585D01*
X98835714Y-128328585D02*
X98788095Y-128423823D01*
X98788095Y-128423823D02*
X98740476Y-128471443D01*
X98740476Y-128471443D02*
X98645238Y-128519062D01*
X98645238Y-128519062D02*
X98359524Y-128519062D01*
X98359524Y-128519062D02*
X98264286Y-128471443D01*
X98264286Y-128471443D02*
X98216667Y-128423823D01*
D11*
X100174539Y-132140839D02*
X100174539Y-133047982D01*
X100174539Y-133047982D02*
X100114062Y-133229410D01*
X100114062Y-133229410D02*
X99993110Y-133350363D01*
X99993110Y-133350363D02*
X99811681Y-133410839D01*
X99811681Y-133410839D02*
X99690729Y-133410839D01*
X100718824Y-132261791D02*
X100779300Y-132201315D01*
X100779300Y-132201315D02*
X100900253Y-132140839D01*
X100900253Y-132140839D02*
X101202634Y-132140839D01*
X101202634Y-132140839D02*
X101323586Y-132201315D01*
X101323586Y-132201315D02*
X101384062Y-132261791D01*
X101384062Y-132261791D02*
X101444539Y-132382743D01*
X101444539Y-132382743D02*
X101444539Y-132503696D01*
X101444539Y-132503696D02*
X101384062Y-132685124D01*
X101384062Y-132685124D02*
X100658348Y-133410839D01*
X100658348Y-133410839D02*
X101444539Y-133410839D01*
D10*
X98383333Y-126923823D02*
X98335714Y-126971443D01*
X98335714Y-126971443D02*
X98192857Y-127019062D01*
X98192857Y-127019062D02*
X98097619Y-127019062D01*
X98097619Y-127019062D02*
X97954762Y-126971443D01*
X97954762Y-126971443D02*
X97859524Y-126876204D01*
X97859524Y-126876204D02*
X97811905Y-126780966D01*
X97811905Y-126780966D02*
X97764286Y-126590490D01*
X97764286Y-126590490D02*
X97764286Y-126447633D01*
X97764286Y-126447633D02*
X97811905Y-126257157D01*
X97811905Y-126257157D02*
X97859524Y-126161919D01*
X97859524Y-126161919D02*
X97954762Y-126066681D01*
X97954762Y-126066681D02*
X98097619Y-126019062D01*
X98097619Y-126019062D02*
X98192857Y-126019062D01*
X98192857Y-126019062D02*
X98335714Y-126066681D01*
X98335714Y-126066681D02*
X98383333Y-126114300D01*
X99240476Y-126352395D02*
X99240476Y-127019062D01*
X99002381Y-125971443D02*
X98764286Y-126685728D01*
X98764286Y-126685728D02*
X99383333Y-126685728D01*
X94383333Y-125923823D02*
X94335714Y-125971443D01*
X94335714Y-125971443D02*
X94192857Y-126019062D01*
X94192857Y-126019062D02*
X94097619Y-126019062D01*
X94097619Y-126019062D02*
X93954762Y-125971443D01*
X93954762Y-125971443D02*
X93859524Y-125876204D01*
X93859524Y-125876204D02*
X93811905Y-125780966D01*
X93811905Y-125780966D02*
X93764286Y-125590490D01*
X93764286Y-125590490D02*
X93764286Y-125447633D01*
X93764286Y-125447633D02*
X93811905Y-125257157D01*
X93811905Y-125257157D02*
X93859524Y-125161919D01*
X93859524Y-125161919D02*
X93954762Y-125066681D01*
X93954762Y-125066681D02*
X94097619Y-125019062D01*
X94097619Y-125019062D02*
X94192857Y-125019062D01*
X94192857Y-125019062D02*
X94335714Y-125066681D01*
X94335714Y-125066681D02*
X94383333Y-125114300D01*
X95288095Y-125019062D02*
X94811905Y-125019062D01*
X94811905Y-125019062D02*
X94764286Y-125495252D01*
X94764286Y-125495252D02*
X94811905Y-125447633D01*
X94811905Y-125447633D02*
X94907143Y-125400014D01*
X94907143Y-125400014D02*
X95145238Y-125400014D01*
X95145238Y-125400014D02*
X95240476Y-125447633D01*
X95240476Y-125447633D02*
X95288095Y-125495252D01*
X95288095Y-125495252D02*
X95335714Y-125590490D01*
X95335714Y-125590490D02*
X95335714Y-125828585D01*
X95335714Y-125828585D02*
X95288095Y-125923823D01*
X95288095Y-125923823D02*
X95240476Y-125971443D01*
X95240476Y-125971443D02*
X95145238Y-126019062D01*
X95145238Y-126019062D02*
X94907143Y-126019062D01*
X94907143Y-126019062D02*
X94811905Y-125971443D01*
X94811905Y-125971443D02*
X94764286Y-125923823D01*
X91383333Y-125923823D02*
X91335714Y-125971443D01*
X91335714Y-125971443D02*
X91192857Y-126019062D01*
X91192857Y-126019062D02*
X91097619Y-126019062D01*
X91097619Y-126019062D02*
X90954762Y-125971443D01*
X90954762Y-125971443D02*
X90859524Y-125876204D01*
X90859524Y-125876204D02*
X90811905Y-125780966D01*
X90811905Y-125780966D02*
X90764286Y-125590490D01*
X90764286Y-125590490D02*
X90764286Y-125447633D01*
X90764286Y-125447633D02*
X90811905Y-125257157D01*
X90811905Y-125257157D02*
X90859524Y-125161919D01*
X90859524Y-125161919D02*
X90954762Y-125066681D01*
X90954762Y-125066681D02*
X91097619Y-125019062D01*
X91097619Y-125019062D02*
X91192857Y-125019062D01*
X91192857Y-125019062D02*
X91335714Y-125066681D01*
X91335714Y-125066681D02*
X91383333Y-125114300D01*
X92240476Y-125019062D02*
X92050000Y-125019062D01*
X92050000Y-125019062D02*
X91954762Y-125066681D01*
X91954762Y-125066681D02*
X91907143Y-125114300D01*
X91907143Y-125114300D02*
X91811905Y-125257157D01*
X91811905Y-125257157D02*
X91764286Y-125447633D01*
X91764286Y-125447633D02*
X91764286Y-125828585D01*
X91764286Y-125828585D02*
X91811905Y-125923823D01*
X91811905Y-125923823D02*
X91859524Y-125971443D01*
X91859524Y-125971443D02*
X91954762Y-126019062D01*
X91954762Y-126019062D02*
X92145238Y-126019062D01*
X92145238Y-126019062D02*
X92240476Y-125971443D01*
X92240476Y-125971443D02*
X92288095Y-125923823D01*
X92288095Y-125923823D02*
X92335714Y-125828585D01*
X92335714Y-125828585D02*
X92335714Y-125590490D01*
X92335714Y-125590490D02*
X92288095Y-125495252D01*
X92288095Y-125495252D02*
X92240476Y-125447633D01*
X92240476Y-125447633D02*
X92145238Y-125400014D01*
X92145238Y-125400014D02*
X91954762Y-125400014D01*
X91954762Y-125400014D02*
X91859524Y-125447633D01*
X91859524Y-125447633D02*
X91811905Y-125495252D01*
X91811905Y-125495252D02*
X91764286Y-125590490D01*
D12*
X98840000Y-107380000D02*
X98840000Y-106570000D01*
X98905000Y-103690000D02*
X106745000Y-103690000D01*
X98905000Y-104982077D02*
X98905000Y-103690000D01*
X99650000Y-107380000D02*
X98840000Y-107380000D01*
X100285000Y-104797133D02*
X100285000Y-103690000D01*
X100610000Y-99690000D02*
X101230000Y-99690000D01*
X100610000Y-103690000D02*
X100610000Y-99690000D01*
X101230000Y-99690000D02*
X101230000Y-103690000D01*
X101555000Y-104797133D02*
X101555000Y-103690000D01*
X101880000Y-99690000D02*
X102500000Y-99690000D01*
X101880000Y-103690000D02*
X101880000Y-99690000D01*
X102500000Y-99690000D02*
X102500000Y-103690000D01*
X102825000Y-104797133D02*
X102825000Y-103690000D01*
X103150000Y-99690000D02*
X103770000Y-99690000D01*
X103150000Y-103690000D02*
X103150000Y-99690000D01*
X103770000Y-99690000D02*
X103770000Y-103690000D01*
X104095000Y-104797133D02*
X104095000Y-103690000D01*
X104420000Y-99690000D02*
X105040000Y-99690000D01*
X104420000Y-103690000D02*
X104420000Y-99690000D01*
X105040000Y-99690000D02*
X105040000Y-103690000D01*
X105365000Y-104797133D02*
X105365000Y-103690000D01*
X105690000Y-99690000D02*
X106310000Y-99690000D01*
X105690000Y-103690000D02*
X105690000Y-99690000D01*
X106310000Y-99690000D02*
X106310000Y-103690000D01*
X106745000Y-103690000D02*
X106745000Y-104910000D01*
X99340000Y-99690000D02*
X99960000Y-99690000D01*
X99960000Y-103690000D01*
X99340000Y-103690000D01*
X99340000Y-99690000D01*
G36*
X99340000Y-99690000D02*
G01*
X99960000Y-99690000D01*
X99960000Y-103690000D01*
X99340000Y-103690000D01*
X99340000Y-99690000D01*
G37*
X81588748Y-123140000D02*
X83011252Y-123140000D01*
X81588748Y-125860000D02*
X83011252Y-125860000D01*
X95650200Y-129204243D02*
X95449800Y-129204243D01*
X95650200Y-129924243D02*
X95449800Y-129924243D01*
X91940000Y-118754243D02*
X92140000Y-118754243D01*
X91940000Y-123374243D02*
X91940000Y-118754243D01*
X92140000Y-123374243D02*
X91940000Y-123374243D01*
X96960000Y-118754243D02*
X97160000Y-118754243D01*
X97160000Y-118754243D02*
X97160000Y-123374243D01*
X97160000Y-123374243D02*
X96960000Y-123374243D01*
X92140000Y-124014243D02*
X91670000Y-124354243D01*
X91670000Y-123674243D01*
X92140000Y-124014243D01*
G36*
X92140000Y-124014243D02*
G01*
X91670000Y-124354243D01*
X91670000Y-123674243D01*
X92140000Y-124014243D01*
G37*
X92449800Y-129204243D02*
X92650200Y-129204243D01*
X92449800Y-129924243D02*
X92650200Y-129924243D01*
X92396359Y-127684243D02*
X92703641Y-127684243D01*
X92396359Y-128444243D02*
X92703641Y-128444243D01*
X95703641Y-127684243D02*
X95396359Y-127684243D01*
X95703641Y-128444243D02*
X95396359Y-128444243D01*
D13*
X89184599Y-132388657D02*
X89184599Y-141388657D01*
X89184599Y-141388657D02*
X99184599Y-141388657D01*
X99184599Y-132388657D02*
X89184599Y-132388657D01*
X99184599Y-141388657D02*
X99184599Y-132388657D01*
D12*
X96157836Y-126204243D02*
X95942164Y-126204243D01*
X96157836Y-126924243D02*
X95942164Y-126924243D01*
X94177836Y-126204243D02*
X93962164Y-126204243D01*
X94177836Y-126924243D02*
X93962164Y-126924243D01*
X92157836Y-126204243D02*
X91942164Y-126204243D01*
X92157836Y-126924243D02*
X91942164Y-126924243D01*
%LPC*%
D14*
X99650000Y-106570000D03*
D15*
X99650000Y-105300000D03*
X100920000Y-106570000D03*
X100920000Y-105300000D03*
X102190000Y-106570000D03*
X102190000Y-105300000D03*
X103460000Y-106570000D03*
X103460000Y-105300000D03*
X104730000Y-106570000D03*
X104730000Y-105300000D03*
X106000000Y-106570000D03*
X106000000Y-105300000D03*
D16*
X80825000Y-124500000D03*
X83775000Y-124500000D03*
D17*
X96122500Y-129564243D03*
X94977500Y-129564243D03*
D18*
X92600000Y-123926743D03*
X93250000Y-123926743D03*
X93900000Y-123926743D03*
X94550000Y-123926743D03*
X95200000Y-123926743D03*
X95850000Y-123926743D03*
X96500000Y-123926743D03*
X96500000Y-118201743D03*
X95850000Y-118201743D03*
X95200000Y-118201743D03*
X94550000Y-118201743D03*
X93900000Y-118201743D03*
X93250000Y-118201743D03*
X92600000Y-118201743D03*
D19*
X91977500Y-129564243D03*
X93122500Y-129564243D03*
D20*
X92040000Y-128064243D03*
X93060000Y-128064243D03*
D21*
X96060000Y-128064243D03*
X95040000Y-128064243D03*
D22*
X91684599Y-136388657D03*
D23*
X96684599Y-136388657D03*
D24*
X96530000Y-126564243D03*
X95570000Y-126564243D03*
X94550000Y-126564243D03*
X93590000Y-126564243D03*
X92530000Y-126564243D03*
X91570000Y-126564243D03*
%LPD*%
M02*
