M48
; DRILL file KiCad 10.0.4 date 2026-08-07T21:49:41
; FORMAT={-:-/ absolute / metric / decimal}
; #@! TF.CreationDate,2026-08-07T21:49:41-07:00
; #@! TF.GenerationSoftware,Kicad,Pcbnew,10.0.4
; #@! TF.FileFunction,Plated,1,2,PTH
FMAT,2
METRIC
; #@! TA.AperFunction,Plated,PTH,ViaDrill
T1C0.300
; #@! TA.AperFunction,Plated,PTH,ComponentDrill
T2C0.650
; #@! TA.AperFunction,Plated,PTH,ComponentDrill
T3C1.300
; #@! TA.AperFunction,Plated,PTH,ViaDrill
T4C5.000
%
G90
G05
T1
X75.5Y-121.6
X75.7Y-120.3
X76.2Y-114.0
X76.6Y-124.5
X76.6Y-133.6
X79.6Y-124.3
X79.7Y-121.6
X79.8Y-116.6
X82.0Y-124.4
X82.2Y-127.0
X84.4Y-117.3
X85.5Y-129.8
X85.9Y-114.1
X86.1Y-123.0
X87.2Y-117.3
X87.4Y-115.3
X88.1Y-112.1
X89.2Y-121.8
X89.5Y-124.5
X89.9Y-133.3
X90.0Y-107.5
X90.4Y-112.4
X90.9Y-118.0
X91.1Y-120.1
X91.585Y-125.689
X92.185Y-116.489
X92.2Y-114.7
X92.685Y-122.689
X92.785Y-130.589
X92.9Y-125.6
X94.0Y-128.839
X94.1Y-113.1
X94.1Y-134.1
X94.5Y-110.1
X94.6Y-140.4
X95.085Y-130.489
X95.4Y-108.1
X95.4Y-119.5
X95.485Y-122.589
X96.016Y-105.057
X96.485Y-125.589
X96.8Y-111.6
X96.9Y-116.9
X97.8Y-116.6
X98.1Y-127.4
X98.5Y-109.9
X98.7Y-133.9
X99.6Y-119.6
X99.7Y-117.3
X100.4Y-112.1
X102.8Y-112.9
X103.1Y-110.6
X103.5Y-124.8
X104.9Y-114.2
X105.6Y-110.8
X106.6Y-116.8
X107.3Y-131.2
X107.5Y-108.5
T2
X99.65Y-105.3
X99.65Y-106.57
X100.92Y-105.3
X100.92Y-106.57
X102.19Y-105.3
X102.19Y-106.57
X103.46Y-105.3
X103.46Y-106.57
X104.73Y-105.3
X104.73Y-106.57
X106.0Y-105.3
X106.0Y-106.57
T3
X91.685Y-136.389
X96.685Y-136.389
T4
X82.5Y-109.0
X82.6Y-136.6
X105.5Y-137.1
M30
