G04 #@! TF.GenerationSoftware,KiCad,Pcbnew,10.0.4*
G04 #@! TF.CreationDate,2026-08-07T21:49:30-07:00*
G04 #@! TF.ProjectId,ThermocoupleBoard,54686572-6d6f-4636-9f75-706c65426f61,rev?*
G04 #@! TF.SameCoordinates,Original*
G04 #@! TF.FileFunction,Legend,Bot*
G04 #@! TF.FilePolarity,Positive*
%FSLAX46Y46*%
G04 Gerber Fmt 4.6, Leading zero omitted, Abs format (unit mm)*
G04 Created by KiCad (PCBNEW 10.0.4) date 2026-08-07 21:49:30*
%MOMM*%
%LPD*%
G01*
G04 APERTURE LIST*
G04 Aperture macros list*
%AMRoundRect*
0 Rectangle with rounded corners*
0 $1 Rounding radius*
0 $2 $3 $4 $5 $6 $7 $8 $9 X,Y pos of 4 corners*
0 Add a 4 corners polygon primitive as box body*
4,1,4,$2,$3,$4,$5,$6,$7,$8,$9,$2,$3,0*
0 Add four circle primitives for the rounded corners*
1,1,$1+$1,$2,$3*
1,1,$1+$1,$4,$5*
1,1,$1+$1,$6,$7*
1,1,$1+$1,$8,$9*
0 Add four rect primitives between the rounded corners*
20,1,$1+$1,$2,$3,$4,$5,0*
20,1,$1+$1,$4,$5,$6,$7,0*
20,1,$1+$1,$6,$7,$8,$9,0*
20,1,$1+$1,$8,$9,$2,$3,0*%
G04 Aperture macros list end*
%ADD10C,0.150000*%
%ADD11C,0.120000*%
%ADD12R,1.000000X1.000000*%
%ADD13C,1.000000*%
%ADD14R,1.950000X1.950000*%
%ADD15C,1.950000*%
%ADD16RoundRect,0.140000X0.140000X0.170000X-0.140000X0.170000X-0.140000X-0.170000X0.140000X-0.170000X0*%
%ADD17RoundRect,0.150000X0.150000X-0.587500X0.150000X0.587500X-0.150000X0.587500X-0.150000X-0.587500X0*%
%ADD18RoundRect,0.250000X0.650000X-0.325000X0.650000X0.325000X-0.650000X0.325000X-0.650000X-0.325000X0*%
%ADD19RoundRect,0.135000X-0.185000X0.135000X-0.185000X-0.135000X0.185000X-0.135000X0.185000X0.135000X0*%
%ADD20RoundRect,0.250000X0.325000X1.100000X-0.325000X1.100000X-0.325000X-1.100000X0.325000X-1.100000X0*%
%ADD21RoundRect,0.160000X0.160000X-0.222500X0.160000X0.222500X-0.160000X0.222500X-0.160000X-0.222500X0*%
%ADD22RoundRect,0.140000X-0.170000X0.140000X-0.170000X-0.140000X0.170000X-0.140000X0.170000X0.140000X0*%
%ADD23RoundRect,0.250000X1.100000X-0.325000X1.100000X0.325000X-1.100000X0.325000X-1.100000X-0.325000X0*%
%ADD24RoundRect,0.135000X0.185000X-0.135000X0.185000X0.135000X-0.185000X0.135000X-0.185000X-0.135000X0*%
%ADD25RoundRect,0.100000X0.712500X0.100000X-0.712500X0.100000X-0.712500X-0.100000X0.712500X-0.100000X0*%
%ADD26RoundRect,0.140000X-0.140000X-0.170000X0.140000X-0.170000X0.140000X0.170000X-0.140000X0.170000X0*%
G04 APERTURE END LIST*
D10*
X94216666Y-124648237D02*
X94264285Y-124695857D01*
X94264285Y-124695857D02*
X94407142Y-124743476D01*
X94407142Y-124743476D02*
X94502380Y-124743476D01*
X94502380Y-124743476D02*
X94645237Y-124695857D01*
X94645237Y-124695857D02*
X94740475Y-124600618D01*
X94740475Y-124600618D02*
X94788094Y-124505380D01*
X94788094Y-124505380D02*
X94835713Y-124314904D01*
X94835713Y-124314904D02*
X94835713Y-124172047D01*
X94835713Y-124172047D02*
X94788094Y-123981571D01*
X94788094Y-123981571D02*
X94740475Y-123886333D01*
X94740475Y-123886333D02*
X94645237Y-123791095D01*
X94645237Y-123791095D02*
X94502380Y-123743476D01*
X94502380Y-123743476D02*
X94407142Y-123743476D01*
X94407142Y-123743476D02*
X94264285Y-123791095D01*
X94264285Y-123791095D02*
X94216666Y-123838714D01*
X93740475Y-124743476D02*
X93549999Y-124743476D01*
X93549999Y-124743476D02*
X93454761Y-124695857D01*
X93454761Y-124695857D02*
X93407142Y-124648237D01*
X93407142Y-124648237D02*
X93311904Y-124505380D01*
X93311904Y-124505380D02*
X93264285Y-124314904D01*
X93264285Y-124314904D02*
X93264285Y-123933952D01*
X93264285Y-123933952D02*
X93311904Y-123838714D01*
X93311904Y-123838714D02*
X93359523Y-123791095D01*
X93359523Y-123791095D02*
X93454761Y-123743476D01*
X93454761Y-123743476D02*
X93645237Y-123743476D01*
X93645237Y-123743476D02*
X93740475Y-123791095D01*
X93740475Y-123791095D02*
X93788094Y-123838714D01*
X93788094Y-123838714D02*
X93835713Y-123933952D01*
X93835713Y-123933952D02*
X93835713Y-124172047D01*
X93835713Y-124172047D02*
X93788094Y-124267285D01*
X93788094Y-124267285D02*
X93740475Y-124314904D01*
X93740475Y-124314904D02*
X93645237Y-124362523D01*
X93645237Y-124362523D02*
X93454761Y-124362523D01*
X93454761Y-124362523D02*
X93359523Y-124314904D01*
X93359523Y-124314904D02*
X93311904Y-124267285D01*
X93311904Y-124267285D02*
X93264285Y-124172047D01*
X96939418Y-130850562D02*
X95939418Y-130850562D01*
X95939418Y-130850562D02*
X95939418Y-131088657D01*
X95939418Y-131088657D02*
X95987037Y-131231514D01*
X95987037Y-131231514D02*
X96082275Y-131326752D01*
X96082275Y-131326752D02*
X96177513Y-131374371D01*
X96177513Y-131374371D02*
X96367989Y-131421990D01*
X96367989Y-131421990D02*
X96510846Y-131421990D01*
X96510846Y-131421990D02*
X96701322Y-131374371D01*
X96701322Y-131374371D02*
X96796560Y-131326752D01*
X96796560Y-131326752D02*
X96891799Y-131231514D01*
X96891799Y-131231514D02*
X96939418Y-131088657D01*
X96939418Y-131088657D02*
X96939418Y-130850562D01*
X96939418Y-132374371D02*
X96939418Y-131802943D01*
X96939418Y-132088657D02*
X95939418Y-132088657D01*
X95939418Y-132088657D02*
X96082275Y-131993419D01*
X96082275Y-131993419D02*
X96177513Y-131898181D01*
X96177513Y-131898181D02*
X96225132Y-131802943D01*
X92127456Y-122448237D02*
X92175075Y-122495857D01*
X92175075Y-122495857D02*
X92317932Y-122543476D01*
X92317932Y-122543476D02*
X92413170Y-122543476D01*
X92413170Y-122543476D02*
X92556027Y-122495857D01*
X92556027Y-122495857D02*
X92651265Y-122400618D01*
X92651265Y-122400618D02*
X92698884Y-122305380D01*
X92698884Y-122305380D02*
X92746503Y-122114904D01*
X92746503Y-122114904D02*
X92746503Y-121972047D01*
X92746503Y-121972047D02*
X92698884Y-121781571D01*
X92698884Y-121781571D02*
X92651265Y-121686333D01*
X92651265Y-121686333D02*
X92556027Y-121591095D01*
X92556027Y-121591095D02*
X92413170Y-121543476D01*
X92413170Y-121543476D02*
X92317932Y-121543476D01*
X92317932Y-121543476D02*
X92175075Y-121591095D01*
X92175075Y-121591095D02*
X92127456Y-121638714D01*
X91175075Y-122543476D02*
X91746503Y-122543476D01*
X91460789Y-122543476D02*
X91460789Y-121543476D01*
X91460789Y-121543476D02*
X91556027Y-121686333D01*
X91556027Y-121686333D02*
X91651265Y-121781571D01*
X91651265Y-121781571D02*
X91746503Y-121829190D01*
X90222694Y-122543476D02*
X90794122Y-122543476D01*
X90508408Y-122543476D02*
X90508408Y-121543476D01*
X90508408Y-121543476D02*
X90603646Y-121686333D01*
X90603646Y-121686333D02*
X90698884Y-121781571D01*
X90698884Y-121781571D02*
X90794122Y-121829190D01*
X91244179Y-118245799D02*
X91291799Y-118198180D01*
X91291799Y-118198180D02*
X91339418Y-118055323D01*
X91339418Y-118055323D02*
X91339418Y-117960085D01*
X91339418Y-117960085D02*
X91291799Y-117817228D01*
X91291799Y-117817228D02*
X91196560Y-117721990D01*
X91196560Y-117721990D02*
X91101322Y-117674371D01*
X91101322Y-117674371D02*
X90910846Y-117626752D01*
X90910846Y-117626752D02*
X90767989Y-117626752D01*
X90767989Y-117626752D02*
X90577513Y-117674371D01*
X90577513Y-117674371D02*
X90482275Y-117721990D01*
X90482275Y-117721990D02*
X90387037Y-117817228D01*
X90387037Y-117817228D02*
X90339418Y-117960085D01*
X90339418Y-117960085D02*
X90339418Y-118055323D01*
X90339418Y-118055323D02*
X90387037Y-118198180D01*
X90387037Y-118198180D02*
X90434656Y-118245799D01*
X91339418Y-119198180D02*
X91339418Y-118626752D01*
X91339418Y-118912466D02*
X90339418Y-118912466D01*
X90339418Y-118912466D02*
X90482275Y-118817228D01*
X90482275Y-118817228D02*
X90577513Y-118721990D01*
X90577513Y-118721990D02*
X90625132Y-118626752D01*
X90339418Y-119817228D02*
X90339418Y-119912466D01*
X90339418Y-119912466D02*
X90387037Y-120007704D01*
X90387037Y-120007704D02*
X90434656Y-120055323D01*
X90434656Y-120055323D02*
X90529894Y-120102942D01*
X90529894Y-120102942D02*
X90720370Y-120150561D01*
X90720370Y-120150561D02*
X90958465Y-120150561D01*
X90958465Y-120150561D02*
X91148941Y-120102942D01*
X91148941Y-120102942D02*
X91244179Y-120055323D01*
X91244179Y-120055323D02*
X91291799Y-120007704D01*
X91291799Y-120007704D02*
X91339418Y-119912466D01*
X91339418Y-119912466D02*
X91339418Y-119817228D01*
X91339418Y-119817228D02*
X91291799Y-119721990D01*
X91291799Y-119721990D02*
X91244179Y-119674371D01*
X91244179Y-119674371D02*
X91148941Y-119626752D01*
X91148941Y-119626752D02*
X90958465Y-119579133D01*
X90958465Y-119579133D02*
X90720370Y-119579133D01*
X90720370Y-119579133D02*
X90529894Y-119626752D01*
X90529894Y-119626752D02*
X90434656Y-119674371D01*
X90434656Y-119674371D02*
X90387037Y-119721990D01*
X90387037Y-119721990D02*
X90339418Y-119817228D01*
X83854819Y-115933333D02*
X83378628Y-115600000D01*
X83854819Y-115361905D02*
X82854819Y-115361905D01*
X82854819Y-115361905D02*
X82854819Y-115742857D01*
X82854819Y-115742857D02*
X82902438Y-115838095D01*
X82902438Y-115838095D02*
X82950057Y-115885714D01*
X82950057Y-115885714D02*
X83045295Y-115933333D01*
X83045295Y-115933333D02*
X83188152Y-115933333D01*
X83188152Y-115933333D02*
X83283390Y-115885714D01*
X83283390Y-115885714D02*
X83331009Y-115838095D01*
X83331009Y-115838095D02*
X83378628Y-115742857D01*
X83378628Y-115742857D02*
X83378628Y-115361905D01*
X83854819Y-116885714D02*
X83854819Y-116314286D01*
X83854819Y-116600000D02*
X82854819Y-116600000D01*
X82854819Y-116600000D02*
X82997676Y-116504762D01*
X82997676Y-116504762D02*
X83092914Y-116409524D01*
X83092914Y-116409524D02*
X83140533Y-116314286D01*
X79566666Y-127459580D02*
X79614285Y-127507200D01*
X79614285Y-127507200D02*
X79757142Y-127554819D01*
X79757142Y-127554819D02*
X79852380Y-127554819D01*
X79852380Y-127554819D02*
X79995237Y-127507200D01*
X79995237Y-127507200D02*
X80090475Y-127411961D01*
X80090475Y-127411961D02*
X80138094Y-127316723D01*
X80138094Y-127316723D02*
X80185713Y-127126247D01*
X80185713Y-127126247D02*
X80185713Y-126983390D01*
X80185713Y-126983390D02*
X80138094Y-126792914D01*
X80138094Y-126792914D02*
X80090475Y-126697676D01*
X80090475Y-126697676D02*
X79995237Y-126602438D01*
X79995237Y-126602438D02*
X79852380Y-126554819D01*
X79852380Y-126554819D02*
X79757142Y-126554819D01*
X79757142Y-126554819D02*
X79614285Y-126602438D01*
X79614285Y-126602438D02*
X79566666Y-126650057D01*
X78614285Y-127554819D02*
X79185713Y-127554819D01*
X78899999Y-127554819D02*
X78899999Y-126554819D01*
X78899999Y-126554819D02*
X78995237Y-126697676D01*
X78995237Y-126697676D02*
X79090475Y-126792914D01*
X79090475Y-126792914D02*
X79185713Y-126840533D01*
X93334819Y-127397576D02*
X92858628Y-127064243D01*
X93334819Y-126826148D02*
X92334819Y-126826148D01*
X92334819Y-126826148D02*
X92334819Y-127207100D01*
X92334819Y-127207100D02*
X92382438Y-127302338D01*
X92382438Y-127302338D02*
X92430057Y-127349957D01*
X92430057Y-127349957D02*
X92525295Y-127397576D01*
X92525295Y-127397576D02*
X92668152Y-127397576D01*
X92668152Y-127397576D02*
X92763390Y-127349957D01*
X92763390Y-127349957D02*
X92811009Y-127302338D01*
X92811009Y-127302338D02*
X92858628Y-127207100D01*
X92858628Y-127207100D02*
X92858628Y-126826148D01*
X92334819Y-128302338D02*
X92334819Y-127826148D01*
X92334819Y-127826148D02*
X92811009Y-127778529D01*
X92811009Y-127778529D02*
X92763390Y-127826148D01*
X92763390Y-127826148D02*
X92715771Y-127921386D01*
X92715771Y-127921386D02*
X92715771Y-128159481D01*
X92715771Y-128159481D02*
X92763390Y-128254719D01*
X92763390Y-128254719D02*
X92811009Y-128302338D01*
X92811009Y-128302338D02*
X92906247Y-128349957D01*
X92906247Y-128349957D02*
X93144342Y-128349957D01*
X93144342Y-128349957D02*
X93239580Y-128302338D01*
X93239580Y-128302338D02*
X93287200Y-128254719D01*
X93287200Y-128254719D02*
X93334819Y-128159481D01*
X93334819Y-128159481D02*
X93334819Y-127921386D01*
X93334819Y-127921386D02*
X93287200Y-127826148D01*
X93287200Y-127826148D02*
X93239580Y-127778529D01*
X83859580Y-122433333D02*
X83907200Y-122385714D01*
X83907200Y-122385714D02*
X83954819Y-122242857D01*
X83954819Y-122242857D02*
X83954819Y-122147619D01*
X83954819Y-122147619D02*
X83907200Y-122004762D01*
X83907200Y-122004762D02*
X83811961Y-121909524D01*
X83811961Y-121909524D02*
X83716723Y-121861905D01*
X83716723Y-121861905D02*
X83526247Y-121814286D01*
X83526247Y-121814286D02*
X83383390Y-121814286D01*
X83383390Y-121814286D02*
X83192914Y-121861905D01*
X83192914Y-121861905D02*
X83097676Y-121909524D01*
X83097676Y-121909524D02*
X83002438Y-122004762D01*
X83002438Y-122004762D02*
X82954819Y-122147619D01*
X82954819Y-122147619D02*
X82954819Y-122242857D01*
X82954819Y-122242857D02*
X83002438Y-122385714D01*
X83002438Y-122385714D02*
X83050057Y-122433333D01*
X83050057Y-122814286D02*
X83002438Y-122861905D01*
X83002438Y-122861905D02*
X82954819Y-122957143D01*
X82954819Y-122957143D02*
X82954819Y-123195238D01*
X82954819Y-123195238D02*
X83002438Y-123290476D01*
X83002438Y-123290476D02*
X83050057Y-123338095D01*
X83050057Y-123338095D02*
X83145295Y-123385714D01*
X83145295Y-123385714D02*
X83240533Y-123385714D01*
X83240533Y-123385714D02*
X83383390Y-123338095D01*
X83383390Y-123338095D02*
X83954819Y-122766667D01*
X83954819Y-122766667D02*
X83954819Y-123385714D01*
X88759580Y-120233333D02*
X88807200Y-120185714D01*
X88807200Y-120185714D02*
X88854819Y-120042857D01*
X88854819Y-120042857D02*
X88854819Y-119947619D01*
X88854819Y-119947619D02*
X88807200Y-119804762D01*
X88807200Y-119804762D02*
X88711961Y-119709524D01*
X88711961Y-119709524D02*
X88616723Y-119661905D01*
X88616723Y-119661905D02*
X88426247Y-119614286D01*
X88426247Y-119614286D02*
X88283390Y-119614286D01*
X88283390Y-119614286D02*
X88092914Y-119661905D01*
X88092914Y-119661905D02*
X87997676Y-119709524D01*
X87997676Y-119709524D02*
X87902438Y-119804762D01*
X87902438Y-119804762D02*
X87854819Y-119947619D01*
X87854819Y-119947619D02*
X87854819Y-120042857D01*
X87854819Y-120042857D02*
X87902438Y-120185714D01*
X87902438Y-120185714D02*
X87950057Y-120233333D01*
X87854819Y-120566667D02*
X87854819Y-121185714D01*
X87854819Y-121185714D02*
X88235771Y-120852381D01*
X88235771Y-120852381D02*
X88235771Y-120995238D01*
X88235771Y-120995238D02*
X88283390Y-121090476D01*
X88283390Y-121090476D02*
X88331009Y-121138095D01*
X88331009Y-121138095D02*
X88426247Y-121185714D01*
X88426247Y-121185714D02*
X88664342Y-121185714D01*
X88664342Y-121185714D02*
X88759580Y-121138095D01*
X88759580Y-121138095D02*
X88807200Y-121090476D01*
X88807200Y-121090476D02*
X88854819Y-120995238D01*
X88854819Y-120995238D02*
X88854819Y-120709524D01*
X88854819Y-120709524D02*
X88807200Y-120614286D01*
X88807200Y-120614286D02*
X88759580Y-120566667D01*
X81109819Y-117583333D02*
X80633628Y-117250000D01*
X81109819Y-117011905D02*
X80109819Y-117011905D01*
X80109819Y-117011905D02*
X80109819Y-117392857D01*
X80109819Y-117392857D02*
X80157438Y-117488095D01*
X80157438Y-117488095D02*
X80205057Y-117535714D01*
X80205057Y-117535714D02*
X80300295Y-117583333D01*
X80300295Y-117583333D02*
X80443152Y-117583333D01*
X80443152Y-117583333D02*
X80538390Y-117535714D01*
X80538390Y-117535714D02*
X80586009Y-117488095D01*
X80586009Y-117488095D02*
X80633628Y-117392857D01*
X80633628Y-117392857D02*
X80633628Y-117011905D01*
X80205057Y-117964286D02*
X80157438Y-118011905D01*
X80157438Y-118011905D02*
X80109819Y-118107143D01*
X80109819Y-118107143D02*
X80109819Y-118345238D01*
X80109819Y-118345238D02*
X80157438Y-118440476D01*
X80157438Y-118440476D02*
X80205057Y-118488095D01*
X80205057Y-118488095D02*
X80300295Y-118535714D01*
X80300295Y-118535714D02*
X80395533Y-118535714D01*
X80395533Y-118535714D02*
X80538390Y-118488095D01*
X80538390Y-118488095D02*
X81109819Y-117916667D01*
X81109819Y-117916667D02*
X81109819Y-118535714D01*
X79561904Y-117554819D02*
X79561904Y-118364342D01*
X79561904Y-118364342D02*
X79514285Y-118459580D01*
X79514285Y-118459580D02*
X79466666Y-118507200D01*
X79466666Y-118507200D02*
X79371428Y-118554819D01*
X79371428Y-118554819D02*
X79180952Y-118554819D01*
X79180952Y-118554819D02*
X79085714Y-118507200D01*
X79085714Y-118507200D02*
X79038095Y-118459580D01*
X79038095Y-118459580D02*
X78990476Y-118364342D01*
X78990476Y-118364342D02*
X78990476Y-117554819D01*
X77990476Y-118554819D02*
X78561904Y-118554819D01*
X78276190Y-118554819D02*
X78276190Y-117554819D01*
X78276190Y-117554819D02*
X78371428Y-117697676D01*
X78371428Y-117697676D02*
X78466666Y-117792914D01*
X78466666Y-117792914D02*
X78561904Y-117840533D01*
X100194179Y-120921990D02*
X100241799Y-120874371D01*
X100241799Y-120874371D02*
X100289418Y-120731514D01*
X100289418Y-120731514D02*
X100289418Y-120636276D01*
X100289418Y-120636276D02*
X100241799Y-120493419D01*
X100241799Y-120493419D02*
X100146560Y-120398181D01*
X100146560Y-120398181D02*
X100051322Y-120350562D01*
X100051322Y-120350562D02*
X99860846Y-120302943D01*
X99860846Y-120302943D02*
X99717989Y-120302943D01*
X99717989Y-120302943D02*
X99527513Y-120350562D01*
X99527513Y-120350562D02*
X99432275Y-120398181D01*
X99432275Y-120398181D02*
X99337037Y-120493419D01*
X99337037Y-120493419D02*
X99289418Y-120636276D01*
X99289418Y-120636276D02*
X99289418Y-120731514D01*
X99289418Y-120731514D02*
X99337037Y-120874371D01*
X99337037Y-120874371D02*
X99384656Y-120921990D01*
X99717989Y-121493419D02*
X99670370Y-121398181D01*
X99670370Y-121398181D02*
X99622751Y-121350562D01*
X99622751Y-121350562D02*
X99527513Y-121302943D01*
X99527513Y-121302943D02*
X99479894Y-121302943D01*
X99479894Y-121302943D02*
X99384656Y-121350562D01*
X99384656Y-121350562D02*
X99337037Y-121398181D01*
X99337037Y-121398181D02*
X99289418Y-121493419D01*
X99289418Y-121493419D02*
X99289418Y-121683895D01*
X99289418Y-121683895D02*
X99337037Y-121779133D01*
X99337037Y-121779133D02*
X99384656Y-121826752D01*
X99384656Y-121826752D02*
X99479894Y-121874371D01*
X99479894Y-121874371D02*
X99527513Y-121874371D01*
X99527513Y-121874371D02*
X99622751Y-121826752D01*
X99622751Y-121826752D02*
X99670370Y-121779133D01*
X99670370Y-121779133D02*
X99717989Y-121683895D01*
X99717989Y-121683895D02*
X99717989Y-121493419D01*
X99717989Y-121493419D02*
X99765608Y-121398181D01*
X99765608Y-121398181D02*
X99813227Y-121350562D01*
X99813227Y-121350562D02*
X99908465Y-121302943D01*
X99908465Y-121302943D02*
X100098941Y-121302943D01*
X100098941Y-121302943D02*
X100194179Y-121350562D01*
X100194179Y-121350562D02*
X100241799Y-121398181D01*
X100241799Y-121398181D02*
X100289418Y-121493419D01*
X100289418Y-121493419D02*
X100289418Y-121683895D01*
X100289418Y-121683895D02*
X100241799Y-121779133D01*
X100241799Y-121779133D02*
X100194179Y-121826752D01*
X100194179Y-121826752D02*
X100098941Y-121874371D01*
X100098941Y-121874371D02*
X99908465Y-121874371D01*
X99908465Y-121874371D02*
X99813227Y-121826752D01*
X99813227Y-121826752D02*
X99765608Y-121779133D01*
X99765608Y-121779133D02*
X99717989Y-121683895D01*
X97216666Y-125923823D02*
X97264285Y-125971443D01*
X97264285Y-125971443D02*
X97407142Y-126019062D01*
X97407142Y-126019062D02*
X97502380Y-126019062D01*
X97502380Y-126019062D02*
X97645237Y-125971443D01*
X97645237Y-125971443D02*
X97740475Y-125876204D01*
X97740475Y-125876204D02*
X97788094Y-125780966D01*
X97788094Y-125780966D02*
X97835713Y-125590490D01*
X97835713Y-125590490D02*
X97835713Y-125447633D01*
X97835713Y-125447633D02*
X97788094Y-125257157D01*
X97788094Y-125257157D02*
X97740475Y-125161919D01*
X97740475Y-125161919D02*
X97645237Y-125066681D01*
X97645237Y-125066681D02*
X97502380Y-125019062D01*
X97502380Y-125019062D02*
X97407142Y-125019062D01*
X97407142Y-125019062D02*
X97264285Y-125066681D01*
X97264285Y-125066681D02*
X97216666Y-125114300D01*
X96883332Y-125019062D02*
X96216666Y-125019062D01*
X96216666Y-125019062D02*
X96645237Y-126019062D01*
X95915608Y-117555323D02*
X95915608Y-117221990D01*
X96439418Y-117221990D02*
X95439418Y-117221990D01*
X95439418Y-117221990D02*
X95439418Y-117698180D01*
X95915608Y-118412466D02*
X95963227Y-118555323D01*
X95963227Y-118555323D02*
X96010846Y-118602942D01*
X96010846Y-118602942D02*
X96106084Y-118650561D01*
X96106084Y-118650561D02*
X96248941Y-118650561D01*
X96248941Y-118650561D02*
X96344179Y-118602942D01*
X96344179Y-118602942D02*
X96391799Y-118555323D01*
X96391799Y-118555323D02*
X96439418Y-118460085D01*
X96439418Y-118460085D02*
X96439418Y-118079133D01*
X96439418Y-118079133D02*
X95439418Y-118079133D01*
X95439418Y-118079133D02*
X95439418Y-118412466D01*
X95439418Y-118412466D02*
X95487037Y-118507704D01*
X95487037Y-118507704D02*
X95534656Y-118555323D01*
X95534656Y-118555323D02*
X95629894Y-118602942D01*
X95629894Y-118602942D02*
X95725132Y-118602942D01*
X95725132Y-118602942D02*
X95820370Y-118555323D01*
X95820370Y-118555323D02*
X95867989Y-118507704D01*
X95867989Y-118507704D02*
X95915608Y-118412466D01*
X95915608Y-118412466D02*
X95915608Y-118079133D01*
X95439418Y-118983895D02*
X95439418Y-119602942D01*
X95439418Y-119602942D02*
X95820370Y-119269609D01*
X95820370Y-119269609D02*
X95820370Y-119412466D01*
X95820370Y-119412466D02*
X95867989Y-119507704D01*
X95867989Y-119507704D02*
X95915608Y-119555323D01*
X95915608Y-119555323D02*
X96010846Y-119602942D01*
X96010846Y-119602942D02*
X96248941Y-119602942D01*
X96248941Y-119602942D02*
X96344179Y-119555323D01*
X96344179Y-119555323D02*
X96391799Y-119507704D01*
X96391799Y-119507704D02*
X96439418Y-119412466D01*
X96439418Y-119412466D02*
X96439418Y-119126752D01*
X96439418Y-119126752D02*
X96391799Y-119031514D01*
X96391799Y-119031514D02*
X96344179Y-118983895D01*
D11*
X94157836Y-122694243D02*
X93942164Y-122694243D01*
X94157836Y-123414243D02*
X93942164Y-123414243D01*
X92524599Y-130828657D02*
X92524599Y-132348657D01*
X92524599Y-132348657D02*
X92574599Y-132348657D01*
X93524599Y-130828657D02*
X92524599Y-130828657D01*
X93694599Y-132348657D02*
X94474599Y-132348657D01*
X95594599Y-132348657D02*
X95644599Y-132348657D01*
X95644599Y-130828657D02*
X94644599Y-130828657D01*
X95644599Y-132348657D02*
X95644599Y-130828657D01*
X94464599Y-132888657D02*
X94134599Y-132648657D01*
X94134599Y-133128657D01*
X94464599Y-132888657D01*
G36*
X94464599Y-132888657D02*
G01*
X94134599Y-133128657D01*
X94134599Y-132648657D01*
X94464599Y-132888657D01*
G37*
X94157836Y-121694243D02*
X93942164Y-121694243D01*
X94157836Y-122414243D02*
X93942164Y-122414243D01*
X91774599Y-119699909D02*
X91774599Y-118277405D01*
X93594599Y-119699909D02*
X93594599Y-118277405D01*
X83120000Y-118146359D02*
X83120000Y-118453641D01*
X83880000Y-118146359D02*
X83880000Y-118453641D01*
X80011252Y-123140000D02*
X78588748Y-123140000D01*
X80011252Y-125860000D02*
X78588748Y-125860000D01*
X93670000Y-127410602D02*
X93670000Y-127717884D01*
X94430000Y-127410602D02*
X94430000Y-127717884D01*
X94124599Y-120488857D02*
X94124599Y-120288457D01*
X94844599Y-120488857D02*
X94844599Y-120288457D01*
X83140000Y-120492164D02*
X83140000Y-120707836D01*
X83860000Y-120492164D02*
X83860000Y-120707836D01*
X84740000Y-121111252D02*
X84740000Y-119688748D01*
X87460000Y-121111252D02*
X87460000Y-119688748D01*
X81720000Y-117853641D02*
X81720000Y-117546359D01*
X82480000Y-117853641D02*
X82480000Y-117546359D01*
X77690000Y-118990000D02*
X77690000Y-119165000D01*
X77690000Y-122035000D02*
X77690000Y-122210000D01*
X77690000Y-122210000D02*
X80910000Y-122210000D01*
X80910000Y-118990000D02*
X77690000Y-118990000D01*
X80910000Y-119165000D02*
X80910000Y-118990000D01*
X80910000Y-122210000D02*
X80910000Y-122035000D01*
X81460000Y-119160000D02*
X81700000Y-118830000D01*
X81220000Y-118830000D01*
X81460000Y-119160000D01*
G36*
X81460000Y-119160000D02*
G01*
X81220000Y-118830000D01*
X81700000Y-118830000D01*
X81460000Y-119160000D01*
G37*
X97074599Y-121799909D02*
X97074599Y-120377405D01*
X98894599Y-121799909D02*
X98894599Y-120377405D01*
X94442164Y-125204243D02*
X94657836Y-125204243D01*
X94442164Y-125924243D02*
X94657836Y-125924243D01*
X95124599Y-121388857D02*
X95124599Y-121188457D01*
X95844599Y-121388857D02*
X95844599Y-121188457D01*
%LPC*%
D12*
X99650000Y-106570000D03*
D13*
X99650000Y-105300000D03*
X100920000Y-106570000D03*
X100920000Y-105300000D03*
X102190000Y-106570000D03*
X102190000Y-105300000D03*
X103460000Y-106570000D03*
X103460000Y-105300000D03*
X104730000Y-106570000D03*
X104730000Y-105300000D03*
X106000000Y-106570000D03*
X106000000Y-105300000D03*
D14*
X91684599Y-136388657D03*
D15*
X96684599Y-136388657D03*
D16*
X94530000Y-123054243D03*
X93570000Y-123054243D03*
D17*
X95034599Y-132526157D03*
X93134599Y-132526157D03*
X94084599Y-130651157D03*
D16*
X94530000Y-122054243D03*
X93570000Y-122054243D03*
D18*
X92684599Y-120463657D03*
X92684599Y-117513657D03*
D19*
X83500000Y-117790000D03*
X83500000Y-118810000D03*
D20*
X80775000Y-124500000D03*
X77825000Y-124500000D03*
D19*
X94050000Y-127054243D03*
X94050000Y-128074243D03*
D21*
X94484599Y-120961157D03*
X94484599Y-119816157D03*
D22*
X83500000Y-120120000D03*
X83500000Y-121080000D03*
D23*
X86100000Y-121875000D03*
X86100000Y-118925000D03*
D24*
X82100000Y-118210000D03*
X82100000Y-117190000D03*
D25*
X81412500Y-119625000D03*
X81412500Y-120275000D03*
X81412500Y-120925000D03*
X81412500Y-121575000D03*
X77187500Y-121575000D03*
X77187500Y-120925000D03*
X77187500Y-120275000D03*
X77187500Y-119625000D03*
D18*
X97984599Y-122563657D03*
X97984599Y-119613657D03*
D26*
X94070000Y-125564243D03*
X95030000Y-125564243D03*
D21*
X95484599Y-121861157D03*
X95484599Y-120716157D03*
%LPD*%
M02*
