G04 #@! TF.GenerationSoftware,KiCad,Pcbnew,10.0.4*
G04 #@! TF.CreationDate,2026-08-07T20:41:28-07:00*
G04 #@! TF.ProjectId,kiln,6b696c6e-2e6b-4696-9361-645f70636258,rev?*
G04 #@! TF.SameCoordinates,Original*
G04 #@! TF.FileFunction,Profile,NP*
%FSLAX46Y46*%
G04 Gerber Fmt 4.6, Leading zero omitted, Abs format (unit mm)*
G04 Created by KiCad (PCBNEW 10.0.4) date 2026-08-07 20:41:28*
%MOMM*%
%LPD*%
G01*
G04 APERTURE LIST*
G04 #@! TA.AperFunction,Profile*
%ADD10C,0.050000*%
G04 #@! TD*
G04 APERTURE END LIST*
D10*
X49700000Y-35400000D02*
X252800000Y-34800000D01*
X49700000Y-95100000D02*
X49700000Y-35400000D01*
X49800000Y-118300000D02*
X61300000Y-118300000D01*
X49900000Y-142400000D02*
X49800000Y-118300000D01*
X61300000Y-95100000D02*
X49700000Y-95100000D01*
X61300000Y-118300000D02*
X61300000Y-95100000D01*
X74000000Y-142400000D02*
X49900000Y-142400000D01*
X74000000Y-149200000D02*
X74000000Y-142400000D01*
X75000000Y-75000000D02*
X76000000Y-75000000D01*
X76000000Y-88500000D01*
X75000000Y-88500000D01*
X75000000Y-75000000D01*
X121600000Y-141100000D02*
X121600000Y-149200000D01*
X121600000Y-149200000D02*
X74000000Y-149200000D01*
X170000000Y-57500000D02*
X183500000Y-57500000D01*
X183500000Y-59000000D01*
X170000000Y-59000000D01*
X170000000Y-57500000D01*
X178700000Y-141100000D02*
X121600000Y-141100000D01*
X178700000Y-149300000D02*
X178700000Y-141100000D01*
X189000000Y-57500000D02*
X201500000Y-57500000D01*
X201500000Y-59000000D01*
X189000000Y-59000000D01*
X189000000Y-57500000D01*
X207000000Y-57500000D02*
X220000000Y-57500000D01*
X220000000Y-59000000D01*
X207000000Y-59000000D01*
X207000000Y-57500000D01*
X226000000Y-57500000D02*
X238500000Y-57500000D01*
X238500000Y-59000000D01*
X226000000Y-59000000D01*
X226000000Y-57500000D01*
X252800000Y-149200000D02*
X178700000Y-149300000D01*
X252800000Y-149200000D02*
X252800000Y-34800000D01*
M02*
