M48
; DRILL file KiCad 10.0.4 date 2026-08-07T20:42:37
; FORMAT={-:-/ absolute / metric / decimal}
; #@! TF.CreationDate,2026-08-07T20:42:37-07:00
; #@! TF.GenerationSoftware,Kicad,Pcbnew,10.0.4
; #@! TF.FileFunction,Plated,1,4,PTH
FMAT,2
METRIC
; #@! TA.AperFunction,Plated,PTH,ViaDrill
T1C0.300
; #@! TA.AperFunction,Plated,PTH,ComponentDrill
T2C0.650
; #@! TA.AperFunction,Plated,PTH,ComponentDrill
T3C0.800
; #@! TA.AperFunction,Plated,PTH,ComponentDrill
T4C0.950
; #@! TA.AperFunction,Plated,PTH,ComponentDrill
T5C1.000
; #@! TA.AperFunction,Plated,PTH,ComponentDrill
T6C1.300
; #@! TA.AperFunction,Plated,PTH,ViaDrill
T7C5.000
; #@! TA.AperFunction,Plated,PTH,ViaDrill
T8C6.300
%
G90
G05
T1
X50.7Y-58.8
X51.9Y-49.4
X52.1Y-68.2
X59.2Y-134.3
X61.7Y-121.2
X62.6Y-82.8
X63.2Y-132.4
X63.8Y-140.8
X64.2Y-112.1
X64.5Y-119.2
X64.8Y-130.4
X65.3Y-49.4
X65.61Y-64.75
X66.1Y-59.5
X66.3Y-100.8
X66.3Y-133.2
X66.5Y-112.2
X66.5Y-128.9
X67.1Y-131.4
X68.1Y-68.1
X68.2Y-128.0
X68.3Y-54.7
X68.4Y-139.0
X68.6Y-64.7
X69.0Y-133.6
X69.5Y-68.1
X69.6Y-136.6
X69.7Y-121.1
X70.6Y-128.2
X70.8Y-131.0
X71.2Y-53.3
X71.4Y-112.2
X71.7Y-140.4
X71.8Y-56.2
X72.3Y-70.6
X72.4Y-81.09
X73.0Y-120.7
X73.1Y-67.8
X73.1Y-69.2
X73.1Y-101.8
X74.1Y-112.2
X74.1Y-124.8
X74.6Y-60.7
X75.266Y-141.871
X75.3Y-70.0
X75.345Y-120.345
X75.6Y-131.3
X75.9Y-122.5
X76.7Y-49.4
X76.7Y-72.8
X77.0Y-47.2
X77.1Y-44.8
X77.1Y-111.3
X77.2Y-121.1
X77.4Y-63.6
X77.6Y-56.4
X77.7Y-130.6
X77.8Y-57.6
X77.9Y-60.7
X77.9Y-111.7
X78.1Y-73.8
X78.3Y-85.8
X78.3Y-121.6
X78.5Y-79.6
X78.5Y-124.7
X78.5Y-128.2
X79.2Y-72.1
X79.6Y-73.9
X79.6Y-93.0
X80.5Y-57.6
X80.5Y-72.05
X80.6Y-64.2
X80.7Y-60.7
X80.7Y-121.7
X80.7Y-134.9
X81.2Y-63.0
X81.4Y-74.6
X81.7Y-101.7
X81.9Y-103.7
X82.0Y-123.0
X82.3Y-76.4
X82.3Y-85.8
X82.3Y-102.0
X82.5Y-61.4
X83.2Y-65.9
X83.2Y-69.4
X83.4Y-129.1
X83.8Y-92.7
X84.0Y-69.4
X84.2Y-75.39
X84.3Y-65.8
X84.7Y-69.3
X84.7Y-134.3
X84.8Y-101.2
X84.9Y-65.3
X84.9Y-72.0
X85.2Y-85.5
X85.5Y-90.5
X85.8Y-118.4
X85.9Y-56.2
X86.0Y-125.2
X86.6Y-111.5
X86.85Y-108.45
X87.0Y-76.89
X87.0Y-100.2
X87.0Y-101.4
X87.0Y-105.6
X87.1Y-62.6
X87.1Y-79.09
X87.1Y-125.9
X87.266Y-144.271
X87.4Y-129.4
X87.5Y-80.39
X88.0Y-101.9
X88.0Y-105.6
X88.1Y-108.2
X88.1Y-132.2
X88.2Y-63.6
X88.2Y-71.1
X88.3Y-111.4
X88.3Y-118.5
X88.6Y-90.4
X88.7Y-91.3
X89.0Y-46.9
X89.0Y-49.85
X89.7Y-120.0
X89.9Y-67.1
X89.966Y-132.971
X90.266Y-147.371
X90.5Y-50.8
X91.1Y-90.4
X91.2Y-67.6
X91.3Y-70.7
X91.6Y-83.6
X91.8Y-105.6
X91.8Y-108.5
X91.9Y-86.2
X92.1Y-123.1
X92.8Y-72.7
X93.1Y-77.7
X93.1Y-108.5
X93.1Y-129.2
X93.2Y-51.6
X93.4Y-89.9
X93.4Y-105.3
X93.4Y-128.2
X93.5Y-86.5
X93.708Y-46.592
X93.8Y-83.7
X93.8Y-123.7
X94.1Y-78.0
X94.2Y-89.8
X94.3Y-68.3
X94.4Y-72.5
X94.4Y-86.5
X94.6Y-75.9
X94.9Y-91.0
X95.0Y-89.9
X95.1Y-86.1
X95.5Y-134.9
X95.6Y-109.7
X95.7Y-102.9
X96.8Y-123.0
X97.0Y-85.2
X97.024Y-87.724
X97.15Y-42.55
X97.2Y-81.2
X97.3Y-92.8
X97.408Y-50.292
X97.5Y-121.7
X97.61Y-112.44
X97.7Y-85.3
X98.0Y-79.4
X98.2Y-129.1
X98.6Y-59.0
X98.7Y-64.2
X98.9Y-67.2
X99.1Y-61.7
X99.258Y-52.142
X99.4Y-118.5
X99.5Y-134.3
X99.6Y-85.1
X99.8Y-87.9
X99.8Y-89.2
X99.958Y-52.842
X100.3Y-87.1
X100.8Y-125.2
X100.9Y-58.9
X100.9Y-91.2
X101.01Y-111.94
X101.2Y-119.7
X101.3Y-84.9
X101.9Y-89.9
X102.2Y-129.4
X102.5Y-126.5
X103.5Y-58.9
X103.7Y-47.7
X103.9Y-131.4
X104.4Y-64.6
X104.5Y-67.3
X105.3Y-86.7
X105.566Y-132.871
X105.7Y-84.7
X105.8Y-59.0
X105.866Y-147.471
X105.9Y-52.9
X106.0Y-93.9
X106.3Y-103.8
X107.5Y-131.9
X107.9Y-129.3
X108.2Y-128.1
X110.0Y-122.6
X111.9Y-123.0
X112.3Y-66.8
X112.4Y-78.1
X112.8Y-89.1
X113.3Y-129.1
X114.6Y-134.3
X115.9Y-125.2
X116.2Y-97.2
X117.3Y-105.9
X117.3Y-111.2
X117.3Y-129.4
X117.5Y-126.5
X117.8Y-100.5
X117.8Y-114.1
X117.9Y-108.7
X118.0Y-119.9
X119.0Y-131.7
X119.1Y-115.2
X119.2Y-109.6
X119.3Y-99.6
X120.666Y-147.471
X120.866Y-132.971
X124.9Y-69.2
X125.0Y-89.9
X125.5Y-109.6
X125.7Y-115.1
X125.8Y-99.3
X127.0Y-114.2
X127.1Y-108.6
X127.2Y-100.5
X127.4Y-102.0
X127.8Y-105.6
X127.879Y-111.121
X128.0Y-95.3
X128.7Y-87.5
X132.5Y-87.7
X133.1Y-110.0
X133.3Y-116.5
X133.5Y-106.1
X133.7Y-81.1
X135.9Y-102.8
X136.2Y-115.0
X137.2Y-66.7
X138.1Y-84.2
X138.2Y-78.3
X141.9Y-117.5
X142.6Y-115.6
X142.9Y-95.6
X143.3Y-113.6
X143.7Y-111.2
X143.8Y-128.4
X145.0Y-127.2
X146.6Y-98.0
X147.2Y-78.6
X147.4Y-84.3
X147.4Y-129.6
X147.7Y-66.9
X148.155Y-125.735
X150.0Y-97.1
X150.219Y-93.362
X150.5Y-130.0
X150.619Y-102.462
X150.9Y-124.4
X151.4Y-126.1
X152.2Y-86.5
X152.5Y-115.7
X152.6Y-120.8
X152.8Y-110.9
X152.9Y-113.5
X152.9Y-129.2
X152.919Y-89.162
X152.919Y-97.262
X152.919Y-106.662
X153.8Y-127.2
X154.1Y-125.9
X154.2Y-123.5
X154.2Y-128.3
X154.6Y-108.5
X155.019Y-93.362
X155.119Y-102.162
X155.2Y-107.0
X155.2Y-122.0
X157.2Y-109.4
X157.624Y-106.858
X158.1Y-111.0
X158.1Y-128.5
X158.2Y-99.4
X158.2Y-125.5
X158.4Y-102.2
X158.7Y-91.3
X158.9Y-66.8
X159.0Y-117.5
X159.2Y-104.2
X160.5Y-98.1
X160.619Y-100.962
X161.0Y-129.1
X161.1Y-88.8
X161.3Y-96.6
X161.619Y-106.762
X161.7Y-104.7
X161.8Y-122.2
X162.0Y-119.0
X162.0Y-120.5
X162.1Y-111.2
X162.5Y-70.9
X162.6Y-90.3
X162.7Y-95.9
X162.9Y-115.6
X163.1Y-88.4
X163.2Y-102.0
X163.219Y-109.962
X163.3Y-113.5
X163.5Y-118.8
X163.7Y-90.3
X164.1Y-127.4
X164.3Y-95.9
X164.4Y-122.9
X164.8Y-97.3
X164.9Y-124.3
X165.4Y-106.7
X165.4Y-129.6
X165.5Y-111.1
X165.6Y-102.0
X165.8Y-117.8
X166.0Y-125.75
X166.1Y-91.9
X166.4Y-88.6
X167.9Y-119.2
X168.2Y-103.7
X168.5Y-94.9
X168.5Y-102.3
X168.7Y-76.3
X168.8Y-88.1
X168.8Y-128.4
X168.9Y-101.4
X169.1Y-87.4
X170.2Y-93.7
X170.3Y-96.6
X170.4Y-80.1
X170.4Y-82.8
X170.4Y-129.6
X170.5Y-128.4
X170.8Y-115.6
X171.0Y-98.0
X171.1Y-84.4
X171.1Y-101.3
X171.2Y-87.6
X171.3Y-73.1
X171.3Y-119.6
X171.5Y-60.5
X171.5Y-113.0
X171.5Y-121.4
X171.7Y-98.0
X171.8Y-101.6
X171.9Y-66.9
X171.9Y-84.4
X172.0Y-87.6
X172.0Y-95.1
X172.25Y-49.5
X172.3Y-102.5
X172.4Y-98.1
X172.4Y-117.7
X172.4Y-122.8
X172.5Y-101.6
X172.6Y-84.4
X172.7Y-87.7
X172.8Y-88.7
X173.2Y-130.0
X173.3Y-124.2
X174.0Y-125.6
X174.1Y-94.7
X174.2Y-110.9
X174.6Y-104.2
X174.7Y-85.2
X174.7Y-120.9
X174.9Y-98.6
X175.2Y-81.6
X175.2Y-94.7
X175.8Y-82.2
X175.9Y-129.7
X176.0Y-89.6
X176.1Y-109.5
X176.8Y-117.2
X177.0Y-54.0
X177.1Y-127.7
X177.2Y-70.0
X177.2Y-114.1
X177.3Y-97.6
X177.7Y-98.8
X177.8Y-85.6
X178.4Y-70.0
X178.6Y-121.5
X178.6Y-124.1
X178.8Y-84.3
X178.8Y-99.4
X178.8Y-102.2
X179.2Y-86.3
X179.2Y-89.1
X179.4Y-118.7
X179.8Y-112.0
X179.9Y-114.1
X180.3Y-69.7
X180.5Y-130.1
X180.6Y-110.6
X180.7Y-63.1
X180.9Y-80.7
X181.3Y-124.5
X181.5Y-75.6
X181.7Y-67.4
X181.8Y-60.6
X181.9Y-92.7
X181.9Y-114.1
X182.0Y-127.7
X182.3Y-122.5
X183.6Y-99.8
X184.0Y-114.1
X184.2Y-77.4
X184.3Y-107.5
X184.5Y-134.3
X185.2Y-114.9
X185.3Y-84.2
X186.4Y-81.6
X186.7Y-91.6
X186.9Y-87.8
X187.1Y-66.8
X187.2Y-108.8
X187.2Y-130.0
X187.4Y-106.2
X187.8Y-110.2
X187.9Y-114.3
X188.0Y-104.4
X188.3Y-100.3
X188.4Y-119.5
X188.4Y-124.0
X188.7Y-83.8
X188.8Y-88.1
X189.2Y-103.6
X189.7Y-102.6
X189.7Y-115.2
X189.8Y-60.8
X189.8Y-132.3
X190.2Y-139.9
X190.25Y-49.5
X190.4Y-109.0
X190.5Y-137.4
X190.9Y-147.9
X192.4Y-136.7
X192.8Y-130.2
X193.106Y-104.072
X193.7Y-108.2
X193.8Y-82.8
X193.8Y-128.4
X193.8Y-132.0
X194.3Y-138.0
X194.3Y-139.4
X194.6Y-107.2
X194.7Y-129.4
X194.75Y-53.75
X195.0Y-85.0
X195.1Y-130.5
X195.2Y-127.5
X195.7Y-70.2
X196.0Y-132.1
X196.1Y-109.5
X196.5Y-96.4
X196.7Y-131.2
X197.4Y-69.8
X197.74Y-130.74
X197.75Y-136.5
X197.75Y-139.1
X198.2Y-119.3
X198.5Y-129.9
X198.6Y-132.0
X198.7Y-69.9
X198.7Y-95.1
X199.0Y-114.1
X199.0Y-123.8
X199.1Y-128.0
X199.364Y-132.636
X199.4Y-63.7
X199.4Y-126.6
X199.5Y-76.6
X199.7Y-129.8
X200.3Y-69.3
X200.4Y-109.8
X200.7Y-60.7
X200.7Y-124.9
X200.8Y-134.3
X201.0Y-129.3
X201.0Y-130.25
X201.5Y-109.0
X201.7Y-85.4
X201.7Y-92.6
X201.8Y-95.7
X201.8Y-119.3
X201.9Y-94.1
X202.0Y-128.9
X202.0Y-134.3
X202.1Y-135.5
X202.2Y-136.9
X202.4Y-106.3
X202.4Y-107.2
X202.5Y-76.3
X202.5Y-105.2
X202.7Y-117.2
X202.7Y-148.3
X203.057Y-128.684
X203.6Y-92.6
X203.8Y-140.4
X204.0Y-128.1
X204.1Y-124.9
X204.1Y-136.1
X204.2Y-107.2
X204.4Y-105.2
X204.4Y-106.3
X204.7Y-119.2
X204.7Y-137.5
X204.8Y-101.9
X204.9Y-66.7
X205.3Y-114.9
X205.3Y-117.2
X205.5Y-128.5
X205.6Y-104.4
X205.8Y-85.2
X205.9Y-125.0
X206.0Y-138.2
X206.2Y-134.7
X206.3Y-94.9
X206.3Y-109.7
X206.3Y-133.8
X206.5Y-136.65
X206.7Y-93.3
X206.9Y-114.3
X207.2Y-107.2
X207.2Y-124.8
X207.4Y-95.9
X207.6Y-134.9
X207.8Y-134.0
X207.9Y-117.3
X207.9Y-132.9
X208.0Y-60.9
X208.0Y-110.4
X208.0Y-132.0
X208.1Y-102.2
X208.1Y-107.2
X208.318Y-124.354
X208.4Y-49.1
X208.7Y-116.1
X209.0Y-108.5
X209.8Y-104.3
X209.8Y-107.2
X209.9Y-93.9
X210.124Y-132.724
X210.2Y-73.4
X210.7Y-119.3
X210.8Y-102.5
X210.8Y-107.2
X210.8Y-134.1
X211.2Y-124.6
X211.8Y-130.9
X211.9Y-95.0
X211.9Y-127.9
X211.9Y-129.8
X212.3Y-93.6
X212.949Y-132.351
X213.0Y-135.8
X213.1Y-52.7
X213.1Y-85.3
X213.5Y-133.7
X213.7Y-108.6
X213.9Y-70.4
X214.7Y-148.2
X214.8Y-96.8
X214.9Y-124.1
X215.4Y-134.4
X215.5Y-69.9
X215.9Y-127.9
X216.0Y-124.9
X216.8Y-69.8
X217.2Y-102.0
X217.5Y-63.8
X218.2Y-84.3
X218.4Y-67.4
X218.5Y-69.2
X218.5Y-75.8
X218.5Y-94.9
X218.5Y-107.1
X218.6Y-103.6
X218.6Y-109.1
X218.9Y-60.8
X219.3Y-135.3
X219.5Y-129.2
X220.7Y-91.0
X221.1Y-94.9
X221.2Y-75.2
X221.4Y-83.2
X223.1Y-117.0
X223.4Y-66.9
X223.5Y-94.9
X225.5Y-124.4
X226.7Y-60.6
X226.8Y-148.1
X227.2Y-109.5
X227.5Y-49.25
X227.7Y-102.3
X228.9Y-74.1
X230.2Y-95.6
X230.9Y-131.7
X231.1Y-54.2
X231.5Y-133.5
X232.4Y-70.4
X232.6Y-106.9
X232.8Y-131.4
X234.1Y-69.7
X234.2Y-125.1
X235.3Y-118.3
X235.4Y-69.8
X235.4Y-101.9
X235.5Y-95.5
X235.8Y-64.2
X236.5Y-91.0
X236.6Y-111.9
X236.7Y-82.1
X236.8Y-75.4
X236.9Y-67.3
X237.0Y-69.2
X237.475Y-60.925
X238.8Y-102.5
X239.1Y-82.8
X239.1Y-90.9
X239.2Y-76.1
X239.6Y-126.3
X239.8Y-147.7
X240.7Y-134.4
X241.5Y-110.0
X243.4Y-67.2
X244.0Y-94.7
X246.8Y-85.5
X246.8Y-126.1
X246.8Y-132.9
X246.9Y-105.1
X246.9Y-113.4
X247.0Y-91.9
X250.9Y-147.2
X251.3Y-67.2
X251.3Y-75.9
X251.5Y-84.6
T2
X61.25Y-136.33
X61.25Y-137.6
X62.52Y-136.33
X62.52Y-137.6
X63.79Y-136.33
X63.79Y-137.6
X65.06Y-136.33
X65.06Y-137.6
X66.33Y-136.33
X66.33Y-137.6
X67.6Y-136.33
X67.6Y-137.6
T3
X193.247Y-121.614
X193.25Y-98.75
X195.787Y-121.614
X195.79Y-98.75
X198.327Y-121.614
X198.33Y-98.75
X200.867Y-98.754
X200.867Y-121.614
X203.407Y-98.754
X203.407Y-121.614
X205.947Y-98.754
X205.947Y-121.614
X208.487Y-98.754
X208.487Y-121.614
X211.027Y-98.754
X211.027Y-121.614
X213.567Y-98.754
X213.567Y-121.614
X216.107Y-98.754
X216.107Y-121.614
X218.647Y-98.754
X218.647Y-121.614
X221.187Y-98.754
X221.187Y-121.614
X223.727Y-98.754
X223.727Y-121.614
X226.267Y-98.754
X226.267Y-121.614
X228.807Y-98.754
X228.807Y-121.614
X231.347Y-98.754
X231.347Y-121.614
X233.887Y-98.754
X233.887Y-121.614
X236.427Y-98.754
X236.427Y-121.614
X238.967Y-98.754
X238.967Y-121.614
X241.507Y-98.754
X241.507Y-121.614
X244.047Y-98.754
X244.047Y-121.614
X246.587Y-98.754
X246.587Y-121.614
T4
X192.75Y-90.025
X195.25Y-90.025
X197.75Y-90.025
X200.25Y-90.025
X202.75Y-90.025
X205.25Y-90.025
X207.75Y-90.025
X210.25Y-90.025
X212.75Y-90.025
X215.25Y-90.025
T5
X62.98Y-97.72
X62.98Y-115.5
X65.52Y-97.72
X65.52Y-115.5
X68.06Y-97.72
X68.06Y-115.5
X70.6Y-97.72
X70.6Y-115.5
X73.14Y-97.72
X73.14Y-115.5
X75.68Y-97.72
X75.68Y-115.5
X78.22Y-97.72
X78.22Y-115.5
X80.76Y-97.72
X80.76Y-115.5
X83.3Y-97.72
X83.3Y-115.5
X85.84Y-97.72
X85.84Y-115.5
X88.38Y-97.72
X88.38Y-115.5
X90.92Y-97.72
X90.92Y-115.5
X93.46Y-97.72
X93.46Y-115.5
X96.0Y-97.72
X96.0Y-115.5
X98.54Y-97.72
X98.54Y-115.5
X101.08Y-97.72
X101.08Y-115.5
X103.62Y-97.72
X103.62Y-115.5
X106.16Y-97.72
X106.16Y-115.5
X108.7Y-97.72
X108.7Y-115.5
X111.24Y-97.72
X111.24Y-115.5
X126.35Y-131.9
X128.89Y-131.9
X131.43Y-131.9
X133.97Y-131.9
X136.51Y-131.9
X139.05Y-131.9
X141.59Y-131.9
X144.13Y-131.9
X146.67Y-131.9
X149.21Y-131.9
X151.75Y-131.9
X154.29Y-131.9
X156.83Y-131.9
X159.37Y-131.9
X161.91Y-131.9
X164.45Y-131.9
X166.99Y-131.9
X169.53Y-131.9
X172.07Y-131.9
X174.61Y-131.9
T6
X56.0Y-76.6
X56.0Y-81.6
X56.0Y-86.6
X59.5Y-59.8
X59.5Y-64.8
X80.85Y-140.85
X85.85Y-140.85
X86.999Y-41.882
X91.999Y-41.882
X95.65Y-140.85
X100.65Y-140.85
X110.75Y-140.85
X114.75Y-41.75
X115.75Y-140.85
X119.75Y-41.75
X168.192Y-41.575
X173.192Y-41.575
X178.192Y-41.575
X182.311Y-141.938
X186.692Y-41.575
X187.311Y-141.938
X191.692Y-41.575
X194.311Y-141.938
X196.692Y-41.575
X199.311Y-141.938
X204.942Y-41.575
X206.311Y-141.938
X209.942Y-41.575
X211.311Y-141.938
X214.942Y-41.575
X218.311Y-141.938
X223.311Y-141.938
X223.442Y-41.575
X228.442Y-41.575
X230.311Y-141.938
X233.442Y-41.575
X235.311Y-141.938
T7
X131.3Y-123.0
T8
X56.75Y-127.75
X59.5Y-43.0
X145.8Y-43.2
X158.7Y-77.1
X244.75Y-41.5
X245.25Y-141.25
M30
