G04 #@! TF.GenerationSoftware,KiCad,Pcbnew,10.0.4*
G04 #@! TF.CreationDate,2026-08-07T20:41:28-07:00*
G04 #@! TF.ProjectId,kiln,6b696c6e-2e6b-4696-9361-645f70636258,rev?*
G04 #@! TF.SameCoordinates,Original*
G04 #@! TF.FileFunction,Legend,Bot*
G04 #@! TF.FilePolarity,Positive*
%FSLAX46Y46*%
G04 Gerber Fmt 4.6, Leading zero omitted, Abs format (unit mm)*
G04 Created by KiCad (PCBNEW 10.0.4) date 2026-08-07 20:41:28*
%MOMM*%
%LPD*%
G01*
G04 APERTURE LIST*
G04 Aperture macros list*
%AMRoundRect*
0 Rectangle with rounded corners*
0 $1 Rounding radius*
0 $2 $3 $4 $5 $6 $7 $8 $9 X,Y pos of 4 corners*
0 Add a 4 corners polygon primitive as box body*
4,1,4,$2,$3,$4,$5,$6,$7,$8,$9,$2,$3,0*
0 Add four circle primitives for the rounded corners*
1,1,$1+$1,$2,$3*
1,1,$1+$1,$4,$5*
1,1,$1+$1,$6,$7*
1,1,$1+$1,$8,$9*
0 Add four rect primitives between the rounded corners*
20,1,$1+$1,$2,$3,$4,$5,0*
20,1,$1+$1,$4,$5,$6,$7,0*
20,1,$1+$1,$6,$7,$8,$9,0*
20,1,$1+$1,$8,$9,$2,$3,0*%
%AMFreePoly0*
4,1,37,0.603843,0.796157,0.639018,0.796157,0.711114,0.766294,0.766294,0.711114,0.796157,0.639018,0.796157,0.603843,0.800000,0.600000,0.800000,-0.600000,0.796157,-0.603843,0.796157,-0.639018,0.766294,-0.711114,0.711114,-0.766294,0.639018,-0.796157,0.603843,-0.796157,0.600000,-0.800000,0.000000,-0.800000,0.000000,-0.796148,-0.078414,-0.796148,-0.232228,-0.765552,-0.377117,-0.705537,
-0.507515,-0.618408,-0.618408,-0.507515,-0.705537,-0.377117,-0.765552,-0.232228,-0.796148,-0.078414,-0.796148,0.078414,-0.765552,0.232228,-0.705537,0.377117,-0.618408,0.507515,-0.507515,0.618408,-0.377117,0.705537,-0.232228,0.765552,-0.078414,0.796148,0.000000,0.796148,0.000000,0.800000,0.600000,0.800000,0.603843,0.796157,0.603843,0.796157,$1*%
%AMFreePoly1*
4,1,37,0.000000,0.796148,0.078414,0.796148,0.232228,0.765552,0.377117,0.705537,0.507515,0.618408,0.618408,0.507515,0.705537,0.377117,0.765552,0.232228,0.796148,0.078414,0.796148,-0.078414,0.765552,-0.232228,0.705537,-0.377117,0.618408,-0.507515,0.507515,-0.618408,0.377117,-0.705537,0.232228,-0.765552,0.078414,-0.796148,0.000000,-0.796148,0.000000,-0.800000,-0.600000,-0.800000,
-0.603843,-0.796157,-0.639018,-0.796157,-0.711114,-0.766294,-0.766294,-0.711114,-0.796157,-0.639018,-0.796157,-0.603843,-0.800000,-0.600000,-0.800000,0.600000,-0.796157,0.603843,-0.796157,0.639018,-0.766294,0.711114,-0.711114,0.766294,-0.639018,0.796157,-0.603843,0.796157,-0.600000,0.800000,0.000000,0.800000,0.000000,0.796148,0.000000,0.796148,$1*%
G04 Aperture macros list end*
%ADD10C,0.150000*%
%ADD11C,0.254000*%
%ADD12C,0.120000*%
%ADD13C,0.100000*%
%ADD14C,0.200000*%
%ADD15R,1.950000X1.950000*%
%ADD16C,1.950000*%
%ADD17C,2.200000*%
%ADD18C,1.850000*%
%ADD19RoundRect,0.200000X0.600000X-0.600000X0.600000X0.600000X-0.600000X0.600000X-0.600000X-0.600000X0*%
%ADD20C,1.600000*%
%ADD21FreePoly0,90.000000*%
%ADD22FreePoly1,90.000000*%
%ADD23R,1.200000X2.000000*%
%ADD24O,1.200000X2.000000*%
%ADD25C,1.200000*%
%ADD26RoundRect,0.250000X0.600000X0.725000X-0.600000X0.725000X-0.600000X-0.725000X0.600000X-0.725000X0*%
%ADD27O,1.700000X1.950000*%
%ADD28C,1.500000*%
%ADD29R,1.700000X1.700000*%
%ADD30C,1.700000*%
%ADD31R,1.000000X1.000000*%
%ADD32C,1.000000*%
%ADD33RoundRect,0.250000X1.075000X-0.362500X1.075000X0.362500X-1.075000X0.362500X-1.075000X-0.362500X0*%
%ADD34RoundRect,0.135000X0.185000X-0.135000X0.185000X0.135000X-0.185000X0.135000X-0.185000X-0.135000X0*%
%ADD35R,1.400000X2.300000*%
%ADD36R,1.400000X1.250000*%
%ADD37RoundRect,0.250000X-0.325000X-0.650000X0.325000X-0.650000X0.325000X0.650000X-0.325000X0.650000X0*%
%ADD38RoundRect,0.150000X0.150000X-0.587500X0.150000X0.587500X-0.150000X0.587500X-0.150000X-0.587500X0*%
%ADD39RoundRect,0.135000X0.135000X0.185000X-0.135000X0.185000X-0.135000X-0.185000X0.135000X-0.185000X0*%
%ADD40RoundRect,0.250000X0.362500X1.075000X-0.362500X1.075000X-0.362500X-1.075000X0.362500X-1.075000X0*%
%ADD41RoundRect,0.135000X-0.185000X0.135000X-0.185000X-0.135000X0.185000X-0.135000X0.185000X0.135000X0*%
%ADD42RoundRect,0.150000X0.662500X0.150000X-0.662500X0.150000X-0.662500X-0.150000X0.662500X-0.150000X0*%
%ADD43RoundRect,0.150000X-0.587500X-0.150000X0.587500X-0.150000X0.587500X0.150000X-0.587500X0.150000X0*%
%ADD44RoundRect,0.140000X-0.170000X0.140000X-0.170000X-0.140000X0.170000X-0.140000X0.170000X0.140000X0*%
%ADD45RoundRect,0.140000X0.140000X0.170000X-0.140000X0.170000X-0.140000X-0.170000X0.140000X-0.170000X0*%
%ADD46RoundRect,0.150000X-0.662500X-0.150000X0.662500X-0.150000X0.662500X0.150000X-0.662500X0.150000X0*%
%ADD47RoundRect,0.135000X-0.135000X-0.185000X0.135000X-0.185000X0.135000X0.185000X-0.135000X0.185000X0*%
%ADD48RoundRect,0.140000X0.170000X-0.140000X0.170000X0.140000X-0.170000X0.140000X-0.170000X-0.140000X0*%
G04 APERTURE END LIST*
D10*
X198954819Y-52457142D02*
X198478628Y-52123809D01*
X198954819Y-51885714D02*
X197954819Y-51885714D01*
X197954819Y-51885714D02*
X197954819Y-52266666D01*
X197954819Y-52266666D02*
X198002438Y-52361904D01*
X198002438Y-52361904D02*
X198050057Y-52409523D01*
X198050057Y-52409523D02*
X198145295Y-52457142D01*
X198145295Y-52457142D02*
X198288152Y-52457142D01*
X198288152Y-52457142D02*
X198383390Y-52409523D01*
X198383390Y-52409523D02*
X198431009Y-52361904D01*
X198431009Y-52361904D02*
X198478628Y-52266666D01*
X198478628Y-52266666D02*
X198478628Y-51885714D01*
X197954819Y-52790476D02*
X197954819Y-53409523D01*
X197954819Y-53409523D02*
X198335771Y-53076190D01*
X198335771Y-53076190D02*
X198335771Y-53219047D01*
X198335771Y-53219047D02*
X198383390Y-53314285D01*
X198383390Y-53314285D02*
X198431009Y-53361904D01*
X198431009Y-53361904D02*
X198526247Y-53409523D01*
X198526247Y-53409523D02*
X198764342Y-53409523D01*
X198764342Y-53409523D02*
X198859580Y-53361904D01*
X198859580Y-53361904D02*
X198907200Y-53314285D01*
X198907200Y-53314285D02*
X198954819Y-53219047D01*
X198954819Y-53219047D02*
X198954819Y-52933333D01*
X198954819Y-52933333D02*
X198907200Y-52838095D01*
X198907200Y-52838095D02*
X198859580Y-52790476D01*
X198954819Y-53885714D02*
X198954819Y-54076190D01*
X198954819Y-54076190D02*
X198907200Y-54171428D01*
X198907200Y-54171428D02*
X198859580Y-54219047D01*
X198859580Y-54219047D02*
X198716723Y-54314285D01*
X198716723Y-54314285D02*
X198526247Y-54361904D01*
X198526247Y-54361904D02*
X198145295Y-54361904D01*
X198145295Y-54361904D02*
X198050057Y-54314285D01*
X198050057Y-54314285D02*
X198002438Y-54266666D01*
X198002438Y-54266666D02*
X197954819Y-54171428D01*
X197954819Y-54171428D02*
X197954819Y-53980952D01*
X197954819Y-53980952D02*
X198002438Y-53885714D01*
X198002438Y-53885714D02*
X198050057Y-53838095D01*
X198050057Y-53838095D02*
X198145295Y-53790476D01*
X198145295Y-53790476D02*
X198383390Y-53790476D01*
X198383390Y-53790476D02*
X198478628Y-53838095D01*
X198478628Y-53838095D02*
X198526247Y-53885714D01*
X198526247Y-53885714D02*
X198573866Y-53980952D01*
X198573866Y-53980952D02*
X198573866Y-54171428D01*
X198573866Y-54171428D02*
X198526247Y-54266666D01*
X198526247Y-54266666D02*
X198478628Y-54314285D01*
X198478628Y-54314285D02*
X198383390Y-54361904D01*
X204854819Y-95357142D02*
X204378628Y-95023809D01*
X204854819Y-94785714D02*
X203854819Y-94785714D01*
X203854819Y-94785714D02*
X203854819Y-95166666D01*
X203854819Y-95166666D02*
X203902438Y-95261904D01*
X203902438Y-95261904D02*
X203950057Y-95309523D01*
X203950057Y-95309523D02*
X204045295Y-95357142D01*
X204045295Y-95357142D02*
X204188152Y-95357142D01*
X204188152Y-95357142D02*
X204283390Y-95309523D01*
X204283390Y-95309523D02*
X204331009Y-95261904D01*
X204331009Y-95261904D02*
X204378628Y-95166666D01*
X204378628Y-95166666D02*
X204378628Y-94785714D01*
X203854819Y-95690476D02*
X203854819Y-96309523D01*
X203854819Y-96309523D02*
X204235771Y-95976190D01*
X204235771Y-95976190D02*
X204235771Y-96119047D01*
X204235771Y-96119047D02*
X204283390Y-96214285D01*
X204283390Y-96214285D02*
X204331009Y-96261904D01*
X204331009Y-96261904D02*
X204426247Y-96309523D01*
X204426247Y-96309523D02*
X204664342Y-96309523D01*
X204664342Y-96309523D02*
X204759580Y-96261904D01*
X204759580Y-96261904D02*
X204807200Y-96214285D01*
X204807200Y-96214285D02*
X204854819Y-96119047D01*
X204854819Y-96119047D02*
X204854819Y-95833333D01*
X204854819Y-95833333D02*
X204807200Y-95738095D01*
X204807200Y-95738095D02*
X204759580Y-95690476D01*
X204854819Y-97261904D02*
X204854819Y-96690476D01*
X204854819Y-96976190D02*
X203854819Y-96976190D01*
X203854819Y-96976190D02*
X203997676Y-96880952D01*
X203997676Y-96880952D02*
X204092914Y-96785714D01*
X204092914Y-96785714D02*
X204140533Y-96690476D01*
D11*
X81524318Y-129882856D02*
X80254318Y-129882856D01*
X80254318Y-129882856D02*
X80254318Y-130185237D01*
X80254318Y-130185237D02*
X80314794Y-130366666D01*
X80314794Y-130366666D02*
X80435746Y-130487618D01*
X80435746Y-130487618D02*
X80556699Y-130548095D01*
X80556699Y-130548095D02*
X80798603Y-130608571D01*
X80798603Y-130608571D02*
X80980032Y-130608571D01*
X80980032Y-130608571D02*
X81221937Y-130548095D01*
X81221937Y-130548095D02*
X81342889Y-130487618D01*
X81342889Y-130487618D02*
X81463842Y-130366666D01*
X81463842Y-130366666D02*
X81524318Y-130185237D01*
X81524318Y-130185237D02*
X81524318Y-129882856D01*
X81524318Y-131818095D02*
X81524318Y-131092380D01*
X81524318Y-131455237D02*
X80254318Y-131455237D01*
X80254318Y-131455237D02*
X80435746Y-131334285D01*
X80435746Y-131334285D02*
X80556699Y-131213333D01*
X80556699Y-131213333D02*
X80617175Y-131092380D01*
X80677651Y-132906666D02*
X81524318Y-132906666D01*
X80193842Y-132604285D02*
X81100984Y-132301904D01*
X81100984Y-132301904D02*
X81100984Y-133088095D01*
D10*
X219354819Y-92557142D02*
X218878628Y-92223809D01*
X219354819Y-91985714D02*
X218354819Y-91985714D01*
X218354819Y-91985714D02*
X218354819Y-92366666D01*
X218354819Y-92366666D02*
X218402438Y-92461904D01*
X218402438Y-92461904D02*
X218450057Y-92509523D01*
X218450057Y-92509523D02*
X218545295Y-92557142D01*
X218545295Y-92557142D02*
X218688152Y-92557142D01*
X218688152Y-92557142D02*
X218783390Y-92509523D01*
X218783390Y-92509523D02*
X218831009Y-92461904D01*
X218831009Y-92461904D02*
X218878628Y-92366666D01*
X218878628Y-92366666D02*
X218878628Y-91985714D01*
X219354819Y-93509523D02*
X219354819Y-92938095D01*
X219354819Y-93223809D02*
X218354819Y-93223809D01*
X218354819Y-93223809D02*
X218497676Y-93128571D01*
X218497676Y-93128571D02*
X218592914Y-93033333D01*
X218592914Y-93033333D02*
X218640533Y-92938095D01*
X218354819Y-94366666D02*
X218354819Y-94176190D01*
X218354819Y-94176190D02*
X218402438Y-94080952D01*
X218402438Y-94080952D02*
X218450057Y-94033333D01*
X218450057Y-94033333D02*
X218592914Y-93938095D01*
X218592914Y-93938095D02*
X218783390Y-93890476D01*
X218783390Y-93890476D02*
X219164342Y-93890476D01*
X219164342Y-93890476D02*
X219259580Y-93938095D01*
X219259580Y-93938095D02*
X219307200Y-93985714D01*
X219307200Y-93985714D02*
X219354819Y-94080952D01*
X219354819Y-94080952D02*
X219354819Y-94271428D01*
X219354819Y-94271428D02*
X219307200Y-94366666D01*
X219307200Y-94366666D02*
X219259580Y-94414285D01*
X219259580Y-94414285D02*
X219164342Y-94461904D01*
X219164342Y-94461904D02*
X218926247Y-94461904D01*
X218926247Y-94461904D02*
X218831009Y-94414285D01*
X218831009Y-94414285D02*
X218783390Y-94366666D01*
X218783390Y-94366666D02*
X218735771Y-94271428D01*
X218735771Y-94271428D02*
X218735771Y-94080952D01*
X218735771Y-94080952D02*
X218783390Y-93985714D01*
X218783390Y-93985714D02*
X218831009Y-93938095D01*
X218831009Y-93938095D02*
X218926247Y-93890476D01*
X78456666Y-102959580D02*
X78504285Y-103007200D01*
X78504285Y-103007200D02*
X78647142Y-103054819D01*
X78647142Y-103054819D02*
X78742380Y-103054819D01*
X78742380Y-103054819D02*
X78885237Y-103007200D01*
X78885237Y-103007200D02*
X78980475Y-102911961D01*
X78980475Y-102911961D02*
X79028094Y-102816723D01*
X79028094Y-102816723D02*
X79075713Y-102626247D01*
X79075713Y-102626247D02*
X79075713Y-102483390D01*
X79075713Y-102483390D02*
X79028094Y-102292914D01*
X79028094Y-102292914D02*
X78980475Y-102197676D01*
X78980475Y-102197676D02*
X78885237Y-102102438D01*
X78885237Y-102102438D02*
X78742380Y-102054819D01*
X78742380Y-102054819D02*
X78647142Y-102054819D01*
X78647142Y-102054819D02*
X78504285Y-102102438D01*
X78504285Y-102102438D02*
X78456666Y-102150057D01*
X78075713Y-102150057D02*
X78028094Y-102102438D01*
X78028094Y-102102438D02*
X77932856Y-102054819D01*
X77932856Y-102054819D02*
X77694761Y-102054819D01*
X77694761Y-102054819D02*
X77599523Y-102102438D01*
X77599523Y-102102438D02*
X77551904Y-102150057D01*
X77551904Y-102150057D02*
X77504285Y-102245295D01*
X77504285Y-102245295D02*
X77504285Y-102340533D01*
X77504285Y-102340533D02*
X77551904Y-102483390D01*
X77551904Y-102483390D02*
X78123332Y-103054819D01*
X78123332Y-103054819D02*
X77504285Y-103054819D01*
X81104819Y-124457142D02*
X80628628Y-124123809D01*
X81104819Y-123885714D02*
X80104819Y-123885714D01*
X80104819Y-123885714D02*
X80104819Y-124266666D01*
X80104819Y-124266666D02*
X80152438Y-124361904D01*
X80152438Y-124361904D02*
X80200057Y-124409523D01*
X80200057Y-124409523D02*
X80295295Y-124457142D01*
X80295295Y-124457142D02*
X80438152Y-124457142D01*
X80438152Y-124457142D02*
X80533390Y-124409523D01*
X80533390Y-124409523D02*
X80581009Y-124361904D01*
X80581009Y-124361904D02*
X80628628Y-124266666D01*
X80628628Y-124266666D02*
X80628628Y-123885714D01*
X80104819Y-124790476D02*
X80104819Y-125457142D01*
X80104819Y-125457142D02*
X81104819Y-125028571D01*
X80104819Y-125742857D02*
X80104819Y-126409523D01*
X80104819Y-126409523D02*
X81104819Y-125980952D01*
X206454819Y-115107142D02*
X205978628Y-114773809D01*
X206454819Y-114535714D02*
X205454819Y-114535714D01*
X205454819Y-114535714D02*
X205454819Y-114916666D01*
X205454819Y-114916666D02*
X205502438Y-115011904D01*
X205502438Y-115011904D02*
X205550057Y-115059523D01*
X205550057Y-115059523D02*
X205645295Y-115107142D01*
X205645295Y-115107142D02*
X205788152Y-115107142D01*
X205788152Y-115107142D02*
X205883390Y-115059523D01*
X205883390Y-115059523D02*
X205931009Y-115011904D01*
X205931009Y-115011904D02*
X205978628Y-114916666D01*
X205978628Y-114916666D02*
X205978628Y-114535714D01*
X205550057Y-115488095D02*
X205502438Y-115535714D01*
X205502438Y-115535714D02*
X205454819Y-115630952D01*
X205454819Y-115630952D02*
X205454819Y-115869047D01*
X205454819Y-115869047D02*
X205502438Y-115964285D01*
X205502438Y-115964285D02*
X205550057Y-116011904D01*
X205550057Y-116011904D02*
X205645295Y-116059523D01*
X205645295Y-116059523D02*
X205740533Y-116059523D01*
X205740533Y-116059523D02*
X205883390Y-116011904D01*
X205883390Y-116011904D02*
X206454819Y-115440476D01*
X206454819Y-115440476D02*
X206454819Y-116059523D01*
X205454819Y-116964285D02*
X205454819Y-116488095D01*
X205454819Y-116488095D02*
X205931009Y-116440476D01*
X205931009Y-116440476D02*
X205883390Y-116488095D01*
X205883390Y-116488095D02*
X205835771Y-116583333D01*
X205835771Y-116583333D02*
X205835771Y-116821428D01*
X205835771Y-116821428D02*
X205883390Y-116916666D01*
X205883390Y-116916666D02*
X205931009Y-116964285D01*
X205931009Y-116964285D02*
X206026247Y-117011904D01*
X206026247Y-117011904D02*
X206264342Y-117011904D01*
X206264342Y-117011904D02*
X206359580Y-116964285D01*
X206359580Y-116964285D02*
X206407200Y-116916666D01*
X206407200Y-116916666D02*
X206454819Y-116821428D01*
X206454819Y-116821428D02*
X206454819Y-116583333D01*
X206454819Y-116583333D02*
X206407200Y-116488095D01*
X206407200Y-116488095D02*
X206359580Y-116440476D01*
D11*
X100074318Y-129907856D02*
X98804318Y-129907856D01*
X98804318Y-129907856D02*
X98804318Y-130210237D01*
X98804318Y-130210237D02*
X98864794Y-130391666D01*
X98864794Y-130391666D02*
X98985746Y-130512618D01*
X98985746Y-130512618D02*
X99106699Y-130573095D01*
X99106699Y-130573095D02*
X99348603Y-130633571D01*
X99348603Y-130633571D02*
X99530032Y-130633571D01*
X99530032Y-130633571D02*
X99771937Y-130573095D01*
X99771937Y-130573095D02*
X99892889Y-130512618D01*
X99892889Y-130512618D02*
X100013842Y-130391666D01*
X100013842Y-130391666D02*
X100074318Y-130210237D01*
X100074318Y-130210237D02*
X100074318Y-129907856D01*
X100074318Y-131843095D02*
X100074318Y-131117380D01*
X100074318Y-131480237D02*
X98804318Y-131480237D01*
X98804318Y-131480237D02*
X98985746Y-131359285D01*
X98985746Y-131359285D02*
X99106699Y-131238333D01*
X99106699Y-131238333D02*
X99167175Y-131117380D01*
X100074318Y-132447857D02*
X100074318Y-132689761D01*
X100074318Y-132689761D02*
X100013842Y-132810714D01*
X100013842Y-132810714D02*
X99953365Y-132871190D01*
X99953365Y-132871190D02*
X99771937Y-132992142D01*
X99771937Y-132992142D02*
X99530032Y-133052619D01*
X99530032Y-133052619D02*
X99046222Y-133052619D01*
X99046222Y-133052619D02*
X98925270Y-132992142D01*
X98925270Y-132992142D02*
X98864794Y-132931666D01*
X98864794Y-132931666D02*
X98804318Y-132810714D01*
X98804318Y-132810714D02*
X98804318Y-132568809D01*
X98804318Y-132568809D02*
X98864794Y-132447857D01*
X98864794Y-132447857D02*
X98925270Y-132387380D01*
X98925270Y-132387380D02*
X99046222Y-132326904D01*
X99046222Y-132326904D02*
X99348603Y-132326904D01*
X99348603Y-132326904D02*
X99469556Y-132387380D01*
X99469556Y-132387380D02*
X99530032Y-132447857D01*
X99530032Y-132447857D02*
X99590508Y-132568809D01*
X99590508Y-132568809D02*
X99590508Y-132810714D01*
X99590508Y-132810714D02*
X99530032Y-132931666D01*
X99530032Y-132931666D02*
X99469556Y-132992142D01*
X99469556Y-132992142D02*
X99348603Y-133052619D01*
D10*
X95635731Y-129420637D02*
X95635731Y-128420637D01*
X95635731Y-128420637D02*
X95397636Y-128420637D01*
X95397636Y-128420637D02*
X95254779Y-128468256D01*
X95254779Y-128468256D02*
X95159541Y-128563494D01*
X95159541Y-128563494D02*
X95111922Y-128658732D01*
X95111922Y-128658732D02*
X95064303Y-128849208D01*
X95064303Y-128849208D02*
X95064303Y-128992065D01*
X95064303Y-128992065D02*
X95111922Y-129182541D01*
X95111922Y-129182541D02*
X95159541Y-129277779D01*
X95159541Y-129277779D02*
X95254779Y-129373018D01*
X95254779Y-129373018D02*
X95397636Y-129420637D01*
X95397636Y-129420637D02*
X95635731Y-129420637D01*
X94111922Y-129420637D02*
X94683350Y-129420637D01*
X94397636Y-129420637D02*
X94397636Y-128420637D01*
X94397636Y-128420637D02*
X94492874Y-128563494D01*
X94492874Y-128563494D02*
X94588112Y-128658732D01*
X94588112Y-128658732D02*
X94683350Y-128706351D01*
X93778588Y-128420637D02*
X93111922Y-128420637D01*
X93111922Y-128420637D02*
X93540493Y-129420637D01*
X200465357Y-129894819D02*
X200798690Y-129418628D01*
X201036785Y-129894819D02*
X201036785Y-128894819D01*
X201036785Y-128894819D02*
X200655833Y-128894819D01*
X200655833Y-128894819D02*
X200560595Y-128942438D01*
X200560595Y-128942438D02*
X200512976Y-128990057D01*
X200512976Y-128990057D02*
X200465357Y-129085295D01*
X200465357Y-129085295D02*
X200465357Y-129228152D01*
X200465357Y-129228152D02*
X200512976Y-129323390D01*
X200512976Y-129323390D02*
X200560595Y-129371009D01*
X200560595Y-129371009D02*
X200655833Y-129418628D01*
X200655833Y-129418628D02*
X201036785Y-129418628D01*
X200132023Y-128894819D02*
X199512976Y-128894819D01*
X199512976Y-128894819D02*
X199846309Y-129275771D01*
X199846309Y-129275771D02*
X199703452Y-129275771D01*
X199703452Y-129275771D02*
X199608214Y-129323390D01*
X199608214Y-129323390D02*
X199560595Y-129371009D01*
X199560595Y-129371009D02*
X199512976Y-129466247D01*
X199512976Y-129466247D02*
X199512976Y-129704342D01*
X199512976Y-129704342D02*
X199560595Y-129799580D01*
X199560595Y-129799580D02*
X199608214Y-129847200D01*
X199608214Y-129847200D02*
X199703452Y-129894819D01*
X199703452Y-129894819D02*
X199989166Y-129894819D01*
X199989166Y-129894819D02*
X200084404Y-129847200D01*
X200084404Y-129847200D02*
X200132023Y-129799580D01*
X199132023Y-128990057D02*
X199084404Y-128942438D01*
X199084404Y-128942438D02*
X198989166Y-128894819D01*
X198989166Y-128894819D02*
X198751071Y-128894819D01*
X198751071Y-128894819D02*
X198655833Y-128942438D01*
X198655833Y-128942438D02*
X198608214Y-128990057D01*
X198608214Y-128990057D02*
X198560595Y-129085295D01*
X198560595Y-129085295D02*
X198560595Y-129180533D01*
X198560595Y-129180533D02*
X198608214Y-129323390D01*
X198608214Y-129323390D02*
X199179642Y-129894819D01*
X199179642Y-129894819D02*
X198560595Y-129894819D01*
X229354819Y-52557142D02*
X228878628Y-52223809D01*
X229354819Y-51985714D02*
X228354819Y-51985714D01*
X228354819Y-51985714D02*
X228354819Y-52366666D01*
X228354819Y-52366666D02*
X228402438Y-52461904D01*
X228402438Y-52461904D02*
X228450057Y-52509523D01*
X228450057Y-52509523D02*
X228545295Y-52557142D01*
X228545295Y-52557142D02*
X228688152Y-52557142D01*
X228688152Y-52557142D02*
X228783390Y-52509523D01*
X228783390Y-52509523D02*
X228831009Y-52461904D01*
X228831009Y-52461904D02*
X228878628Y-52366666D01*
X228878628Y-52366666D02*
X228878628Y-51985714D01*
X228354819Y-53414285D02*
X228354819Y-53223809D01*
X228354819Y-53223809D02*
X228402438Y-53128571D01*
X228402438Y-53128571D02*
X228450057Y-53080952D01*
X228450057Y-53080952D02*
X228592914Y-52985714D01*
X228592914Y-52985714D02*
X228783390Y-52938095D01*
X228783390Y-52938095D02*
X229164342Y-52938095D01*
X229164342Y-52938095D02*
X229259580Y-52985714D01*
X229259580Y-52985714D02*
X229307200Y-53033333D01*
X229307200Y-53033333D02*
X229354819Y-53128571D01*
X229354819Y-53128571D02*
X229354819Y-53319047D01*
X229354819Y-53319047D02*
X229307200Y-53414285D01*
X229307200Y-53414285D02*
X229259580Y-53461904D01*
X229259580Y-53461904D02*
X229164342Y-53509523D01*
X229164342Y-53509523D02*
X228926247Y-53509523D01*
X228926247Y-53509523D02*
X228831009Y-53461904D01*
X228831009Y-53461904D02*
X228783390Y-53414285D01*
X228783390Y-53414285D02*
X228735771Y-53319047D01*
X228735771Y-53319047D02*
X228735771Y-53128571D01*
X228735771Y-53128571D02*
X228783390Y-53033333D01*
X228783390Y-53033333D02*
X228831009Y-52985714D01*
X228831009Y-52985714D02*
X228926247Y-52938095D01*
X228354819Y-54128571D02*
X228354819Y-54223809D01*
X228354819Y-54223809D02*
X228402438Y-54319047D01*
X228402438Y-54319047D02*
X228450057Y-54366666D01*
X228450057Y-54366666D02*
X228545295Y-54414285D01*
X228545295Y-54414285D02*
X228735771Y-54461904D01*
X228735771Y-54461904D02*
X228973866Y-54461904D01*
X228973866Y-54461904D02*
X229164342Y-54414285D01*
X229164342Y-54414285D02*
X229259580Y-54366666D01*
X229259580Y-54366666D02*
X229307200Y-54319047D01*
X229307200Y-54319047D02*
X229354819Y-54223809D01*
X229354819Y-54223809D02*
X229354819Y-54128571D01*
X229354819Y-54128571D02*
X229307200Y-54033333D01*
X229307200Y-54033333D02*
X229259580Y-53985714D01*
X229259580Y-53985714D02*
X229164342Y-53938095D01*
X229164342Y-53938095D02*
X228973866Y-53890476D01*
X228973866Y-53890476D02*
X228735771Y-53890476D01*
X228735771Y-53890476D02*
X228545295Y-53938095D01*
X228545295Y-53938095D02*
X228450057Y-53985714D01*
X228450057Y-53985714D02*
X228402438Y-54033333D01*
X228402438Y-54033333D02*
X228354819Y-54128571D01*
D11*
X96374318Y-129782856D02*
X95104318Y-129782856D01*
X95104318Y-129782856D02*
X95104318Y-130085237D01*
X95104318Y-130085237D02*
X95164794Y-130266666D01*
X95164794Y-130266666D02*
X95285746Y-130387618D01*
X95285746Y-130387618D02*
X95406699Y-130448095D01*
X95406699Y-130448095D02*
X95648603Y-130508571D01*
X95648603Y-130508571D02*
X95830032Y-130508571D01*
X95830032Y-130508571D02*
X96071937Y-130448095D01*
X96071937Y-130448095D02*
X96192889Y-130387618D01*
X96192889Y-130387618D02*
X96313842Y-130266666D01*
X96313842Y-130266666D02*
X96374318Y-130085237D01*
X96374318Y-130085237D02*
X96374318Y-129782856D01*
X96374318Y-131718095D02*
X96374318Y-130992380D01*
X96374318Y-131355237D02*
X95104318Y-131355237D01*
X95104318Y-131355237D02*
X95285746Y-131234285D01*
X95285746Y-131234285D02*
X95406699Y-131113333D01*
X95406699Y-131113333D02*
X95467175Y-130992380D01*
X95648603Y-132443809D02*
X95588127Y-132322857D01*
X95588127Y-132322857D02*
X95527651Y-132262380D01*
X95527651Y-132262380D02*
X95406699Y-132201904D01*
X95406699Y-132201904D02*
X95346222Y-132201904D01*
X95346222Y-132201904D02*
X95225270Y-132262380D01*
X95225270Y-132262380D02*
X95164794Y-132322857D01*
X95164794Y-132322857D02*
X95104318Y-132443809D01*
X95104318Y-132443809D02*
X95104318Y-132685714D01*
X95104318Y-132685714D02*
X95164794Y-132806666D01*
X95164794Y-132806666D02*
X95225270Y-132867142D01*
X95225270Y-132867142D02*
X95346222Y-132927619D01*
X95346222Y-132927619D02*
X95406699Y-132927619D01*
X95406699Y-132927619D02*
X95527651Y-132867142D01*
X95527651Y-132867142D02*
X95588127Y-132806666D01*
X95588127Y-132806666D02*
X95648603Y-132685714D01*
X95648603Y-132685714D02*
X95648603Y-132443809D01*
X95648603Y-132443809D02*
X95709080Y-132322857D01*
X95709080Y-132322857D02*
X95769556Y-132262380D01*
X95769556Y-132262380D02*
X95890508Y-132201904D01*
X95890508Y-132201904D02*
X96132413Y-132201904D01*
X96132413Y-132201904D02*
X96253365Y-132262380D01*
X96253365Y-132262380D02*
X96313842Y-132322857D01*
X96313842Y-132322857D02*
X96374318Y-132443809D01*
X96374318Y-132443809D02*
X96374318Y-132685714D01*
X96374318Y-132685714D02*
X96313842Y-132806666D01*
X96313842Y-132806666D02*
X96253365Y-132867142D01*
X96253365Y-132867142D02*
X96132413Y-132927619D01*
X96132413Y-132927619D02*
X95890508Y-132927619D01*
X95890508Y-132927619D02*
X95769556Y-132867142D01*
X95769556Y-132867142D02*
X95709080Y-132806666D01*
X95709080Y-132806666D02*
X95648603Y-132685714D01*
D10*
X71142857Y-84254819D02*
X71476190Y-83778628D01*
X71714285Y-84254819D02*
X71714285Y-83254819D01*
X71714285Y-83254819D02*
X71333333Y-83254819D01*
X71333333Y-83254819D02*
X71238095Y-83302438D01*
X71238095Y-83302438D02*
X71190476Y-83350057D01*
X71190476Y-83350057D02*
X71142857Y-83445295D01*
X71142857Y-83445295D02*
X71142857Y-83588152D01*
X71142857Y-83588152D02*
X71190476Y-83683390D01*
X71190476Y-83683390D02*
X71238095Y-83731009D01*
X71238095Y-83731009D02*
X71333333Y-83778628D01*
X71333333Y-83778628D02*
X71714285Y-83778628D01*
X70285714Y-83254819D02*
X70476190Y-83254819D01*
X70476190Y-83254819D02*
X70571428Y-83302438D01*
X70571428Y-83302438D02*
X70619047Y-83350057D01*
X70619047Y-83350057D02*
X70714285Y-83492914D01*
X70714285Y-83492914D02*
X70761904Y-83683390D01*
X70761904Y-83683390D02*
X70761904Y-84064342D01*
X70761904Y-84064342D02*
X70714285Y-84159580D01*
X70714285Y-84159580D02*
X70666666Y-84207200D01*
X70666666Y-84207200D02*
X70571428Y-84254819D01*
X70571428Y-84254819D02*
X70380952Y-84254819D01*
X70380952Y-84254819D02*
X70285714Y-84207200D01*
X70285714Y-84207200D02*
X70238095Y-84159580D01*
X70238095Y-84159580D02*
X70190476Y-84064342D01*
X70190476Y-84064342D02*
X70190476Y-83826247D01*
X70190476Y-83826247D02*
X70238095Y-83731009D01*
X70238095Y-83731009D02*
X70285714Y-83683390D01*
X70285714Y-83683390D02*
X70380952Y-83635771D01*
X70380952Y-83635771D02*
X70571428Y-83635771D01*
X70571428Y-83635771D02*
X70666666Y-83683390D01*
X70666666Y-83683390D02*
X70714285Y-83731009D01*
X70714285Y-83731009D02*
X70761904Y-83826247D01*
X69857142Y-83254819D02*
X69190476Y-83254819D01*
X69190476Y-83254819D02*
X69619047Y-84254819D01*
X74914819Y-112573333D02*
X74438628Y-112240000D01*
X74914819Y-112001905D02*
X73914819Y-112001905D01*
X73914819Y-112001905D02*
X73914819Y-112382857D01*
X73914819Y-112382857D02*
X73962438Y-112478095D01*
X73962438Y-112478095D02*
X74010057Y-112525714D01*
X74010057Y-112525714D02*
X74105295Y-112573333D01*
X74105295Y-112573333D02*
X74248152Y-112573333D01*
X74248152Y-112573333D02*
X74343390Y-112525714D01*
X74343390Y-112525714D02*
X74391009Y-112478095D01*
X74391009Y-112478095D02*
X74438628Y-112382857D01*
X74438628Y-112382857D02*
X74438628Y-112001905D01*
X73914819Y-113430476D02*
X73914819Y-113240000D01*
X73914819Y-113240000D02*
X73962438Y-113144762D01*
X73962438Y-113144762D02*
X74010057Y-113097143D01*
X74010057Y-113097143D02*
X74152914Y-113001905D01*
X74152914Y-113001905D02*
X74343390Y-112954286D01*
X74343390Y-112954286D02*
X74724342Y-112954286D01*
X74724342Y-112954286D02*
X74819580Y-113001905D01*
X74819580Y-113001905D02*
X74867200Y-113049524D01*
X74867200Y-113049524D02*
X74914819Y-113144762D01*
X74914819Y-113144762D02*
X74914819Y-113335238D01*
X74914819Y-113335238D02*
X74867200Y-113430476D01*
X74867200Y-113430476D02*
X74819580Y-113478095D01*
X74819580Y-113478095D02*
X74724342Y-113525714D01*
X74724342Y-113525714D02*
X74486247Y-113525714D01*
X74486247Y-113525714D02*
X74391009Y-113478095D01*
X74391009Y-113478095D02*
X74343390Y-113430476D01*
X74343390Y-113430476D02*
X74295771Y-113335238D01*
X74295771Y-113335238D02*
X74295771Y-113144762D01*
X74295771Y-113144762D02*
X74343390Y-113049524D01*
X74343390Y-113049524D02*
X74391009Y-113001905D01*
X74391009Y-113001905D02*
X74486247Y-112954286D01*
X203054819Y-124207142D02*
X202578628Y-123873809D01*
X203054819Y-123635714D02*
X202054819Y-123635714D01*
X202054819Y-123635714D02*
X202054819Y-124016666D01*
X202054819Y-124016666D02*
X202102438Y-124111904D01*
X202102438Y-124111904D02*
X202150057Y-124159523D01*
X202150057Y-124159523D02*
X202245295Y-124207142D01*
X202245295Y-124207142D02*
X202388152Y-124207142D01*
X202388152Y-124207142D02*
X202483390Y-124159523D01*
X202483390Y-124159523D02*
X202531009Y-124111904D01*
X202531009Y-124111904D02*
X202578628Y-124016666D01*
X202578628Y-124016666D02*
X202578628Y-123635714D01*
X202150057Y-124588095D02*
X202102438Y-124635714D01*
X202102438Y-124635714D02*
X202054819Y-124730952D01*
X202054819Y-124730952D02*
X202054819Y-124969047D01*
X202054819Y-124969047D02*
X202102438Y-125064285D01*
X202102438Y-125064285D02*
X202150057Y-125111904D01*
X202150057Y-125111904D02*
X202245295Y-125159523D01*
X202245295Y-125159523D02*
X202340533Y-125159523D01*
X202340533Y-125159523D02*
X202483390Y-125111904D01*
X202483390Y-125111904D02*
X203054819Y-124540476D01*
X203054819Y-124540476D02*
X203054819Y-125159523D01*
X202054819Y-125492857D02*
X202054819Y-126111904D01*
X202054819Y-126111904D02*
X202435771Y-125778571D01*
X202435771Y-125778571D02*
X202435771Y-125921428D01*
X202435771Y-125921428D02*
X202483390Y-126016666D01*
X202483390Y-126016666D02*
X202531009Y-126064285D01*
X202531009Y-126064285D02*
X202626247Y-126111904D01*
X202626247Y-126111904D02*
X202864342Y-126111904D01*
X202864342Y-126111904D02*
X202959580Y-126064285D01*
X202959580Y-126064285D02*
X203007200Y-126016666D01*
X203007200Y-126016666D02*
X203054819Y-125921428D01*
X203054819Y-125921428D02*
X203054819Y-125635714D01*
X203054819Y-125635714D02*
X203007200Y-125540476D01*
X203007200Y-125540476D02*
X202959580Y-125492857D01*
X203454819Y-138257142D02*
X202978628Y-137923809D01*
X203454819Y-137685714D02*
X202454819Y-137685714D01*
X202454819Y-137685714D02*
X202454819Y-138066666D01*
X202454819Y-138066666D02*
X202502438Y-138161904D01*
X202502438Y-138161904D02*
X202550057Y-138209523D01*
X202550057Y-138209523D02*
X202645295Y-138257142D01*
X202645295Y-138257142D02*
X202788152Y-138257142D01*
X202788152Y-138257142D02*
X202883390Y-138209523D01*
X202883390Y-138209523D02*
X202931009Y-138161904D01*
X202931009Y-138161904D02*
X202978628Y-138066666D01*
X202978628Y-138066666D02*
X202978628Y-137685714D01*
X203454819Y-139209523D02*
X203454819Y-138638095D01*
X203454819Y-138923809D02*
X202454819Y-138923809D01*
X202454819Y-138923809D02*
X202597676Y-138828571D01*
X202597676Y-138828571D02*
X202692914Y-138733333D01*
X202692914Y-138733333D02*
X202740533Y-138638095D01*
X202788152Y-140066666D02*
X203454819Y-140066666D01*
X202407200Y-139828571D02*
X203121485Y-139590476D01*
X203121485Y-139590476D02*
X203121485Y-140209523D01*
X111192857Y-125554819D02*
X111526190Y-125078628D01*
X111764285Y-125554819D02*
X111764285Y-124554819D01*
X111764285Y-124554819D02*
X111383333Y-124554819D01*
X111383333Y-124554819D02*
X111288095Y-124602438D01*
X111288095Y-124602438D02*
X111240476Y-124650057D01*
X111240476Y-124650057D02*
X111192857Y-124745295D01*
X111192857Y-124745295D02*
X111192857Y-124888152D01*
X111192857Y-124888152D02*
X111240476Y-124983390D01*
X111240476Y-124983390D02*
X111288095Y-125031009D01*
X111288095Y-125031009D02*
X111383333Y-125078628D01*
X111383333Y-125078628D02*
X111764285Y-125078628D01*
X110621428Y-124983390D02*
X110716666Y-124935771D01*
X110716666Y-124935771D02*
X110764285Y-124888152D01*
X110764285Y-124888152D02*
X110811904Y-124792914D01*
X110811904Y-124792914D02*
X110811904Y-124745295D01*
X110811904Y-124745295D02*
X110764285Y-124650057D01*
X110764285Y-124650057D02*
X110716666Y-124602438D01*
X110716666Y-124602438D02*
X110621428Y-124554819D01*
X110621428Y-124554819D02*
X110430952Y-124554819D01*
X110430952Y-124554819D02*
X110335714Y-124602438D01*
X110335714Y-124602438D02*
X110288095Y-124650057D01*
X110288095Y-124650057D02*
X110240476Y-124745295D01*
X110240476Y-124745295D02*
X110240476Y-124792914D01*
X110240476Y-124792914D02*
X110288095Y-124888152D01*
X110288095Y-124888152D02*
X110335714Y-124935771D01*
X110335714Y-124935771D02*
X110430952Y-124983390D01*
X110430952Y-124983390D02*
X110621428Y-124983390D01*
X110621428Y-124983390D02*
X110716666Y-125031009D01*
X110716666Y-125031009D02*
X110764285Y-125078628D01*
X110764285Y-125078628D02*
X110811904Y-125173866D01*
X110811904Y-125173866D02*
X110811904Y-125364342D01*
X110811904Y-125364342D02*
X110764285Y-125459580D01*
X110764285Y-125459580D02*
X110716666Y-125507200D01*
X110716666Y-125507200D02*
X110621428Y-125554819D01*
X110621428Y-125554819D02*
X110430952Y-125554819D01*
X110430952Y-125554819D02*
X110335714Y-125507200D01*
X110335714Y-125507200D02*
X110288095Y-125459580D01*
X110288095Y-125459580D02*
X110240476Y-125364342D01*
X110240476Y-125364342D02*
X110240476Y-125173866D01*
X110240476Y-125173866D02*
X110288095Y-125078628D01*
X110288095Y-125078628D02*
X110335714Y-125031009D01*
X110335714Y-125031009D02*
X110430952Y-124983390D01*
X109764285Y-125554819D02*
X109573809Y-125554819D01*
X109573809Y-125554819D02*
X109478571Y-125507200D01*
X109478571Y-125507200D02*
X109430952Y-125459580D01*
X109430952Y-125459580D02*
X109335714Y-125316723D01*
X109335714Y-125316723D02*
X109288095Y-125126247D01*
X109288095Y-125126247D02*
X109288095Y-124745295D01*
X109288095Y-124745295D02*
X109335714Y-124650057D01*
X109335714Y-124650057D02*
X109383333Y-124602438D01*
X109383333Y-124602438D02*
X109478571Y-124554819D01*
X109478571Y-124554819D02*
X109669047Y-124554819D01*
X109669047Y-124554819D02*
X109764285Y-124602438D01*
X109764285Y-124602438D02*
X109811904Y-124650057D01*
X109811904Y-124650057D02*
X109859523Y-124745295D01*
X109859523Y-124745295D02*
X109859523Y-124983390D01*
X109859523Y-124983390D02*
X109811904Y-125078628D01*
X109811904Y-125078628D02*
X109764285Y-125126247D01*
X109764285Y-125126247D02*
X109669047Y-125173866D01*
X109669047Y-125173866D02*
X109478571Y-125173866D01*
X109478571Y-125173866D02*
X109383333Y-125126247D01*
X109383333Y-125126247D02*
X109335714Y-125078628D01*
X109335714Y-125078628D02*
X109288095Y-124983390D01*
X217154819Y-52657142D02*
X216678628Y-52323809D01*
X217154819Y-52085714D02*
X216154819Y-52085714D01*
X216154819Y-52085714D02*
X216154819Y-52466666D01*
X216154819Y-52466666D02*
X216202438Y-52561904D01*
X216202438Y-52561904D02*
X216250057Y-52609523D01*
X216250057Y-52609523D02*
X216345295Y-52657142D01*
X216345295Y-52657142D02*
X216488152Y-52657142D01*
X216488152Y-52657142D02*
X216583390Y-52609523D01*
X216583390Y-52609523D02*
X216631009Y-52561904D01*
X216631009Y-52561904D02*
X216678628Y-52466666D01*
X216678628Y-52466666D02*
X216678628Y-52085714D01*
X216154819Y-52990476D02*
X216154819Y-53657142D01*
X216154819Y-53657142D02*
X217154819Y-53228571D01*
X216154819Y-54228571D02*
X216154819Y-54323809D01*
X216154819Y-54323809D02*
X216202438Y-54419047D01*
X216202438Y-54419047D02*
X216250057Y-54466666D01*
X216250057Y-54466666D02*
X216345295Y-54514285D01*
X216345295Y-54514285D02*
X216535771Y-54561904D01*
X216535771Y-54561904D02*
X216773866Y-54561904D01*
X216773866Y-54561904D02*
X216964342Y-54514285D01*
X216964342Y-54514285D02*
X217059580Y-54466666D01*
X217059580Y-54466666D02*
X217107200Y-54419047D01*
X217107200Y-54419047D02*
X217154819Y-54323809D01*
X217154819Y-54323809D02*
X217154819Y-54228571D01*
X217154819Y-54228571D02*
X217107200Y-54133333D01*
X217107200Y-54133333D02*
X217059580Y-54085714D01*
X217059580Y-54085714D02*
X216964342Y-54038095D01*
X216964342Y-54038095D02*
X216773866Y-53990476D01*
X216773866Y-53990476D02*
X216535771Y-53990476D01*
X216535771Y-53990476D02*
X216345295Y-54038095D01*
X216345295Y-54038095D02*
X216250057Y-54085714D01*
X216250057Y-54085714D02*
X216202438Y-54133333D01*
X216202438Y-54133333D02*
X216154819Y-54228571D01*
X213654819Y-95357142D02*
X213178628Y-95023809D01*
X213654819Y-94785714D02*
X212654819Y-94785714D01*
X212654819Y-94785714D02*
X212654819Y-95166666D01*
X212654819Y-95166666D02*
X212702438Y-95261904D01*
X212702438Y-95261904D02*
X212750057Y-95309523D01*
X212750057Y-95309523D02*
X212845295Y-95357142D01*
X212845295Y-95357142D02*
X212988152Y-95357142D01*
X212988152Y-95357142D02*
X213083390Y-95309523D01*
X213083390Y-95309523D02*
X213131009Y-95261904D01*
X213131009Y-95261904D02*
X213178628Y-95166666D01*
X213178628Y-95166666D02*
X213178628Y-94785714D01*
X213654819Y-96309523D02*
X213654819Y-95738095D01*
X213654819Y-96023809D02*
X212654819Y-96023809D01*
X212654819Y-96023809D02*
X212797676Y-95928571D01*
X212797676Y-95928571D02*
X212892914Y-95833333D01*
X212892914Y-95833333D02*
X212940533Y-95738095D01*
X212654819Y-96642857D02*
X212654819Y-97309523D01*
X212654819Y-97309523D02*
X213654819Y-96880952D01*
D11*
X85274318Y-129907856D02*
X84004318Y-129907856D01*
X84004318Y-129907856D02*
X84004318Y-130210237D01*
X84004318Y-130210237D02*
X84064794Y-130391666D01*
X84064794Y-130391666D02*
X84185746Y-130512618D01*
X84185746Y-130512618D02*
X84306699Y-130573095D01*
X84306699Y-130573095D02*
X84548603Y-130633571D01*
X84548603Y-130633571D02*
X84730032Y-130633571D01*
X84730032Y-130633571D02*
X84971937Y-130573095D01*
X84971937Y-130573095D02*
X85092889Y-130512618D01*
X85092889Y-130512618D02*
X85213842Y-130391666D01*
X85213842Y-130391666D02*
X85274318Y-130210237D01*
X85274318Y-130210237D02*
X85274318Y-129907856D01*
X85274318Y-131843095D02*
X85274318Y-131117380D01*
X85274318Y-131480237D02*
X84004318Y-131480237D01*
X84004318Y-131480237D02*
X84185746Y-131359285D01*
X84185746Y-131359285D02*
X84306699Y-131238333D01*
X84306699Y-131238333D02*
X84367175Y-131117380D01*
X84004318Y-132992142D02*
X84004318Y-132387380D01*
X84004318Y-132387380D02*
X84609080Y-132326904D01*
X84609080Y-132326904D02*
X84548603Y-132387380D01*
X84548603Y-132387380D02*
X84488127Y-132508333D01*
X84488127Y-132508333D02*
X84488127Y-132810714D01*
X84488127Y-132810714D02*
X84548603Y-132931666D01*
X84548603Y-132931666D02*
X84609080Y-132992142D01*
X84609080Y-132992142D02*
X84730032Y-133052619D01*
X84730032Y-133052619D02*
X85032413Y-133052619D01*
X85032413Y-133052619D02*
X85153365Y-132992142D01*
X85153365Y-132992142D02*
X85213842Y-132931666D01*
X85213842Y-132931666D02*
X85274318Y-132810714D01*
X85274318Y-132810714D02*
X85274318Y-132508333D01*
X85274318Y-132508333D02*
X85213842Y-132387380D01*
X85213842Y-132387380D02*
X85153365Y-132326904D01*
D10*
X203092857Y-127454819D02*
X203426190Y-126978628D01*
X203664285Y-127454819D02*
X203664285Y-126454819D01*
X203664285Y-126454819D02*
X203283333Y-126454819D01*
X203283333Y-126454819D02*
X203188095Y-126502438D01*
X203188095Y-126502438D02*
X203140476Y-126550057D01*
X203140476Y-126550057D02*
X203092857Y-126645295D01*
X203092857Y-126645295D02*
X203092857Y-126788152D01*
X203092857Y-126788152D02*
X203140476Y-126883390D01*
X203140476Y-126883390D02*
X203188095Y-126931009D01*
X203188095Y-126931009D02*
X203283333Y-126978628D01*
X203283333Y-126978628D02*
X203664285Y-126978628D01*
X202140476Y-127454819D02*
X202711904Y-127454819D01*
X202426190Y-127454819D02*
X202426190Y-126454819D01*
X202426190Y-126454819D02*
X202521428Y-126597676D01*
X202521428Y-126597676D02*
X202616666Y-126692914D01*
X202616666Y-126692914D02*
X202711904Y-126740533D01*
X201807142Y-126454819D02*
X201188095Y-126454819D01*
X201188095Y-126454819D02*
X201521428Y-126835771D01*
X201521428Y-126835771D02*
X201378571Y-126835771D01*
X201378571Y-126835771D02*
X201283333Y-126883390D01*
X201283333Y-126883390D02*
X201235714Y-126931009D01*
X201235714Y-126931009D02*
X201188095Y-127026247D01*
X201188095Y-127026247D02*
X201188095Y-127264342D01*
X201188095Y-127264342D02*
X201235714Y-127359580D01*
X201235714Y-127359580D02*
X201283333Y-127407200D01*
X201283333Y-127407200D02*
X201378571Y-127454819D01*
X201378571Y-127454819D02*
X201664285Y-127454819D01*
X201664285Y-127454819D02*
X201759523Y-127407200D01*
X201759523Y-127407200D02*
X201807142Y-127359580D01*
X116853746Y-111576149D02*
X117187079Y-111099958D01*
X117425174Y-111576149D02*
X117425174Y-110576149D01*
X117425174Y-110576149D02*
X117044222Y-110576149D01*
X117044222Y-110576149D02*
X116948984Y-110623768D01*
X116948984Y-110623768D02*
X116901365Y-110671387D01*
X116901365Y-110671387D02*
X116853746Y-110766625D01*
X116853746Y-110766625D02*
X116853746Y-110909482D01*
X116853746Y-110909482D02*
X116901365Y-111004720D01*
X116901365Y-111004720D02*
X116948984Y-111052339D01*
X116948984Y-111052339D02*
X117044222Y-111099958D01*
X117044222Y-111099958D02*
X117425174Y-111099958D01*
X116282317Y-111004720D02*
X116377555Y-110957101D01*
X116377555Y-110957101D02*
X116425174Y-110909482D01*
X116425174Y-110909482D02*
X116472793Y-110814244D01*
X116472793Y-110814244D02*
X116472793Y-110766625D01*
X116472793Y-110766625D02*
X116425174Y-110671387D01*
X116425174Y-110671387D02*
X116377555Y-110623768D01*
X116377555Y-110623768D02*
X116282317Y-110576149D01*
X116282317Y-110576149D02*
X116091841Y-110576149D01*
X116091841Y-110576149D02*
X115996603Y-110623768D01*
X115996603Y-110623768D02*
X115948984Y-110671387D01*
X115948984Y-110671387D02*
X115901365Y-110766625D01*
X115901365Y-110766625D02*
X115901365Y-110814244D01*
X115901365Y-110814244D02*
X115948984Y-110909482D01*
X115948984Y-110909482D02*
X115996603Y-110957101D01*
X115996603Y-110957101D02*
X116091841Y-111004720D01*
X116091841Y-111004720D02*
X116282317Y-111004720D01*
X116282317Y-111004720D02*
X116377555Y-111052339D01*
X116377555Y-111052339D02*
X116425174Y-111099958D01*
X116425174Y-111099958D02*
X116472793Y-111195196D01*
X116472793Y-111195196D02*
X116472793Y-111385672D01*
X116472793Y-111385672D02*
X116425174Y-111480910D01*
X116425174Y-111480910D02*
X116377555Y-111528530D01*
X116377555Y-111528530D02*
X116282317Y-111576149D01*
X116282317Y-111576149D02*
X116091841Y-111576149D01*
X116091841Y-111576149D02*
X115996603Y-111528530D01*
X115996603Y-111528530D02*
X115948984Y-111480910D01*
X115948984Y-111480910D02*
X115901365Y-111385672D01*
X115901365Y-111385672D02*
X115901365Y-111195196D01*
X115901365Y-111195196D02*
X115948984Y-111099958D01*
X115948984Y-111099958D02*
X115996603Y-111052339D01*
X115996603Y-111052339D02*
X116091841Y-111004720D01*
X221704819Y-92557142D02*
X221228628Y-92223809D01*
X221704819Y-91985714D02*
X220704819Y-91985714D01*
X220704819Y-91985714D02*
X220704819Y-92366666D01*
X220704819Y-92366666D02*
X220752438Y-92461904D01*
X220752438Y-92461904D02*
X220800057Y-92509523D01*
X220800057Y-92509523D02*
X220895295Y-92557142D01*
X220895295Y-92557142D02*
X221038152Y-92557142D01*
X221038152Y-92557142D02*
X221133390Y-92509523D01*
X221133390Y-92509523D02*
X221181009Y-92461904D01*
X221181009Y-92461904D02*
X221228628Y-92366666D01*
X221228628Y-92366666D02*
X221228628Y-91985714D01*
X220800057Y-92938095D02*
X220752438Y-92985714D01*
X220752438Y-92985714D02*
X220704819Y-93080952D01*
X220704819Y-93080952D02*
X220704819Y-93319047D01*
X220704819Y-93319047D02*
X220752438Y-93414285D01*
X220752438Y-93414285D02*
X220800057Y-93461904D01*
X220800057Y-93461904D02*
X220895295Y-93509523D01*
X220895295Y-93509523D02*
X220990533Y-93509523D01*
X220990533Y-93509523D02*
X221133390Y-93461904D01*
X221133390Y-93461904D02*
X221704819Y-92890476D01*
X221704819Y-92890476D02*
X221704819Y-93509523D01*
X221704819Y-94461904D02*
X221704819Y-93890476D01*
X221704819Y-94176190D02*
X220704819Y-94176190D01*
X220704819Y-94176190D02*
X220847676Y-94080952D01*
X220847676Y-94080952D02*
X220942914Y-93985714D01*
X220942914Y-93985714D02*
X220990533Y-93890476D01*
X101454819Y-111023333D02*
X100978628Y-110690000D01*
X101454819Y-110451905D02*
X100454819Y-110451905D01*
X100454819Y-110451905D02*
X100454819Y-110832857D01*
X100454819Y-110832857D02*
X100502438Y-110928095D01*
X100502438Y-110928095D02*
X100550057Y-110975714D01*
X100550057Y-110975714D02*
X100645295Y-111023333D01*
X100645295Y-111023333D02*
X100788152Y-111023333D01*
X100788152Y-111023333D02*
X100883390Y-110975714D01*
X100883390Y-110975714D02*
X100931009Y-110928095D01*
X100931009Y-110928095D02*
X100978628Y-110832857D01*
X100978628Y-110832857D02*
X100978628Y-110451905D01*
X100550057Y-111404286D02*
X100502438Y-111451905D01*
X100502438Y-111451905D02*
X100454819Y-111547143D01*
X100454819Y-111547143D02*
X100454819Y-111785238D01*
X100454819Y-111785238D02*
X100502438Y-111880476D01*
X100502438Y-111880476D02*
X100550057Y-111928095D01*
X100550057Y-111928095D02*
X100645295Y-111975714D01*
X100645295Y-111975714D02*
X100740533Y-111975714D01*
X100740533Y-111975714D02*
X100883390Y-111928095D01*
X100883390Y-111928095D02*
X101454819Y-111356667D01*
X101454819Y-111356667D02*
X101454819Y-111975714D01*
X123136484Y-105244819D02*
X123136484Y-106054342D01*
X123136484Y-106054342D02*
X123088865Y-106149580D01*
X123088865Y-106149580D02*
X123041246Y-106197200D01*
X123041246Y-106197200D02*
X122946008Y-106244819D01*
X122946008Y-106244819D02*
X122755532Y-106244819D01*
X122755532Y-106244819D02*
X122660294Y-106197200D01*
X122660294Y-106197200D02*
X122612675Y-106149580D01*
X122612675Y-106149580D02*
X122565056Y-106054342D01*
X122565056Y-106054342D02*
X122565056Y-105244819D01*
X122136484Y-105340057D02*
X122088865Y-105292438D01*
X122088865Y-105292438D02*
X121993627Y-105244819D01*
X121993627Y-105244819D02*
X121755532Y-105244819D01*
X121755532Y-105244819D02*
X121660294Y-105292438D01*
X121660294Y-105292438D02*
X121612675Y-105340057D01*
X121612675Y-105340057D02*
X121565056Y-105435295D01*
X121565056Y-105435295D02*
X121565056Y-105530533D01*
X121565056Y-105530533D02*
X121612675Y-105673390D01*
X121612675Y-105673390D02*
X122184103Y-106244819D01*
X122184103Y-106244819D02*
X121565056Y-106244819D01*
X208954819Y-115107142D02*
X208478628Y-114773809D01*
X208954819Y-114535714D02*
X207954819Y-114535714D01*
X207954819Y-114535714D02*
X207954819Y-114916666D01*
X207954819Y-114916666D02*
X208002438Y-115011904D01*
X208002438Y-115011904D02*
X208050057Y-115059523D01*
X208050057Y-115059523D02*
X208145295Y-115107142D01*
X208145295Y-115107142D02*
X208288152Y-115107142D01*
X208288152Y-115107142D02*
X208383390Y-115059523D01*
X208383390Y-115059523D02*
X208431009Y-115011904D01*
X208431009Y-115011904D02*
X208478628Y-114916666D01*
X208478628Y-114916666D02*
X208478628Y-114535714D01*
X208050057Y-115488095D02*
X208002438Y-115535714D01*
X208002438Y-115535714D02*
X207954819Y-115630952D01*
X207954819Y-115630952D02*
X207954819Y-115869047D01*
X207954819Y-115869047D02*
X208002438Y-115964285D01*
X208002438Y-115964285D02*
X208050057Y-116011904D01*
X208050057Y-116011904D02*
X208145295Y-116059523D01*
X208145295Y-116059523D02*
X208240533Y-116059523D01*
X208240533Y-116059523D02*
X208383390Y-116011904D01*
X208383390Y-116011904D02*
X208954819Y-115440476D01*
X208954819Y-115440476D02*
X208954819Y-116059523D01*
X208954819Y-116535714D02*
X208954819Y-116726190D01*
X208954819Y-116726190D02*
X208907200Y-116821428D01*
X208907200Y-116821428D02*
X208859580Y-116869047D01*
X208859580Y-116869047D02*
X208716723Y-116964285D01*
X208716723Y-116964285D02*
X208526247Y-117011904D01*
X208526247Y-117011904D02*
X208145295Y-117011904D01*
X208145295Y-117011904D02*
X208050057Y-116964285D01*
X208050057Y-116964285D02*
X208002438Y-116916666D01*
X208002438Y-116916666D02*
X207954819Y-116821428D01*
X207954819Y-116821428D02*
X207954819Y-116630952D01*
X207954819Y-116630952D02*
X208002438Y-116535714D01*
X208002438Y-116535714D02*
X208050057Y-116488095D01*
X208050057Y-116488095D02*
X208145295Y-116440476D01*
X208145295Y-116440476D02*
X208383390Y-116440476D01*
X208383390Y-116440476D02*
X208478628Y-116488095D01*
X208478628Y-116488095D02*
X208526247Y-116535714D01*
X208526247Y-116535714D02*
X208573866Y-116630952D01*
X208573866Y-116630952D02*
X208573866Y-116821428D01*
X208573866Y-116821428D02*
X208526247Y-116916666D01*
X208526247Y-116916666D02*
X208478628Y-116964285D01*
X208478628Y-116964285D02*
X208383390Y-117011904D01*
X87354819Y-130685714D02*
X86354819Y-130685714D01*
X86354819Y-130685714D02*
X86354819Y-130923809D01*
X86354819Y-130923809D02*
X86402438Y-131066666D01*
X86402438Y-131066666D02*
X86497676Y-131161904D01*
X86497676Y-131161904D02*
X86592914Y-131209523D01*
X86592914Y-131209523D02*
X86783390Y-131257142D01*
X86783390Y-131257142D02*
X86926247Y-131257142D01*
X86926247Y-131257142D02*
X87116723Y-131209523D01*
X87116723Y-131209523D02*
X87211961Y-131161904D01*
X87211961Y-131161904D02*
X87307200Y-131066666D01*
X87307200Y-131066666D02*
X87354819Y-130923809D01*
X87354819Y-130923809D02*
X87354819Y-130685714D01*
X87354819Y-132209523D02*
X87354819Y-131638095D01*
X87354819Y-131923809D02*
X86354819Y-131923809D01*
X86354819Y-131923809D02*
X86497676Y-131828571D01*
X86497676Y-131828571D02*
X86592914Y-131733333D01*
X86592914Y-131733333D02*
X86640533Y-131638095D01*
X86450057Y-132590476D02*
X86402438Y-132638095D01*
X86402438Y-132638095D02*
X86354819Y-132733333D01*
X86354819Y-132733333D02*
X86354819Y-132971428D01*
X86354819Y-132971428D02*
X86402438Y-133066666D01*
X86402438Y-133066666D02*
X86450057Y-133114285D01*
X86450057Y-133114285D02*
X86545295Y-133161904D01*
X86545295Y-133161904D02*
X86640533Y-133161904D01*
X86640533Y-133161904D02*
X86783390Y-133114285D01*
X86783390Y-133114285D02*
X87354819Y-132542857D01*
X87354819Y-132542857D02*
X87354819Y-133161904D01*
X116853746Y-106129819D02*
X117187079Y-105653628D01*
X117425174Y-106129819D02*
X117425174Y-105129819D01*
X117425174Y-105129819D02*
X117044222Y-105129819D01*
X117044222Y-105129819D02*
X116948984Y-105177438D01*
X116948984Y-105177438D02*
X116901365Y-105225057D01*
X116901365Y-105225057D02*
X116853746Y-105320295D01*
X116853746Y-105320295D02*
X116853746Y-105463152D01*
X116853746Y-105463152D02*
X116901365Y-105558390D01*
X116901365Y-105558390D02*
X116948984Y-105606009D01*
X116948984Y-105606009D02*
X117044222Y-105653628D01*
X117044222Y-105653628D02*
X117425174Y-105653628D01*
X116377555Y-106129819D02*
X116187079Y-106129819D01*
X116187079Y-106129819D02*
X116091841Y-106082200D01*
X116091841Y-106082200D02*
X116044222Y-106034580D01*
X116044222Y-106034580D02*
X115948984Y-105891723D01*
X115948984Y-105891723D02*
X115901365Y-105701247D01*
X115901365Y-105701247D02*
X115901365Y-105320295D01*
X115901365Y-105320295D02*
X115948984Y-105225057D01*
X115948984Y-105225057D02*
X115996603Y-105177438D01*
X115996603Y-105177438D02*
X116091841Y-105129819D01*
X116091841Y-105129819D02*
X116282317Y-105129819D01*
X116282317Y-105129819D02*
X116377555Y-105177438D01*
X116377555Y-105177438D02*
X116425174Y-105225057D01*
X116425174Y-105225057D02*
X116472793Y-105320295D01*
X116472793Y-105320295D02*
X116472793Y-105558390D01*
X116472793Y-105558390D02*
X116425174Y-105653628D01*
X116425174Y-105653628D02*
X116377555Y-105701247D01*
X116377555Y-105701247D02*
X116282317Y-105748866D01*
X116282317Y-105748866D02*
X116091841Y-105748866D01*
X116091841Y-105748866D02*
X115996603Y-105701247D01*
X115996603Y-105701247D02*
X115948984Y-105653628D01*
X115948984Y-105653628D02*
X115901365Y-105558390D01*
X96092857Y-125554819D02*
X96426190Y-125078628D01*
X96664285Y-125554819D02*
X96664285Y-124554819D01*
X96664285Y-124554819D02*
X96283333Y-124554819D01*
X96283333Y-124554819D02*
X96188095Y-124602438D01*
X96188095Y-124602438D02*
X96140476Y-124650057D01*
X96140476Y-124650057D02*
X96092857Y-124745295D01*
X96092857Y-124745295D02*
X96092857Y-124888152D01*
X96092857Y-124888152D02*
X96140476Y-124983390D01*
X96140476Y-124983390D02*
X96188095Y-125031009D01*
X96188095Y-125031009D02*
X96283333Y-125078628D01*
X96283333Y-125078628D02*
X96664285Y-125078628D01*
X95521428Y-124983390D02*
X95616666Y-124935771D01*
X95616666Y-124935771D02*
X95664285Y-124888152D01*
X95664285Y-124888152D02*
X95711904Y-124792914D01*
X95711904Y-124792914D02*
X95711904Y-124745295D01*
X95711904Y-124745295D02*
X95664285Y-124650057D01*
X95664285Y-124650057D02*
X95616666Y-124602438D01*
X95616666Y-124602438D02*
X95521428Y-124554819D01*
X95521428Y-124554819D02*
X95330952Y-124554819D01*
X95330952Y-124554819D02*
X95235714Y-124602438D01*
X95235714Y-124602438D02*
X95188095Y-124650057D01*
X95188095Y-124650057D02*
X95140476Y-124745295D01*
X95140476Y-124745295D02*
X95140476Y-124792914D01*
X95140476Y-124792914D02*
X95188095Y-124888152D01*
X95188095Y-124888152D02*
X95235714Y-124935771D01*
X95235714Y-124935771D02*
X95330952Y-124983390D01*
X95330952Y-124983390D02*
X95521428Y-124983390D01*
X95521428Y-124983390D02*
X95616666Y-125031009D01*
X95616666Y-125031009D02*
X95664285Y-125078628D01*
X95664285Y-125078628D02*
X95711904Y-125173866D01*
X95711904Y-125173866D02*
X95711904Y-125364342D01*
X95711904Y-125364342D02*
X95664285Y-125459580D01*
X95664285Y-125459580D02*
X95616666Y-125507200D01*
X95616666Y-125507200D02*
X95521428Y-125554819D01*
X95521428Y-125554819D02*
X95330952Y-125554819D01*
X95330952Y-125554819D02*
X95235714Y-125507200D01*
X95235714Y-125507200D02*
X95188095Y-125459580D01*
X95188095Y-125459580D02*
X95140476Y-125364342D01*
X95140476Y-125364342D02*
X95140476Y-125173866D01*
X95140476Y-125173866D02*
X95188095Y-125078628D01*
X95188095Y-125078628D02*
X95235714Y-125031009D01*
X95235714Y-125031009D02*
X95330952Y-124983390D01*
X94807142Y-124554819D02*
X94188095Y-124554819D01*
X94188095Y-124554819D02*
X94521428Y-124935771D01*
X94521428Y-124935771D02*
X94378571Y-124935771D01*
X94378571Y-124935771D02*
X94283333Y-124983390D01*
X94283333Y-124983390D02*
X94235714Y-125031009D01*
X94235714Y-125031009D02*
X94188095Y-125126247D01*
X94188095Y-125126247D02*
X94188095Y-125364342D01*
X94188095Y-125364342D02*
X94235714Y-125459580D01*
X94235714Y-125459580D02*
X94283333Y-125507200D01*
X94283333Y-125507200D02*
X94378571Y-125554819D01*
X94378571Y-125554819D02*
X94664285Y-125554819D01*
X94664285Y-125554819D02*
X94759523Y-125507200D01*
X94759523Y-125507200D02*
X94807142Y-125459580D01*
X203954819Y-115097142D02*
X203478628Y-114763809D01*
X203954819Y-114525714D02*
X202954819Y-114525714D01*
X202954819Y-114525714D02*
X202954819Y-114906666D01*
X202954819Y-114906666D02*
X203002438Y-115001904D01*
X203002438Y-115001904D02*
X203050057Y-115049523D01*
X203050057Y-115049523D02*
X203145295Y-115097142D01*
X203145295Y-115097142D02*
X203288152Y-115097142D01*
X203288152Y-115097142D02*
X203383390Y-115049523D01*
X203383390Y-115049523D02*
X203431009Y-115001904D01*
X203431009Y-115001904D02*
X203478628Y-114906666D01*
X203478628Y-114906666D02*
X203478628Y-114525714D01*
X203954819Y-116049523D02*
X203954819Y-115478095D01*
X203954819Y-115763809D02*
X202954819Y-115763809D01*
X202954819Y-115763809D02*
X203097676Y-115668571D01*
X203097676Y-115668571D02*
X203192914Y-115573333D01*
X203192914Y-115573333D02*
X203240533Y-115478095D01*
X203954819Y-116525714D02*
X203954819Y-116716190D01*
X203954819Y-116716190D02*
X203907200Y-116811428D01*
X203907200Y-116811428D02*
X203859580Y-116859047D01*
X203859580Y-116859047D02*
X203716723Y-116954285D01*
X203716723Y-116954285D02*
X203526247Y-117001904D01*
X203526247Y-117001904D02*
X203145295Y-117001904D01*
X203145295Y-117001904D02*
X203050057Y-116954285D01*
X203050057Y-116954285D02*
X203002438Y-116906666D01*
X203002438Y-116906666D02*
X202954819Y-116811428D01*
X202954819Y-116811428D02*
X202954819Y-116620952D01*
X202954819Y-116620952D02*
X203002438Y-116525714D01*
X203002438Y-116525714D02*
X203050057Y-116478095D01*
X203050057Y-116478095D02*
X203145295Y-116430476D01*
X203145295Y-116430476D02*
X203383390Y-116430476D01*
X203383390Y-116430476D02*
X203478628Y-116478095D01*
X203478628Y-116478095D02*
X203526247Y-116525714D01*
X203526247Y-116525714D02*
X203573866Y-116620952D01*
X203573866Y-116620952D02*
X203573866Y-116811428D01*
X203573866Y-116811428D02*
X203526247Y-116906666D01*
X203526247Y-116906666D02*
X203478628Y-116954285D01*
X203478628Y-116954285D02*
X203383390Y-117001904D01*
X113219047Y-134184819D02*
X113552380Y-133708628D01*
X113790475Y-134184819D02*
X113790475Y-133184819D01*
X113790475Y-133184819D02*
X113409523Y-133184819D01*
X113409523Y-133184819D02*
X113314285Y-133232438D01*
X113314285Y-133232438D02*
X113266666Y-133280057D01*
X113266666Y-133280057D02*
X113219047Y-133375295D01*
X113219047Y-133375295D02*
X113219047Y-133518152D01*
X113219047Y-133518152D02*
X113266666Y-133613390D01*
X113266666Y-133613390D02*
X113314285Y-133661009D01*
X113314285Y-133661009D02*
X113409523Y-133708628D01*
X113409523Y-133708628D02*
X113790475Y-133708628D01*
X112266666Y-134184819D02*
X112838094Y-134184819D01*
X112552380Y-134184819D02*
X112552380Y-133184819D01*
X112552380Y-133184819D02*
X112647618Y-133327676D01*
X112647618Y-133327676D02*
X112742856Y-133422914D01*
X112742856Y-133422914D02*
X112838094Y-133470533D01*
X111314285Y-134184819D02*
X111885713Y-134184819D01*
X111599999Y-134184819D02*
X111599999Y-133184819D01*
X111599999Y-133184819D02*
X111695237Y-133327676D01*
X111695237Y-133327676D02*
X111790475Y-133422914D01*
X111790475Y-133422914D02*
X111885713Y-133470533D01*
X110409523Y-133184819D02*
X110885713Y-133184819D01*
X110885713Y-133184819D02*
X110933332Y-133661009D01*
X110933332Y-133661009D02*
X110885713Y-133613390D01*
X110885713Y-133613390D02*
X110790475Y-133565771D01*
X110790475Y-133565771D02*
X110552380Y-133565771D01*
X110552380Y-133565771D02*
X110457142Y-133613390D01*
X110457142Y-133613390D02*
X110409523Y-133661009D01*
X110409523Y-133661009D02*
X110361904Y-133756247D01*
X110361904Y-133756247D02*
X110361904Y-133994342D01*
X110361904Y-133994342D02*
X110409523Y-134089580D01*
X110409523Y-134089580D02*
X110457142Y-134137200D01*
X110457142Y-134137200D02*
X110552380Y-134184819D01*
X110552380Y-134184819D02*
X110790475Y-134184819D01*
X110790475Y-134184819D02*
X110885713Y-134137200D01*
X110885713Y-134137200D02*
X110933332Y-134089580D01*
X116882436Y-104106569D02*
X117215769Y-103630378D01*
X117453864Y-104106569D02*
X117453864Y-103106569D01*
X117453864Y-103106569D02*
X117072912Y-103106569D01*
X117072912Y-103106569D02*
X116977674Y-103154188D01*
X116977674Y-103154188D02*
X116930055Y-103201807D01*
X116930055Y-103201807D02*
X116882436Y-103297045D01*
X116882436Y-103297045D02*
X116882436Y-103439902D01*
X116882436Y-103439902D02*
X116930055Y-103535140D01*
X116930055Y-103535140D02*
X116977674Y-103582759D01*
X116977674Y-103582759D02*
X117072912Y-103630378D01*
X117072912Y-103630378D02*
X117453864Y-103630378D01*
X116549102Y-103106569D02*
X115882436Y-103106569D01*
X115882436Y-103106569D02*
X116311007Y-104106569D01*
X201754819Y-124607142D02*
X201278628Y-124273809D01*
X201754819Y-124035714D02*
X200754819Y-124035714D01*
X200754819Y-124035714D02*
X200754819Y-124416666D01*
X200754819Y-124416666D02*
X200802438Y-124511904D01*
X200802438Y-124511904D02*
X200850057Y-124559523D01*
X200850057Y-124559523D02*
X200945295Y-124607142D01*
X200945295Y-124607142D02*
X201088152Y-124607142D01*
X201088152Y-124607142D02*
X201183390Y-124559523D01*
X201183390Y-124559523D02*
X201231009Y-124511904D01*
X201231009Y-124511904D02*
X201278628Y-124416666D01*
X201278628Y-124416666D02*
X201278628Y-124035714D01*
X200850057Y-124988095D02*
X200802438Y-125035714D01*
X200802438Y-125035714D02*
X200754819Y-125130952D01*
X200754819Y-125130952D02*
X200754819Y-125369047D01*
X200754819Y-125369047D02*
X200802438Y-125464285D01*
X200802438Y-125464285D02*
X200850057Y-125511904D01*
X200850057Y-125511904D02*
X200945295Y-125559523D01*
X200945295Y-125559523D02*
X201040533Y-125559523D01*
X201040533Y-125559523D02*
X201183390Y-125511904D01*
X201183390Y-125511904D02*
X201754819Y-124940476D01*
X201754819Y-124940476D02*
X201754819Y-125559523D01*
X200754819Y-125892857D02*
X200754819Y-126559523D01*
X200754819Y-126559523D02*
X201754819Y-126130952D01*
X236854819Y-92817142D02*
X236378628Y-92483809D01*
X236854819Y-92245714D02*
X235854819Y-92245714D01*
X235854819Y-92245714D02*
X235854819Y-92626666D01*
X235854819Y-92626666D02*
X235902438Y-92721904D01*
X235902438Y-92721904D02*
X235950057Y-92769523D01*
X235950057Y-92769523D02*
X236045295Y-92817142D01*
X236045295Y-92817142D02*
X236188152Y-92817142D01*
X236188152Y-92817142D02*
X236283390Y-92769523D01*
X236283390Y-92769523D02*
X236331009Y-92721904D01*
X236331009Y-92721904D02*
X236378628Y-92626666D01*
X236378628Y-92626666D02*
X236378628Y-92245714D01*
X236854819Y-93769523D02*
X236854819Y-93198095D01*
X236854819Y-93483809D02*
X235854819Y-93483809D01*
X235854819Y-93483809D02*
X235997676Y-93388571D01*
X235997676Y-93388571D02*
X236092914Y-93293333D01*
X236092914Y-93293333D02*
X236140533Y-93198095D01*
X235854819Y-94674285D02*
X235854819Y-94198095D01*
X235854819Y-94198095D02*
X236331009Y-94150476D01*
X236331009Y-94150476D02*
X236283390Y-94198095D01*
X236283390Y-94198095D02*
X236235771Y-94293333D01*
X236235771Y-94293333D02*
X236235771Y-94531428D01*
X236235771Y-94531428D02*
X236283390Y-94626666D01*
X236283390Y-94626666D02*
X236331009Y-94674285D01*
X236331009Y-94674285D02*
X236426247Y-94721904D01*
X236426247Y-94721904D02*
X236664342Y-94721904D01*
X236664342Y-94721904D02*
X236759580Y-94674285D01*
X236759580Y-94674285D02*
X236807200Y-94626666D01*
X236807200Y-94626666D02*
X236854819Y-94531428D01*
X236854819Y-94531428D02*
X236854819Y-94293333D01*
X236854819Y-94293333D02*
X236807200Y-94198095D01*
X236807200Y-94198095D02*
X236759580Y-94150476D01*
X180254819Y-51957142D02*
X179778628Y-51623809D01*
X180254819Y-51385714D02*
X179254819Y-51385714D01*
X179254819Y-51385714D02*
X179254819Y-51766666D01*
X179254819Y-51766666D02*
X179302438Y-51861904D01*
X179302438Y-51861904D02*
X179350057Y-51909523D01*
X179350057Y-51909523D02*
X179445295Y-51957142D01*
X179445295Y-51957142D02*
X179588152Y-51957142D01*
X179588152Y-51957142D02*
X179683390Y-51909523D01*
X179683390Y-51909523D02*
X179731009Y-51861904D01*
X179731009Y-51861904D02*
X179778628Y-51766666D01*
X179778628Y-51766666D02*
X179778628Y-51385714D01*
X179254819Y-52290476D02*
X179254819Y-52909523D01*
X179254819Y-52909523D02*
X179635771Y-52576190D01*
X179635771Y-52576190D02*
X179635771Y-52719047D01*
X179635771Y-52719047D02*
X179683390Y-52814285D01*
X179683390Y-52814285D02*
X179731009Y-52861904D01*
X179731009Y-52861904D02*
X179826247Y-52909523D01*
X179826247Y-52909523D02*
X180064342Y-52909523D01*
X180064342Y-52909523D02*
X180159580Y-52861904D01*
X180159580Y-52861904D02*
X180207200Y-52814285D01*
X180207200Y-52814285D02*
X180254819Y-52719047D01*
X180254819Y-52719047D02*
X180254819Y-52433333D01*
X180254819Y-52433333D02*
X180207200Y-52338095D01*
X180207200Y-52338095D02*
X180159580Y-52290476D01*
X179254819Y-53814285D02*
X179254819Y-53338095D01*
X179254819Y-53338095D02*
X179731009Y-53290476D01*
X179731009Y-53290476D02*
X179683390Y-53338095D01*
X179683390Y-53338095D02*
X179635771Y-53433333D01*
X179635771Y-53433333D02*
X179635771Y-53671428D01*
X179635771Y-53671428D02*
X179683390Y-53766666D01*
X179683390Y-53766666D02*
X179731009Y-53814285D01*
X179731009Y-53814285D02*
X179826247Y-53861904D01*
X179826247Y-53861904D02*
X180064342Y-53861904D01*
X180064342Y-53861904D02*
X180159580Y-53814285D01*
X180159580Y-53814285D02*
X180207200Y-53766666D01*
X180207200Y-53766666D02*
X180254819Y-53671428D01*
X180254819Y-53671428D02*
X180254819Y-53433333D01*
X180254819Y-53433333D02*
X180207200Y-53338095D01*
X180207200Y-53338095D02*
X180159580Y-53290476D01*
X62574819Y-112583333D02*
X62098628Y-112250000D01*
X62574819Y-112011905D02*
X61574819Y-112011905D01*
X61574819Y-112011905D02*
X61574819Y-112392857D01*
X61574819Y-112392857D02*
X61622438Y-112488095D01*
X61622438Y-112488095D02*
X61670057Y-112535714D01*
X61670057Y-112535714D02*
X61765295Y-112583333D01*
X61765295Y-112583333D02*
X61908152Y-112583333D01*
X61908152Y-112583333D02*
X62003390Y-112535714D01*
X62003390Y-112535714D02*
X62051009Y-112488095D01*
X62051009Y-112488095D02*
X62098628Y-112392857D01*
X62098628Y-112392857D02*
X62098628Y-112011905D01*
X61574819Y-112916667D02*
X61574819Y-113535714D01*
X61574819Y-113535714D02*
X61955771Y-113202381D01*
X61955771Y-113202381D02*
X61955771Y-113345238D01*
X61955771Y-113345238D02*
X62003390Y-113440476D01*
X62003390Y-113440476D02*
X62051009Y-113488095D01*
X62051009Y-113488095D02*
X62146247Y-113535714D01*
X62146247Y-113535714D02*
X62384342Y-113535714D01*
X62384342Y-113535714D02*
X62479580Y-113488095D01*
X62479580Y-113488095D02*
X62527200Y-113440476D01*
X62527200Y-113440476D02*
X62574819Y-113345238D01*
X62574819Y-113345238D02*
X62574819Y-113059524D01*
X62574819Y-113059524D02*
X62527200Y-112964286D01*
X62527200Y-112964286D02*
X62479580Y-112916667D01*
X110735731Y-129420637D02*
X110735731Y-128420637D01*
X110735731Y-128420637D02*
X110497636Y-128420637D01*
X110497636Y-128420637D02*
X110354779Y-128468256D01*
X110354779Y-128468256D02*
X110259541Y-128563494D01*
X110259541Y-128563494D02*
X110211922Y-128658732D01*
X110211922Y-128658732D02*
X110164303Y-128849208D01*
X110164303Y-128849208D02*
X110164303Y-128992065D01*
X110164303Y-128992065D02*
X110211922Y-129182541D01*
X110211922Y-129182541D02*
X110259541Y-129277779D01*
X110259541Y-129277779D02*
X110354779Y-129373018D01*
X110354779Y-129373018D02*
X110497636Y-129420637D01*
X110497636Y-129420637D02*
X110735731Y-129420637D01*
X109783350Y-128515875D02*
X109735731Y-128468256D01*
X109735731Y-128468256D02*
X109640493Y-128420637D01*
X109640493Y-128420637D02*
X109402398Y-128420637D01*
X109402398Y-128420637D02*
X109307160Y-128468256D01*
X109307160Y-128468256D02*
X109259541Y-128515875D01*
X109259541Y-128515875D02*
X109211922Y-128611113D01*
X109211922Y-128611113D02*
X109211922Y-128706351D01*
X109211922Y-128706351D02*
X109259541Y-128849208D01*
X109259541Y-128849208D02*
X109830969Y-129420637D01*
X109830969Y-129420637D02*
X109211922Y-129420637D01*
X108259541Y-129420637D02*
X108830969Y-129420637D01*
X108545255Y-129420637D02*
X108545255Y-128420637D01*
X108545255Y-128420637D02*
X108640493Y-128563494D01*
X108640493Y-128563494D02*
X108735731Y-128658732D01*
X108735731Y-128658732D02*
X108830969Y-128706351D01*
X224204819Y-92547142D02*
X223728628Y-92213809D01*
X224204819Y-91975714D02*
X223204819Y-91975714D01*
X223204819Y-91975714D02*
X223204819Y-92356666D01*
X223204819Y-92356666D02*
X223252438Y-92451904D01*
X223252438Y-92451904D02*
X223300057Y-92499523D01*
X223300057Y-92499523D02*
X223395295Y-92547142D01*
X223395295Y-92547142D02*
X223538152Y-92547142D01*
X223538152Y-92547142D02*
X223633390Y-92499523D01*
X223633390Y-92499523D02*
X223681009Y-92451904D01*
X223681009Y-92451904D02*
X223728628Y-92356666D01*
X223728628Y-92356666D02*
X223728628Y-91975714D01*
X223300057Y-92928095D02*
X223252438Y-92975714D01*
X223252438Y-92975714D02*
X223204819Y-93070952D01*
X223204819Y-93070952D02*
X223204819Y-93309047D01*
X223204819Y-93309047D02*
X223252438Y-93404285D01*
X223252438Y-93404285D02*
X223300057Y-93451904D01*
X223300057Y-93451904D02*
X223395295Y-93499523D01*
X223395295Y-93499523D02*
X223490533Y-93499523D01*
X223490533Y-93499523D02*
X223633390Y-93451904D01*
X223633390Y-93451904D02*
X224204819Y-92880476D01*
X224204819Y-92880476D02*
X224204819Y-93499523D01*
X223538152Y-94356666D02*
X224204819Y-94356666D01*
X223157200Y-94118571D02*
X223871485Y-93880476D01*
X223871485Y-93880476D02*
X223871485Y-94499523D01*
D11*
X111574318Y-129882856D02*
X110304318Y-129882856D01*
X110304318Y-129882856D02*
X110304318Y-130185237D01*
X110304318Y-130185237D02*
X110364794Y-130366666D01*
X110364794Y-130366666D02*
X110485746Y-130487618D01*
X110485746Y-130487618D02*
X110606699Y-130548095D01*
X110606699Y-130548095D02*
X110848603Y-130608571D01*
X110848603Y-130608571D02*
X111030032Y-130608571D01*
X111030032Y-130608571D02*
X111271937Y-130548095D01*
X111271937Y-130548095D02*
X111392889Y-130487618D01*
X111392889Y-130487618D02*
X111513842Y-130366666D01*
X111513842Y-130366666D02*
X111574318Y-130185237D01*
X111574318Y-130185237D02*
X111574318Y-129882856D01*
X110425270Y-131092380D02*
X110364794Y-131152856D01*
X110364794Y-131152856D02*
X110304318Y-131273809D01*
X110304318Y-131273809D02*
X110304318Y-131576190D01*
X110304318Y-131576190D02*
X110364794Y-131697142D01*
X110364794Y-131697142D02*
X110425270Y-131757618D01*
X110425270Y-131757618D02*
X110546222Y-131818095D01*
X110546222Y-131818095D02*
X110667175Y-131818095D01*
X110667175Y-131818095D02*
X110848603Y-131757618D01*
X110848603Y-131757618D02*
X111574318Y-131031904D01*
X111574318Y-131031904D02*
X111574318Y-131818095D01*
X110425270Y-132301904D02*
X110364794Y-132362380D01*
X110364794Y-132362380D02*
X110304318Y-132483333D01*
X110304318Y-132483333D02*
X110304318Y-132785714D01*
X110304318Y-132785714D02*
X110364794Y-132906666D01*
X110364794Y-132906666D02*
X110425270Y-132967142D01*
X110425270Y-132967142D02*
X110546222Y-133027619D01*
X110546222Y-133027619D02*
X110667175Y-133027619D01*
X110667175Y-133027619D02*
X110848603Y-132967142D01*
X110848603Y-132967142D02*
X111574318Y-132241428D01*
X111574318Y-132241428D02*
X111574318Y-133027619D01*
D10*
X93592857Y-128809580D02*
X93640476Y-128857200D01*
X93640476Y-128857200D02*
X93783333Y-128904819D01*
X93783333Y-128904819D02*
X93878571Y-128904819D01*
X93878571Y-128904819D02*
X94021428Y-128857200D01*
X94021428Y-128857200D02*
X94116666Y-128761961D01*
X94116666Y-128761961D02*
X94164285Y-128666723D01*
X94164285Y-128666723D02*
X94211904Y-128476247D01*
X94211904Y-128476247D02*
X94211904Y-128333390D01*
X94211904Y-128333390D02*
X94164285Y-128142914D01*
X94164285Y-128142914D02*
X94116666Y-128047676D01*
X94116666Y-128047676D02*
X94021428Y-127952438D01*
X94021428Y-127952438D02*
X93878571Y-127904819D01*
X93878571Y-127904819D02*
X93783333Y-127904819D01*
X93783333Y-127904819D02*
X93640476Y-127952438D01*
X93640476Y-127952438D02*
X93592857Y-128000057D01*
X92735714Y-128238152D02*
X92735714Y-128904819D01*
X92973809Y-127857200D02*
X93211904Y-128571485D01*
X93211904Y-128571485D02*
X92592857Y-128571485D01*
X92069047Y-128333390D02*
X92164285Y-128285771D01*
X92164285Y-128285771D02*
X92211904Y-128238152D01*
X92211904Y-128238152D02*
X92259523Y-128142914D01*
X92259523Y-128142914D02*
X92259523Y-128095295D01*
X92259523Y-128095295D02*
X92211904Y-128000057D01*
X92211904Y-128000057D02*
X92164285Y-127952438D01*
X92164285Y-127952438D02*
X92069047Y-127904819D01*
X92069047Y-127904819D02*
X91878571Y-127904819D01*
X91878571Y-127904819D02*
X91783333Y-127952438D01*
X91783333Y-127952438D02*
X91735714Y-128000057D01*
X91735714Y-128000057D02*
X91688095Y-128095295D01*
X91688095Y-128095295D02*
X91688095Y-128142914D01*
X91688095Y-128142914D02*
X91735714Y-128238152D01*
X91735714Y-128238152D02*
X91783333Y-128285771D01*
X91783333Y-128285771D02*
X91878571Y-128333390D01*
X91878571Y-128333390D02*
X92069047Y-128333390D01*
X92069047Y-128333390D02*
X92164285Y-128381009D01*
X92164285Y-128381009D02*
X92211904Y-128428628D01*
X92211904Y-128428628D02*
X92259523Y-128523866D01*
X92259523Y-128523866D02*
X92259523Y-128714342D01*
X92259523Y-128714342D02*
X92211904Y-128809580D01*
X92211904Y-128809580D02*
X92164285Y-128857200D01*
X92164285Y-128857200D02*
X92069047Y-128904819D01*
X92069047Y-128904819D02*
X91878571Y-128904819D01*
X91878571Y-128904819D02*
X91783333Y-128857200D01*
X91783333Y-128857200D02*
X91735714Y-128809580D01*
X91735714Y-128809580D02*
X91688095Y-128714342D01*
X91688095Y-128714342D02*
X91688095Y-128523866D01*
X91688095Y-128523866D02*
X91735714Y-128428628D01*
X91735714Y-128428628D02*
X91783333Y-128381009D01*
X91783333Y-128381009D02*
X91878571Y-128333390D01*
X224204819Y-114857142D02*
X223728628Y-114523809D01*
X224204819Y-114285714D02*
X223204819Y-114285714D01*
X223204819Y-114285714D02*
X223204819Y-114666666D01*
X223204819Y-114666666D02*
X223252438Y-114761904D01*
X223252438Y-114761904D02*
X223300057Y-114809523D01*
X223300057Y-114809523D02*
X223395295Y-114857142D01*
X223395295Y-114857142D02*
X223538152Y-114857142D01*
X223538152Y-114857142D02*
X223633390Y-114809523D01*
X223633390Y-114809523D02*
X223681009Y-114761904D01*
X223681009Y-114761904D02*
X223728628Y-114666666D01*
X223728628Y-114666666D02*
X223728628Y-114285714D01*
X223300057Y-115238095D02*
X223252438Y-115285714D01*
X223252438Y-115285714D02*
X223204819Y-115380952D01*
X223204819Y-115380952D02*
X223204819Y-115619047D01*
X223204819Y-115619047D02*
X223252438Y-115714285D01*
X223252438Y-115714285D02*
X223300057Y-115761904D01*
X223300057Y-115761904D02*
X223395295Y-115809523D01*
X223395295Y-115809523D02*
X223490533Y-115809523D01*
X223490533Y-115809523D02*
X223633390Y-115761904D01*
X223633390Y-115761904D02*
X224204819Y-115190476D01*
X224204819Y-115190476D02*
X224204819Y-115809523D01*
X223204819Y-116428571D02*
X223204819Y-116523809D01*
X223204819Y-116523809D02*
X223252438Y-116619047D01*
X223252438Y-116619047D02*
X223300057Y-116666666D01*
X223300057Y-116666666D02*
X223395295Y-116714285D01*
X223395295Y-116714285D02*
X223585771Y-116761904D01*
X223585771Y-116761904D02*
X223823866Y-116761904D01*
X223823866Y-116761904D02*
X224014342Y-116714285D01*
X224014342Y-116714285D02*
X224109580Y-116666666D01*
X224109580Y-116666666D02*
X224157200Y-116619047D01*
X224157200Y-116619047D02*
X224204819Y-116523809D01*
X224204819Y-116523809D02*
X224204819Y-116428571D01*
X224204819Y-116428571D02*
X224157200Y-116333333D01*
X224157200Y-116333333D02*
X224109580Y-116285714D01*
X224109580Y-116285714D02*
X224014342Y-116238095D01*
X224014342Y-116238095D02*
X223823866Y-116190476D01*
X223823866Y-116190476D02*
X223585771Y-116190476D01*
X223585771Y-116190476D02*
X223395295Y-116238095D01*
X223395295Y-116238095D02*
X223300057Y-116285714D01*
X223300057Y-116285714D02*
X223252438Y-116333333D01*
X223252438Y-116333333D02*
X223204819Y-116428571D01*
X192854819Y-52357142D02*
X192378628Y-52023809D01*
X192854819Y-51785714D02*
X191854819Y-51785714D01*
X191854819Y-51785714D02*
X191854819Y-52166666D01*
X191854819Y-52166666D02*
X191902438Y-52261904D01*
X191902438Y-52261904D02*
X191950057Y-52309523D01*
X191950057Y-52309523D02*
X192045295Y-52357142D01*
X192045295Y-52357142D02*
X192188152Y-52357142D01*
X192188152Y-52357142D02*
X192283390Y-52309523D01*
X192283390Y-52309523D02*
X192331009Y-52261904D01*
X192331009Y-52261904D02*
X192378628Y-52166666D01*
X192378628Y-52166666D02*
X192378628Y-51785714D01*
X192188152Y-53214285D02*
X192854819Y-53214285D01*
X191807200Y-52976190D02*
X192521485Y-52738095D01*
X192521485Y-52738095D02*
X192521485Y-53357142D01*
X191854819Y-53928571D02*
X191854819Y-54023809D01*
X191854819Y-54023809D02*
X191902438Y-54119047D01*
X191902438Y-54119047D02*
X191950057Y-54166666D01*
X191950057Y-54166666D02*
X192045295Y-54214285D01*
X192045295Y-54214285D02*
X192235771Y-54261904D01*
X192235771Y-54261904D02*
X192473866Y-54261904D01*
X192473866Y-54261904D02*
X192664342Y-54214285D01*
X192664342Y-54214285D02*
X192759580Y-54166666D01*
X192759580Y-54166666D02*
X192807200Y-54119047D01*
X192807200Y-54119047D02*
X192854819Y-54023809D01*
X192854819Y-54023809D02*
X192854819Y-53928571D01*
X192854819Y-53928571D02*
X192807200Y-53833333D01*
X192807200Y-53833333D02*
X192759580Y-53785714D01*
X192759580Y-53785714D02*
X192664342Y-53738095D01*
X192664342Y-53738095D02*
X192473866Y-53690476D01*
X192473866Y-53690476D02*
X192235771Y-53690476D01*
X192235771Y-53690476D02*
X192045295Y-53738095D01*
X192045295Y-53738095D02*
X191950057Y-53785714D01*
X191950057Y-53785714D02*
X191902438Y-53833333D01*
X191902438Y-53833333D02*
X191854819Y-53928571D01*
X98954819Y-110773333D02*
X98478628Y-110440000D01*
X98954819Y-110201905D02*
X97954819Y-110201905D01*
X97954819Y-110201905D02*
X97954819Y-110582857D01*
X97954819Y-110582857D02*
X98002438Y-110678095D01*
X98002438Y-110678095D02*
X98050057Y-110725714D01*
X98050057Y-110725714D02*
X98145295Y-110773333D01*
X98145295Y-110773333D02*
X98288152Y-110773333D01*
X98288152Y-110773333D02*
X98383390Y-110725714D01*
X98383390Y-110725714D02*
X98431009Y-110678095D01*
X98431009Y-110678095D02*
X98478628Y-110582857D01*
X98478628Y-110582857D02*
X98478628Y-110201905D01*
X98954819Y-111725714D02*
X98954819Y-111154286D01*
X98954819Y-111440000D02*
X97954819Y-111440000D01*
X97954819Y-111440000D02*
X98097676Y-111344762D01*
X98097676Y-111344762D02*
X98192914Y-111249524D01*
X98192914Y-111249524D02*
X98240533Y-111154286D01*
X207754819Y-94857142D02*
X207278628Y-94523809D01*
X207754819Y-94285714D02*
X206754819Y-94285714D01*
X206754819Y-94285714D02*
X206754819Y-94666666D01*
X206754819Y-94666666D02*
X206802438Y-94761904D01*
X206802438Y-94761904D02*
X206850057Y-94809523D01*
X206850057Y-94809523D02*
X206945295Y-94857142D01*
X206945295Y-94857142D02*
X207088152Y-94857142D01*
X207088152Y-94857142D02*
X207183390Y-94809523D01*
X207183390Y-94809523D02*
X207231009Y-94761904D01*
X207231009Y-94761904D02*
X207278628Y-94666666D01*
X207278628Y-94666666D02*
X207278628Y-94285714D01*
X206850057Y-95238095D02*
X206802438Y-95285714D01*
X206802438Y-95285714D02*
X206754819Y-95380952D01*
X206754819Y-95380952D02*
X206754819Y-95619047D01*
X206754819Y-95619047D02*
X206802438Y-95714285D01*
X206802438Y-95714285D02*
X206850057Y-95761904D01*
X206850057Y-95761904D02*
X206945295Y-95809523D01*
X206945295Y-95809523D02*
X207040533Y-95809523D01*
X207040533Y-95809523D02*
X207183390Y-95761904D01*
X207183390Y-95761904D02*
X207754819Y-95190476D01*
X207754819Y-95190476D02*
X207754819Y-95809523D01*
X207183390Y-96380952D02*
X207135771Y-96285714D01*
X207135771Y-96285714D02*
X207088152Y-96238095D01*
X207088152Y-96238095D02*
X206992914Y-96190476D01*
X206992914Y-96190476D02*
X206945295Y-96190476D01*
X206945295Y-96190476D02*
X206850057Y-96238095D01*
X206850057Y-96238095D02*
X206802438Y-96285714D01*
X206802438Y-96285714D02*
X206754819Y-96380952D01*
X206754819Y-96380952D02*
X206754819Y-96571428D01*
X206754819Y-96571428D02*
X206802438Y-96666666D01*
X206802438Y-96666666D02*
X206850057Y-96714285D01*
X206850057Y-96714285D02*
X206945295Y-96761904D01*
X206945295Y-96761904D02*
X206992914Y-96761904D01*
X206992914Y-96761904D02*
X207088152Y-96714285D01*
X207088152Y-96714285D02*
X207135771Y-96666666D01*
X207135771Y-96666666D02*
X207183390Y-96571428D01*
X207183390Y-96571428D02*
X207183390Y-96380952D01*
X207183390Y-96380952D02*
X207231009Y-96285714D01*
X207231009Y-96285714D02*
X207278628Y-96238095D01*
X207278628Y-96238095D02*
X207373866Y-96190476D01*
X207373866Y-96190476D02*
X207564342Y-96190476D01*
X207564342Y-96190476D02*
X207659580Y-96238095D01*
X207659580Y-96238095D02*
X207707200Y-96285714D01*
X207707200Y-96285714D02*
X207754819Y-96380952D01*
X207754819Y-96380952D02*
X207754819Y-96571428D01*
X207754819Y-96571428D02*
X207707200Y-96666666D01*
X207707200Y-96666666D02*
X207659580Y-96714285D01*
X207659580Y-96714285D02*
X207564342Y-96761904D01*
X207564342Y-96761904D02*
X207373866Y-96761904D01*
X207373866Y-96761904D02*
X207278628Y-96714285D01*
X207278628Y-96714285D02*
X207231009Y-96666666D01*
X207231009Y-96666666D02*
X207183390Y-96571428D01*
X174254819Y-52357142D02*
X173778628Y-52023809D01*
X174254819Y-51785714D02*
X173254819Y-51785714D01*
X173254819Y-51785714D02*
X173254819Y-52166666D01*
X173254819Y-52166666D02*
X173302438Y-52261904D01*
X173302438Y-52261904D02*
X173350057Y-52309523D01*
X173350057Y-52309523D02*
X173445295Y-52357142D01*
X173445295Y-52357142D02*
X173588152Y-52357142D01*
X173588152Y-52357142D02*
X173683390Y-52309523D01*
X173683390Y-52309523D02*
X173731009Y-52261904D01*
X173731009Y-52261904D02*
X173778628Y-52166666D01*
X173778628Y-52166666D02*
X173778628Y-51785714D01*
X173254819Y-52690476D02*
X173254819Y-53309523D01*
X173254819Y-53309523D02*
X173635771Y-52976190D01*
X173635771Y-52976190D02*
X173635771Y-53119047D01*
X173635771Y-53119047D02*
X173683390Y-53214285D01*
X173683390Y-53214285D02*
X173731009Y-53261904D01*
X173731009Y-53261904D02*
X173826247Y-53309523D01*
X173826247Y-53309523D02*
X174064342Y-53309523D01*
X174064342Y-53309523D02*
X174159580Y-53261904D01*
X174159580Y-53261904D02*
X174207200Y-53214285D01*
X174207200Y-53214285D02*
X174254819Y-53119047D01*
X174254819Y-53119047D02*
X174254819Y-52833333D01*
X174254819Y-52833333D02*
X174207200Y-52738095D01*
X174207200Y-52738095D02*
X174159580Y-52690476D01*
X173254819Y-54166666D02*
X173254819Y-53976190D01*
X173254819Y-53976190D02*
X173302438Y-53880952D01*
X173302438Y-53880952D02*
X173350057Y-53833333D01*
X173350057Y-53833333D02*
X173492914Y-53738095D01*
X173492914Y-53738095D02*
X173683390Y-53690476D01*
X173683390Y-53690476D02*
X174064342Y-53690476D01*
X174064342Y-53690476D02*
X174159580Y-53738095D01*
X174159580Y-53738095D02*
X174207200Y-53785714D01*
X174207200Y-53785714D02*
X174254819Y-53880952D01*
X174254819Y-53880952D02*
X174254819Y-54071428D01*
X174254819Y-54071428D02*
X174207200Y-54166666D01*
X174207200Y-54166666D02*
X174159580Y-54214285D01*
X174159580Y-54214285D02*
X174064342Y-54261904D01*
X174064342Y-54261904D02*
X173826247Y-54261904D01*
X173826247Y-54261904D02*
X173731009Y-54214285D01*
X173731009Y-54214285D02*
X173683390Y-54166666D01*
X173683390Y-54166666D02*
X173635771Y-54071428D01*
X173635771Y-54071428D02*
X173635771Y-53880952D01*
X173635771Y-53880952D02*
X173683390Y-53785714D01*
X173683390Y-53785714D02*
X173731009Y-53738095D01*
X173731009Y-53738095D02*
X173826247Y-53690476D01*
X72164819Y-112573333D02*
X71688628Y-112240000D01*
X72164819Y-112001905D02*
X71164819Y-112001905D01*
X71164819Y-112001905D02*
X71164819Y-112382857D01*
X71164819Y-112382857D02*
X71212438Y-112478095D01*
X71212438Y-112478095D02*
X71260057Y-112525714D01*
X71260057Y-112525714D02*
X71355295Y-112573333D01*
X71355295Y-112573333D02*
X71498152Y-112573333D01*
X71498152Y-112573333D02*
X71593390Y-112525714D01*
X71593390Y-112525714D02*
X71641009Y-112478095D01*
X71641009Y-112478095D02*
X71688628Y-112382857D01*
X71688628Y-112382857D02*
X71688628Y-112001905D01*
X71164819Y-113478095D02*
X71164819Y-113001905D01*
X71164819Y-113001905D02*
X71641009Y-112954286D01*
X71641009Y-112954286D02*
X71593390Y-113001905D01*
X71593390Y-113001905D02*
X71545771Y-113097143D01*
X71545771Y-113097143D02*
X71545771Y-113335238D01*
X71545771Y-113335238D02*
X71593390Y-113430476D01*
X71593390Y-113430476D02*
X71641009Y-113478095D01*
X71641009Y-113478095D02*
X71736247Y-113525714D01*
X71736247Y-113525714D02*
X71974342Y-113525714D01*
X71974342Y-113525714D02*
X72069580Y-113478095D01*
X72069580Y-113478095D02*
X72117200Y-113430476D01*
X72117200Y-113430476D02*
X72164819Y-113335238D01*
X72164819Y-113335238D02*
X72164819Y-113097143D01*
X72164819Y-113097143D02*
X72117200Y-113001905D01*
X72117200Y-113001905D02*
X72069580Y-112954286D01*
X235754819Y-51957142D02*
X235278628Y-51623809D01*
X235754819Y-51385714D02*
X234754819Y-51385714D01*
X234754819Y-51385714D02*
X234754819Y-51766666D01*
X234754819Y-51766666D02*
X234802438Y-51861904D01*
X234802438Y-51861904D02*
X234850057Y-51909523D01*
X234850057Y-51909523D02*
X234945295Y-51957142D01*
X234945295Y-51957142D02*
X235088152Y-51957142D01*
X235088152Y-51957142D02*
X235183390Y-51909523D01*
X235183390Y-51909523D02*
X235231009Y-51861904D01*
X235231009Y-51861904D02*
X235278628Y-51766666D01*
X235278628Y-51766666D02*
X235278628Y-51385714D01*
X234754819Y-52861904D02*
X234754819Y-52385714D01*
X234754819Y-52385714D02*
X235231009Y-52338095D01*
X235231009Y-52338095D02*
X235183390Y-52385714D01*
X235183390Y-52385714D02*
X235135771Y-52480952D01*
X235135771Y-52480952D02*
X235135771Y-52719047D01*
X235135771Y-52719047D02*
X235183390Y-52814285D01*
X235183390Y-52814285D02*
X235231009Y-52861904D01*
X235231009Y-52861904D02*
X235326247Y-52909523D01*
X235326247Y-52909523D02*
X235564342Y-52909523D01*
X235564342Y-52909523D02*
X235659580Y-52861904D01*
X235659580Y-52861904D02*
X235707200Y-52814285D01*
X235707200Y-52814285D02*
X235754819Y-52719047D01*
X235754819Y-52719047D02*
X235754819Y-52480952D01*
X235754819Y-52480952D02*
X235707200Y-52385714D01*
X235707200Y-52385714D02*
X235659580Y-52338095D01*
X235754819Y-53385714D02*
X235754819Y-53576190D01*
X235754819Y-53576190D02*
X235707200Y-53671428D01*
X235707200Y-53671428D02*
X235659580Y-53719047D01*
X235659580Y-53719047D02*
X235516723Y-53814285D01*
X235516723Y-53814285D02*
X235326247Y-53861904D01*
X235326247Y-53861904D02*
X234945295Y-53861904D01*
X234945295Y-53861904D02*
X234850057Y-53814285D01*
X234850057Y-53814285D02*
X234802438Y-53766666D01*
X234802438Y-53766666D02*
X234754819Y-53671428D01*
X234754819Y-53671428D02*
X234754819Y-53480952D01*
X234754819Y-53480952D02*
X234802438Y-53385714D01*
X234802438Y-53385714D02*
X234850057Y-53338095D01*
X234850057Y-53338095D02*
X234945295Y-53290476D01*
X234945295Y-53290476D02*
X235183390Y-53290476D01*
X235183390Y-53290476D02*
X235278628Y-53338095D01*
X235278628Y-53338095D02*
X235326247Y-53385714D01*
X235326247Y-53385714D02*
X235373866Y-53480952D01*
X235373866Y-53480952D02*
X235373866Y-53671428D01*
X235373866Y-53671428D02*
X235326247Y-53766666D01*
X235326247Y-53766666D02*
X235278628Y-53814285D01*
X235278628Y-53814285D02*
X235183390Y-53861904D01*
X123136484Y-110691149D02*
X123136484Y-111500672D01*
X123136484Y-111500672D02*
X123088865Y-111595910D01*
X123088865Y-111595910D02*
X123041246Y-111643530D01*
X123041246Y-111643530D02*
X122946008Y-111691149D01*
X122946008Y-111691149D02*
X122755532Y-111691149D01*
X122755532Y-111691149D02*
X122660294Y-111643530D01*
X122660294Y-111643530D02*
X122612675Y-111595910D01*
X122612675Y-111595910D02*
X122565056Y-111500672D01*
X122565056Y-111500672D02*
X122565056Y-110691149D01*
X121565056Y-111691149D02*
X122136484Y-111691149D01*
X121850770Y-111691149D02*
X121850770Y-110691149D01*
X121850770Y-110691149D02*
X121946008Y-110834006D01*
X121946008Y-110834006D02*
X122041246Y-110929244D01*
X122041246Y-110929244D02*
X122136484Y-110976863D01*
X98119047Y-134184819D02*
X98452380Y-133708628D01*
X98690475Y-134184819D02*
X98690475Y-133184819D01*
X98690475Y-133184819D02*
X98309523Y-133184819D01*
X98309523Y-133184819D02*
X98214285Y-133232438D01*
X98214285Y-133232438D02*
X98166666Y-133280057D01*
X98166666Y-133280057D02*
X98119047Y-133375295D01*
X98119047Y-133375295D02*
X98119047Y-133518152D01*
X98119047Y-133518152D02*
X98166666Y-133613390D01*
X98166666Y-133613390D02*
X98214285Y-133661009D01*
X98214285Y-133661009D02*
X98309523Y-133708628D01*
X98309523Y-133708628D02*
X98690475Y-133708628D01*
X97166666Y-134184819D02*
X97738094Y-134184819D01*
X97452380Y-134184819D02*
X97452380Y-133184819D01*
X97452380Y-133184819D02*
X97547618Y-133327676D01*
X97547618Y-133327676D02*
X97642856Y-133422914D01*
X97642856Y-133422914D02*
X97738094Y-133470533D01*
X96214285Y-134184819D02*
X96785713Y-134184819D01*
X96499999Y-134184819D02*
X96499999Y-133184819D01*
X96499999Y-133184819D02*
X96595237Y-133327676D01*
X96595237Y-133327676D02*
X96690475Y-133422914D01*
X96690475Y-133422914D02*
X96785713Y-133470533D01*
X95357142Y-133518152D02*
X95357142Y-134184819D01*
X95595237Y-133137200D02*
X95833332Y-133851485D01*
X95833332Y-133851485D02*
X95214285Y-133851485D01*
X102154819Y-130685714D02*
X101154819Y-130685714D01*
X101154819Y-130685714D02*
X101154819Y-130923809D01*
X101154819Y-130923809D02*
X101202438Y-131066666D01*
X101202438Y-131066666D02*
X101297676Y-131161904D01*
X101297676Y-131161904D02*
X101392914Y-131209523D01*
X101392914Y-131209523D02*
X101583390Y-131257142D01*
X101583390Y-131257142D02*
X101726247Y-131257142D01*
X101726247Y-131257142D02*
X101916723Y-131209523D01*
X101916723Y-131209523D02*
X102011961Y-131161904D01*
X102011961Y-131161904D02*
X102107200Y-131066666D01*
X102107200Y-131066666D02*
X102154819Y-130923809D01*
X102154819Y-130923809D02*
X102154819Y-130685714D01*
X102154819Y-132209523D02*
X102154819Y-131638095D01*
X102154819Y-131923809D02*
X101154819Y-131923809D01*
X101154819Y-131923809D02*
X101297676Y-131828571D01*
X101297676Y-131828571D02*
X101392914Y-131733333D01*
X101392914Y-131733333D02*
X101440533Y-131638095D01*
X101154819Y-133066666D02*
X101154819Y-132876190D01*
X101154819Y-132876190D02*
X101202438Y-132780952D01*
X101202438Y-132780952D02*
X101250057Y-132733333D01*
X101250057Y-132733333D02*
X101392914Y-132638095D01*
X101392914Y-132638095D02*
X101583390Y-132590476D01*
X101583390Y-132590476D02*
X101964342Y-132590476D01*
X101964342Y-132590476D02*
X102059580Y-132638095D01*
X102059580Y-132638095D02*
X102107200Y-132685714D01*
X102107200Y-132685714D02*
X102154819Y-132780952D01*
X102154819Y-132780952D02*
X102154819Y-132971428D01*
X102154819Y-132971428D02*
X102107200Y-133066666D01*
X102107200Y-133066666D02*
X102059580Y-133114285D01*
X102059580Y-133114285D02*
X101964342Y-133161904D01*
X101964342Y-133161904D02*
X101726247Y-133161904D01*
X101726247Y-133161904D02*
X101631009Y-133114285D01*
X101631009Y-133114285D02*
X101583390Y-133066666D01*
X101583390Y-133066666D02*
X101535771Y-132971428D01*
X101535771Y-132971428D02*
X101535771Y-132780952D01*
X101535771Y-132780952D02*
X101583390Y-132685714D01*
X101583390Y-132685714D02*
X101631009Y-132638095D01*
X101631009Y-132638095D02*
X101726247Y-132590476D01*
X117254819Y-130685714D02*
X116254819Y-130685714D01*
X116254819Y-130685714D02*
X116254819Y-130923809D01*
X116254819Y-130923809D02*
X116302438Y-131066666D01*
X116302438Y-131066666D02*
X116397676Y-131161904D01*
X116397676Y-131161904D02*
X116492914Y-131209523D01*
X116492914Y-131209523D02*
X116683390Y-131257142D01*
X116683390Y-131257142D02*
X116826247Y-131257142D01*
X116826247Y-131257142D02*
X117016723Y-131209523D01*
X117016723Y-131209523D02*
X117111961Y-131161904D01*
X117111961Y-131161904D02*
X117207200Y-131066666D01*
X117207200Y-131066666D02*
X117254819Y-130923809D01*
X117254819Y-130923809D02*
X117254819Y-130685714D01*
X116350057Y-131638095D02*
X116302438Y-131685714D01*
X116302438Y-131685714D02*
X116254819Y-131780952D01*
X116254819Y-131780952D02*
X116254819Y-132019047D01*
X116254819Y-132019047D02*
X116302438Y-132114285D01*
X116302438Y-132114285D02*
X116350057Y-132161904D01*
X116350057Y-132161904D02*
X116445295Y-132209523D01*
X116445295Y-132209523D02*
X116540533Y-132209523D01*
X116540533Y-132209523D02*
X116683390Y-132161904D01*
X116683390Y-132161904D02*
X117254819Y-131590476D01*
X117254819Y-131590476D02*
X117254819Y-132209523D01*
X116254819Y-132828571D02*
X116254819Y-132923809D01*
X116254819Y-132923809D02*
X116302438Y-133019047D01*
X116302438Y-133019047D02*
X116350057Y-133066666D01*
X116350057Y-133066666D02*
X116445295Y-133114285D01*
X116445295Y-133114285D02*
X116635771Y-133161904D01*
X116635771Y-133161904D02*
X116873866Y-133161904D01*
X116873866Y-133161904D02*
X117064342Y-133114285D01*
X117064342Y-133114285D02*
X117159580Y-133066666D01*
X117159580Y-133066666D02*
X117207200Y-133019047D01*
X117207200Y-133019047D02*
X117254819Y-132923809D01*
X117254819Y-132923809D02*
X117254819Y-132828571D01*
X117254819Y-132828571D02*
X117207200Y-132733333D01*
X117207200Y-132733333D02*
X117159580Y-132685714D01*
X117159580Y-132685714D02*
X117064342Y-132638095D01*
X117064342Y-132638095D02*
X116873866Y-132590476D01*
X116873866Y-132590476D02*
X116635771Y-132590476D01*
X116635771Y-132590476D02*
X116445295Y-132638095D01*
X116445295Y-132638095D02*
X116350057Y-132685714D01*
X116350057Y-132685714D02*
X116302438Y-132733333D01*
X116302438Y-132733333D02*
X116254819Y-132828571D01*
X208316666Y-135959580D02*
X208364285Y-136007200D01*
X208364285Y-136007200D02*
X208507142Y-136054819D01*
X208507142Y-136054819D02*
X208602380Y-136054819D01*
X208602380Y-136054819D02*
X208745237Y-136007200D01*
X208745237Y-136007200D02*
X208840475Y-135911961D01*
X208840475Y-135911961D02*
X208888094Y-135816723D01*
X208888094Y-135816723D02*
X208935713Y-135626247D01*
X208935713Y-135626247D02*
X208935713Y-135483390D01*
X208935713Y-135483390D02*
X208888094Y-135292914D01*
X208888094Y-135292914D02*
X208840475Y-135197676D01*
X208840475Y-135197676D02*
X208745237Y-135102438D01*
X208745237Y-135102438D02*
X208602380Y-135054819D01*
X208602380Y-135054819D02*
X208507142Y-135054819D01*
X208507142Y-135054819D02*
X208364285Y-135102438D01*
X208364285Y-135102438D02*
X208316666Y-135150057D01*
X207459523Y-135388152D02*
X207459523Y-136054819D01*
X207697618Y-135007200D02*
X207935713Y-135721485D01*
X207935713Y-135721485D02*
X207316666Y-135721485D01*
X195782857Y-96954819D02*
X196116190Y-96478628D01*
X196354285Y-96954819D02*
X196354285Y-95954819D01*
X196354285Y-95954819D02*
X195973333Y-95954819D01*
X195973333Y-95954819D02*
X195878095Y-96002438D01*
X195878095Y-96002438D02*
X195830476Y-96050057D01*
X195830476Y-96050057D02*
X195782857Y-96145295D01*
X195782857Y-96145295D02*
X195782857Y-96288152D01*
X195782857Y-96288152D02*
X195830476Y-96383390D01*
X195830476Y-96383390D02*
X195878095Y-96431009D01*
X195878095Y-96431009D02*
X195973333Y-96478628D01*
X195973333Y-96478628D02*
X196354285Y-96478628D01*
X195401904Y-96050057D02*
X195354285Y-96002438D01*
X195354285Y-96002438D02*
X195259047Y-95954819D01*
X195259047Y-95954819D02*
X195020952Y-95954819D01*
X195020952Y-95954819D02*
X194925714Y-96002438D01*
X194925714Y-96002438D02*
X194878095Y-96050057D01*
X194878095Y-96050057D02*
X194830476Y-96145295D01*
X194830476Y-96145295D02*
X194830476Y-96240533D01*
X194830476Y-96240533D02*
X194878095Y-96383390D01*
X194878095Y-96383390D02*
X195449523Y-96954819D01*
X195449523Y-96954819D02*
X194830476Y-96954819D01*
X193973333Y-95954819D02*
X194163809Y-95954819D01*
X194163809Y-95954819D02*
X194259047Y-96002438D01*
X194259047Y-96002438D02*
X194306666Y-96050057D01*
X194306666Y-96050057D02*
X194401904Y-96192914D01*
X194401904Y-96192914D02*
X194449523Y-96383390D01*
X194449523Y-96383390D02*
X194449523Y-96764342D01*
X194449523Y-96764342D02*
X194401904Y-96859580D01*
X194401904Y-96859580D02*
X194354285Y-96907200D01*
X194354285Y-96907200D02*
X194259047Y-96954819D01*
X194259047Y-96954819D02*
X194068571Y-96954819D01*
X194068571Y-96954819D02*
X193973333Y-96907200D01*
X193973333Y-96907200D02*
X193925714Y-96859580D01*
X193925714Y-96859580D02*
X193878095Y-96764342D01*
X193878095Y-96764342D02*
X193878095Y-96526247D01*
X193878095Y-96526247D02*
X193925714Y-96431009D01*
X193925714Y-96431009D02*
X193973333Y-96383390D01*
X193973333Y-96383390D02*
X194068571Y-96335771D01*
X194068571Y-96335771D02*
X194259047Y-96335771D01*
X194259047Y-96335771D02*
X194354285Y-96383390D01*
X194354285Y-96383390D02*
X194401904Y-96431009D01*
X194401904Y-96431009D02*
X194449523Y-96526247D01*
X123237674Y-102856569D02*
X123237674Y-103666092D01*
X123237674Y-103666092D02*
X123190055Y-103761330D01*
X123190055Y-103761330D02*
X123142436Y-103808950D01*
X123142436Y-103808950D02*
X123047198Y-103856569D01*
X123047198Y-103856569D02*
X122856722Y-103856569D01*
X122856722Y-103856569D02*
X122761484Y-103808950D01*
X122761484Y-103808950D02*
X122713865Y-103761330D01*
X122713865Y-103761330D02*
X122666246Y-103666092D01*
X122666246Y-103666092D02*
X122666246Y-102856569D01*
X122285293Y-102856569D02*
X121666246Y-102856569D01*
X121666246Y-102856569D02*
X121999579Y-103237521D01*
X121999579Y-103237521D02*
X121856722Y-103237521D01*
X121856722Y-103237521D02*
X121761484Y-103285140D01*
X121761484Y-103285140D02*
X121713865Y-103332759D01*
X121713865Y-103332759D02*
X121666246Y-103427997D01*
X121666246Y-103427997D02*
X121666246Y-103666092D01*
X121666246Y-103666092D02*
X121713865Y-103761330D01*
X121713865Y-103761330D02*
X121761484Y-103808950D01*
X121761484Y-103808950D02*
X121856722Y-103856569D01*
X121856722Y-103856569D02*
X122142436Y-103856569D01*
X122142436Y-103856569D02*
X122237674Y-103808950D01*
X122237674Y-103808950D02*
X122285293Y-103761330D01*
X86354819Y-109457142D02*
X85878628Y-109123809D01*
X86354819Y-108885714D02*
X85354819Y-108885714D01*
X85354819Y-108885714D02*
X85354819Y-109266666D01*
X85354819Y-109266666D02*
X85402438Y-109361904D01*
X85402438Y-109361904D02*
X85450057Y-109409523D01*
X85450057Y-109409523D02*
X85545295Y-109457142D01*
X85545295Y-109457142D02*
X85688152Y-109457142D01*
X85688152Y-109457142D02*
X85783390Y-109409523D01*
X85783390Y-109409523D02*
X85831009Y-109361904D01*
X85831009Y-109361904D02*
X85878628Y-109266666D01*
X85878628Y-109266666D02*
X85878628Y-108885714D01*
X85688152Y-110314285D02*
X86354819Y-110314285D01*
X85307200Y-110076190D02*
X86021485Y-109838095D01*
X86021485Y-109838095D02*
X86021485Y-110457142D01*
X85783390Y-110980952D02*
X85735771Y-110885714D01*
X85735771Y-110885714D02*
X85688152Y-110838095D01*
X85688152Y-110838095D02*
X85592914Y-110790476D01*
X85592914Y-110790476D02*
X85545295Y-110790476D01*
X85545295Y-110790476D02*
X85450057Y-110838095D01*
X85450057Y-110838095D02*
X85402438Y-110885714D01*
X85402438Y-110885714D02*
X85354819Y-110980952D01*
X85354819Y-110980952D02*
X85354819Y-111171428D01*
X85354819Y-111171428D02*
X85402438Y-111266666D01*
X85402438Y-111266666D02*
X85450057Y-111314285D01*
X85450057Y-111314285D02*
X85545295Y-111361904D01*
X85545295Y-111361904D02*
X85592914Y-111361904D01*
X85592914Y-111361904D02*
X85688152Y-111314285D01*
X85688152Y-111314285D02*
X85735771Y-111266666D01*
X85735771Y-111266666D02*
X85783390Y-111171428D01*
X85783390Y-111171428D02*
X85783390Y-110980952D01*
X85783390Y-110980952D02*
X85831009Y-110885714D01*
X85831009Y-110885714D02*
X85878628Y-110838095D01*
X85878628Y-110838095D02*
X85973866Y-110790476D01*
X85973866Y-110790476D02*
X86164342Y-110790476D01*
X86164342Y-110790476D02*
X86259580Y-110838095D01*
X86259580Y-110838095D02*
X86307200Y-110885714D01*
X86307200Y-110885714D02*
X86354819Y-110980952D01*
X86354819Y-110980952D02*
X86354819Y-111171428D01*
X86354819Y-111171428D02*
X86307200Y-111266666D01*
X86307200Y-111266666D02*
X86259580Y-111314285D01*
X86259580Y-111314285D02*
X86164342Y-111361904D01*
X86164342Y-111361904D02*
X85973866Y-111361904D01*
X85973866Y-111361904D02*
X85878628Y-111314285D01*
X85878628Y-111314285D02*
X85831009Y-111266666D01*
X85831009Y-111266666D02*
X85783390Y-111171428D01*
X197882857Y-95554819D02*
X198216190Y-95078628D01*
X198454285Y-95554819D02*
X198454285Y-94554819D01*
X198454285Y-94554819D02*
X198073333Y-94554819D01*
X198073333Y-94554819D02*
X197978095Y-94602438D01*
X197978095Y-94602438D02*
X197930476Y-94650057D01*
X197930476Y-94650057D02*
X197882857Y-94745295D01*
X197882857Y-94745295D02*
X197882857Y-94888152D01*
X197882857Y-94888152D02*
X197930476Y-94983390D01*
X197930476Y-94983390D02*
X197978095Y-95031009D01*
X197978095Y-95031009D02*
X198073333Y-95078628D01*
X198073333Y-95078628D02*
X198454285Y-95078628D01*
X197549523Y-94554819D02*
X196930476Y-94554819D01*
X196930476Y-94554819D02*
X197263809Y-94935771D01*
X197263809Y-94935771D02*
X197120952Y-94935771D01*
X197120952Y-94935771D02*
X197025714Y-94983390D01*
X197025714Y-94983390D02*
X196978095Y-95031009D01*
X196978095Y-95031009D02*
X196930476Y-95126247D01*
X196930476Y-95126247D02*
X196930476Y-95364342D01*
X196930476Y-95364342D02*
X196978095Y-95459580D01*
X196978095Y-95459580D02*
X197025714Y-95507200D01*
X197025714Y-95507200D02*
X197120952Y-95554819D01*
X197120952Y-95554819D02*
X197406666Y-95554819D01*
X197406666Y-95554819D02*
X197501904Y-95507200D01*
X197501904Y-95507200D02*
X197549523Y-95459580D01*
X196311428Y-94554819D02*
X196216190Y-94554819D01*
X196216190Y-94554819D02*
X196120952Y-94602438D01*
X196120952Y-94602438D02*
X196073333Y-94650057D01*
X196073333Y-94650057D02*
X196025714Y-94745295D01*
X196025714Y-94745295D02*
X195978095Y-94935771D01*
X195978095Y-94935771D02*
X195978095Y-95173866D01*
X195978095Y-95173866D02*
X196025714Y-95364342D01*
X196025714Y-95364342D02*
X196073333Y-95459580D01*
X196073333Y-95459580D02*
X196120952Y-95507200D01*
X196120952Y-95507200D02*
X196216190Y-95554819D01*
X196216190Y-95554819D02*
X196311428Y-95554819D01*
X196311428Y-95554819D02*
X196406666Y-95507200D01*
X196406666Y-95507200D02*
X196454285Y-95459580D01*
X196454285Y-95459580D02*
X196501904Y-95364342D01*
X196501904Y-95364342D02*
X196549523Y-95173866D01*
X196549523Y-95173866D02*
X196549523Y-94935771D01*
X196549523Y-94935771D02*
X196501904Y-94745295D01*
X196501904Y-94745295D02*
X196454285Y-94650057D01*
X196454285Y-94650057D02*
X196406666Y-94602438D01*
X196406666Y-94602438D02*
X196311428Y-94554819D01*
X108692857Y-128809580D02*
X108740476Y-128857200D01*
X108740476Y-128857200D02*
X108883333Y-128904819D01*
X108883333Y-128904819D02*
X108978571Y-128904819D01*
X108978571Y-128904819D02*
X109121428Y-128857200D01*
X109121428Y-128857200D02*
X109216666Y-128761961D01*
X109216666Y-128761961D02*
X109264285Y-128666723D01*
X109264285Y-128666723D02*
X109311904Y-128476247D01*
X109311904Y-128476247D02*
X109311904Y-128333390D01*
X109311904Y-128333390D02*
X109264285Y-128142914D01*
X109264285Y-128142914D02*
X109216666Y-128047676D01*
X109216666Y-128047676D02*
X109121428Y-127952438D01*
X109121428Y-127952438D02*
X108978571Y-127904819D01*
X108978571Y-127904819D02*
X108883333Y-127904819D01*
X108883333Y-127904819D02*
X108740476Y-127952438D01*
X108740476Y-127952438D02*
X108692857Y-128000057D01*
X107788095Y-127904819D02*
X108264285Y-127904819D01*
X108264285Y-127904819D02*
X108311904Y-128381009D01*
X108311904Y-128381009D02*
X108264285Y-128333390D01*
X108264285Y-128333390D02*
X108169047Y-128285771D01*
X108169047Y-128285771D02*
X107930952Y-128285771D01*
X107930952Y-128285771D02*
X107835714Y-128333390D01*
X107835714Y-128333390D02*
X107788095Y-128381009D01*
X107788095Y-128381009D02*
X107740476Y-128476247D01*
X107740476Y-128476247D02*
X107740476Y-128714342D01*
X107740476Y-128714342D02*
X107788095Y-128809580D01*
X107788095Y-128809580D02*
X107835714Y-128857200D01*
X107835714Y-128857200D02*
X107930952Y-128904819D01*
X107930952Y-128904819D02*
X108169047Y-128904819D01*
X108169047Y-128904819D02*
X108264285Y-128857200D01*
X108264285Y-128857200D02*
X108311904Y-128809580D01*
X106788095Y-128904819D02*
X107359523Y-128904819D01*
X107073809Y-128904819D02*
X107073809Y-127904819D01*
X107073809Y-127904819D02*
X107169047Y-128047676D01*
X107169047Y-128047676D02*
X107264285Y-128142914D01*
X107264285Y-128142914D02*
X107359523Y-128190533D01*
X78509580Y-127807142D02*
X78557200Y-127759523D01*
X78557200Y-127759523D02*
X78604819Y-127616666D01*
X78604819Y-127616666D02*
X78604819Y-127521428D01*
X78604819Y-127521428D02*
X78557200Y-127378571D01*
X78557200Y-127378571D02*
X78461961Y-127283333D01*
X78461961Y-127283333D02*
X78366723Y-127235714D01*
X78366723Y-127235714D02*
X78176247Y-127188095D01*
X78176247Y-127188095D02*
X78033390Y-127188095D01*
X78033390Y-127188095D02*
X77842914Y-127235714D01*
X77842914Y-127235714D02*
X77747676Y-127283333D01*
X77747676Y-127283333D02*
X77652438Y-127378571D01*
X77652438Y-127378571D02*
X77604819Y-127521428D01*
X77604819Y-127521428D02*
X77604819Y-127616666D01*
X77604819Y-127616666D02*
X77652438Y-127759523D01*
X77652438Y-127759523D02*
X77700057Y-127807142D01*
X77938152Y-128664285D02*
X78604819Y-128664285D01*
X77557200Y-128426190D02*
X78271485Y-128188095D01*
X78271485Y-128188095D02*
X78271485Y-128807142D01*
X77604819Y-129664285D02*
X77604819Y-129188095D01*
X77604819Y-129188095D02*
X78081009Y-129140476D01*
X78081009Y-129140476D02*
X78033390Y-129188095D01*
X78033390Y-129188095D02*
X77985771Y-129283333D01*
X77985771Y-129283333D02*
X77985771Y-129521428D01*
X77985771Y-129521428D02*
X78033390Y-129616666D01*
X78033390Y-129616666D02*
X78081009Y-129664285D01*
X78081009Y-129664285D02*
X78176247Y-129711904D01*
X78176247Y-129711904D02*
X78414342Y-129711904D01*
X78414342Y-129711904D02*
X78509580Y-129664285D01*
X78509580Y-129664285D02*
X78557200Y-129616666D01*
X78557200Y-129616666D02*
X78604819Y-129521428D01*
X78604819Y-129521428D02*
X78604819Y-129283333D01*
X78604819Y-129283333D02*
X78557200Y-129188095D01*
X78557200Y-129188095D02*
X78509580Y-129140476D01*
D11*
X115174318Y-129907856D02*
X113904318Y-129907856D01*
X113904318Y-129907856D02*
X113904318Y-130210237D01*
X113904318Y-130210237D02*
X113964794Y-130391666D01*
X113964794Y-130391666D02*
X114085746Y-130512618D01*
X114085746Y-130512618D02*
X114206699Y-130573095D01*
X114206699Y-130573095D02*
X114448603Y-130633571D01*
X114448603Y-130633571D02*
X114630032Y-130633571D01*
X114630032Y-130633571D02*
X114871937Y-130573095D01*
X114871937Y-130573095D02*
X114992889Y-130512618D01*
X114992889Y-130512618D02*
X115113842Y-130391666D01*
X115113842Y-130391666D02*
X115174318Y-130210237D01*
X115174318Y-130210237D02*
X115174318Y-129907856D01*
X114025270Y-131117380D02*
X113964794Y-131177856D01*
X113964794Y-131177856D02*
X113904318Y-131298809D01*
X113904318Y-131298809D02*
X113904318Y-131601190D01*
X113904318Y-131601190D02*
X113964794Y-131722142D01*
X113964794Y-131722142D02*
X114025270Y-131782618D01*
X114025270Y-131782618D02*
X114146222Y-131843095D01*
X114146222Y-131843095D02*
X114267175Y-131843095D01*
X114267175Y-131843095D02*
X114448603Y-131782618D01*
X114448603Y-131782618D02*
X115174318Y-131056904D01*
X115174318Y-131056904D02*
X115174318Y-131843095D01*
X113904318Y-132266428D02*
X113904318Y-133052619D01*
X113904318Y-133052619D02*
X114388127Y-132629285D01*
X114388127Y-132629285D02*
X114388127Y-132810714D01*
X114388127Y-132810714D02*
X114448603Y-132931666D01*
X114448603Y-132931666D02*
X114509080Y-132992142D01*
X114509080Y-132992142D02*
X114630032Y-133052619D01*
X114630032Y-133052619D02*
X114932413Y-133052619D01*
X114932413Y-133052619D02*
X115053365Y-132992142D01*
X115053365Y-132992142D02*
X115113842Y-132931666D01*
X115113842Y-132931666D02*
X115174318Y-132810714D01*
X115174318Y-132810714D02*
X115174318Y-132447857D01*
X115174318Y-132447857D02*
X115113842Y-132326904D01*
X115113842Y-132326904D02*
X115053365Y-132266428D01*
D10*
X71042857Y-78054819D02*
X71376190Y-77578628D01*
X71614285Y-78054819D02*
X71614285Y-77054819D01*
X71614285Y-77054819D02*
X71233333Y-77054819D01*
X71233333Y-77054819D02*
X71138095Y-77102438D01*
X71138095Y-77102438D02*
X71090476Y-77150057D01*
X71090476Y-77150057D02*
X71042857Y-77245295D01*
X71042857Y-77245295D02*
X71042857Y-77388152D01*
X71042857Y-77388152D02*
X71090476Y-77483390D01*
X71090476Y-77483390D02*
X71138095Y-77531009D01*
X71138095Y-77531009D02*
X71233333Y-77578628D01*
X71233333Y-77578628D02*
X71614285Y-77578628D01*
X70185714Y-77054819D02*
X70376190Y-77054819D01*
X70376190Y-77054819D02*
X70471428Y-77102438D01*
X70471428Y-77102438D02*
X70519047Y-77150057D01*
X70519047Y-77150057D02*
X70614285Y-77292914D01*
X70614285Y-77292914D02*
X70661904Y-77483390D01*
X70661904Y-77483390D02*
X70661904Y-77864342D01*
X70661904Y-77864342D02*
X70614285Y-77959580D01*
X70614285Y-77959580D02*
X70566666Y-78007200D01*
X70566666Y-78007200D02*
X70471428Y-78054819D01*
X70471428Y-78054819D02*
X70280952Y-78054819D01*
X70280952Y-78054819D02*
X70185714Y-78007200D01*
X70185714Y-78007200D02*
X70138095Y-77959580D01*
X70138095Y-77959580D02*
X70090476Y-77864342D01*
X70090476Y-77864342D02*
X70090476Y-77626247D01*
X70090476Y-77626247D02*
X70138095Y-77531009D01*
X70138095Y-77531009D02*
X70185714Y-77483390D01*
X70185714Y-77483390D02*
X70280952Y-77435771D01*
X70280952Y-77435771D02*
X70471428Y-77435771D01*
X70471428Y-77435771D02*
X70566666Y-77483390D01*
X70566666Y-77483390D02*
X70614285Y-77531009D01*
X70614285Y-77531009D02*
X70661904Y-77626247D01*
X69233333Y-77054819D02*
X69423809Y-77054819D01*
X69423809Y-77054819D02*
X69519047Y-77102438D01*
X69519047Y-77102438D02*
X69566666Y-77150057D01*
X69566666Y-77150057D02*
X69661904Y-77292914D01*
X69661904Y-77292914D02*
X69709523Y-77483390D01*
X69709523Y-77483390D02*
X69709523Y-77864342D01*
X69709523Y-77864342D02*
X69661904Y-77959580D01*
X69661904Y-77959580D02*
X69614285Y-78007200D01*
X69614285Y-78007200D02*
X69519047Y-78054819D01*
X69519047Y-78054819D02*
X69328571Y-78054819D01*
X69328571Y-78054819D02*
X69233333Y-78007200D01*
X69233333Y-78007200D02*
X69185714Y-77959580D01*
X69185714Y-77959580D02*
X69138095Y-77864342D01*
X69138095Y-77864342D02*
X69138095Y-77626247D01*
X69138095Y-77626247D02*
X69185714Y-77531009D01*
X69185714Y-77531009D02*
X69233333Y-77483390D01*
X69233333Y-77483390D02*
X69328571Y-77435771D01*
X69328571Y-77435771D02*
X69519047Y-77435771D01*
X69519047Y-77435771D02*
X69614285Y-77483390D01*
X69614285Y-77483390D02*
X69661904Y-77531009D01*
X69661904Y-77531009D02*
X69709523Y-77626247D01*
X244459580Y-93683333D02*
X244507200Y-93635714D01*
X244507200Y-93635714D02*
X244554819Y-93492857D01*
X244554819Y-93492857D02*
X244554819Y-93397619D01*
X244554819Y-93397619D02*
X244507200Y-93254762D01*
X244507200Y-93254762D02*
X244411961Y-93159524D01*
X244411961Y-93159524D02*
X244316723Y-93111905D01*
X244316723Y-93111905D02*
X244126247Y-93064286D01*
X244126247Y-93064286D02*
X243983390Y-93064286D01*
X243983390Y-93064286D02*
X243792914Y-93111905D01*
X243792914Y-93111905D02*
X243697676Y-93159524D01*
X243697676Y-93159524D02*
X243602438Y-93254762D01*
X243602438Y-93254762D02*
X243554819Y-93397619D01*
X243554819Y-93397619D02*
X243554819Y-93492857D01*
X243554819Y-93492857D02*
X243602438Y-93635714D01*
X243602438Y-93635714D02*
X243650057Y-93683333D01*
X243554819Y-94588095D02*
X243554819Y-94111905D01*
X243554819Y-94111905D02*
X244031009Y-94064286D01*
X244031009Y-94064286D02*
X243983390Y-94111905D01*
X243983390Y-94111905D02*
X243935771Y-94207143D01*
X243935771Y-94207143D02*
X243935771Y-94445238D01*
X243935771Y-94445238D02*
X243983390Y-94540476D01*
X243983390Y-94540476D02*
X244031009Y-94588095D01*
X244031009Y-94588095D02*
X244126247Y-94635714D01*
X244126247Y-94635714D02*
X244364342Y-94635714D01*
X244364342Y-94635714D02*
X244459580Y-94588095D01*
X244459580Y-94588095D02*
X244507200Y-94540476D01*
X244507200Y-94540476D02*
X244554819Y-94445238D01*
X244554819Y-94445238D02*
X244554819Y-94207143D01*
X244554819Y-94207143D02*
X244507200Y-94111905D01*
X244507200Y-94111905D02*
X244459580Y-94064286D01*
X72239580Y-100333333D02*
X72287200Y-100285714D01*
X72287200Y-100285714D02*
X72334819Y-100142857D01*
X72334819Y-100142857D02*
X72334819Y-100047619D01*
X72334819Y-100047619D02*
X72287200Y-99904762D01*
X72287200Y-99904762D02*
X72191961Y-99809524D01*
X72191961Y-99809524D02*
X72096723Y-99761905D01*
X72096723Y-99761905D02*
X71906247Y-99714286D01*
X71906247Y-99714286D02*
X71763390Y-99714286D01*
X71763390Y-99714286D02*
X71572914Y-99761905D01*
X71572914Y-99761905D02*
X71477676Y-99809524D01*
X71477676Y-99809524D02*
X71382438Y-99904762D01*
X71382438Y-99904762D02*
X71334819Y-100047619D01*
X71334819Y-100047619D02*
X71334819Y-100142857D01*
X71334819Y-100142857D02*
X71382438Y-100285714D01*
X71382438Y-100285714D02*
X71430057Y-100333333D01*
X72334819Y-101285714D02*
X72334819Y-100714286D01*
X72334819Y-101000000D02*
X71334819Y-101000000D01*
X71334819Y-101000000D02*
X71477676Y-100904762D01*
X71477676Y-100904762D02*
X71572914Y-100809524D01*
X71572914Y-100809524D02*
X71620533Y-100714286D01*
X67164819Y-112583333D02*
X66688628Y-112250000D01*
X67164819Y-112011905D02*
X66164819Y-112011905D01*
X66164819Y-112011905D02*
X66164819Y-112392857D01*
X66164819Y-112392857D02*
X66212438Y-112488095D01*
X66212438Y-112488095D02*
X66260057Y-112535714D01*
X66260057Y-112535714D02*
X66355295Y-112583333D01*
X66355295Y-112583333D02*
X66498152Y-112583333D01*
X66498152Y-112583333D02*
X66593390Y-112535714D01*
X66593390Y-112535714D02*
X66641009Y-112488095D01*
X66641009Y-112488095D02*
X66688628Y-112392857D01*
X66688628Y-112392857D02*
X66688628Y-112011905D01*
X66498152Y-113440476D02*
X67164819Y-113440476D01*
X66117200Y-113202381D02*
X66831485Y-112964286D01*
X66831485Y-112964286D02*
X66831485Y-113583333D01*
X151644430Y-101906018D02*
X151977763Y-101429827D01*
X152215858Y-101906018D02*
X152215858Y-100906018D01*
X152215858Y-100906018D02*
X151834906Y-100906018D01*
X151834906Y-100906018D02*
X151739668Y-100953637D01*
X151739668Y-100953637D02*
X151692049Y-101001256D01*
X151692049Y-101001256D02*
X151644430Y-101096494D01*
X151644430Y-101096494D02*
X151644430Y-101239351D01*
X151644430Y-101239351D02*
X151692049Y-101334589D01*
X151692049Y-101334589D02*
X151739668Y-101382208D01*
X151739668Y-101382208D02*
X151834906Y-101429827D01*
X151834906Y-101429827D02*
X152215858Y-101429827D01*
X150692049Y-101906018D02*
X151263477Y-101906018D01*
X150977763Y-101906018D02*
X150977763Y-100906018D01*
X150977763Y-100906018D02*
X151073001Y-101048875D01*
X151073001Y-101048875D02*
X151168239Y-101144113D01*
X151168239Y-101144113D02*
X151263477Y-101191732D01*
X150311096Y-101001256D02*
X150263477Y-100953637D01*
X150263477Y-100953637D02*
X150168239Y-100906018D01*
X150168239Y-100906018D02*
X149930144Y-100906018D01*
X149930144Y-100906018D02*
X149834906Y-100953637D01*
X149834906Y-100953637D02*
X149787287Y-101001256D01*
X149787287Y-101001256D02*
X149739668Y-101096494D01*
X149739668Y-101096494D02*
X149739668Y-101191732D01*
X149739668Y-101191732D02*
X149787287Y-101334589D01*
X149787287Y-101334589D02*
X150358715Y-101906018D01*
X150358715Y-101906018D02*
X149739668Y-101906018D01*
X90024819Y-111967142D02*
X89548628Y-111633809D01*
X90024819Y-111395714D02*
X89024819Y-111395714D01*
X89024819Y-111395714D02*
X89024819Y-111776666D01*
X89024819Y-111776666D02*
X89072438Y-111871904D01*
X89072438Y-111871904D02*
X89120057Y-111919523D01*
X89120057Y-111919523D02*
X89215295Y-111967142D01*
X89215295Y-111967142D02*
X89358152Y-111967142D01*
X89358152Y-111967142D02*
X89453390Y-111919523D01*
X89453390Y-111919523D02*
X89501009Y-111871904D01*
X89501009Y-111871904D02*
X89548628Y-111776666D01*
X89548628Y-111776666D02*
X89548628Y-111395714D01*
X89358152Y-112824285D02*
X90024819Y-112824285D01*
X88977200Y-112586190D02*
X89691485Y-112348095D01*
X89691485Y-112348095D02*
X89691485Y-112967142D01*
X90024819Y-113395714D02*
X90024819Y-113586190D01*
X90024819Y-113586190D02*
X89977200Y-113681428D01*
X89977200Y-113681428D02*
X89929580Y-113729047D01*
X89929580Y-113729047D02*
X89786723Y-113824285D01*
X89786723Y-113824285D02*
X89596247Y-113871904D01*
X89596247Y-113871904D02*
X89215295Y-113871904D01*
X89215295Y-113871904D02*
X89120057Y-113824285D01*
X89120057Y-113824285D02*
X89072438Y-113776666D01*
X89072438Y-113776666D02*
X89024819Y-113681428D01*
X89024819Y-113681428D02*
X89024819Y-113490952D01*
X89024819Y-113490952D02*
X89072438Y-113395714D01*
X89072438Y-113395714D02*
X89120057Y-113348095D01*
X89120057Y-113348095D02*
X89215295Y-113300476D01*
X89215295Y-113300476D02*
X89453390Y-113300476D01*
X89453390Y-113300476D02*
X89548628Y-113348095D01*
X89548628Y-113348095D02*
X89596247Y-113395714D01*
X89596247Y-113395714D02*
X89643866Y-113490952D01*
X89643866Y-113490952D02*
X89643866Y-113681428D01*
X89643866Y-113681428D02*
X89596247Y-113776666D01*
X89596247Y-113776666D02*
X89548628Y-113824285D01*
X89548628Y-113824285D02*
X89453390Y-113871904D01*
X210854819Y-52657142D02*
X210378628Y-52323809D01*
X210854819Y-52085714D02*
X209854819Y-52085714D01*
X209854819Y-52085714D02*
X209854819Y-52466666D01*
X209854819Y-52466666D02*
X209902438Y-52561904D01*
X209902438Y-52561904D02*
X209950057Y-52609523D01*
X209950057Y-52609523D02*
X210045295Y-52657142D01*
X210045295Y-52657142D02*
X210188152Y-52657142D01*
X210188152Y-52657142D02*
X210283390Y-52609523D01*
X210283390Y-52609523D02*
X210331009Y-52561904D01*
X210331009Y-52561904D02*
X210378628Y-52466666D01*
X210378628Y-52466666D02*
X210378628Y-52085714D01*
X209854819Y-52990476D02*
X209854819Y-53657142D01*
X209854819Y-53657142D02*
X210854819Y-53228571D01*
X210854819Y-54561904D02*
X210854819Y-53990476D01*
X210854819Y-54276190D02*
X209854819Y-54276190D01*
X209854819Y-54276190D02*
X209997676Y-54180952D01*
X209997676Y-54180952D02*
X210092914Y-54085714D01*
X210092914Y-54085714D02*
X210140533Y-53990476D01*
X151644430Y-107352348D02*
X151977763Y-106876157D01*
X152215858Y-107352348D02*
X152215858Y-106352348D01*
X152215858Y-106352348D02*
X151834906Y-106352348D01*
X151834906Y-106352348D02*
X151739668Y-106399967D01*
X151739668Y-106399967D02*
X151692049Y-106447586D01*
X151692049Y-106447586D02*
X151644430Y-106542824D01*
X151644430Y-106542824D02*
X151644430Y-106685681D01*
X151644430Y-106685681D02*
X151692049Y-106780919D01*
X151692049Y-106780919D02*
X151739668Y-106828538D01*
X151739668Y-106828538D02*
X151834906Y-106876157D01*
X151834906Y-106876157D02*
X152215858Y-106876157D01*
X150692049Y-107352348D02*
X151263477Y-107352348D01*
X150977763Y-107352348D02*
X150977763Y-106352348D01*
X150977763Y-106352348D02*
X151073001Y-106495205D01*
X151073001Y-106495205D02*
X151168239Y-106590443D01*
X151168239Y-106590443D02*
X151263477Y-106638062D01*
X149739668Y-107352348D02*
X150311096Y-107352348D01*
X150025382Y-107352348D02*
X150025382Y-106352348D01*
X150025382Y-106352348D02*
X150120620Y-106495205D01*
X150120620Y-106495205D02*
X150215858Y-106590443D01*
X150215858Y-106590443D02*
X150311096Y-106638062D01*
X82842857Y-134184819D02*
X83176190Y-133708628D01*
X83414285Y-134184819D02*
X83414285Y-133184819D01*
X83414285Y-133184819D02*
X83033333Y-133184819D01*
X83033333Y-133184819D02*
X82938095Y-133232438D01*
X82938095Y-133232438D02*
X82890476Y-133280057D01*
X82890476Y-133280057D02*
X82842857Y-133375295D01*
X82842857Y-133375295D02*
X82842857Y-133518152D01*
X82842857Y-133518152D02*
X82890476Y-133613390D01*
X82890476Y-133613390D02*
X82938095Y-133661009D01*
X82938095Y-133661009D02*
X83033333Y-133708628D01*
X83033333Y-133708628D02*
X83414285Y-133708628D01*
X82366666Y-134184819D02*
X82176190Y-134184819D01*
X82176190Y-134184819D02*
X82080952Y-134137200D01*
X82080952Y-134137200D02*
X82033333Y-134089580D01*
X82033333Y-134089580D02*
X81938095Y-133946723D01*
X81938095Y-133946723D02*
X81890476Y-133756247D01*
X81890476Y-133756247D02*
X81890476Y-133375295D01*
X81890476Y-133375295D02*
X81938095Y-133280057D01*
X81938095Y-133280057D02*
X81985714Y-133232438D01*
X81985714Y-133232438D02*
X82080952Y-133184819D01*
X82080952Y-133184819D02*
X82271428Y-133184819D01*
X82271428Y-133184819D02*
X82366666Y-133232438D01*
X82366666Y-133232438D02*
X82414285Y-133280057D01*
X82414285Y-133280057D02*
X82461904Y-133375295D01*
X82461904Y-133375295D02*
X82461904Y-133613390D01*
X82461904Y-133613390D02*
X82414285Y-133708628D01*
X82414285Y-133708628D02*
X82366666Y-133756247D01*
X82366666Y-133756247D02*
X82271428Y-133803866D01*
X82271428Y-133803866D02*
X82080952Y-133803866D01*
X82080952Y-133803866D02*
X81985714Y-133756247D01*
X81985714Y-133756247D02*
X81938095Y-133708628D01*
X81938095Y-133708628D02*
X81890476Y-133613390D01*
X81271428Y-133184819D02*
X81176190Y-133184819D01*
X81176190Y-133184819D02*
X81080952Y-133232438D01*
X81080952Y-133232438D02*
X81033333Y-133280057D01*
X81033333Y-133280057D02*
X80985714Y-133375295D01*
X80985714Y-133375295D02*
X80938095Y-133565771D01*
X80938095Y-133565771D02*
X80938095Y-133803866D01*
X80938095Y-133803866D02*
X80985714Y-133994342D01*
X80985714Y-133994342D02*
X81033333Y-134089580D01*
X81033333Y-134089580D02*
X81080952Y-134137200D01*
X81080952Y-134137200D02*
X81176190Y-134184819D01*
X81176190Y-134184819D02*
X81271428Y-134184819D01*
X81271428Y-134184819D02*
X81366666Y-134137200D01*
X81366666Y-134137200D02*
X81414285Y-134089580D01*
X81414285Y-134089580D02*
X81461904Y-133994342D01*
X81461904Y-133994342D02*
X81509523Y-133803866D01*
X81509523Y-133803866D02*
X81509523Y-133565771D01*
X81509523Y-133565771D02*
X81461904Y-133375295D01*
X81461904Y-133375295D02*
X81414285Y-133280057D01*
X81414285Y-133280057D02*
X81366666Y-133232438D01*
X81366666Y-133232438D02*
X81271428Y-133184819D01*
X80835731Y-129420637D02*
X80835731Y-128420637D01*
X80835731Y-128420637D02*
X80597636Y-128420637D01*
X80597636Y-128420637D02*
X80454779Y-128468256D01*
X80454779Y-128468256D02*
X80359541Y-128563494D01*
X80359541Y-128563494D02*
X80311922Y-128658732D01*
X80311922Y-128658732D02*
X80264303Y-128849208D01*
X80264303Y-128849208D02*
X80264303Y-128992065D01*
X80264303Y-128992065D02*
X80311922Y-129182541D01*
X80311922Y-129182541D02*
X80359541Y-129277779D01*
X80359541Y-129277779D02*
X80454779Y-129373018D01*
X80454779Y-129373018D02*
X80597636Y-129420637D01*
X80597636Y-129420637D02*
X80835731Y-129420637D01*
X79311922Y-129420637D02*
X79883350Y-129420637D01*
X79597636Y-129420637D02*
X79597636Y-128420637D01*
X79597636Y-128420637D02*
X79692874Y-128563494D01*
X79692874Y-128563494D02*
X79788112Y-128658732D01*
X79788112Y-128658732D02*
X79883350Y-128706351D01*
X78978588Y-128420637D02*
X78359541Y-128420637D01*
X78359541Y-128420637D02*
X78692874Y-128801589D01*
X78692874Y-128801589D02*
X78550017Y-128801589D01*
X78550017Y-128801589D02*
X78454779Y-128849208D01*
X78454779Y-128849208D02*
X78407160Y-128896827D01*
X78407160Y-128896827D02*
X78359541Y-128992065D01*
X78359541Y-128992065D02*
X78359541Y-129230160D01*
X78359541Y-129230160D02*
X78407160Y-129325398D01*
X78407160Y-129325398D02*
X78454779Y-129373018D01*
X78454779Y-129373018D02*
X78550017Y-129420637D01*
X78550017Y-129420637D02*
X78835731Y-129420637D01*
X78835731Y-129420637D02*
X78930969Y-129373018D01*
X78930969Y-129373018D02*
X78978588Y-129325398D01*
D12*
X197040000Y-59527064D02*
X197040000Y-56472936D01*
X199760000Y-59527064D02*
X199760000Y-56472936D01*
X202520000Y-96443641D02*
X202520000Y-96136359D01*
X203280000Y-96443641D02*
X203280000Y-96136359D01*
D13*
X80700000Y-125725000D02*
X80700000Y-128525000D01*
D14*
X81500000Y-124725000D02*
X81500000Y-124725000D01*
X81700000Y-124725000D02*
X81700000Y-124725000D01*
D13*
X82500000Y-125725000D02*
X82500000Y-128525000D01*
D14*
X81500000Y-124725000D02*
G75*
G02*
X81700000Y-124725000I100000J0D01*
G01*
X81700000Y-124725000D02*
G75*
G02*
X81500000Y-124725000I-100000J0D01*
G01*
D12*
X218520000Y-96353641D02*
X218520000Y-96046359D01*
X219280000Y-96353641D02*
X219280000Y-96046359D01*
X77578748Y-99840000D02*
X79001252Y-99840000D01*
X77578748Y-101660000D02*
X79001252Y-101660000D01*
X79020000Y-125253641D02*
X79020000Y-124946359D01*
X79780000Y-125253641D02*
X79780000Y-124946359D01*
X205620000Y-118653641D02*
X205620000Y-118346359D01*
X206380000Y-118653641D02*
X206380000Y-118346359D01*
D13*
X98600000Y-128100000D02*
X98600000Y-125300000D01*
D14*
X99400000Y-129100000D02*
X99400000Y-129100000D01*
X99600000Y-129100000D02*
X99600000Y-129100000D01*
D13*
X100400000Y-128100000D02*
X100400000Y-125300000D01*
D14*
X99400000Y-129100000D02*
G75*
G02*
X99600000Y-129100000I100000J0D01*
G01*
X99600000Y-129100000D02*
G75*
G02*
X99400000Y-129100000I-100000J0D01*
G01*
D12*
X93340000Y-131240000D02*
X93340000Y-132760000D01*
X93340000Y-132760000D02*
X93390000Y-132760000D01*
X94340000Y-131240000D02*
X93340000Y-131240000D01*
X94510000Y-132760000D02*
X95290000Y-132760000D01*
X96410000Y-132760000D02*
X96460000Y-132760000D01*
X96460000Y-131240000D02*
X95460000Y-131240000D01*
X96460000Y-132760000D02*
X96460000Y-131240000D01*
X95280000Y-133300000D02*
X94950000Y-133060000D01*
X94950000Y-133540000D01*
X95280000Y-133300000D01*
G36*
X95280000Y-133300000D02*
G01*
X94950000Y-133540000D01*
X94950000Y-133060000D01*
X95280000Y-133300000D01*
G37*
X199976141Y-130230000D02*
X199668859Y-130230000D01*
X199976141Y-130990000D02*
X199668859Y-130990000D01*
X227440000Y-59827064D02*
X227440000Y-56772936D01*
X230160000Y-59827064D02*
X230160000Y-56772936D01*
D13*
X95500000Y-125725000D02*
X95500000Y-128525000D01*
D14*
X96300000Y-124725000D02*
X96300000Y-124725000D01*
X96500000Y-124725000D02*
X96500000Y-124725000D01*
D13*
X97300000Y-125725000D02*
X97300000Y-128525000D01*
D14*
X96300000Y-124725000D02*
G75*
G02*
X96500000Y-124725000I100000J0D01*
G01*
X96500000Y-124725000D02*
G75*
G02*
X96300000Y-124725000I-100000J0D01*
G01*
D12*
X77027064Y-82540000D02*
X73972936Y-82540000D01*
X77027064Y-85260000D02*
X73972936Y-85260000D01*
X72910000Y-112893641D02*
X72910000Y-112586359D01*
X73670000Y-112893641D02*
X73670000Y-112586359D01*
X202220000Y-127253641D02*
X202220000Y-126946359D01*
X202980000Y-127253641D02*
X202980000Y-126946359D01*
X202620000Y-136246359D02*
X202620000Y-136553641D01*
X203380000Y-136246359D02*
X203380000Y-136553641D01*
X108920000Y-125253641D02*
X108920000Y-124946359D01*
X109680000Y-125253641D02*
X109680000Y-124946359D01*
X215340000Y-59727064D02*
X215340000Y-56672936D01*
X218060000Y-59727064D02*
X218060000Y-56672936D01*
X211420000Y-96253641D02*
X211420000Y-95946359D01*
X212180000Y-96253641D02*
X212180000Y-95946359D01*
D13*
X83800000Y-128100000D02*
X83800000Y-125300000D01*
D14*
X84600000Y-129100000D02*
X84600000Y-129100000D01*
X84800000Y-129100000D02*
X84800000Y-129100000D01*
D13*
X85600000Y-128100000D02*
X85600000Y-125300000D01*
D14*
X84600000Y-129100000D02*
G75*
G02*
X84800000Y-129100000I100000J0D01*
G01*
X84800000Y-129100000D02*
G75*
G02*
X84600000Y-129100000I-100000J0D01*
G01*
D12*
X204853641Y-127380000D02*
X204546359Y-127380000D01*
X204853641Y-126620000D02*
X204546359Y-126620000D01*
X118840721Y-110741330D02*
X118533439Y-110741330D01*
X118840721Y-111501330D02*
X118533439Y-111501330D01*
X220870000Y-96353641D02*
X220870000Y-96046359D01*
X221630000Y-96353641D02*
X221630000Y-96046359D01*
X100620000Y-113343641D02*
X100620000Y-113036359D01*
X101380000Y-113343641D02*
X101380000Y-113036359D01*
X120064580Y-106630000D02*
X120064580Y-106845000D01*
X120064580Y-109235000D02*
X120064580Y-109450000D01*
X120064580Y-109450000D02*
X124684580Y-109450000D01*
X124684580Y-106630000D02*
X120064580Y-106630000D01*
X124684580Y-106845000D02*
X124684580Y-106630000D01*
X124684580Y-109450000D02*
X124684580Y-109235000D01*
X125564580Y-106840000D02*
X125804580Y-106510000D01*
X125324580Y-106510000D01*
X125564580Y-106840000D01*
G36*
X125564580Y-106840000D02*
G01*
X125324580Y-106510000D01*
X125804580Y-106510000D01*
X125564580Y-106840000D01*
G37*
X208120000Y-118643641D02*
X208120000Y-118336359D01*
X208880000Y-118643641D02*
X208880000Y-118336359D01*
X83640000Y-130340000D02*
X83640000Y-130390000D01*
X83640000Y-131510000D02*
X83640000Y-132290000D01*
X83640000Y-133410000D02*
X83640000Y-133460000D01*
X83640000Y-133460000D02*
X85160000Y-133460000D01*
X85160000Y-130340000D02*
X83640000Y-130340000D01*
X85160000Y-131340000D02*
X85160000Y-130340000D01*
X85160000Y-133460000D02*
X85160000Y-132460000D01*
X83100000Y-132280000D02*
X83340000Y-131950000D01*
X82860000Y-131950000D01*
X83100000Y-132280000D01*
G36*
X83100000Y-132280000D02*
G01*
X82860000Y-131950000D01*
X83340000Y-131950000D01*
X83100000Y-132280000D01*
G37*
X118840721Y-105295000D02*
X118533439Y-105295000D01*
X118840721Y-106055000D02*
X118533439Y-106055000D01*
X93820000Y-125253641D02*
X93820000Y-124946359D01*
X94580000Y-125253641D02*
X94580000Y-124946359D01*
X203120000Y-118643641D02*
X203120000Y-118336359D01*
X203880000Y-118643641D02*
X203880000Y-118336359D01*
X112253641Y-134520000D02*
X111946359Y-134520000D01*
X112253641Y-135280000D02*
X111946359Y-135280000D01*
X118879411Y-103271750D02*
X118572129Y-103271750D01*
X118879411Y-104031750D02*
X118572129Y-104031750D01*
X200920000Y-127653641D02*
X200920000Y-127346359D01*
X201680000Y-127653641D02*
X201680000Y-127346359D01*
X236020000Y-96353641D02*
X236020000Y-96046359D01*
X236780000Y-96353641D02*
X236780000Y-96046359D01*
X178540000Y-59627064D02*
X178540000Y-56572936D01*
X181260000Y-59627064D02*
X181260000Y-56572936D01*
X62910000Y-112596359D02*
X62910000Y-112903641D01*
X63670000Y-112596359D02*
X63670000Y-112903641D01*
X108440000Y-131240000D02*
X108440000Y-132760000D01*
X108440000Y-132760000D02*
X108490000Y-132760000D01*
X109440000Y-131240000D02*
X108440000Y-131240000D01*
X109610000Y-132760000D02*
X110390000Y-132760000D01*
X111510000Y-132760000D02*
X111560000Y-132760000D01*
X111560000Y-131240000D02*
X110560000Y-131240000D01*
X111560000Y-132760000D02*
X111560000Y-131240000D01*
X110380000Y-133300000D02*
X110050000Y-133060000D01*
X110050000Y-133540000D01*
X110380000Y-133300000D01*
G36*
X110380000Y-133300000D02*
G01*
X110050000Y-133540000D01*
X110050000Y-133060000D01*
X110380000Y-133300000D01*
G37*
X223370000Y-96353641D02*
X223370000Y-96046359D01*
X224130000Y-96353641D02*
X224130000Y-96046359D01*
D13*
X110600000Y-125725000D02*
X110600000Y-128525000D01*
D14*
X111400000Y-124725000D02*
X111400000Y-124725000D01*
X111600000Y-124725000D02*
X111600000Y-124725000D01*
D13*
X112400000Y-125725000D02*
X112400000Y-128525000D01*
D14*
X111400000Y-124725000D02*
G75*
G02*
X111600000Y-124725000I100000J0D01*
G01*
X111600000Y-124725000D02*
G75*
G02*
X111400000Y-124725000I-100000J0D01*
G01*
D12*
X93840000Y-128592164D02*
X93840000Y-128807836D01*
X94560000Y-128592164D02*
X94560000Y-128807836D01*
X223370000Y-118643641D02*
X223370000Y-118336359D01*
X224130000Y-118643641D02*
X224130000Y-118336359D01*
X190740000Y-59627064D02*
X190740000Y-56572936D01*
X193460000Y-59627064D02*
X193460000Y-56572936D01*
X98120000Y-113093641D02*
X98120000Y-112786359D01*
X98880000Y-113093641D02*
X98880000Y-112786359D01*
X205520000Y-96443641D02*
X205520000Y-96136359D01*
X206280000Y-96443641D02*
X206280000Y-96136359D01*
X172340000Y-59727064D02*
X172340000Y-56672936D01*
X175060000Y-59727064D02*
X175060000Y-56672936D01*
X70160000Y-112893641D02*
X70160000Y-112586359D01*
X70920000Y-112893641D02*
X70920000Y-112586359D01*
X233740000Y-59727064D02*
X233740000Y-56672936D01*
X236460000Y-59727064D02*
X236460000Y-56672936D01*
X120064580Y-112076330D02*
X120064580Y-112291330D01*
X120064580Y-114681330D02*
X120064580Y-114896330D01*
X120064580Y-114896330D02*
X124684580Y-114896330D01*
X124684580Y-112076330D02*
X120064580Y-112076330D01*
X124684580Y-112291330D02*
X124684580Y-112076330D01*
X124684580Y-114896330D02*
X124684580Y-114681330D01*
X125564580Y-112286330D02*
X125804580Y-111956330D01*
X125324580Y-111956330D01*
X125564580Y-112286330D01*
G36*
X125564580Y-112286330D02*
G01*
X125324580Y-111956330D01*
X125804580Y-111956330D01*
X125564580Y-112286330D01*
G37*
X97153641Y-134520000D02*
X96846359Y-134520000D01*
X97153641Y-135280000D02*
X96846359Y-135280000D01*
X98440000Y-130340000D02*
X98440000Y-130390000D01*
X98440000Y-131510000D02*
X98440000Y-132290000D01*
X98440000Y-133410000D02*
X98440000Y-133460000D01*
X98440000Y-133460000D02*
X99960000Y-133460000D01*
X99960000Y-130340000D02*
X98440000Y-130340000D01*
X99960000Y-131340000D02*
X99960000Y-130340000D01*
X99960000Y-133460000D02*
X99960000Y-132460000D01*
X97900000Y-132280000D02*
X98140000Y-131950000D01*
X97660000Y-131950000D01*
X97900000Y-132280000D01*
G36*
X97900000Y-132280000D02*
G01*
X97660000Y-131950000D01*
X98140000Y-131950000D01*
X97900000Y-132280000D01*
G37*
X113540000Y-130340000D02*
X113540000Y-130390000D01*
X113540000Y-131510000D02*
X113540000Y-132290000D01*
X113540000Y-133410000D02*
X113540000Y-133460000D01*
X113540000Y-133460000D02*
X115060000Y-133460000D01*
X115060000Y-130340000D02*
X113540000Y-130340000D01*
X115060000Y-131340000D02*
X115060000Y-130340000D01*
X115060000Y-133460000D02*
X115060000Y-132460000D01*
X113000000Y-132280000D02*
X113240000Y-131950000D01*
X112760000Y-131950000D01*
X113000000Y-132280000D01*
G36*
X113000000Y-132280000D02*
G01*
X112760000Y-131950000D01*
X113240000Y-131950000D01*
X113000000Y-132280000D01*
G37*
X206507836Y-135240000D02*
X206292164Y-135240000D01*
X206507836Y-135960000D02*
X206292164Y-135960000D01*
X198043641Y-96120000D02*
X197736359Y-96120000D01*
X198043641Y-96880000D02*
X197736359Y-96880000D01*
X120165770Y-99741750D02*
X120165770Y-99956750D01*
X120165770Y-102346750D02*
X120165770Y-102561750D01*
X120165770Y-102561750D02*
X124785770Y-102561750D01*
X124785770Y-99741750D02*
X120165770Y-99741750D01*
X124785770Y-99956750D02*
X124785770Y-99741750D01*
X124785770Y-102561750D02*
X124785770Y-102346750D01*
X119285770Y-102351750D02*
X119045770Y-102681750D01*
X119525770Y-102681750D01*
X119285770Y-102351750D01*
G36*
X119525770Y-102681750D02*
G01*
X119045770Y-102681750D01*
X119285770Y-102351750D01*
X119525770Y-102681750D01*
G37*
X85420000Y-112763641D02*
X85420000Y-112456359D01*
X86180000Y-112763641D02*
X86180000Y-112456359D01*
X199836359Y-94720000D02*
X200143641Y-94720000D01*
X199836359Y-95480000D02*
X200143641Y-95480000D01*
X108940000Y-128592164D02*
X108940000Y-128807836D01*
X109660000Y-128592164D02*
X109660000Y-128807836D01*
X79040000Y-128592164D02*
X79040000Y-128807836D01*
X79760000Y-128592164D02*
X79760000Y-128807836D01*
D13*
X113700000Y-128100000D02*
X113700000Y-125300000D01*
D14*
X114500000Y-129100000D02*
X114500000Y-129100000D01*
X114700000Y-129100000D02*
X114700000Y-129100000D01*
D13*
X115500000Y-128100000D02*
X115500000Y-125300000D01*
D14*
X114500000Y-129100000D02*
G75*
G02*
X114700000Y-129100000I100000J0D01*
G01*
X114700000Y-129100000D02*
G75*
G02*
X114500000Y-129100000I-100000J0D01*
G01*
D12*
X76927064Y-76240000D02*
X73872936Y-76240000D01*
X76927064Y-78960000D02*
X73872936Y-78960000D01*
X243740000Y-96207836D02*
X243740000Y-95992164D01*
X244460000Y-96207836D02*
X244460000Y-95992164D01*
X72680000Y-100392164D02*
X72680000Y-100607836D01*
X73400000Y-100392164D02*
X73400000Y-100607836D01*
X65160000Y-112903641D02*
X65160000Y-112596359D01*
X65920000Y-112903641D02*
X65920000Y-112596359D01*
X126340721Y-105295000D02*
X126033439Y-105295000D01*
X126340721Y-106055000D02*
X126033439Y-106055000D01*
X88020000Y-112763641D02*
X88020000Y-112456359D01*
X88780000Y-112763641D02*
X88780000Y-112456359D01*
X208840000Y-59727064D02*
X208840000Y-56672936D01*
X211560000Y-59727064D02*
X211560000Y-56672936D01*
X126340721Y-110741330D02*
X126033439Y-110741330D01*
X126340721Y-111501330D02*
X126033439Y-111501330D01*
X82353641Y-134520000D02*
X82046359Y-134520000D01*
X82353641Y-135280000D02*
X82046359Y-135280000D01*
X78540000Y-131240000D02*
X78540000Y-132760000D01*
X78540000Y-132760000D02*
X78590000Y-132760000D01*
X79540000Y-131240000D02*
X78540000Y-131240000D01*
X79710000Y-132760000D02*
X80490000Y-132760000D01*
X81610000Y-132760000D02*
X81660000Y-132760000D01*
X81660000Y-131240000D02*
X80660000Y-131240000D01*
X81660000Y-132760000D02*
X81660000Y-131240000D01*
X80480000Y-133300000D02*
X80150000Y-133060000D01*
X80150000Y-133540000D01*
X80480000Y-133300000D01*
G36*
X80480000Y-133300000D02*
G01*
X80150000Y-133540000D01*
X80150000Y-133060000D01*
X80480000Y-133300000D01*
G37*
%LPC*%
D15*
X233442449Y-41574529D03*
D16*
X228442449Y-41574529D03*
X223442449Y-41574529D03*
D15*
X196692449Y-41574529D03*
D16*
X191692449Y-41574529D03*
X186692449Y-41574529D03*
D17*
X63110000Y-109335000D03*
D18*
X66140000Y-109035000D03*
X66140000Y-104185000D03*
D17*
X63110000Y-103885000D03*
D19*
X62980000Y-115500000D03*
D20*
X65520000Y-115500000D03*
D21*
X68060000Y-115500000D03*
D20*
X70600000Y-115500000D03*
X73140000Y-115500000D03*
X75680000Y-115500000D03*
X78220000Y-115500000D03*
D21*
X80760000Y-115500000D03*
D20*
X83300000Y-115500000D03*
X85840000Y-115500000D03*
X88380000Y-115500000D03*
X90920000Y-115500000D03*
D21*
X93460000Y-115500000D03*
D20*
X96000000Y-115500000D03*
X98540000Y-115500000D03*
X101080000Y-115500000D03*
X103620000Y-115500000D03*
D21*
X106160000Y-115500000D03*
D20*
X108700000Y-115500000D03*
X111240000Y-115500000D03*
X111240000Y-97720000D03*
X108700000Y-97720000D03*
D22*
X106160000Y-97720000D03*
D20*
X103620000Y-97720000D03*
X101080000Y-97720000D03*
X98540000Y-97720000D03*
X96000000Y-97720000D03*
D22*
X93460000Y-97720000D03*
D20*
X90920000Y-97720000D03*
X88380000Y-97720000D03*
X85840000Y-97720000D03*
X83300000Y-97720000D03*
D22*
X80760000Y-97720000D03*
D20*
X78220000Y-97720000D03*
X75680000Y-97720000D03*
X73140000Y-97720000D03*
X70600000Y-97720000D03*
D22*
X68060000Y-97720000D03*
D20*
X65520000Y-97720000D03*
X62980000Y-97720000D03*
D15*
X95650000Y-140850000D03*
D16*
X100650000Y-140850000D03*
D15*
X80850000Y-140850000D03*
D16*
X85850000Y-140850000D03*
D23*
X246587280Y-98753680D03*
D24*
X244047280Y-98753680D03*
X241507280Y-98753680D03*
X238967280Y-98753680D03*
X236427280Y-98753680D03*
X233887280Y-98753680D03*
X231347280Y-98753680D03*
X228807280Y-98753680D03*
X226267280Y-98753680D03*
X223727280Y-98753680D03*
X221187280Y-98753680D03*
X218647280Y-98753680D03*
X216107280Y-98753680D03*
X213567280Y-98753680D03*
X211027280Y-98753680D03*
X208487280Y-98753680D03*
X205947280Y-98753680D03*
X203407280Y-98753680D03*
X200867280Y-98753680D03*
X198330000Y-98750000D03*
X195790000Y-98750000D03*
X193250000Y-98750000D03*
X193247280Y-121613680D03*
X195787280Y-121613680D03*
X198327280Y-121613680D03*
X200867280Y-121613680D03*
X203407280Y-121613680D03*
X205947280Y-121613680D03*
X208487280Y-121613680D03*
X211027280Y-121613680D03*
X213567280Y-121613680D03*
X216107280Y-121613680D03*
X218647280Y-121613680D03*
X221187280Y-121613680D03*
X223727280Y-121613680D03*
X226267280Y-121613680D03*
X228807280Y-121613680D03*
X231347280Y-121613680D03*
X233887280Y-121613680D03*
X236427280Y-121613680D03*
X238967280Y-121613680D03*
X241507280Y-121613680D03*
X244047280Y-121613680D03*
X246587280Y-121613680D03*
D15*
X206311340Y-141937638D03*
D16*
X211311340Y-141937638D03*
D15*
X194311340Y-141937638D03*
D16*
X199311340Y-141937638D03*
D15*
X91998706Y-41882375D03*
D16*
X86998706Y-41882375D03*
D15*
X218311340Y-141937638D03*
D16*
X223311340Y-141937638D03*
D25*
X216850000Y-88025000D03*
D26*
X215250000Y-90025000D03*
D27*
X212750000Y-90025000D03*
X210250000Y-90025000D03*
X207750000Y-90025000D03*
X205250000Y-90025000D03*
X202750000Y-90025000D03*
X200250000Y-90025000D03*
X197750000Y-90025000D03*
X195250000Y-90025000D03*
X192750000Y-90025000D03*
D28*
X111250000Y-144100000D03*
X111250000Y-138100000D03*
X81350000Y-144100000D03*
X81350000Y-138100000D03*
D15*
X178192449Y-41574529D03*
D16*
X173192449Y-41574529D03*
X168192449Y-41574529D03*
D28*
X96150000Y-144100000D03*
X96150000Y-138100000D03*
D15*
X119750000Y-41750000D03*
D16*
X114750000Y-41750000D03*
D15*
X56000000Y-76600000D03*
D16*
X56000000Y-81600000D03*
X56000000Y-86600000D03*
D15*
X182311340Y-141937638D03*
D16*
X187311340Y-141937638D03*
D15*
X110750000Y-140850000D03*
D16*
X115750000Y-140850000D03*
D15*
X59500000Y-59800000D03*
D16*
X59500000Y-64800000D03*
D29*
X126350000Y-131900000D03*
D30*
X128890000Y-131900000D03*
X131430000Y-131900000D03*
X133970000Y-131900000D03*
X136510000Y-131900000D03*
X139050000Y-131900000D03*
X141590000Y-131900000D03*
X144130000Y-131900000D03*
X146670000Y-131900000D03*
X149210000Y-131900000D03*
X151750000Y-131900000D03*
X154290000Y-131900000D03*
X156830000Y-131900000D03*
X159370000Y-131900000D03*
X161910000Y-131900000D03*
X164450000Y-131900000D03*
X166990000Y-131900000D03*
X169530000Y-131900000D03*
X172070000Y-131900000D03*
X174610000Y-131900000D03*
D15*
X214942449Y-41574529D03*
D16*
X209942449Y-41574529D03*
X204942449Y-41574529D03*
D31*
X61250000Y-136330000D03*
D32*
X61250000Y-137600000D03*
X62520000Y-136330000D03*
X62520000Y-137600000D03*
X63790000Y-136330000D03*
X63790000Y-137600000D03*
X65060000Y-136330000D03*
X65060000Y-137600000D03*
X66330000Y-136330000D03*
X66330000Y-137600000D03*
X67600000Y-136330000D03*
X67600000Y-137600000D03*
D15*
X230311340Y-141937638D03*
D16*
X235311340Y-141937638D03*
D33*
X198400000Y-60312500D03*
X198400000Y-55687500D03*
D34*
X202900000Y-96800000D03*
X202900000Y-95780000D03*
D35*
X81600000Y-126225000D03*
D36*
X81600000Y-128550000D03*
D34*
X218900000Y-96710000D03*
X218900000Y-95690000D03*
D37*
X76815000Y-100750000D03*
X79765000Y-100750000D03*
D34*
X79400000Y-125610000D03*
X79400000Y-124590000D03*
X206000000Y-119010000D03*
X206000000Y-117990000D03*
D35*
X99500000Y-127600000D03*
D36*
X99500000Y-125275000D03*
D38*
X95850000Y-132937500D03*
X93950000Y-132937500D03*
X94900000Y-131062500D03*
D39*
X200332500Y-130610000D03*
X199312500Y-130610000D03*
D33*
X228800000Y-60612500D03*
X228800000Y-55987500D03*
D35*
X96400000Y-126225000D03*
D36*
X96400000Y-128550000D03*
D40*
X77812500Y-83900000D03*
X73187500Y-83900000D03*
D34*
X73290000Y-113250000D03*
X73290000Y-112230000D03*
X202600000Y-127610000D03*
X202600000Y-126590000D03*
D41*
X203000000Y-135890000D03*
X203000000Y-136910000D03*
D34*
X109300000Y-125610000D03*
X109300000Y-124590000D03*
D33*
X216700000Y-60512500D03*
X216700000Y-55887500D03*
D34*
X211800000Y-96610000D03*
X211800000Y-95590000D03*
D35*
X84700000Y-127600000D03*
D36*
X84700000Y-125275000D03*
D39*
X205210000Y-127000000D03*
X204190000Y-127000000D03*
X119197080Y-111121330D03*
X118177080Y-111121330D03*
D34*
X221250000Y-96710000D03*
X221250000Y-95690000D03*
X101000000Y-113700000D03*
X101000000Y-112680000D03*
D42*
X125562080Y-107405000D03*
X125562080Y-108675000D03*
X119187080Y-108675000D03*
X119187080Y-107405000D03*
D34*
X208500000Y-119000000D03*
X208500000Y-117980000D03*
D43*
X83462500Y-132850000D03*
X83462500Y-130950000D03*
X85337500Y-131900000D03*
D39*
X119197080Y-105675000D03*
X118177080Y-105675000D03*
D34*
X94200000Y-125610000D03*
X94200000Y-124590000D03*
X203500000Y-119000000D03*
X203500000Y-117980000D03*
D39*
X112610000Y-134900000D03*
X111590000Y-134900000D03*
X119235770Y-103651750D03*
X118215770Y-103651750D03*
D34*
X201300000Y-128010000D03*
X201300000Y-126990000D03*
X236400000Y-96710000D03*
X236400000Y-95690000D03*
D33*
X179900000Y-60412500D03*
X179900000Y-55787500D03*
D41*
X63290000Y-112240000D03*
X63290000Y-113260000D03*
D38*
X110950000Y-132937500D03*
X109050000Y-132937500D03*
X110000000Y-131062500D03*
D34*
X223750000Y-96710000D03*
X223750000Y-95690000D03*
D35*
X111500000Y-126225000D03*
D36*
X111500000Y-128550000D03*
D44*
X94200000Y-128220000D03*
X94200000Y-129180000D03*
D34*
X223750000Y-119000000D03*
X223750000Y-117980000D03*
D33*
X192100000Y-60412500D03*
X192100000Y-55787500D03*
D34*
X98500000Y-113450000D03*
X98500000Y-112430000D03*
X205900000Y-96800000D03*
X205900000Y-95780000D03*
D33*
X173700000Y-60512500D03*
X173700000Y-55887500D03*
D34*
X70540000Y-113250000D03*
X70540000Y-112230000D03*
D33*
X235100000Y-60512500D03*
X235100000Y-55887500D03*
D42*
X125562080Y-112851330D03*
X125562080Y-114121330D03*
X119187080Y-114121330D03*
X119187080Y-112851330D03*
D39*
X97510000Y-134900000D03*
X96490000Y-134900000D03*
D43*
X98262500Y-132850000D03*
X98262500Y-130950000D03*
X100137500Y-131900000D03*
X113362500Y-132850000D03*
X113362500Y-130950000D03*
X115237500Y-131900000D03*
D45*
X206880000Y-135600000D03*
X205920000Y-135600000D03*
D39*
X198400000Y-96500000D03*
X197380000Y-96500000D03*
D46*
X119288270Y-101786750D03*
X119288270Y-100516750D03*
X125663270Y-100516750D03*
X125663270Y-101786750D03*
D34*
X85800000Y-113120000D03*
X85800000Y-112100000D03*
D47*
X199480000Y-95100000D03*
X200500000Y-95100000D03*
D44*
X109300000Y-128220000D03*
X109300000Y-129180000D03*
X79400000Y-128220000D03*
X79400000Y-129180000D03*
D35*
X114600000Y-127600000D03*
D36*
X114600000Y-125275000D03*
D40*
X77712500Y-77600000D03*
X73087500Y-77600000D03*
D48*
X244100000Y-96580000D03*
X244100000Y-95620000D03*
D44*
X73040000Y-100020000D03*
X73040000Y-100980000D03*
D34*
X65540000Y-113260000D03*
X65540000Y-112240000D03*
D39*
X126697080Y-105675000D03*
X125677080Y-105675000D03*
D34*
X88400000Y-113120000D03*
X88400000Y-112100000D03*
D33*
X210200000Y-60512500D03*
X210200000Y-55887500D03*
D39*
X126697080Y-111121330D03*
X125677080Y-111121330D03*
X82710000Y-134900000D03*
X81690000Y-134900000D03*
D38*
X81050000Y-132937500D03*
X79150000Y-132937500D03*
X80100000Y-131062500D03*
%LPD*%
M02*
